<?xml version="1.0" encoding="UTF-8" standalone="no"?>
<!DOCTYPE svg PUBLIC "-//W3C//DTD SVG 1.1//EN"
 "http://www.w3.org/Graphics/SVG/1.1/DTD/svg11.dtd">
<!-- Generated by graphviz version 2.38.0 (20140413.2041)
 -->
<!-- Title: et_util.read_d_rad Pages: 1 -->
<svg width="576pt" height="66pt"
 viewBox="0.00 0.00 576.00 66.00" xmlns="http://www.w3.org/2000/svg" xmlns:xlink="http://www.w3.org/1999/xlink">
<g id="graph0" class="graph" transform="scale(1 1) rotate(0) translate(4 62)">
<title>et_util.read_d_rad</title>
<polygon fill="white" stroke="none" points="-4,4 -4,-62 572,-62 572,4 -4,4"/>
<!-- Node1 -->
<g id="node1" class="node"><title>Node1</title>
<polygon fill="#bfbfbf" stroke="black" points="0,-0.5 0,-19.5 94,-19.5 94,-0.5 0,-0.5"/>
<text text-anchor="middle" x="47" y="-7.5" font-family="Helvetica,sans-Serif" font-size="10.00">et_util.read_d_rad</text>
</g>
<!-- Node2 -->
<g id="node2" class="node"><title>Node2</title>
<g id="a_node2"><a xlink:href="namespaceet__util.html#a8013dc0897f9430ae8f354ba094b9fbd" target="_top" xlink:title="et_util.get_df">
<polygon fill="white" stroke="black" points="130,-0.5 130,-19.5 202,-19.5 202,-0.5 130,-0.5"/>
<text text-anchor="middle" x="166" y="-7.5" font-family="Helvetica,sans-Serif" font-size="10.00">et_util.get_df</text>
</a>
</g>
</g>
<!-- Node1&#45;&gt;Node2 -->
<g id="edge1" class="edge"><title>Node1&#45;&gt;Node2</title>
<path fill="none" stroke="midnightblue" d="M104.387,-10C113.093,-10 121.862,-10 129.921,-10"/>
<polygon fill="midnightblue" stroke="midnightblue" points="104.242,-6.5001 94.2415,-10 104.241,-13.5001 104.242,-6.5001"/>
</g>
<!-- Node3 -->
<g id="node3" class="node"><title>Node3</title>
<g id="a_node3"><a xlink:href="namespaceet__util.html#afe6d9320f59488fc7e462d7c501e828d" target="_top" xlink:title="et_util.concat_df">
<polygon fill="white" stroke="black" points="238,-0.5 238,-19.5 326,-19.5 326,-0.5 238,-0.5"/>
<text text-anchor="middle" x="282" y="-7.5" font-family="Helvetica,sans-Serif" font-size="10.00">et_util.concat_df</text>
</a>
</g>
</g>
<!-- Node2&#45;&gt;Node3 -->
<g id="edge2" class="edge"><title>Node2&#45;&gt;Node3</title>
<path fill="none" stroke="midnightblue" d="M212.176,-10C220.597,-10 229.379,-10 237.741,-10"/>
<polygon fill="midnightblue" stroke="midnightblue" points="212.134,-6.5001 202.134,-10 212.134,-13.5001 212.134,-6.5001"/>
</g>
<!-- Node4 -->
<g id="node4" class="node"><title>Node4</title>
<g id="a_node4"><a xlink:href="namespaceet__util.html#ad14756ce8dfea7ab6da605eb2a34af45" target="_top" xlink:title="et_util.inventory">
<polygon fill="white" stroke="black" points="362,-19.5 362,-38.5 446,-38.5 446,-19.5 362,-19.5"/>
<text text-anchor="middle" x="404" y="-26.5" font-family="Helvetica,sans-Serif" font-size="10.00">et_util.inventory</text>
</a>
</g>
</g>
<!-- Node3&#45;&gt;Node4 -->
<g id="edge3" class="edge"><title>Node3&#45;&gt;Node4</title>
<path fill="none" stroke="midnightblue" d="M336.236,-18.429C344.789,-19.7832 353.527,-21.1668 361.745,-22.4679"/>
<polygon fill="midnightblue" stroke="midnightblue" points="336.747,-14.9664 326.323,-16.8594 335.652,-21.8803 336.747,-14.9664"/>
</g>
<!-- Node5 -->
<g id="node5" class="node"><title>Node5</title>
<g id="a_node5"><a xlink:href="namespaceet__util.html#a164b6705ccf94cb947d6bd11c7c19021" target="_top" xlink:title="et_util.startup">
<polygon fill="white" stroke="black" points="487,-38.5 487,-57.5 563,-57.5 563,-38.5 487,-38.5"/>
<text text-anchor="middle" x="525" y="-45.5" font-family="Helvetica,sans-Serif" font-size="10.00">et_util.startup</text>
</a>
</g>
</g>
<!-- Node4&#45;&gt;Node5 -->
<g id="edge4" class="edge"><title>Node4&#45;&gt;Node5</title>
<path fill="none" stroke="midnightblue" d="M456.355,-37.1996C466.579,-38.8319 477.129,-40.5164 486.768,-42.0555"/>
<polygon fill="midnightblue" stroke="midnightblue" points="456.713,-33.7125 446.286,-35.592 455.61,-40.6249 456.713,-33.7125"/>
</g>
<!-- Node6 -->
<g id="node6" class="node"><title>Node6</title>
<g id="a_node6"><a xlink:href="namespaceet__util.html#a7d463c3690915efb78c87700565efc77" target="_top" xlink:title="et_util.clean_file">
<polygon fill="white" stroke="black" points="482,-0.5 482,-19.5 568,-19.5 568,-0.5 482,-0.5"/>
<text text-anchor="middle" x="525" y="-7.5" font-family="Helvetica,sans-Serif" font-size="10.00">et_util.clean_file</text>
</a>
</g>
</g>
<!-- Node4&#45;&gt;Node6 -->
<g id="edge5" class="edge"><title>Node4&#45;&gt;Node6</title>
<path fill="none" stroke="midnightblue" d="M439.679,-17.2647C452.776,-14.5567 467.829,-12.0538 481.558,-10.2793"/>
<polygon fill="midnightblue" stroke="midnightblue" points="438.671,-13.9028 429.657,-19.4705 440.175,-20.7392 438.671,-13.9028"/>
</g>
<!-- Node6&#45;&gt;Node3 -->
<g id="edge7" class="edge"><title>Node6&#45;&gt;Node3</title>
<path fill="none" stroke="midnightblue" d="M471.577,-10C428.028,-10 366.822,-10 326.086,-10"/>
<polygon fill="midnightblue" stroke="midnightblue" points="471.691,-13.5001 481.691,-10 471.691,-6.5001 471.691,-13.5001"/>
</g>
<!-- Node6&#45;&gt;Node4 -->
<g id="edge6" class="edge"><title>Node6&#45;&gt;Node4</title>
<path fill="none" stroke="midnightblue" d="M489.569,-21.6839C476.046,-24.4879 460.409,-27.076 446.286,-28.8687"/>
<polygon fill="midnightblue" stroke="midnightblue" points="490.426,-25.079 499.438,-19.5072 488.919,-18.2433 490.426,-25.079"/>
</g>
</g>
</svg>
