<?xml version="1.0" encoding="UTF-8" standalone="no"?>
<!DOCTYPE svg PUBLIC "-//W3C//DTD SVG 1.1//EN"
 "http://www.w3.org/Graphics/SVG/1.1/DTD/svg11.dtd">
<!-- Generated by graphviz version 2.38.0 (20140413.2041)
 -->
<!-- Title: et_util.concat_df Pages: 1 -->
<svg width="527pt" height="332pt"
 viewBox="0.00 0.00 527.00 332.00" xmlns="http://www.w3.org/2000/svg" xmlns:xlink="http://www.w3.org/1999/xlink">
<g id="graph0" class="graph" transform="scale(1 1) rotate(0) translate(4 328)">
<title>et_util.concat_df</title>
<polygon fill="white" stroke="none" points="-4,4 -4,-328 523,-328 523,4 -4,4"/>
<!-- Node1 -->
<g id="node1" class="node"><title>Node1</title>
<polygon fill="#bfbfbf" stroke="black" points="0,-228.5 0,-247.5 88,-247.5 88,-228.5 0,-228.5"/>
<text text-anchor="middle" x="44" y="-235.5" font-family="Helvetica,sans-Serif" font-size="10.00">et_util.concat_df</text>
</g>
<!-- Node2 -->
<g id="node2" class="node"><title>Node2</title>
<g id="a_node2"><a xlink:href="namespaceet__util.html#a7d463c3690915efb78c87700565efc77" target="_top" xlink:title="et_util.clean_file">
<polygon fill="white" stroke="black" points="124,-266.5 124,-285.5 210,-285.5 210,-266.5 124,-266.5"/>
<text text-anchor="middle" x="167" y="-273.5" font-family="Helvetica,sans-Serif" font-size="10.00">et_util.clean_file</text>
</a>
</g>
</g>
<!-- Node1&#45;&gt;Node2 -->
<g id="edge1" class="edge"><title>Node1&#45;&gt;Node2</title>
<path fill="none" stroke="midnightblue" d="M75.5334,-247.589C90.7234,-252.359 109.285,-258.189 125.633,-263.323"/>
<polygon fill="midnightblue" stroke="midnightblue" points="124.887,-266.757 135.476,-266.414 126.984,-260.079 124.887,-266.757"/>
</g>
<!-- Node7 -->
<g id="node7" class="node"><title>Node7</title>
<g id="a_node7"><a xlink:href="namespaceet__util.html#a8013dc0897f9430ae8f354ba094b9fbd" target="_top" xlink:title="et_util.get_df">
<polygon fill="white" stroke="black" points="131,-133.5 131,-152.5 203,-152.5 203,-133.5 131,-133.5"/>
<text text-anchor="middle" x="167" y="-140.5" font-family="Helvetica,sans-Serif" font-size="10.00">et_util.get_df</text>
</a>
</g>
</g>
<!-- Node1&#45;&gt;Node7 -->
<g id="edge8" class="edge"><title>Node1&#45;&gt;Node7</title>
<path fill="none" stroke="midnightblue" d="M57.4934,-228.191C78.3424,-211.822 120.42,-178.786 145.611,-159.008"/>
<polygon fill="midnightblue" stroke="midnightblue" points="148.051,-161.542 153.755,-152.614 143.728,-156.036 148.051,-161.542"/>
</g>
<!-- Node3 -->
<g id="node3" class="node"><title>Node3</title>
<g id="a_node3"><a xlink:href="namespaceet__util.html#ad14756ce8dfea7ab6da605eb2a34af45" target="_top" xlink:title="et_util.inventory">
<polygon fill="white" stroke="black" points="252.5,-266.5 252.5,-285.5 336.5,-285.5 336.5,-266.5 252.5,-266.5"/>
<text text-anchor="middle" x="294.5" y="-273.5" font-family="Helvetica,sans-Serif" font-size="10.00">et_util.inventory</text>
</a>
</g>
</g>
<!-- Node2&#45;&gt;Node3 -->
<g id="edge2" class="edge"><title>Node2&#45;&gt;Node3</title>
<path fill="none" stroke="midnightblue" d="M210.139,-269.585C220.392,-269.24 231.471,-269.162 242.1,-269.349"/>
<polygon fill="midnightblue" stroke="midnightblue" points="242.024,-272.848 252.112,-269.61 242.207,-265.851 242.024,-272.848"/>
</g>
<!-- Node3&#45;&gt;Node1 -->
<g id="edge6" class="edge"><title>Node3&#45;&gt;Node1</title>
<path fill="none" stroke="midnightblue" d="M255.432,-266.417C241.24,-263.088 224.948,-259.553 210,-257 172.939,-250.669 130.827,-245.858 98.423,-242.661"/>
<polygon fill="midnightblue" stroke="midnightblue" points="98.5522,-239.158 88.2621,-241.68 97.8794,-246.125 98.5522,-239.158"/>
</g>
<!-- Node3&#45;&gt;Node2 -->
<g id="edge4" class="edge"><title>Node3&#45;&gt;Node2</title>
<path fill="none" stroke="midnightblue" d="M252.112,-282.39C241.9,-282.747 230.831,-282.839 220.18,-282.664"/>
<polygon fill="midnightblue" stroke="midnightblue" points="220.222,-279.164 210.139,-282.415 220.049,-286.162 220.222,-279.164"/>
</g>
<!-- Node4 -->
<g id="node4" class="node"><title>Node4</title>
<g id="a_node4"><a xlink:href="namespaceet__util.html#af15d3c41901948dbb10f0c796cb6ed5b" target="_top" xlink:title="et_util.read_CRthousand_file">
<polygon fill="white" stroke="black" points="379,-304.5 379,-323.5 519,-323.5 519,-304.5 379,-304.5"/>
<text text-anchor="middle" x="449" y="-311.5" font-family="Helvetica,sans-Serif" font-size="10.00">et_util.read_CRthousand_file</text>
</a>
</g>
</g>
<!-- Node3&#45;&gt;Node4 -->
<g id="edge3" class="edge"><title>Node3&#45;&gt;Node4</title>
<path fill="none" stroke="midnightblue" d="M333.982,-285.589C354.016,-290.581 378.702,-296.732 399.976,-302.033"/>
<polygon fill="midnightblue" stroke="midnightblue" points="399.245,-305.458 409.795,-304.48 400.938,-298.666 399.245,-305.458"/>
</g>
<!-- Node5 -->
<g id="node5" class="node"><title>Node5</title>
<g id="a_node5"><a xlink:href="namespaceet__util.html#a566ff749c2a2c113c58d24649251bd5b" target="_top" xlink:title="et_util.read_CRtenX_file">
<polygon fill="white" stroke="black" points="389.5,-266.5 389.5,-285.5 508.5,-285.5 508.5,-266.5 389.5,-266.5"/>
<text text-anchor="middle" x="449" y="-273.5" font-family="Helvetica,sans-Serif" font-size="10.00">et_util.read_CRtenX_file</text>
</a>
</g>
</g>
<!-- Node3&#45;&gt;Node5 -->
<g id="edge5" class="edge"><title>Node3&#45;&gt;Node5</title>
<path fill="none" stroke="midnightblue" d="M336.769,-276C349.758,-276 364.477,-276 378.856,-276"/>
<polygon fill="midnightblue" stroke="midnightblue" points="379.236,-279.5 389.236,-276 379.236,-272.5 379.236,-279.5"/>
</g>
<!-- Node6 -->
<g id="node6" class="node"><title>Node6</title>
<g id="a_node6"><a xlink:href="namespaceet__util.html#a15aa7ba554d08be6cbf6a674accfa16e" target="_top" xlink:title="et_util.echo_description">
<polygon fill="white" stroke="black" points="389.5,-228.5 389.5,-247.5 508.5,-247.5 508.5,-228.5 389.5,-228.5"/>
<text text-anchor="middle" x="449" y="-235.5" font-family="Helvetica,sans-Serif" font-size="10.00">et_util.echo_description</text>
</a>
</g>
</g>
<!-- Node3&#45;&gt;Node6 -->
<g id="edge7" class="edge"><title>Node3&#45;&gt;Node6</title>
<path fill="none" stroke="midnightblue" d="M333.982,-266.411C354.016,-261.419 378.702,-255.268 399.976,-249.967"/>
<polygon fill="midnightblue" stroke="midnightblue" points="400.938,-253.334 409.795,-247.52 399.245,-246.542 400.938,-253.334"/>
</g>
<!-- Node7&#45;&gt;Node6 -->
<g id="edge15" class="edge"><title>Node7&#45;&gt;Node6</title>
<path fill="none" stroke="midnightblue" d="M174.378,-152.544C186.222,-169.362 213.394,-203.924 246,-219 287.411,-238.148 338.628,-242.783 379.127,-242.69"/>
<polygon fill="midnightblue" stroke="midnightblue" points="379.222,-246.19 389.179,-242.571 379.139,-239.19 379.222,-246.19"/>
</g>
<!-- Node8 -->
<g id="node8" class="node"><title>Node8</title>
<g id="a_node8"><a xlink:href="namespaceet__util.html#a7535fb2ada235d852a05717bdd6d67a9" target="_top" xlink:title="et_util.read_s_ec">
<polygon fill="white" stroke="black" points="249,-190.5 249,-209.5 340,-209.5 340,-190.5 249,-190.5"/>
<text text-anchor="middle" x="294.5" y="-197.5" font-family="Helvetica,sans-Serif" font-size="10.00">et_util.read_s_ec</text>
</a>
</g>
</g>
<!-- Node7&#45;&gt;Node8 -->
<g id="edge9" class="edge"><title>Node7&#45;&gt;Node8</title>
<path fill="none" stroke="midnightblue" d="M186.733,-152.603C202.422,-160.529 225.478,-171.911 246,-181 250.225,-182.871 254.695,-184.767 259.136,-186.6"/>
<polygon fill="midnightblue" stroke="midnightblue" points="258.122,-189.965 268.704,-190.477 260.751,-183.477 258.122,-189.965"/>
</g>
<!-- Node9 -->
<g id="node9" class="node"><title>Node9</title>
<g id="a_node9"><a xlink:href="namespaceet__util.html#a5cfb9371164d33036c4d3ec9f7a80e88" target="_top" xlink:title="et_util.read_s_met">
<polygon fill="white" stroke="black" points="246,-152.5 246,-171.5 343,-171.5 343,-152.5 246,-152.5"/>
<text text-anchor="middle" x="294.5" y="-159.5" font-family="Helvetica,sans-Serif" font-size="10.00">et_util.read_s_met</text>
</a>
</g>
</g>
<!-- Node7&#45;&gt;Node9 -->
<g id="edge10" class="edge"><title>Node7&#45;&gt;Node9</title>
<path fill="none" stroke="midnightblue" d="M203.293,-148.343C213.395,-149.873 224.68,-151.581 235.756,-153.258"/>
<polygon fill="midnightblue" stroke="midnightblue" points="235.417,-156.746 245.829,-154.783 236.465,-149.825 235.417,-156.746"/>
</g>
<!-- Node10 -->
<g id="node10" class="node"><title>Node10</title>
<g id="a_node10"><a xlink:href="namespaceet__util.html#a37255b034ed791b14cb66dc5df649a3f" target="_top" xlink:title="et_util.read_s_rad">
<polygon fill="white" stroke="black" points="247.5,-114.5 247.5,-133.5 341.5,-133.5 341.5,-114.5 247.5,-114.5"/>
<text text-anchor="middle" x="294.5" y="-121.5" font-family="Helvetica,sans-Serif" font-size="10.00">et_util.read_s_rad</text>
</a>
</g>
</g>
<!-- Node7&#45;&gt;Node10 -->
<g id="edge11" class="edge"><title>Node7&#45;&gt;Node10</title>
<path fill="none" stroke="midnightblue" d="M203.293,-137.657C213.835,-136.061 225.664,-134.27 237.2,-132.523"/>
<polygon fill="midnightblue" stroke="midnightblue" points="237.859,-135.964 247.222,-131.006 236.811,-129.043 237.859,-135.964"/>
</g>
<!-- Node11 -->
<g id="node11" class="node"><title>Node11</title>
<g id="a_node11"><a xlink:href="namespaceet__util.html#a5cda9dc3d34bdd80d01b977e805f4b04" target="_top" xlink:title="et_util.read_d_ec">
<polygon fill="white" stroke="black" points="249,-76.5 249,-95.5 340,-95.5 340,-76.5 249,-76.5"/>
<text text-anchor="middle" x="294.5" y="-83.5" font-family="Helvetica,sans-Serif" font-size="10.00">et_util.read_d_ec</text>
</a>
</g>
</g>
<!-- Node7&#45;&gt;Node11 -->
<g id="edge12" class="edge"><title>Node7&#45;&gt;Node11</title>
<path fill="none" stroke="midnightblue" d="M186.733,-133.397C202.422,-125.471 225.478,-114.089 246,-105 250.225,-103.129 254.695,-101.233 259.136,-99.4005"/>
<polygon fill="midnightblue" stroke="midnightblue" points="260.751,-102.523 268.704,-95.523 258.122,-96.0351 260.751,-102.523"/>
</g>
<!-- Node12 -->
<g id="node12" class="node"><title>Node12</title>
<g id="a_node12"><a xlink:href="namespaceet__util.html#aa20b5ae88dbfb272ae5e7f53f4678358" target="_top" xlink:title="et_util.read_d_met">
<polygon fill="white" stroke="black" points="246,-38.5 246,-57.5 343,-57.5 343,-38.5 246,-38.5"/>
<text text-anchor="middle" x="294.5" y="-45.5" font-family="Helvetica,sans-Serif" font-size="10.00">et_util.read_d_met</text>
</a>
</g>
</g>
<!-- Node7&#45;&gt;Node12 -->
<g id="edge13" class="edge"><title>Node7&#45;&gt;Node12</title>
<path fill="none" stroke="midnightblue" d="M175.693,-133.36C188.7,-117.602 216.516,-86.168 246,-67 248.918,-65.1029 252.056,-63.3414 255.278,-61.7184"/>
<polygon fill="midnightblue" stroke="midnightblue" points="256.83,-64.8571 264.467,-57.5137 253.918,-58.4918 256.83,-64.8571"/>
</g>
<!-- Node13 -->
<g id="node13" class="node"><title>Node13</title>
<g id="a_node13"><a xlink:href="namespaceet__util.html#a76d5a5c19f0e86b9ab70c0957827c260" target="_top" xlink:title="et_util.read_d_rad">
<polygon fill="white" stroke="black" points="247.5,-0.5 247.5,-19.5 341.5,-19.5 341.5,-0.5 247.5,-0.5"/>
<text text-anchor="middle" x="294.5" y="-7.5" font-family="Helvetica,sans-Serif" font-size="10.00">et_util.read_d_rad</text>
</a>
</g>
</g>
<!-- Node7&#45;&gt;Node13 -->
<g id="edge14" class="edge"><title>Node7&#45;&gt;Node13</title>
<path fill="none" stroke="midnightblue" d="M172.192,-133.327C182.019,-111.703 208.575,-58.9947 246,-29 248.062,-27.3475 250.286,-25.8225 252.607,-24.4177"/>
<polygon fill="midnightblue" stroke="midnightblue" points="254.646,-27.3022 261.899,-19.5794 251.413,-21.0934 254.646,-27.3022"/>
</g>
</g>
</svg>
