<?xml version="1.0" encoding="UTF-8" standalone="no"?>
<!DOCTYPE svg PUBLIC "-//W3C//DTD SVG 1.1//EN"
 "http://www.w3.org/Graphics/SVG/1.1/DTD/svg11.dtd">
<!-- Generated by graphviz version 2.38.0 (20140413.2041)
 -->
<!-- Title: et_util.impute_master Pages: 1 -->
<svg width="259pt" height="116pt"
 viewBox="0.00 0.00 259.00 115.50" xmlns="http://www.w3.org/2000/svg" xmlns:xlink="http://www.w3.org/1999/xlink">
<g id="graph0" class="graph" transform="scale(1 1) rotate(0) translate(4 111.5)">
<title>et_util.impute_master</title>
<polygon fill="white" stroke="none" points="-4,4 -4,-111.5 255,-111.5 255,4 -4,4"/>
<!-- Node1 -->
<g id="node1" class="node"><title>Node1</title>
<polygon fill="#bfbfbf" stroke="black" points="0,-38.5 0,-57.5 110,-57.5 110,-38.5 0,-38.5"/>
<text text-anchor="middle" x="55" y="-45.5" font-family="Helvetica,sans-Serif" font-size="10.00">et_util.impute_master</text>
</g>
<!-- Node2 -->
<g id="node2" class="node"><title>Node2</title>
<g id="a_node2"><a xlink:href="namespaceet__util.html#a9d53464743ec890e7b0a9d367d09a6ad" target="_top" xlink:title="et_util.pad_missing\l_with_nulls">
<polygon fill="white" stroke="black" points="148,-77 148,-107 249,-107 249,-77 148,-77"/>
<text text-anchor="start" x="156" y="-95" font-family="Helvetica,sans-Serif" font-size="10.00">et_util.pad_missing</text>
<text text-anchor="middle" x="198.5" y="-84" font-family="Helvetica,sans-Serif" font-size="10.00">_with_nulls</text>
</a>
</g>
</g>
<!-- Node1&#45;&gt;Node2 -->
<g id="edge1" class="edge"><title>Node1&#45;&gt;Node2</title>
<path fill="none" stroke="midnightblue" d="M86.7034,-57.5473C102.066,-62.3243 121.184,-68.2692 139.192,-73.8689"/>
<polygon fill="midnightblue" stroke="midnightblue" points="138.463,-77.3074 149.051,-76.9346 140.541,-70.6231 138.463,-77.3074"/>
</g>
<!-- Node3 -->
<g id="node3" class="node"><title>Node3</title>
<g id="a_node3"><a xlink:href="namespaceet__util.html#a86bdf627c5eafcab2d20a7d1ce75a1ed" target="_top" xlink:title="et_util.gap_expand">
<polygon fill="white" stroke="black" points="149.5,-38.5 149.5,-57.5 247.5,-57.5 247.5,-38.5 149.5,-38.5"/>
<text text-anchor="middle" x="198.5" y="-45.5" font-family="Helvetica,sans-Serif" font-size="10.00">et_util.gap_expand</text>
</a>
</g>
</g>
<!-- Node1&#45;&gt;Node3 -->
<g id="edge2" class="edge"><title>Node1&#45;&gt;Node3</title>
<path fill="none" stroke="midnightblue" d="M110.303,-48C119.689,-48 129.485,-48 138.977,-48"/>
<polygon fill="midnightblue" stroke="midnightblue" points="139.125,-51.5001 149.125,-48 139.125,-44.5001 139.125,-51.5001"/>
</g>
<!-- Node4 -->
<g id="node4" class="node"><title>Node4</title>
<g id="a_node4"><a xlink:href="namespaceet__util.html#ad991b40a8a99a7e5384f3bdfb1258af5" target="_top" xlink:title="et_util.impute_strata">
<polygon fill="white" stroke="black" points="146,-0.5 146,-19.5 251,-19.5 251,-0.5 146,-0.5"/>
<text text-anchor="middle" x="198.5" y="-7.5" font-family="Helvetica,sans-Serif" font-size="10.00">et_util.impute_strata</text>
</a>
</g>
</g>
<!-- Node1&#45;&gt;Node4 -->
<g id="edge3" class="edge"><title>Node1&#45;&gt;Node4</title>
<path fill="none" stroke="midnightblue" d="M91.7064,-38.411C109.973,-33.5056 132.408,-27.4804 151.911,-22.2429"/>
<polygon fill="midnightblue" stroke="midnightblue" points="153.055,-25.5599 161.805,-19.5859 151.239,-18.7994 153.055,-25.5599"/>
</g>
</g>
</svg>
