<?xml version="1.0" encoding="UTF-8" standalone="no"?>
<!DOCTYPE svg PUBLIC "-//W3C//DTD SVG 1.1//EN"
 "http://www.w3.org/Graphics/SVG/1.1/DTD/svg11.dtd">
<!-- Generated by graphviz version 2.38.0 (20140413.2041)
 -->
<!-- Title: et_util.startup Pages: 1 -->
<!--zoomable 503 -->
<svg id="main" version="1.1" xmlns="http://www.w3.org/2000/svg" xmlns:xlink="http://www.w3.org/1999/xlink" xml:space="preserve" onload="init(evt)">
<style type="text/css"><![CDATA[
.edge:hover path { stroke: red; }
.edge:hover polygon { stroke: red; fill: red; }
]]></style>
<script type="text/javascript"><![CDATA[
var edges = document.getElementsByTagName('g');
if (edges && edges.length) {
  for (var i=0;i<edges.length;i++) {
    if (edges[i].id.substr(0,4)=='edge') {
      edges[i].setAttribute('class','edge');
    }
  }
}
]]></script>
        <defs>
                <circle id="rim" cx="0" cy="0" r="7"/>
                <circle id="rim2" cx="0" cy="0" r="3.5"/>
                <g id="zoomPlus">
                        <use xlink:href="#rim" fill="#404040">
                                <set attributeName="fill" to="#808080" begin="zoomplus.mouseover" end="zoomplus.mouseout"/>
                        </use>
                        <path d="M-4,0h8M0,-4v8" fill="none" stroke="white" stroke-width="1.5" pointer-events="none"/>
                </g>
                <g id="zoomMin">
                        <use xlink:href="#rim" fill="#404040">
                                <set attributeName="fill" to="#808080" begin="zoomminus.mouseover" end="zoomminus.mouseout"/>
                        </use>
                        <path d="M-4,0h8" fill="none" stroke="white" stroke-width="1.5" pointer-events="none"/>
                </g>
                <g id="dirArrow">
                        <path fill="none" stroke="white" stroke-width="1.5" d="M0,-3.0v7 M-2.5,-0.5L0,-3.0L2.5,-0.5"/>
                </g>
               <g id="resetDef">
                       <use xlink:href="#rim2" fill="#404040">
                               <set attributeName="fill" to="#808080" begin="reset.mouseover" end="reset.mouseout"/>
                       </use>
               </g>
        </defs>

<script type="text/javascript">
var viewWidth = 685;
var viewHeight = 503;
var sectionId = 'dynsection-38';
</script>
<script xlink:href="svgpan.js"/>
<svg id="graph" class="graph">
<g id="viewport">
<title>et_util.startup</title>
<polygon fill="white" stroke="none" points="-4,4 -4,-499.005 681,-499.005 681,4 -4,4"/>
<!-- Node1 -->
<g id="node1" class="node"><title>Node1</title>
<polygon fill="#bfbfbf" stroke="black" points="0,-183.5 0,-202.5 76,-202.5 76,-183.5 0,-183.5"/>
<text text-anchor="middle" x="38" y="-190.5" font-family="Helvetica,sans-Serif" font-size="10.00">et_util.startup</text>
</g>
<!-- Node2 -->
<g id="node2" class="node"><title>Node2</title>
<g id="a_node2"><a xlink:href="namespaceet__util.html#ad79d083c0b67b0c0aa1c3f9f247bf856" target="_top" xlink:title="et_util.confirm_rebuild">
<polygon fill="white" stroke="black" points="112,-363.5 112,-382.5 223,-382.5 223,-363.5 112,-363.5"/>
<text text-anchor="middle" x="167.5" y="-370.5" font-family="Helvetica,sans-Serif" font-size="10.00">et_util.confirm_rebuild</text>
</a>
</g>
</g>
<!-- Node1&#45;&gt;Node2 -->
<g id="edge1" class="edge"><title>Node1&#45;&gt;Node2</title>
<path fill="none" stroke="midnightblue" d="M40.615,-202.516C45.7775,-230.039 64.4179,-310.529 112,-354 113.713,-355.565 115.562,-357.002 117.509,-358.322"/>
<polygon fill="midnightblue" stroke="midnightblue" points="116.112,-361.552 126.547,-363.39 119.536,-355.446 116.112,-361.552"/>
</g>
<!-- Node3 -->
<g id="node3" class="node"><title>Node3</title>
<g id="a_node3"><a xlink:href="namespaceet__util.html#ad14756ce8dfea7ab6da605eb2a34af45" target="_top" xlink:title="et_util.inventory">
<polygon fill="white" stroke="black" points="125.5,-325.5 125.5,-344.5 209.5,-344.5 209.5,-325.5 125.5,-325.5"/>
<text text-anchor="middle" x="167.5" y="-332.5" font-family="Helvetica,sans-Serif" font-size="10.00">et_util.inventory</text>
</a>
</g>
</g>
<!-- Node1&#45;&gt;Node3 -->
<g id="edge2" class="edge"><title>Node1&#45;&gt;Node3</title>
<path fill="none" stroke="midnightblue" d="M43.0991,-202.759C52.4798,-224.103 77.3973,-275.537 112,-307 117.977,-312.434 125.203,-317.108 132.412,-320.995"/>
<polygon fill="midnightblue" stroke="midnightblue" points="130.927,-324.166 141.438,-325.495 134.05,-317.901 130.927,-324.166"/>
</g>
<!-- Node16 -->
<g id="node16" class="node"><title>Node16</title>
<g id="a_node16"><a xlink:href="namespaceet__util.html#a41b39b3c70ba9961221c284cc738122e" target="_top" xlink:title="et_util.write_raw">
<polygon fill="white" stroke="black" points="124.5,-278.5 124.5,-297.5 210.5,-297.5 210.5,-278.5 124.5,-278.5"/>
<text text-anchor="middle" x="167.5" y="-285.5" font-family="Helvetica,sans-Serif" font-size="10.00">et_util.write_raw</text>
</a>
</g>
</g>
<!-- Node1&#45;&gt;Node16 -->
<g id="edge18" class="edge"><title>Node1&#45;&gt;Node16</title>
<path fill="none" stroke="midnightblue" d="M47.0847,-202.859C59.6791,-217.716 85.32,-246.014 112,-264 117.702,-267.844 124.12,-271.311 130.498,-274.337"/>
<polygon fill="midnightblue" stroke="midnightblue" points="129.165,-277.575 139.724,-278.447 132.014,-271.18 129.165,-277.575"/>
</g>
<!-- Node17 -->
<g id="node17" class="node"><title>Node17</title>
<g id="a_node17"><a xlink:href="namespaceet__util.html#adf3e6bef75b663226a9c118684f91689" target="_top" xlink:title="et_util.read_files">
<polygon fill="white" stroke="black" points="435,-240.5 435,-259.5 522,-259.5 522,-240.5 435,-240.5"/>
<text text-anchor="middle" x="478.5" y="-247.5" font-family="Helvetica,sans-Serif" font-size="10.00">et_util.read_files</text>
</a>
</g>
</g>
<!-- Node1&#45;&gt;Node17 -->
<g id="edge19" class="edge"><title>Node1&#45;&gt;Node17</title>
<path fill="none" stroke="midnightblue" d="M53.0587,-202.661C67.2291,-211.817 90.0809,-225.029 112,-231 220.101,-260.446 352.687,-258.342 424.742,-254.181"/>
<polygon fill="midnightblue" stroke="midnightblue" points="425.158,-257.662 434.924,-253.555 424.729,-250.675 425.158,-257.662"/>
</g>
<!-- Node18 -->
<g id="node18" class="node"><title>Node18</title>
<g id="a_node18"><a xlink:href="namespaceet__util.html#a241e2fa8182c03412e519a4c6431d29b" target="_top" xlink:title="et_util.met_filter">
<polygon fill="white" stroke="black" points="124.5,-202.5 124.5,-221.5 210.5,-221.5 210.5,-202.5 124.5,-202.5"/>
<text text-anchor="middle" x="167.5" y="-209.5" font-family="Helvetica,sans-Serif" font-size="10.00">et_util.met_filter</text>
</a>
</g>
</g>
<!-- Node1&#45;&gt;Node18 -->
<g id="edge21" class="edge"><title>Node1&#45;&gt;Node18</title>
<path fill="none" stroke="midnightblue" d="M76.221,-198.547C88.0527,-200.31 101.368,-202.294 114.065,-204.186"/>
<polygon fill="midnightblue" stroke="midnightblue" points="113.668,-207.666 124.075,-205.678 114.7,-200.742 113.668,-207.666"/>
</g>
<!-- Node19 -->
<g id="node19" class="node"><title>Node19</title>
<g id="a_node19"><a xlink:href="namespaceet__util.html#ac2422e9d685033121b1c6739352cf345" target="_top" xlink:title="et_util.convert_precip">
<polygon fill="white" stroke="black" points="113.5,-164.5 113.5,-183.5 221.5,-183.5 221.5,-164.5 113.5,-164.5"/>
<text text-anchor="middle" x="167.5" y="-171.5" font-family="Helvetica,sans-Serif" font-size="10.00">et_util.convert_precip</text>
</a>
</g>
</g>
<!-- Node1&#45;&gt;Node19 -->
<g id="edge22" class="edge"><title>Node1&#45;&gt;Node19</title>
<path fill="none" stroke="midnightblue" d="M76.221,-187.453C84.7496,-186.182 94.0492,-184.797 103.332,-183.413"/>
<polygon fill="midnightblue" stroke="midnightblue" points="103.987,-186.854 113.362,-181.919 102.955,-179.931 103.987,-186.854"/>
</g>
<!-- Node20 -->
<g id="node20" class="node"><title>Node20</title>
<g id="a_node20"><a xlink:href="namespaceet__util.html#a51bdba14dfab7dd5e7884cec009abde7" target="_top" xlink:title="et_util.apply_edits">
<polygon fill="white" stroke="black" points="120,-126.5 120,-145.5 215,-145.5 215,-126.5 120,-126.5"/>
<text text-anchor="middle" x="167.5" y="-133.5" font-family="Helvetica,sans-Serif" font-size="10.00">et_util.apply_edits</text>
</a>
</g>
</g>
<!-- Node1&#45;&gt;Node20 -->
<g id="edge23" class="edge"><title>Node1&#45;&gt;Node20</title>
<path fill="none" stroke="midnightblue" d="M55.772,-183.383C70.3548,-175.238 92.1937,-163.554 112,-155 116.765,-152.942 121.833,-150.939 126.886,-149.053"/>
<polygon fill="midnightblue" stroke="midnightblue" points="128.281,-152.271 136.501,-145.587 125.907,-145.685 128.281,-152.271"/>
</g>
<!-- Node22 -->
<g id="node22" class="node"><title>Node22</title>
<g id="a_node22"><a xlink:href="namespaceet__util.html#a38dc0fbf4d56c116d7f8eb34a893abad" target="_top" xlink:title="et_util.select_dates">
<polygon fill="white" stroke="black" points="117,-88.5 117,-107.5 218,-107.5 218,-88.5 117,-88.5"/>
<text text-anchor="middle" x="167.5" y="-95.5" font-family="Helvetica,sans-Serif" font-size="10.00">et_util.select_dates</text>
</a>
</g>
</g>
<!-- Node1&#45;&gt;Node22 -->
<g id="edge25" class="edge"><title>Node1&#45;&gt;Node22</title>
<path fill="none" stroke="midnightblue" d="M45.7755,-183.439C57.5265,-167.512 83.2059,-135.476 112,-117 115.136,-114.988 118.511,-113.159 121.99,-111.503"/>
<polygon fill="midnightblue" stroke="midnightblue" points="123.518,-114.656 131.345,-107.516 120.774,-108.217 123.518,-114.656"/>
</g>
<!-- Node23 -->
<g id="node23" class="node"><title>Node23</title>
<g id="a_node23"><a xlink:href="namespaceet__util.html#aa4a0538c05ece93097940be5a2ef4204" target="_top" xlink:title="et_util.write_file\l_times">
<polygon fill="white" stroke="black" points="126,-39 126,-69 209,-69 209,-39 126,-39"/>
<text text-anchor="start" x="134" y="-57" font-family="Helvetica,sans-Serif" font-size="10.00">et_util.write_file</text>
<text text-anchor="middle" x="167.5" y="-46" font-family="Helvetica,sans-Serif" font-size="10.00">_times</text>
</a>
</g>
</g>
<!-- Node1&#45;&gt;Node23 -->
<g id="edge26" class="edge"><title>Node1&#45;&gt;Node23</title>
<path fill="none" stroke="midnightblue" d="M42.8591,-183.449C51.9254,-162.072 76.5283,-109.84 112,-79 113.755,-77.4739 115.619,-76.0238 117.56,-74.648"/>
<polygon fill="midnightblue" stroke="midnightblue" points="119.832,-77.3551 126.457,-69.0867 116.122,-71.4193 119.832,-77.3551"/>
</g>
<!-- Node24 -->
<g id="node24" class="node"><title>Node24</title>
<g id="a_node24"><a xlink:href="namespaceet__util.html#a3c3ae2439b3b5337237d456cb4366028" target="_top" xlink:title="et_util.get_file_times">
<polygon fill="white" stroke="black" points="114.5,-0.5 114.5,-19.5 220.5,-19.5 220.5,-0.5 114.5,-0.5"/>
<text text-anchor="middle" x="167.5" y="-7.5" font-family="Helvetica,sans-Serif" font-size="10.00">et_util.get_file_times</text>
</a>
</g>
</g>
<!-- Node1&#45;&gt;Node24 -->
<g id="edge27" class="edge"><title>Node1&#45;&gt;Node24</title>
<path fill="none" stroke="midnightblue" d="M40.5584,-183.309C45.5677,-155.282 63.8339,-73.3103 112,-29 113.708,-27.4291 115.552,-25.9868 117.495,-24.6629"/>
<polygon fill="midnightblue" stroke="midnightblue" points="119.524,-27.5377 126.522,-19.5837 116.091,-21.4371 119.524,-27.5377"/>
</g>
<!-- Node4 -->
<g id="node4" class="node"><title>Node4</title>
<g id="a_node4"><a xlink:href="namespaceet__util.html#af15d3c41901948dbb10f0c796cb6ed5b" target="_top" xlink:title="et_util.read_CRthousand_file">
<polygon fill="white" stroke="black" points="259,-372.5 259,-391.5 399,-391.5 399,-372.5 259,-372.5"/>
<text text-anchor="middle" x="329" y="-379.5" font-family="Helvetica,sans-Serif" font-size="10.00">et_util.read_CRthousand_file</text>
</a>
</g>
</g>
<!-- Node3&#45;&gt;Node4 -->
<g id="edge3" class="edge"><title>Node3&#45;&gt;Node4</title>
<path fill="none" stroke="midnightblue" d="M200.777,-344.511C225.234,-351.718 259.057,-361.684 285.681,-369.53"/>
<polygon fill="midnightblue" stroke="midnightblue" points="284.916,-372.953 295.497,-372.422 286.895,-366.239 284.916,-372.953"/>
</g>
<!-- Node5 -->
<g id="node5" class="node"><title>Node5</title>
<g id="a_node5"><a xlink:href="namespaceet__util.html#a7d463c3690915efb78c87700565efc77" target="_top" xlink:title="et_util.clean_file">
<polygon fill="white" stroke="black" points="435.5,-325.5 435.5,-344.5 521.5,-344.5 521.5,-325.5 435.5,-325.5"/>
<text text-anchor="middle" x="478.5" y="-332.5" font-family="Helvetica,sans-Serif" font-size="10.00">et_util.clean_file</text>
</a>
</g>
</g>
<!-- Node3&#45;&gt;Node5 -->
<g id="edge4" class="edge"><title>Node3&#45;&gt;Node5</title>
<path fill="none" stroke="midnightblue" d="M209.533,-330.24C265.091,-327.748 364.277,-327.596 425.143,-329.785"/>
<polygon fill="midnightblue" stroke="midnightblue" points="425.175,-333.289 435.306,-330.189 425.453,-326.295 425.175,-333.289"/>
</g>
<!-- Node6 -->
<g id="node6" class="node"><title>Node6</title>
<g id="a_node6"><a xlink:href="namespaceet__util.html#a566ff749c2a2c113c58d24649251bd5b" target="_top" xlink:title="et_util.read_CRtenX_file">
<polygon fill="white" stroke="black" points="269.5,-278.5 269.5,-297.5 388.5,-297.5 388.5,-278.5 269.5,-278.5"/>
<text text-anchor="middle" x="329" y="-285.5" font-family="Helvetica,sans-Serif" font-size="10.00">et_util.read_CRtenX_file</text>
</a>
</g>
</g>
<!-- Node3&#45;&gt;Node6 -->
<g id="edge6" class="edge"><title>Node3&#45;&gt;Node6</title>
<path fill="none" stroke="midnightblue" d="M200.777,-325.489C225.234,-318.282 259.057,-308.316 285.681,-300.47"/>
<polygon fill="midnightblue" stroke="midnightblue" points="286.895,-303.761 295.497,-297.578 284.916,-297.047 286.895,-303.761"/>
</g>
<!-- Node7 -->
<g id="node7" class="node"><title>Node7</title>
<g id="a_node7"><a xlink:href="namespaceet__util.html#afe6d9320f59488fc7e462d7c501e828d" target="_top" xlink:title="et_util.concat_df">
<polygon fill="white" stroke="black" points="285,-410.5 285,-429.5 373,-429.5 373,-410.5 285,-410.5"/>
<text text-anchor="middle" x="329" y="-417.5" font-family="Helvetica,sans-Serif" font-size="10.00">et_util.concat_df</text>
</a>
</g>
</g>
<!-- Node3&#45;&gt;Node7 -->
<g id="edge7" class="edge"><title>Node3&#45;&gt;Node7</title>
<path fill="none" stroke="midnightblue" d="M205.431,-344.572C211.612,-347.078 217.723,-350.182 223,-354 244.318,-369.423 237.179,-386.297 259,-401 263.951,-404.336 269.474,-407.089 275.18,-409.36"/>
<polygon fill="midnightblue" stroke="midnightblue" points="274.292,-412.757 284.887,-412.746 276.597,-406.148 274.292,-412.757"/>
</g>
<!-- Node15 -->
<g id="node15" class="node"><title>Node15</title>
<g id="a_node15"><a xlink:href="namespaceet__util.html#a15aa7ba554d08be6cbf6a674accfa16e" target="_top" xlink:title="et_util.echo_description">
<polygon fill="white" stroke="black" points="558,-468.5 558,-487.5 677,-487.5 677,-468.5 558,-468.5"/>
<text text-anchor="middle" x="617.5" y="-475.5" font-family="Helvetica,sans-Serif" font-size="10.00">et_util.echo_description</text>
</a>
</g>
</g>
<!-- Node3&#45;&gt;Node15 -->
<g id="edge17" class="edge"><title>Node3&#45;&gt;Node15</title>
<path fill="none" stroke="midnightblue" d="M208.542,-344.515C213.818,-346.987 218.832,-350.095 223,-354 252.94,-382.049 226.079,-414.518 259,-439 345.185,-503.09 476.972,-498.657 554.157,-488.852"/>
<polygon fill="midnightblue" stroke="midnightblue" points="554.767,-492.302 564.214,-487.505 553.837,-485.364 554.767,-492.302"/>
</g>
<!-- Node5&#45;&gt;Node3 -->
<g id="edge5" class="edge"><title>Node5&#45;&gt;Node3</title>
<path fill="none" stroke="midnightblue" d="M435.306,-339.811C379.148,-342.271 279.929,-342.39 219.597,-340.169"/>
<polygon fill="midnightblue" stroke="midnightblue" points="219.667,-336.669 209.533,-339.76 219.382,-343.663 219.667,-336.669"/>
</g>
<!-- Node7&#45;&gt;Node5 -->
<g id="edge8" class="edge"><title>Node7&#45;&gt;Node5</title>
<path fill="none" stroke="midnightblue" d="M373.15,-411.392C381.995,-408.735 391.03,-405.33 399,-401 417.81,-390.781 418.636,-382.802 435,-369 442.008,-363.089 449.81,-356.774 456.796,-351.211"/>
<polygon fill="midnightblue" stroke="midnightblue" points="459.416,-353.601 465.088,-344.653 455.074,-348.111 459.416,-353.601"/>
</g>
<!-- Node8 -->
<g id="node8" class="node"><title>Node8</title>
<g id="a_node8"><a xlink:href="namespaceet__util.html#a8013dc0897f9430ae8f354ba094b9fbd" target="_top" xlink:title="et_util.get_df">
<polygon fill="white" stroke="black" points="442.5,-378.5 442.5,-397.5 514.5,-397.5 514.5,-378.5 442.5,-378.5"/>
<text text-anchor="middle" x="478.5" y="-385.5" font-family="Helvetica,sans-Serif" font-size="10.00">et_util.get_df</text>
</a>
</g>
</g>
<!-- Node7&#45;&gt;Node8 -->
<g id="edge9" class="edge"><title>Node7&#45;&gt;Node8</title>
<path fill="none" stroke="midnightblue" d="M373.06,-410.658C391.656,-406.624 413.421,-401.902 432.254,-397.816"/>
<polygon fill="midnightblue" stroke="midnightblue" points="433.059,-401.223 442.089,-395.682 431.575,-394.382 433.059,-401.223"/>
</g>
<!-- Node9 -->
<g id="node9" class="node"><title>Node9</title>
<g id="a_node9"><a xlink:href="namespaceet__util.html#a7535fb2ada235d852a05717bdd6d67a9" target="_top" xlink:title="et_util.read_s_ec">
<polygon fill="white" stroke="black" points="572,-240.5 572,-259.5 663,-259.5 663,-240.5 572,-240.5"/>
<text text-anchor="middle" x="617.5" y="-247.5" font-family="Helvetica,sans-Serif" font-size="10.00">et_util.read_s_ec</text>
</a>
</g>
</g>
<!-- Node8&#45;&gt;Node9 -->
<g id="edge10" class="edge"><title>Node8&#45;&gt;Node9</title>
<path fill="none" stroke="midnightblue" d="M495.272,-378.23C504.071,-372.141 514.696,-363.641 522,-354 546.774,-321.298 527.762,-296.727 558,-269 559.727,-267.417 561.587,-265.965 563.545,-264.635"/>
<polygon fill="midnightblue" stroke="midnightblue" points="565.631,-267.478 572.649,-259.541 562.213,-261.369 565.631,-267.478"/>
</g>
<!-- Node10 -->
<g id="node10" class="node"><title>Node10</title>
<g id="a_node10"><a xlink:href="namespaceet__util.html#a5cfb9371164d33036c4d3ec9f7a80e88" target="_top" xlink:title="et_util.read_s_met">
<polygon fill="white" stroke="black" points="569,-354.5 569,-373.5 666,-373.5 666,-354.5 569,-354.5"/>
<text text-anchor="middle" x="617.5" y="-361.5" font-family="Helvetica,sans-Serif" font-size="10.00">et_util.read_s_met</text>
</a>
</g>
</g>
<!-- Node8&#45;&gt;Node10 -->
<g id="edge11" class="edge"><title>Node8&#45;&gt;Node10</title>
<path fill="none" stroke="midnightblue" d="M514.781,-381.819C528.179,-379.472 543.815,-376.733 558.752,-374.116"/>
<polygon fill="midnightblue" stroke="midnightblue" points="559.698,-377.504 568.945,-372.331 558.491,-370.609 559.698,-377.504"/>
</g>
<!-- Node11 -->
<g id="node11" class="node"><title>Node11</title>
<g id="a_node11"><a xlink:href="namespaceet__util.html#a37255b034ed791b14cb66dc5df649a3f" target="_top" xlink:title="et_util.read_s_rad">
<polygon fill="white" stroke="black" points="570.5,-316.5 570.5,-335.5 664.5,-335.5 664.5,-316.5 570.5,-316.5"/>
<text text-anchor="middle" x="617.5" y="-323.5" font-family="Helvetica,sans-Serif" font-size="10.00">et_util.read_s_rad</text>
</a>
</g>
</g>
<!-- Node8&#45;&gt;Node11 -->
<g id="edge12" class="edge"><title>Node8&#45;&gt;Node11</title>
<path fill="none" stroke="midnightblue" d="M495,-378.376C510.528,-369.009 535.317,-354.794 558,-345 563.024,-342.831 568.382,-340.768 573.737,-338.857"/>
<polygon fill="midnightblue" stroke="midnightblue" points="574.971,-342.135 583.303,-335.59 572.708,-335.51 574.971,-342.135"/>
</g>
<!-- Node12 -->
<g id="node12" class="node"><title>Node12</title>
<g id="a_node12"><a xlink:href="namespaceet__util.html#a5cda9dc3d34bdd80d01b977e805f4b04" target="_top" xlink:title="et_util.read_d_ec">
<polygon fill="white" stroke="black" points="572,-278.5 572,-297.5 663,-297.5 663,-278.5 572,-278.5"/>
<text text-anchor="middle" x="617.5" y="-285.5" font-family="Helvetica,sans-Serif" font-size="10.00">et_util.read_d_ec</text>
</a>
</g>
</g>
<!-- Node8&#45;&gt;Node12 -->
<g id="edge13" class="edge"><title>Node8&#45;&gt;Node12</title>
<path fill="none" stroke="midnightblue" d="M493.222,-378.359C501.913,-371.939 513.142,-363.047 522,-354 540.408,-335.199 536.518,-322.194 558,-307 560.703,-305.088 563.609,-303.361 566.629,-301.802"/>
<polygon fill="midnightblue" stroke="midnightblue" points="568.261,-304.905 575.944,-297.61 565.389,-298.522 568.261,-304.905"/>
</g>
<!-- Node13 -->
<g id="node13" class="node"><title>Node13</title>
<g id="a_node13"><a xlink:href="namespaceet__util.html#aa20b5ae88dbfb272ae5e7f53f4678358" target="_top" xlink:title="et_util.read_d_met">
<polygon fill="white" stroke="black" points="569,-430.5 569,-449.5 666,-449.5 666,-430.5 569,-430.5"/>
<text text-anchor="middle" x="617.5" y="-437.5" font-family="Helvetica,sans-Serif" font-size="10.00">et_util.read_d_met</text>
</a>
</g>
</g>
<!-- Node8&#45;&gt;Node13 -->
<g id="edge14" class="edge"><title>Node8&#45;&gt;Node13</title>
<path fill="none" stroke="midnightblue" d="M500.963,-397.597C516.633,-404.462 538.462,-413.735 558,-421 563.643,-423.098 569.637,-425.194 575.554,-427.186"/>
<polygon fill="midnightblue" stroke="midnightblue" points="574.772,-430.613 585.365,-430.423 576.966,-423.966 574.772,-430.613"/>
</g>
<!-- Node14 -->
<g id="node14" class="node"><title>Node14</title>
<g id="a_node14"><a xlink:href="namespaceet__util.html#a76d5a5c19f0e86b9ab70c0957827c260" target="_top" xlink:title="et_util.read_d_rad">
<polygon fill="white" stroke="black" points="570.5,-392.5 570.5,-411.5 664.5,-411.5 664.5,-392.5 570.5,-392.5"/>
<text text-anchor="middle" x="617.5" y="-399.5" font-family="Helvetica,sans-Serif" font-size="10.00">et_util.read_d_rad</text>
</a>
</g>
</g>
<!-- Node8&#45;&gt;Node14 -->
<g id="edge15" class="edge"><title>Node8&#45;&gt;Node14</title>
<path fill="none" stroke="midnightblue" d="M514.781,-391.605C528.699,-393.028 545.03,-394.697 560.484,-396.276"/>
<polygon fill="midnightblue" stroke="midnightblue" points="560.175,-399.762 570.479,-397.297 560.887,-392.799 560.175,-399.762"/>
</g>
<!-- Node8&#45;&gt;Node15 -->
<g id="edge16" class="edge"><title>Node8&#45;&gt;Node15</title>
<path fill="none" stroke="midnightblue" d="M487.691,-397.67C500.986,-412.794 528.736,-442.063 558,-459 561.639,-461.106 565.543,-463.014 569.543,-464.735"/>
<polygon fill="midnightblue" stroke="midnightblue" points="568.387,-468.04 578.975,-468.415 570.932,-461.519 568.387,-468.04"/>
</g>
<!-- Node17&#45;&gt;Node9 -->
<g id="edge20" class="edge"><title>Node17&#45;&gt;Node9</title>
<path fill="none" stroke="midnightblue" d="M522.097,-250C534.493,-250 548.216,-250 561.27,-250"/>
<polygon fill="midnightblue" stroke="midnightblue" points="561.558,-253.5 571.558,-250 561.558,-246.5 561.558,-253.5"/>
</g>
<!-- Node21 -->
<g id="node21" class="node"><title>Node21</title>
<g id="a_node21"><a xlink:href="namespaceet__util.html#a3331dc365022196889cfcd3fa3cca3b2" target="_top" xlink:title="et_util.join_and_delete">
<polygon fill="white" stroke="black" points="272.5,-126.5 272.5,-145.5 385.5,-145.5 385.5,-126.5 272.5,-126.5"/>
<text text-anchor="middle" x="329" y="-133.5" font-family="Helvetica,sans-Serif" font-size="10.00">et_util.join_and_delete</text>
</a>
</g>
</g>
<!-- Node20&#45;&gt;Node21 -->
<g id="edge24" class="edge"><title>Node20&#45;&gt;Node21</title>
<path fill="none" stroke="midnightblue" d="M215.063,-136C229.771,-136 246.313,-136 262.106,-136"/>
<polygon fill="midnightblue" stroke="midnightblue" points="262.35,-139.5 272.35,-136 262.35,-132.5 262.35,-139.5"/>
</g>
</g>
</svg>
        <g id="navigator" transform="translate(0 0)" fill="#404254">
                <rect fill="#f2f5e9" fill-opacity="0.5" stroke="#606060" stroke-width=".5" x="0" y="0" width="60" height="60"/>
                <use id="zoomplus" xlink:href="#zoomPlus" x="17" y="9" onmousedown="handleZoom(evt,'in')"/>
                <use id="zoomminus" xlink:href="#zoomMin" x="42" y="9" onmousedown="handleZoom(evt,'out')"/>
                <use id="reset" xlink:href="#resetDef" x="30" y="36" onmousedown="handleReset()"/>
                <g id="arrowUp" xlink:href="#dirArrow" transform="translate(30 24)" onmousedown="handlePan(0,-1)">
                  <use xlink:href="#rim" fill="#404040">
                        <set attributeName="fill" to="#808080" begin="arrowUp.mouseover" end="arrowUp.mouseout"/>
                  </use>
                  <path fill="none" stroke="white" stroke-width="1.5" d="M0,-3.0v7 M-2.5,-0.5L0,-3.0L2.5,-0.5"/>
                </g>
                <g id="arrowRight" xlink:href="#dirArrow" transform="rotate(90) translate(36 -43)" onmousedown="handlePan(1,0)">
                  <use xlink:href="#rim" fill="#404040">
                        <set attributeName="fill" to="#808080" begin="arrowRight.mouseover" end="arrowRight.mouseout"/>
                  </use>
                  <path fill="none" stroke="white" stroke-width="1.5" d="M0,-3.0v7 M-2.5,-0.5L0,-3.0L2.5,-0.5"/>
                </g>
                <g id="arrowDown" xlink:href="#dirArrow" transform="rotate(180) translate(-30 -48)" onmousedown="handlePan(0,1)">
                  <use xlink:href="#rim" fill="#404040">
                        <set attributeName="fill" to="#808080" begin="arrowDown.mouseover" end="arrowDown.mouseout"/>
                  </use>
                  <path fill="none" stroke="white" stroke-width="1.5" d="M0,-3.0v7 M-2.5,-0.5L0,-3.0L2.5,-0.5"/>
                </g>
                <g id="arrowLeft" xlink:href="#dirArrow" transform="rotate(270) translate(-36 17)" onmousedown="handlePan(-1,0)">
                  <use xlink:href="#rim" fill="#404040">
                        <set attributeName="fill" to="#808080" begin="arrowLeft.mouseover" end="arrowLeft.mouseout"/>
                  </use>
                  <path fill="none" stroke="white" stroke-width="1.5" d="M0,-3.0v7 M-2.5,-0.5L0,-3.0L2.5,-0.5"/>
                </g>
        </g>
        <svg viewBox="0 0 15 15" width="100%" height="30px" preserveAspectRatio="xMaxYMin meet">
         <g id="arrow_out" transform="scale(0.3 0.3)">
          <a xlink:href="namespaceet__util_a164b6705ccf94cb947d6bd11c7c19021_cgraph_org.svg" target="_base">
           <rect id="button" ry="5" rx="5" y="6" x="6" height="38" width="38"
                fill="#f2f5e9" fill-opacity="0.5" stroke="#606060" stroke-width="1.0"/>
           <path id="arrow"
             d="M 11.500037,31.436501 C 11.940474,20.09759 22.043105,11.32322 32.158766,21.979434 L 37.068811,17.246167 C 37.068811,17.246167 37.088388,32 37.088388,32 L 22.160133,31.978069 C 22.160133,31.978069 26.997745,27.140456 26.997745,27.140456 C 18.528582,18.264221 13.291696,25.230495 11.500037,31.436501 z"
             style="fill:#404040;"/>
          </a>
         </g>
        </svg>
</svg>
