<?xml version="1.0" encoding="UTF-8" standalone="no"?>
<!DOCTYPE svg PUBLIC "-//W3C//DTD SVG 1.1//EN"
 "http://www.w3.org/Graphics/SVG/1.1/DTD/svg11.dtd">
<!-- Generated by graphviz version 2.38.0 (20140413.2041)
 -->
<!-- Title: updateStripes Pages: 1 -->
<svg width="191pt" height="66pt"
 viewBox="0.00 0.00 191.00 66.00" xmlns="http://www.w3.org/2000/svg" xmlns:xlink="http://www.w3.org/1999/xlink">
<g id="graph0" class="graph" transform="scale(1 1) rotate(0) translate(4 62)">
<title>updateStripes</title>
<polygon fill="white" stroke="none" points="-4,4 -4,-62 187,-62 187,4 -4,4"/>
<!-- Node1 -->
<g id="node1" class="node"><title>Node1</title>
<polygon fill="#bfbfbf" stroke="black" points="0,-19.5 0,-38.5 77,-38.5 77,-19.5 0,-19.5"/>
<text text-anchor="middle" x="38.5" y="-26.5" font-family="Helvetica,sans-Serif" font-size="10.00">updateStripes</text>
</g>
<!-- Node2 -->
<g id="node2" class="node"><title>Node2</title>
<g id="a_node2"><a xlink:href="dynsections_8js.html#a19f577cc1ba571396a85bb1f48bf4df2" target="_top" xlink:title="toggleLevel">
<polygon fill="white" stroke="black" points="115.5,-38.5 115.5,-57.5 180.5,-57.5 180.5,-38.5 115.5,-38.5"/>
<text text-anchor="middle" x="148" y="-45.5" font-family="Helvetica,sans-Serif" font-size="10.00">toggleLevel</text>
</a>
</g>
</g>
<!-- Node1&#45;&gt;Node2 -->
<g id="edge1" class="edge"><title>Node1&#45;&gt;Node2</title>
<path fill="none" stroke="midnightblue" d="M86.9479,-37.3861C96.5441,-39.0822 106.412,-40.8263 115.305,-42.3981"/>
<polygon fill="midnightblue" stroke="midnightblue" points="87.5549,-33.9392 77.0983,-35.6453 86.3365,-40.8324 87.5549,-33.9392"/>
</g>
<!-- Node3 -->
<g id="node3" class="node"><title>Node3</title>
<g id="a_node3"><a xlink:href="dynsections_8js.html#af244da4527af2d845dca04f5656376cd" target="_top" xlink:title="toggleFolder">
<polygon fill="white" stroke="black" points="113,-0.5 113,-19.5 183,-19.5 183,-0.5 113,-0.5"/>
<text text-anchor="middle" x="148" y="-7.5" font-family="Helvetica,sans-Serif" font-size="10.00">toggleFolder</text>
</a>
</g>
</g>
<!-- Node1&#45;&gt;Node3 -->
<g id="edge2" class="edge"><title>Node1&#45;&gt;Node3</title>
<path fill="none" stroke="midnightblue" d="M87.1156,-20.5842C95.78,-19.0528 104.66,-17.4834 112.839,-16.0378"/>
<polygon fill="midnightblue" stroke="midnightblue" points="86.3365,-17.1676 77.0983,-22.3547 87.5549,-24.0608 86.3365,-17.1676"/>
</g>
</g>
</svg>
