<?xml version="1.0" encoding="UTF-8" standalone="no"?>
<!DOCTYPE svg PUBLIC "-//W3C//DTD SVG 1.1//EN"
 "http://www.w3.org/Graphics/SVG/1.1/DTD/svg11.dtd">
<!-- Generated by graphviz version 2.38.0 (20140413.2041)
 -->
<!-- Title: toggleLevel Pages: 1 -->
<svg width="186pt" height="104pt"
 viewBox="0.00 0.00 186.00 104.00" xmlns="http://www.w3.org/2000/svg" xmlns:xlink="http://www.w3.org/1999/xlink">
<g id="graph0" class="graph" transform="scale(1 1) rotate(0) translate(4 100)">
<title>toggleLevel</title>
<polygon fill="white" stroke="none" points="-4,4 -4,-100 182,-100 182,4 -4,4"/>
<!-- Node1 -->
<g id="node1" class="node"><title>Node1</title>
<polygon fill="#bfbfbf" stroke="black" points="0,-38.5 0,-57.5 65,-57.5 65,-38.5 0,-38.5"/>
<text text-anchor="middle" x="32.5" y="-45.5" font-family="Helvetica,sans-Serif" font-size="10.00">toggleLevel</text>
</g>
<!-- Node2 -->
<g id="node2" class="node"><title>Node2</title>
<g id="a_node2"><a xlink:href="jquery_8js.html#a871ff39db627c54c710a3e9909b8234c" target="_top" xlink:title="each">
<polygon fill="white" stroke="black" points="120.5,-76.5 120.5,-95.5 158.5,-95.5 158.5,-76.5 120.5,-76.5"/>
<text text-anchor="middle" x="139.5" y="-83.5" font-family="Helvetica,sans-Serif" font-size="10.00">each</text>
</a>
</g>
</g>
<!-- Node1&#45;&gt;Node2 -->
<g id="edge1" class="edge"><title>Node1&#45;&gt;Node2</title>
<path fill="none" stroke="midnightblue" d="M59.9959,-57.589C75.4452,-63.1802 94.9137,-70.2259 110.598,-75.9021"/>
<polygon fill="midnightblue" stroke="midnightblue" points="109.684,-79.2933 120.278,-79.4053 112.066,-72.7111 109.684,-79.2933"/>
</g>
<!-- Node3 -->
<g id="node3" class="node"><title>Node3</title>
<g id="a_node3"><a xlink:href="svgpan_8js.html#aa8d9f2083cafa2af98efafed94901079" target="_top" xlink:title="show">
<polygon fill="white" stroke="black" points="120,-38.5 120,-57.5 159,-57.5 159,-38.5 120,-38.5"/>
<text text-anchor="middle" x="139.5" y="-45.5" font-family="Helvetica,sans-Serif" font-size="10.00">show</text>
</a>
</g>
</g>
<!-- Node1&#45;&gt;Node3 -->
<g id="edge2" class="edge"><title>Node1&#45;&gt;Node3</title>
<path fill="none" stroke="midnightblue" d="M65.0035,-48C79.1123,-48 95.6433,-48 109.451,-48"/>
<polygon fill="midnightblue" stroke="midnightblue" points="109.842,-51.5001 119.842,-48 109.842,-44.5001 109.842,-51.5001"/>
</g>
<!-- Node4 -->
<g id="node4" class="node"><title>Node4</title>
<g id="a_node4"><a xlink:href="dynsections_8js.html#a8f7493ad859d4fbf2523917511ee7177" target="_top" xlink:title="updateStripes">
<polygon fill="white" stroke="black" points="101,-0.5 101,-19.5 178,-19.5 178,-0.5 101,-0.5"/>
<text text-anchor="middle" x="139.5" y="-7.5" font-family="Helvetica,sans-Serif" font-size="10.00">updateStripes</text>
</a>
</g>
</g>
<!-- Node1&#45;&gt;Node4 -->
<g id="edge3" class="edge"><title>Node1&#45;&gt;Node4</title>
<path fill="none" stroke="midnightblue" d="M59.9959,-38.411C72.8043,-33.7756 88.3753,-28.1404 102.262,-23.1147"/>
<polygon fill="midnightblue" stroke="midnightblue" points="103.8,-26.2802 112.013,-19.5859 101.418,-19.6979 103.8,-26.2802"/>
</g>
</g>
</svg>
