<?xml version="1.0" encoding="UTF-8" standalone="no"?>
<!DOCTYPE svg PUBLIC "-//W3C//DTD SVG 1.1//EN"
 "http://www.w3.org/Graphics/SVG/1.1/DTD/svg11.dtd">
<!-- Generated by graphviz version 2.38.0 (20140413.2041)
 -->
<!-- Title: if Pages: 1 -->
<svg width="153pt" height="66pt"
 viewBox="0.00 0.00 153.00 66.00" xmlns="http://www.w3.org/2000/svg" xmlns:xlink="http://www.w3.org/1999/xlink">
<g id="graph0" class="graph" transform="scale(1 1) rotate(0) translate(4 62)">
<title>if</title>
<polygon fill="white" stroke="none" points="-4,4 -4,-62 149,-62 149,4 -4,4"/>
<!-- Node1 -->
<g id="node1" class="node"><title>Node1</title>
<polygon fill="#bfbfbf" stroke="black" points="0,-19.5 0,-38.5 29,-38.5 29,-19.5 0,-19.5"/>
<text text-anchor="middle" x="14.5" y="-26.5" font-family="Helvetica,sans-Serif" font-size="10.00">if</text>
</g>
<!-- Node2 -->
<g id="node2" class="node"><title>Node2</title>
<g id="a_node2"><a xlink:href="search_8js.html#a52066106482f8136aa9e0ec859e8188f" target="_top" xlink:title="SearchBox">
<polygon fill="white" stroke="black" points="72.5,-38.5 72.5,-57.5 137.5,-57.5 137.5,-38.5 72.5,-38.5"/>
<text text-anchor="middle" x="105" y="-45.5" font-family="Helvetica,sans-Serif" font-size="10.00">SearchBox</text>
</a>
</g>
</g>
<!-- Node1&#45;&gt;Node2 -->
<g id="edge1" class="edge"><title>Node1&#45;&gt;Node2</title>
<path fill="none" stroke="midnightblue" d="M39.131,-34.0733C49.3092,-36.2585 61.3619,-38.8461 72.2994,-41.1942"/>
<polygon fill="midnightblue" stroke="midnightblue" points="39.84,-30.6459 29.3281,-31.9688 38.3706,-37.4899 39.84,-30.6459"/>
</g>
<!-- Node3 -->
<g id="node3" class="node"><title>Node3</title>
<g id="a_node3"><a xlink:href="search_8js.html#a9189b9f7a32b6bc78240f40348f7fe03" target="_top" xlink:title="SearchResults">
<polygon fill="white" stroke="black" points="65,-0.5 65,-19.5 145,-19.5 145,-0.5 65,-0.5"/>
<text text-anchor="middle" x="105" y="-7.5" font-family="Helvetica,sans-Serif" font-size="10.00">SearchResults</text>
</a>
</g>
</g>
<!-- Node1&#45;&gt;Node3 -->
<g id="edge2" class="edge"><title>Node1&#45;&gt;Node3</title>
<path fill="none" stroke="midnightblue" d="M39.2018,-23.9115C47.0387,-22.229 55.9809,-20.3092 64.6672,-18.4443"/>
<polygon fill="midnightblue" stroke="midnightblue" points="38.3706,-20.5101 29.3281,-26.0313 39.84,-27.3541 38.3706,-20.5101"/>
</g>
</g>
</svg>
