<?xml version="1.0" encoding="UTF-8" standalone="no"?>
<!DOCTYPE svg PUBLIC "-//W3C//DTD SVG 1.1//EN"
 "http://www.w3.org/Graphics/SVG/1.1/DTD/svg11.dtd">
<!-- Generated by graphviz version 2.38.0 (20140413.2041)
 -->
<!-- Title: each Pages: 1 -->
<svg width="151pt" height="66pt"
 viewBox="0.00 0.00 151.00 66.00" xmlns="http://www.w3.org/2000/svg" xmlns:xlink="http://www.w3.org/1999/xlink">
<g id="graph0" class="graph" transform="scale(1 1) rotate(0) translate(4 62)">
<title>each</title>
<polygon fill="white" stroke="none" points="-4,4 -4,-62 147,-62 147,4 -4,4"/>
<!-- Node1 -->
<g id="node1" class="node"><title>Node1</title>
<polygon fill="#bfbfbf" stroke="black" points="0,-19.5 0,-38.5 38,-38.5 38,-19.5 0,-19.5"/>
<text text-anchor="middle" x="19" y="-26.5" font-family="Helvetica,sans-Serif" font-size="10.00">each</text>
</g>
<!-- Node2 -->
<g id="node2" class="node"><title>Node2</title>
<g id="a_node2"><a xlink:href="dynsections_8js.html#a19f577cc1ba571396a85bb1f48bf4df2" target="_top" xlink:title="toggleLevel">
<polygon fill="white" stroke="black" points="76,-38.5 76,-57.5 141,-57.5 141,-38.5 76,-38.5"/>
<text text-anchor="middle" x="108.5" y="-45.5" font-family="Helvetica,sans-Serif" font-size="10.00">toggleLevel</text>
</a>
</g>
</g>
<!-- Node1&#45;&gt;Node2 -->
<g id="edge1" class="edge"><title>Node1&#45;&gt;Node2</title>
<path fill="none" stroke="midnightblue" d="M48.0104,-35.0823C56.9098,-37.0147 66.8117,-39.1648 75.9433,-41.1477"/>
<polygon fill="midnightblue" stroke="midnightblue" points="48.645,-31.6386 38.1301,-32.9368 47.1596,-38.4792 48.645,-31.6386"/>
</g>
<!-- Node3 -->
<g id="node3" class="node"><title>Node3</title>
<g id="a_node3"><a xlink:href="dynsections_8js.html#ac057b640b17ff32af11ced151c9305b4" target="_top" xlink:title="toggleInherit">
<polygon fill="white" stroke="black" points="74,-0.5 74,-19.5 143,-19.5 143,-0.5 74,-0.5"/>
<text text-anchor="middle" x="108.5" y="-7.5" font-family="Helvetica,sans-Serif" font-size="10.00">toggleInherit</text>
</a>
</g>
</g>
<!-- Node1&#45;&gt;Node3 -->
<g id="edge2" class="edge"><title>Node1&#45;&gt;Node3</title>
<path fill="none" stroke="midnightblue" d="M47.9838,-22.9235C56.2086,-21.1376 65.2916,-19.1652 73.8325,-17.3107"/>
<polygon fill="midnightblue" stroke="midnightblue" points="47.1596,-19.5208 38.1301,-25.0632 48.645,-26.3614 47.1596,-19.5208"/>
</g>
</g>
</svg>
