<?xml version="1.0" encoding="UTF-8" standalone="no"?>
<!DOCTYPE svg PUBLIC "-//W3C//DTD SVG 1.1//EN"
 "http://www.w3.org/Graphics/SVG/1.1/DTD/svg11.dtd">
<!-- Generated by graphviz version 2.38.0 (20140413.2041)
 -->
<!-- Title: et_util.read_CRtenX_file Pages: 1 -->
<svg width="493pt" height="85pt"
 viewBox="0.00 0.00 493.00 85.00" xmlns="http://www.w3.org/2000/svg" xmlns:xlink="http://www.w3.org/1999/xlink">
<g id="graph0" class="graph" transform="scale(1 1) rotate(0) translate(4 81)">
<title>et_util.read_CRtenX_file</title>
<polygon fill="white" stroke="none" points="-4,4 -4,-81 489,-81 489,4 -4,4"/>
<!-- Node1 -->
<g id="node1" class="node"><title>Node1</title>
<polygon fill="#bfbfbf" stroke="black" points="0,-19.5 0,-38.5 119,-38.5 119,-19.5 0,-19.5"/>
<text text-anchor="middle" x="59.5" y="-26.5" font-family="Helvetica,sans-Serif" font-size="10.00">et_util.read_CRtenX_file</text>
</g>
<!-- Node2 -->
<g id="node2" class="node"><title>Node2</title>
<g id="a_node2"><a xlink:href="namespaceet__util.html#ad14756ce8dfea7ab6da605eb2a34af45" target="_top" xlink:title="et_util.inventory">
<polygon fill="white" stroke="black" points="155,-19.5 155,-38.5 239,-38.5 239,-19.5 155,-19.5"/>
<text text-anchor="middle" x="197" y="-26.5" font-family="Helvetica,sans-Serif" font-size="10.00">et_util.inventory</text>
</a>
</g>
</g>
<!-- Node1&#45;&gt;Node2 -->
<g id="edge1" class="edge"><title>Node1&#45;&gt;Node2</title>
<path fill="none" stroke="midnightblue" d="M129.341,-29C138.047,-29 146.728,-29 154.811,-29"/>
<polygon fill="midnightblue" stroke="midnightblue" points="129.144,-25.5001 119.144,-29 129.144,-32.5001 129.144,-25.5001"/>
</g>
<!-- Node3 -->
<g id="node3" class="node"><title>Node3</title>
<g id="a_node3"><a xlink:href="namespaceet__util.html#a164b6705ccf94cb947d6bd11c7c19021" target="_top" xlink:title="et_util.startup">
<polygon fill="white" stroke="black" points="280,-57.5 280,-76.5 356,-76.5 356,-57.5 280,-57.5"/>
<text text-anchor="middle" x="318" y="-64.5" font-family="Helvetica,sans-Serif" font-size="10.00">et_util.startup</text>
</a>
</g>
</g>
<!-- Node2&#45;&gt;Node3 -->
<g id="edge2" class="edge"><title>Node2&#45;&gt;Node3</title>
<path fill="none" stroke="midnightblue" d="M237.71,-41.6804C253.789,-46.8148 272.043,-52.6441 286.981,-57.4141"/>
<polygon fill="midnightblue" stroke="midnightblue" points="238.62,-38.2969 228.029,-38.589 236.49,-44.9652 238.62,-38.2969"/>
</g>
<!-- Node4 -->
<g id="node4" class="node"><title>Node4</title>
<g id="a_node4"><a xlink:href="namespaceet__util.html#a7d463c3690915efb78c87700565efc77" target="_top" xlink:title="et_util.clean_file">
<polygon fill="white" stroke="black" points="275,-19.5 275,-38.5 361,-38.5 361,-19.5 275,-19.5"/>
<text text-anchor="middle" x="318" y="-26.5" font-family="Helvetica,sans-Serif" font-size="10.00">et_util.clean_file</text>
</a>
</g>
</g>
<!-- Node2&#45;&gt;Node4 -->
<g id="edge3" class="edge"><title>Node2&#45;&gt;Node4</title>
<path fill="none" stroke="midnightblue" d="M249.505,-22.3045C258.012,-22.1879 266.741,-22.2584 274.98,-22.5158"/>
<polygon fill="midnightblue" stroke="midnightblue" points="249.203,-18.8104 239.286,-22.5393 249.364,-25.8085 249.203,-18.8104"/>
</g>
<!-- Node4&#45;&gt;Node2 -->
<g id="edge4" class="edge"><title>Node4&#45;&gt;Node2</title>
<path fill="none" stroke="midnightblue" d="M264.735,-35.7054C256.216,-35.8108 247.495,-35.7293 239.286,-35.4607"/>
<polygon fill="midnightblue" stroke="midnightblue" points="265.058,-39.1994 274.98,-35.4842 264.906,-32.201 265.058,-39.1994"/>
</g>
<!-- Node5 -->
<g id="node5" class="node"><title>Node5</title>
<g id="a_node5"><a xlink:href="namespaceet__util.html#afe6d9320f59488fc7e462d7c501e828d" target="_top" xlink:title="et_util.concat_df">
<polygon fill="white" stroke="black" points="397,-0.5 397,-19.5 485,-19.5 485,-0.5 397,-0.5"/>
<text text-anchor="middle" x="441" y="-7.5" font-family="Helvetica,sans-Serif" font-size="10.00">et_util.concat_df</text>
</a>
</g>
</g>
<!-- Node4&#45;&gt;Node5 -->
<g id="edge5" class="edge"><title>Node4&#45;&gt;Node5</title>
<path fill="none" stroke="midnightblue" d="M371.444,-20.765C379.866,-19.4425 388.501,-18.0866 396.679,-16.8024"/>
<polygon fill="midnightblue" stroke="midnightblue" points="370.656,-17.3458 361.32,-22.3547 371.742,-24.261 370.656,-17.3458"/>
</g>
<!-- Node5&#45;&gt;Node2 -->
<g id="edge6" class="edge"><title>Node5&#45;&gt;Node2</title>
<path fill="none" stroke="midnightblue" d="M386.589,-6.74476C354.19,-5.57714 312.078,-5.49303 275,-10 259.691,-11.8608 243.04,-15.7301 229.15,-19.4944"/>
<polygon fill="midnightblue" stroke="midnightblue" points="386.615,-10.2486 396.749,-7.15748 386.899,-3.25435 386.615,-10.2486"/>
</g>
</g>
</svg>
