<?xml version="1.0" encoding="UTF-8" standalone="no"?>
<!DOCTYPE svg PUBLIC "-//W3C//DTD SVG 1.1//EN"
 "http://www.w3.org/Graphics/SVG/1.1/DTD/svg11.dtd">
<!-- Generated by graphviz version 2.38.0 (20140413.2041)
 -->
<!-- Title: et_util.clean_file Pages: 1 -->
<svg width="450pt" height="75pt"
 viewBox="0.00 0.00 450.00 75.00" xmlns="http://www.w3.org/2000/svg" xmlns:xlink="http://www.w3.org/1999/xlink">
<g id="graph0" class="graph" transform="scale(1 1) rotate(0) translate(4 71)">
<title>et_util.clean_file</title>
<polygon fill="white" stroke="none" points="-4,4 -4,-71 446,-71 446,4 -4,4"/>
<!-- Node1 -->
<g id="node1" class="node"><title>Node1</title>
<polygon fill="#bfbfbf" stroke="black" points="0,-47.5 0,-66.5 86,-66.5 86,-47.5 0,-47.5"/>
<text text-anchor="middle" x="43" y="-54.5" font-family="Helvetica,sans-Serif" font-size="10.00">et_util.clean_file</text>
</g>
<!-- Node2 -->
<g id="node2" class="node"><title>Node2</title>
<g id="a_node2"><a xlink:href="namespaceet__util.html#ad14756ce8dfea7ab6da605eb2a34af45" target="_top" xlink:title="et_util.inventory">
<polygon fill="white" stroke="black" points="246,-47.5 246,-66.5 330,-66.5 330,-47.5 246,-47.5"/>
<text text-anchor="middle" x="288" y="-54.5" font-family="Helvetica,sans-Serif" font-size="10.00">et_util.inventory</text>
</a>
</g>
</g>
<!-- Node1&#45;&gt;Node2 -->
<g id="edge1" class="edge"><title>Node1&#45;&gt;Node2</title>
<path fill="none" stroke="midnightblue" d="M96.1513,-51.3419C140.933,-49.7503 204.612,-49.8987 245.87,-51.7872"/>
<polygon fill="midnightblue" stroke="midnightblue" points="95.9022,-47.849 86.05,-51.7455 96.1817,-54.8434 95.9022,-47.849"/>
</g>
<!-- Node4 -->
<g id="node4" class="node"><title>Node4</title>
<g id="a_node4"><a xlink:href="namespaceet__util.html#aac88b1f4b427869a87aa4fa58150c9a5" target="_top" xlink:title="et_util.concat_df">
<polygon fill="white" stroke="black" points="122,-0.5 122,-19.5 210,-19.5 210,-0.5 122,-0.5"/>
<text text-anchor="middle" x="166" y="-7.5" font-family="Helvetica,sans-Serif" font-size="10.00">et_util.concat_df</text>
</a>
</g>
</g>
<!-- Node1&#45;&gt;Node4 -->
<g id="edge4" class="edge"><title>Node1&#45;&gt;Node4</title>
<path fill="none" stroke="midnightblue" d="M78.0373,-43.7789C97.7789,-36.1107 122.202,-26.624 140.135,-19.6583"/>
<polygon fill="midnightblue" stroke="midnightblue" points="76.5404,-40.6055 68.4862,-47.4888 79.0749,-47.1306 76.5404,-40.6055"/>
</g>
<!-- Node2&#45;&gt;Node1 -->
<g id="edge3" class="edge"><title>Node2&#45;&gt;Node1</title>
<path fill="none" stroke="midnightblue" d="M235.84,-62.6225C191.34,-64.2399 127.637,-64.1172 86.05,-62.2545"/>
<polygon fill="midnightblue" stroke="midnightblue" points="236.021,-66.1181 245.87,-62.2128 235.735,-59.1239 236.021,-66.1181"/>
</g>
<!-- Node3 -->
<g id="node3" class="node"><title>Node3</title>
<g id="a_node3"><a xlink:href="namespaceet__util.html#a164b6705ccf94cb947d6bd11c7c19021" target="_top" xlink:title="et_util.startup">
<polygon fill="white" stroke="black" points="366,-47.5 366,-66.5 442,-66.5 442,-47.5 366,-47.5"/>
<text text-anchor="middle" x="404" y="-54.5" font-family="Helvetica,sans-Serif" font-size="10.00">et_util.startup</text>
</a>
</g>
</g>
<!-- Node2&#45;&gt;Node3 -->
<g id="edge2" class="edge"><title>Node2&#45;&gt;Node3</title>
<path fill="none" stroke="midnightblue" d="M340.409,-57C348.926,-57 357.61,-57 365.692,-57"/>
<polygon fill="midnightblue" stroke="midnightblue" points="340.157,-53.5001 330.157,-57 340.157,-60.5001 340.157,-53.5001"/>
</g>
<!-- Node4&#45;&gt;Node2 -->
<g id="edge5" class="edge"><title>Node4&#45;&gt;Node2</title>
<path fill="none" stroke="midnightblue" d="M200.756,-23.2211C220.334,-30.8893 244.556,-40.376 262.34,-47.3417"/>
<polygon fill="midnightblue" stroke="midnightblue" points="201.872,-19.8992 191.284,-19.5112 199.319,-26.4171 201.872,-19.8992"/>
</g>
</g>
</svg>
