<?xml version="1.0" encoding="UTF-8" standalone="no"?>
<!DOCTYPE svg PUBLIC "-//W3C//DTD SVG 1.1//EN"
 "http://www.w3.org/Graphics/SVG/1.1/DTD/svg11.dtd">
<!-- Generated by graphviz version 2.38.0 (20140413.2041)
 -->
<!-- Title: et_util.get_df Pages: 1 -->
<svg width="446pt" height="66pt"
 viewBox="0.00 0.00 446.00 66.00" xmlns="http://www.w3.org/2000/svg" xmlns:xlink="http://www.w3.org/1999/xlink">
<g id="graph0" class="graph" transform="scale(1 1) rotate(0) translate(4 62)">
<title>et_util.get_df</title>
<polygon fill="white" stroke="none" points="-4,4 -4,-62 442,-62 442,4 -4,4"/>
<!-- Node1 -->
<g id="node1" class="node"><title>Node1</title>
<polygon fill="#bfbfbf" stroke="black" points="0,-0.5 0,-19.5 72,-19.5 72,-0.5 0,-0.5"/>
<text text-anchor="middle" x="36" y="-7.5" font-family="Helvetica,sans-Serif" font-size="10.00">et_util.get_df</text>
</g>
<!-- Node2 -->
<g id="node2" class="node"><title>Node2</title>
<g id="a_node2"><a xlink:href="namespaceet__util.html#afe6d9320f59488fc7e462d7c501e828d" target="_top" xlink:title="et_util.concat_df">
<polygon fill="white" stroke="black" points="108,-0.5 108,-19.5 196,-19.5 196,-0.5 108,-0.5"/>
<text text-anchor="middle" x="152" y="-7.5" font-family="Helvetica,sans-Serif" font-size="10.00">et_util.concat_df</text>
</a>
</g>
</g>
<!-- Node1&#45;&gt;Node2 -->
<g id="edge1" class="edge"><title>Node1&#45;&gt;Node2</title>
<path fill="none" stroke="midnightblue" d="M82.1755,-10C90.5972,-10 99.3791,-10 107.741,-10"/>
<polygon fill="midnightblue" stroke="midnightblue" points="82.134,-6.5001 72.134,-10 82.1339,-13.5001 82.134,-6.5001"/>
</g>
<!-- Node3 -->
<g id="node3" class="node"><title>Node3</title>
<g id="a_node3"><a xlink:href="namespaceet__util.html#ad14756ce8dfea7ab6da605eb2a34af45" target="_top" xlink:title="et_util.inventory">
<polygon fill="white" stroke="black" points="232,-19.5 232,-38.5 316,-38.5 316,-19.5 232,-19.5"/>
<text text-anchor="middle" x="274" y="-26.5" font-family="Helvetica,sans-Serif" font-size="10.00">et_util.inventory</text>
</a>
</g>
</g>
<!-- Node2&#45;&gt;Node3 -->
<g id="edge2" class="edge"><title>Node2&#45;&gt;Node3</title>
<path fill="none" stroke="midnightblue" d="M206.236,-18.429C214.789,-19.7832 223.527,-21.1668 231.745,-22.4679"/>
<polygon fill="midnightblue" stroke="midnightblue" points="206.747,-14.9664 196.323,-16.8594 205.652,-21.8803 206.747,-14.9664"/>
</g>
<!-- Node4 -->
<g id="node4" class="node"><title>Node4</title>
<g id="a_node4"><a xlink:href="namespaceet__util.html#a164b6705ccf94cb947d6bd11c7c19021" target="_top" xlink:title="et_util.startup">
<polygon fill="white" stroke="black" points="357,-38.5 357,-57.5 433,-57.5 433,-38.5 357,-38.5"/>
<text text-anchor="middle" x="395" y="-45.5" font-family="Helvetica,sans-Serif" font-size="10.00">et_util.startup</text>
</a>
</g>
</g>
<!-- Node3&#45;&gt;Node4 -->
<g id="edge3" class="edge"><title>Node3&#45;&gt;Node4</title>
<path fill="none" stroke="midnightblue" d="M326.355,-37.1996C336.579,-38.8319 347.129,-40.5164 356.768,-42.0555"/>
<polygon fill="midnightblue" stroke="midnightblue" points="326.713,-33.7125 316.286,-35.592 325.61,-40.6249 326.713,-33.7125"/>
</g>
<!-- Node5 -->
<g id="node5" class="node"><title>Node5</title>
<g id="a_node5"><a xlink:href="namespaceet__util.html#a7d463c3690915efb78c87700565efc77" target="_top" xlink:title="et_util.clean_file">
<polygon fill="white" stroke="black" points="352,-0.5 352,-19.5 438,-19.5 438,-0.5 352,-0.5"/>
<text text-anchor="middle" x="395" y="-7.5" font-family="Helvetica,sans-Serif" font-size="10.00">et_util.clean_file</text>
</a>
</g>
</g>
<!-- Node3&#45;&gt;Node5 -->
<g id="edge4" class="edge"><title>Node3&#45;&gt;Node5</title>
<path fill="none" stroke="midnightblue" d="M309.679,-17.2647C322.776,-14.5567 337.829,-12.0538 351.558,-10.2793"/>
<polygon fill="midnightblue" stroke="midnightblue" points="308.671,-13.9028 299.657,-19.4705 310.175,-20.7392 308.671,-13.9028"/>
</g>
<!-- Node5&#45;&gt;Node2 -->
<g id="edge6" class="edge"><title>Node5&#45;&gt;Node2</title>
<path fill="none" stroke="midnightblue" d="M341.577,-10C298.028,-10 236.822,-10 196.086,-10"/>
<polygon fill="midnightblue" stroke="midnightblue" points="341.691,-13.5001 351.691,-10 341.691,-6.5001 341.691,-13.5001"/>
</g>
<!-- Node5&#45;&gt;Node3 -->
<g id="edge5" class="edge"><title>Node5&#45;&gt;Node3</title>
<path fill="none" stroke="midnightblue" d="M359.569,-21.6839C346.046,-24.4879 330.409,-27.076 316.286,-28.8687"/>
<polygon fill="midnightblue" stroke="midnightblue" points="360.426,-25.079 369.438,-19.5072 358.919,-18.2433 360.426,-25.079"/>
</g>
</g>
</svg>
