<?xml version="1.0" encoding="UTF-8" standalone="no"?>
<!DOCTYPE svg PUBLIC "-//W3C//DTD SVG 1.1//EN"
 "http://www.w3.org/Graphics/SVG/1.1/DTD/svg11.dtd">
<!-- Generated by graphviz version 2.38.0 (20140413.2041)
 -->
<!-- Title: et_util.get_df Pages: 1 -->
<svg width="213pt" height="218pt"
 viewBox="0.00 0.00 213.00 218.00" xmlns="http://www.w3.org/2000/svg" xmlns:xlink="http://www.w3.org/1999/xlink">
<g id="graph0" class="graph" transform="scale(1 1) rotate(0) translate(4 214)">
<title>et_util.get_df</title>
<polygon fill="white" stroke="none" points="-4,4 -4,-214 209,-214 209,4 -4,4"/>
<!-- Node1 -->
<g id="node1" class="node"><title>Node1</title>
<polygon fill="#bfbfbf" stroke="black" points="0,-95.5 0,-114.5 72,-114.5 72,-95.5 0,-95.5"/>
<text text-anchor="middle" x="36" y="-102.5" font-family="Helvetica,sans-Serif" font-size="10.00">et_util.get_df</text>
</g>
<!-- Node2 -->
<g id="node2" class="node"><title>Node2</title>
<g id="a_node2"><a xlink:href="namespaceet__util.html#a7535fb2ada235d852a05717bdd6d67a9" target="_top" xlink:title="et_util.read_s_ec">
<polygon fill="white" stroke="black" points="111,-190.5 111,-209.5 202,-209.5 202,-190.5 111,-190.5"/>
<text text-anchor="middle" x="156.5" y="-197.5" font-family="Helvetica,sans-Serif" font-size="10.00">et_util.read_s_ec</text>
</a>
</g>
</g>
<!-- Node1&#45;&gt;Node2 -->
<g id="edge1" class="edge"><title>Node1&#45;&gt;Node2</title>
<path fill="none" stroke="midnightblue" d="M43.8048,-114.686C55.3604,-130.51 80.2803,-162.038 108,-181 110.712,-182.855 113.633,-184.571 116.645,-186.15"/>
<polygon fill="midnightblue" stroke="midnightblue" points="115.299,-189.384 125.838,-190.472 118.277,-183.049 115.299,-189.384"/>
</g>
<!-- Node3 -->
<g id="node3" class="node"><title>Node3</title>
<g id="a_node3"><a xlink:href="namespaceet__util.html#a5cfb9371164d33036c4d3ec9f7a80e88" target="_top" xlink:title="et_util.read_s_met">
<polygon fill="white" stroke="black" points="108,-152.5 108,-171.5 205,-171.5 205,-152.5 108,-152.5"/>
<text text-anchor="middle" x="156.5" y="-159.5" font-family="Helvetica,sans-Serif" font-size="10.00">et_util.read_s_met</text>
</a>
</g>
</g>
<!-- Node1&#45;&gt;Node3 -->
<g id="edge2" class="edge"><title>Node1&#45;&gt;Node3</title>
<path fill="none" stroke="midnightblue" d="M53.6603,-114.595C67.8817,-122.62 88.9903,-134.144 108,-143 112.096,-144.908 116.44,-146.808 120.771,-148.628"/>
<polygon fill="midnightblue" stroke="midnightblue" points="119.552,-151.911 130.133,-152.456 122.202,-145.432 119.552,-151.911"/>
</g>
<!-- Node4 -->
<g id="node4" class="node"><title>Node4</title>
<g id="a_node4"><a xlink:href="namespaceet__util.html#a37255b034ed791b14cb66dc5df649a3f" target="_top" xlink:title="et_util.read_s_rad">
<polygon fill="white" stroke="black" points="109.5,-114.5 109.5,-133.5 203.5,-133.5 203.5,-114.5 109.5,-114.5"/>
<text text-anchor="middle" x="156.5" y="-121.5" font-family="Helvetica,sans-Serif" font-size="10.00">et_util.read_s_rad</text>
</a>
</g>
</g>
<!-- Node1&#45;&gt;Node4 -->
<g id="edge3" class="edge"><title>Node1&#45;&gt;Node4</title>
<path fill="none" stroke="midnightblue" d="M72.2331,-110.649C80.7504,-112.015 90.0647,-113.508 99.2811,-114.986"/>
<polygon fill="midnightblue" stroke="midnightblue" points="98.7729,-118.449 109.201,-116.577 99.8811,-111.537 98.7729,-118.449"/>
</g>
<!-- Node5 -->
<g id="node5" class="node"><title>Node5</title>
<g id="a_node5"><a xlink:href="namespaceet__util.html#a5cda9dc3d34bdd80d01b977e805f4b04" target="_top" xlink:title="et_util.read_d_ec">
<polygon fill="white" stroke="black" points="111,-76.5 111,-95.5 202,-95.5 202,-76.5 111,-76.5"/>
<text text-anchor="middle" x="156.5" y="-83.5" font-family="Helvetica,sans-Serif" font-size="10.00">et_util.read_d_ec</text>
</a>
</g>
</g>
<!-- Node1&#45;&gt;Node5 -->
<g id="edge4" class="edge"><title>Node1&#45;&gt;Node5</title>
<path fill="none" stroke="midnightblue" d="M72.2331,-99.3508C81.2461,-97.9057 91.1516,-96.3175 100.889,-94.7562"/>
<polygon fill="midnightblue" stroke="midnightblue" points="101.611,-98.1852 110.931,-93.1461 100.503,-91.2735 101.611,-98.1852"/>
</g>
<!-- Node6 -->
<g id="node6" class="node"><title>Node6</title>
<g id="a_node6"><a xlink:href="namespaceet__util.html#aa20b5ae88dbfb272ae5e7f53f4678358" target="_top" xlink:title="et_util.read_d_met">
<polygon fill="white" stroke="black" points="108,-38.5 108,-57.5 205,-57.5 205,-38.5 108,-38.5"/>
<text text-anchor="middle" x="156.5" y="-45.5" font-family="Helvetica,sans-Serif" font-size="10.00">et_util.read_d_met</text>
</a>
</g>
</g>
<!-- Node1&#45;&gt;Node6 -->
<g id="edge5" class="edge"><title>Node1&#45;&gt;Node6</title>
<path fill="none" stroke="midnightblue" d="M53.6603,-95.4051C67.8817,-87.38 88.9903,-75.8558 108,-67 112.096,-65.0919 116.44,-63.1918 120.771,-61.3719"/>
<polygon fill="midnightblue" stroke="midnightblue" points="122.202,-64.5684 130.133,-57.5439 119.552,-58.0891 122.202,-64.5684"/>
</g>
<!-- Node7 -->
<g id="node7" class="node"><title>Node7</title>
<g id="a_node7"><a xlink:href="namespaceet__util.html#a76d5a5c19f0e86b9ab70c0957827c260" target="_top" xlink:title="et_util.read_d_rad">
<polygon fill="white" stroke="black" points="109.5,-0.5 109.5,-19.5 203.5,-19.5 203.5,-0.5 109.5,-0.5"/>
<text text-anchor="middle" x="156.5" y="-7.5" font-family="Helvetica,sans-Serif" font-size="10.00">et_util.read_d_rad</text>
</a>
</g>
</g>
<!-- Node1&#45;&gt;Node7 -->
<g id="edge6" class="edge"><title>Node1&#45;&gt;Node7</title>
<path fill="none" stroke="midnightblue" d="M43.8048,-95.3137C55.3604,-79.4898 80.2803,-47.9621 108,-29 110.712,-27.1446 113.633,-25.4286 116.645,-23.8505"/>
<polygon fill="midnightblue" stroke="midnightblue" points="118.277,-26.9505 125.838,-19.5283 115.299,-20.6158 118.277,-26.9505"/>
</g>
</g>
</svg>
