<?xml version="1.0" encoding="UTF-8" standalone="no"?>
<!DOCTYPE svg PUBLIC "-//W3C//DTD SVG 1.1//EN"
 "http://www.w3.org/Graphics/SVG/1.1/DTD/svg11.dtd">
<!-- Generated by graphviz version 2.38.0 (20140413.2041)
 -->
<!-- Title: et_util.clean_file Pages: 1 -->
<svg width="653pt" height="256pt"
 viewBox="0.00 0.00 653.00 256.43" xmlns="http://www.w3.org/2000/svg" xmlns:xlink="http://www.w3.org/1999/xlink">
<g id="graph0" class="graph" transform="scale(1 1) rotate(0) translate(4 252.433)">
<title>et_util.clean_file</title>
<polygon fill="white" stroke="none" points="-4,4 -4,-252.433 649,-252.433 649,4 -4,4"/>
<!-- Node1 -->
<g id="node1" class="node"><title>Node1</title>
<polygon fill="#bfbfbf" stroke="black" points="0,-152.5 0,-171.5 86,-171.5 86,-152.5 0,-152.5"/>
<text text-anchor="middle" x="43" y="-159.5" font-family="Helvetica,sans-Serif" font-size="10.00">et_util.clean_file</text>
</g>
<!-- Node2 -->
<g id="node2" class="node"><title>Node2</title>
<g id="a_node2"><a xlink:href="namespaceet__util.html#ad14756ce8dfea7ab6da605eb2a34af45" target="_top" xlink:title="et_util.inventory">
<polygon fill="white" stroke="black" points="122,-152.5 122,-171.5 206,-171.5 206,-152.5 122,-152.5"/>
<text text-anchor="middle" x="164" y="-159.5" font-family="Helvetica,sans-Serif" font-size="10.00">et_util.inventory</text>
</a>
</g>
</g>
<!-- Node1&#45;&gt;Node2 -->
<g id="edge1" class="edge"><title>Node1&#45;&gt;Node2</title>
<path fill="none" stroke="midnightblue" d="M86.29,-155.507C94.459,-155.257 103.101,-155.189 111.525,-155.305"/>
<polygon fill="midnightblue" stroke="midnightblue" points="111.568,-158.807 121.646,-155.537 111.729,-151.809 111.568,-158.807"/>
</g>
<!-- Node2&#45;&gt;Node1 -->
<g id="edge3" class="edge"><title>Node2&#45;&gt;Node1</title>
<path fill="none" stroke="midnightblue" d="M121.646,-168.463C113.514,-168.728 104.882,-168.809 96.4427,-168.708"/>
<polygon fill="midnightblue" stroke="midnightblue" points="96.3619,-165.205 86.29,-168.493 96.2136,-172.204 96.3619,-165.205"/>
</g>
<!-- Node3 -->
<g id="node3" class="node"><title>Node3</title>
<g id="a_node3"><a xlink:href="namespaceet__util.html#af15d3c41901948dbb10f0c796cb6ed5b" target="_top" xlink:title="et_util.read_CRthousand_file">
<polygon fill="white" stroke="black" points="242,-190.5 242,-209.5 382,-209.5 382,-190.5 242,-190.5"/>
<text text-anchor="middle" x="312" y="-197.5" font-family="Helvetica,sans-Serif" font-size="10.00">et_util.read_CRthousand_file</text>
</a>
</g>
</g>
<!-- Node2&#45;&gt;Node3 -->
<g id="edge2" class="edge"><title>Node2&#45;&gt;Node3</title>
<path fill="none" stroke="midnightblue" d="M201.842,-171.589C220.848,-176.536 244.229,-182.621 264.469,-187.889"/>
<polygon fill="midnightblue" stroke="midnightblue" points="263.864,-191.348 274.423,-190.48 265.627,-184.574 263.864,-191.348"/>
</g>
<!-- Node4 -->
<g id="node4" class="node"><title>Node4</title>
<g id="a_node4"><a xlink:href="namespaceet__util.html#a566ff749c2a2c113c58d24649251bd5b" target="_top" xlink:title="et_util.read_CRtenX_file">
<polygon fill="white" stroke="black" points="252.5,-152.5 252.5,-171.5 371.5,-171.5 371.5,-152.5 252.5,-152.5"/>
<text text-anchor="middle" x="312" y="-159.5" font-family="Helvetica,sans-Serif" font-size="10.00">et_util.read_CRtenX_file</text>
</a>
</g>
</g>
<!-- Node2&#45;&gt;Node4 -->
<g id="edge4" class="edge"><title>Node2&#45;&gt;Node4</title>
<path fill="none" stroke="midnightblue" d="M206.058,-162C217.259,-162 229.711,-162 242.01,-162"/>
<polygon fill="midnightblue" stroke="midnightblue" points="242.275,-165.5 252.275,-162 242.275,-158.5 242.275,-165.5"/>
</g>
<!-- Node5 -->
<g id="node5" class="node"><title>Node5</title>
<g id="a_node5"><a xlink:href="namespaceet__util.html#aac88b1f4b427869a87aa4fa58150c9a5" target="_top" xlink:title="et_util.concat_df">
<polygon fill="white" stroke="black" points="268,-114.5 268,-133.5 356,-133.5 356,-114.5 268,-114.5"/>
<text text-anchor="middle" x="312" y="-121.5" font-family="Helvetica,sans-Serif" font-size="10.00">et_util.concat_df</text>
</a>
</g>
</g>
<!-- Node2&#45;&gt;Node5 -->
<g id="edge5" class="edge"><title>Node2&#45;&gt;Node5</title>
<path fill="none" stroke="midnightblue" d="M201.842,-152.411C220.848,-147.464 244.229,-141.379 264.469,-136.111"/>
<polygon fill="midnightblue" stroke="midnightblue" points="265.627,-139.426 274.423,-133.52 263.864,-132.652 265.627,-139.426"/>
</g>
<!-- Node13 -->
<g id="node13" class="node"><title>Node13</title>
<g id="a_node13"><a xlink:href="namespaceet__util.html#a268576a0b696d02b66ee4dd391812bfe" target="_top" xlink:title="et_util.echo_description">
<polygon fill="white" stroke="black" points="526,-228.5 526,-247.5 645,-247.5 645,-228.5 526,-228.5"/>
<text text-anchor="middle" x="585.5" y="-235.5" font-family="Helvetica,sans-Serif" font-size="10.00">et_util.echo_description</text>
</a>
</g>
</g>
<!-- Node2&#45;&gt;Node13 -->
<g id="edge15" class="edge"><title>Node2&#45;&gt;Node13</title>
<path fill="none" stroke="midnightblue" d="M174.333,-171.851C187.804,-185.319 214.152,-208.951 242,-219 332.365,-251.61 444.844,-250.667 515.685,-245.508"/>
<polygon fill="midnightblue" stroke="midnightblue" points="516.129,-248.984 525.827,-244.72 515.586,-242.005 516.129,-248.984"/>
</g>
<!-- Node5&#45;&gt;Node1 -->
<g id="edge6" class="edge"><title>Node5&#45;&gt;Node1</title>
<path fill="none" stroke="midnightblue" d="M267.986,-126.617C229.529,-129.362 171.733,-134.485 122,-143 111.061,-144.873 99.3813,-147.419 88.4794,-150.038"/>
<polygon fill="midnightblue" stroke="midnightblue" points="87.5984,-146.65 78.7298,-152.446 89.2774,-153.446 87.5984,-146.65"/>
</g>
<!-- Node6 -->
<g id="node6" class="node"><title>Node6</title>
<g id="a_node6"><a xlink:href="namespaceet__util.html#a8013dc0897f9430ae8f354ba094b9fbd" target="_top" xlink:title="et_util.get_df">
<polygon fill="white" stroke="black" points="418,-114.5 418,-133.5 490,-133.5 490,-114.5 418,-114.5"/>
<text text-anchor="middle" x="454" y="-121.5" font-family="Helvetica,sans-Serif" font-size="10.00">et_util.get_df</text>
</a>
</g>
</g>
<!-- Node5&#45;&gt;Node6 -->
<g id="edge7" class="edge"><title>Node5&#45;&gt;Node6</title>
<path fill="none" stroke="midnightblue" d="M356.147,-124C372.36,-124 390.838,-124 407.277,-124"/>
<polygon fill="midnightblue" stroke="midnightblue" points="407.741,-127.5 417.741,-124 407.741,-120.5 407.741,-127.5"/>
</g>
<!-- Node7 -->
<g id="node7" class="node"><title>Node7</title>
<g id="a_node7"><a xlink:href="namespaceet__util.html#a0ff0e3443b5aecbd19d957799e4ed2bd" target="_top" xlink:title="et_util.read_s_ec">
<polygon fill="white" stroke="black" points="540,-190.5 540,-209.5 631,-209.5 631,-190.5 540,-190.5"/>
<text text-anchor="middle" x="585.5" y="-197.5" font-family="Helvetica,sans-Serif" font-size="10.00">et_util.read_s_ec</text>
</a>
</g>
</g>
<!-- Node6&#45;&gt;Node7 -->
<g id="edge8" class="edge"><title>Node6&#45;&gt;Node7</title>
<path fill="none" stroke="midnightblue" d="M464.738,-133.775C477.697,-146.293 501.8,-167.928 526,-181 529.965,-183.142 534.213,-185.094 538.542,-186.86"/>
<polygon fill="midnightblue" stroke="midnightblue" points="537.48,-190.2 548.072,-190.433 539.937,-183.645 537.48,-190.2"/>
</g>
<!-- Node8 -->
<g id="node8" class="node"><title>Node8</title>
<g id="a_node8"><a xlink:href="namespaceet__util.html#a5cfb9371164d33036c4d3ec9f7a80e88" target="_top" xlink:title="et_util.read_s_met">
<polygon fill="white" stroke="black" points="537,-152.5 537,-171.5 634,-171.5 634,-152.5 537,-152.5"/>
<text text-anchor="middle" x="585.5" y="-159.5" font-family="Helvetica,sans-Serif" font-size="10.00">et_util.read_s_met</text>
</a>
</g>
</g>
<!-- Node6&#45;&gt;Node8 -->
<g id="edge9" class="edge"><title>Node6&#45;&gt;Node8</title>
<path fill="none" stroke="midnightblue" d="M487.678,-133.589C504.089,-138.404 524.176,-144.299 541.792,-149.468"/>
<polygon fill="midnightblue" stroke="midnightblue" points="541.251,-152.957 551.832,-152.414 543.222,-146.24 541.251,-152.957"/>
</g>
<!-- Node9 -->
<g id="node9" class="node"><title>Node9</title>
<g id="a_node9"><a xlink:href="namespaceet__util.html#a37255b034ed791b14cb66dc5df649a3f" target="_top" xlink:title="et_util.read_s_rad">
<polygon fill="white" stroke="black" points="538.5,-114.5 538.5,-133.5 632.5,-133.5 632.5,-114.5 538.5,-114.5"/>
<text text-anchor="middle" x="585.5" y="-121.5" font-family="Helvetica,sans-Serif" font-size="10.00">et_util.read_s_rad</text>
</a>
</g>
</g>
<!-- Node6&#45;&gt;Node9 -->
<g id="edge10" class="edge"><title>Node6&#45;&gt;Node9</title>
<path fill="none" stroke="midnightblue" d="M490.045,-124C501.747,-124 515.103,-124 528.014,-124"/>
<polygon fill="midnightblue" stroke="midnightblue" points="528.232,-127.5 538.232,-124 528.232,-120.5 528.232,-127.5"/>
</g>
<!-- Node10 -->
<g id="node10" class="node"><title>Node10</title>
<g id="a_node10"><a xlink:href="namespaceet__util.html#a47edeac1eddaaebc3dda2c36f86d8333" target="_top" xlink:title="et_util.read_d_ec">
<polygon fill="white" stroke="black" points="540,-76.5 540,-95.5 631,-95.5 631,-76.5 540,-76.5"/>
<text text-anchor="middle" x="585.5" y="-83.5" font-family="Helvetica,sans-Serif" font-size="10.00">et_util.read_d_ec</text>
</a>
</g>
</g>
<!-- Node6&#45;&gt;Node10 -->
<g id="edge11" class="edge"><title>Node6&#45;&gt;Node10</title>
<path fill="none" stroke="midnightblue" d="M487.678,-114.411C504.089,-109.596 524.176,-103.701 541.792,-98.532"/>
<polygon fill="midnightblue" stroke="midnightblue" points="543.222,-101.76 551.832,-95.5859 541.251,-95.0433 543.222,-101.76"/>
</g>
<!-- Node11 -->
<g id="node11" class="node"><title>Node11</title>
<g id="a_node11"><a xlink:href="namespaceet__util.html#aa20b5ae88dbfb272ae5e7f53f4678358" target="_top" xlink:title="et_util.read_d_met">
<polygon fill="white" stroke="black" points="537,-38.5 537,-57.5 634,-57.5 634,-38.5 537,-38.5"/>
<text text-anchor="middle" x="585.5" y="-45.5" font-family="Helvetica,sans-Serif" font-size="10.00">et_util.read_d_met</text>
</a>
</g>
</g>
<!-- Node6&#45;&gt;Node11 -->
<g id="edge12" class="edge"><title>Node6&#45;&gt;Node11</title>
<path fill="none" stroke="midnightblue" d="M464.738,-114.225C477.697,-101.707 501.8,-80.0715 526,-67 529.965,-64.8582 534.213,-62.9062 538.542,-61.1397"/>
<polygon fill="midnightblue" stroke="midnightblue" points="539.937,-64.3546 548.072,-57.5669 537.48,-57.8001 539.937,-64.3546"/>
</g>
<!-- Node12 -->
<g id="node12" class="node"><title>Node12</title>
<g id="a_node12"><a xlink:href="namespaceet__util.html#a76d5a5c19f0e86b9ab70c0957827c260" target="_top" xlink:title="et_util.read_d_rad">
<polygon fill="white" stroke="black" points="538.5,-0.5 538.5,-19.5 632.5,-19.5 632.5,-0.5 538.5,-0.5"/>
<text text-anchor="middle" x="585.5" y="-7.5" font-family="Helvetica,sans-Serif" font-size="10.00">et_util.read_d_rad</text>
</a>
</g>
</g>
<!-- Node6&#45;&gt;Node12 -->
<g id="edge13" class="edge"><title>Node6&#45;&gt;Node12</title>
<path fill="none" stroke="midnightblue" d="M459.612,-114.371C469.248,-95.2618 493.357,-52.3785 526,-29 528.691,-27.0725 531.589,-25.3332 534.603,-23.7648"/>
<polygon fill="midnightblue" stroke="midnightblue" points="536.238,-26.8666 543.905,-19.555 533.352,-20.4893 536.238,-26.8666"/>
</g>
<!-- Node6&#45;&gt;Node13 -->
<g id="edge14" class="edge"><title>Node6&#45;&gt;Node13</title>
<path fill="none" stroke="midnightblue" d="M459.612,-133.629C469.248,-152.738 493.357,-195.621 526,-219 528.691,-220.927 531.589,-222.667 534.603,-224.235"/>
<polygon fill="midnightblue" stroke="midnightblue" points="533.352,-227.511 543.905,-228.445 536.238,-221.133 533.352,-227.511"/>
</g>
</g>
</svg>
