<?xml version="1.0" encoding="UTF-8" standalone="no"?>
<!DOCTYPE svg PUBLIC "-//W3C//DTD SVG 1.1//EN"
 "http://www.w3.org/Graphics/SVG/1.1/DTD/svg11.dtd">
<!-- Generated by graphviz version 2.38.0 (20140413.2041)
 -->
<!-- Title: et_util.read_CRthousand_file Pages: 1 -->
<svg width="514pt" height="85pt"
 viewBox="0.00 0.00 514.00 85.00" xmlns="http://www.w3.org/2000/svg" xmlns:xlink="http://www.w3.org/1999/xlink">
<g id="graph0" class="graph" transform="scale(1 1) rotate(0) translate(4 81)">
<title>et_util.read_CRthousand_file</title>
<polygon fill="white" stroke="none" points="-4,4 -4,-81 510,-81 510,4 -4,4"/>
<!-- Node1 -->
<g id="node1" class="node"><title>Node1</title>
<polygon fill="#bfbfbf" stroke="black" points="0,-19.5 0,-38.5 140,-38.5 140,-19.5 0,-19.5"/>
<text text-anchor="middle" x="70" y="-26.5" font-family="Helvetica,sans-Serif" font-size="10.00">et_util.read_CRthousand_file</text>
</g>
<!-- Node2 -->
<g id="node2" class="node"><title>Node2</title>
<g id="a_node2"><a xlink:href="namespaceet__util.html#ad14756ce8dfea7ab6da605eb2a34af45" target="_top" xlink:title="et_util.inventory">
<polygon fill="white" stroke="black" points="176,-19.5 176,-38.5 260,-38.5 260,-19.5 176,-19.5"/>
<text text-anchor="middle" x="218" y="-26.5" font-family="Helvetica,sans-Serif" font-size="10.00">et_util.inventory</text>
</a>
</g>
</g>
<!-- Node1&#45;&gt;Node2 -->
<g id="edge1" class="edge"><title>Node1&#45;&gt;Node2</title>
<path fill="none" stroke="midnightblue" d="M150.193,-29C159.064,-29 167.814,-29 175.91,-29"/>
<polygon fill="midnightblue" stroke="midnightblue" points="150.152,-25.5001 140.152,-29 150.152,-32.5001 150.152,-25.5001"/>
</g>
<!-- Node3 -->
<g id="node3" class="node"><title>Node3</title>
<g id="a_node3"><a xlink:href="namespaceet__util.html#a164b6705ccf94cb947d6bd11c7c19021" target="_top" xlink:title="et_util.startup">
<polygon fill="white" stroke="black" points="301,-57.5 301,-76.5 377,-76.5 377,-57.5 301,-57.5"/>
<text text-anchor="middle" x="339" y="-64.5" font-family="Helvetica,sans-Serif" font-size="10.00">et_util.startup</text>
</a>
</g>
</g>
<!-- Node2&#45;&gt;Node3 -->
<g id="edge2" class="edge"><title>Node2&#45;&gt;Node3</title>
<path fill="none" stroke="midnightblue" d="M258.71,-41.6804C274.789,-46.8148 293.043,-52.6441 307.981,-57.4141"/>
<polygon fill="midnightblue" stroke="midnightblue" points="259.62,-38.2969 249.029,-38.589 257.49,-44.9652 259.62,-38.2969"/>
</g>
<!-- Node4 -->
<g id="node4" class="node"><title>Node4</title>
<g id="a_node4"><a xlink:href="namespaceet__util.html#a7d463c3690915efb78c87700565efc77" target="_top" xlink:title="et_util.clean_file">
<polygon fill="white" stroke="black" points="296,-19.5 296,-38.5 382,-38.5 382,-19.5 296,-19.5"/>
<text text-anchor="middle" x="339" y="-26.5" font-family="Helvetica,sans-Serif" font-size="10.00">et_util.clean_file</text>
</a>
</g>
</g>
<!-- Node2&#45;&gt;Node4 -->
<g id="edge3" class="edge"><title>Node2&#45;&gt;Node4</title>
<path fill="none" stroke="midnightblue" d="M270.505,-22.3045C279.012,-22.1879 287.741,-22.2584 295.98,-22.5158"/>
<polygon fill="midnightblue" stroke="midnightblue" points="270.203,-18.8104 260.286,-22.5393 270.364,-25.8085 270.203,-18.8104"/>
</g>
<!-- Node4&#45;&gt;Node2 -->
<g id="edge4" class="edge"><title>Node4&#45;&gt;Node2</title>
<path fill="none" stroke="midnightblue" d="M285.735,-35.7054C277.216,-35.8108 268.495,-35.7293 260.286,-35.4607"/>
<polygon fill="midnightblue" stroke="midnightblue" points="286.058,-39.1994 295.98,-35.4842 285.906,-32.201 286.058,-39.1994"/>
</g>
<!-- Node5 -->
<g id="node5" class="node"><title>Node5</title>
<g id="a_node5"><a xlink:href="namespaceet__util.html#aac88b1f4b427869a87aa4fa58150c9a5" target="_top" xlink:title="et_util.concat_df">
<polygon fill="white" stroke="black" points="418,-0.5 418,-19.5 506,-19.5 506,-0.5 418,-0.5"/>
<text text-anchor="middle" x="462" y="-7.5" font-family="Helvetica,sans-Serif" font-size="10.00">et_util.concat_df</text>
</a>
</g>
</g>
<!-- Node4&#45;&gt;Node5 -->
<g id="edge5" class="edge"><title>Node4&#45;&gt;Node5</title>
<path fill="none" stroke="midnightblue" d="M392.444,-20.765C400.866,-19.4425 409.501,-18.0866 417.679,-16.8024"/>
<polygon fill="midnightblue" stroke="midnightblue" points="391.656,-17.3458 382.32,-22.3547 392.742,-24.261 391.656,-17.3458"/>
</g>
<!-- Node5&#45;&gt;Node2 -->
<g id="edge6" class="edge"><title>Node5&#45;&gt;Node2</title>
<path fill="none" stroke="midnightblue" d="M407.589,-6.74476C375.19,-5.57714 333.078,-5.49303 296,-10 280.691,-11.8608 264.04,-15.7301 250.15,-19.4944"/>
<polygon fill="midnightblue" stroke="midnightblue" points="407.615,-10.2486 417.749,-7.15748 407.899,-3.25435 407.615,-10.2486"/>
</g>
</g>
</svg>
