<?xml version="1.0" encoding="UTF-8" standalone="no"?>
<!DOCTYPE svg PUBLIC "-//W3C//DTD SVG 1.1//EN"
 "http://www.w3.org/Graphics/SVG/1.1/DTD/svg11.dtd">
<!-- Generated by graphviz version 2.38.0 (20140413.2041)
 -->
<!-- Title: et_util.read_s_ec Pages: 1 -->
<svg width="573pt" height="78pt"
 viewBox="0.00 0.00 573.00 78.32" xmlns="http://www.w3.org/2000/svg" xmlns:xlink="http://www.w3.org/1999/xlink">
<g id="graph0" class="graph" transform="scale(1 1) rotate(0) translate(4 74.3237)">
<title>et_util.read_s_ec</title>
<polygon fill="white" stroke="none" points="-4,4 -4,-74.3237 569,-74.3237 569,4 -4,4"/>
<!-- Node1 -->
<g id="node1" class="node"><title>Node1</title>
<polygon fill="#bfbfbf" stroke="black" points="0,-31.8237 0,-50.8237 91,-50.8237 91,-31.8237 0,-31.8237"/>
<text text-anchor="middle" x="45.5" y="-38.8237" font-family="Helvetica,sans-Serif" font-size="10.00">et_util.read_s_ec</text>
</g>
<!-- Node2 -->
<g id="node2" class="node"><title>Node2</title>
<g id="a_node2"><a xlink:href="namespaceet__util.html#adf3e6bef75b663226a9c118684f91689" target="_top" xlink:title="et_util.read_files">
<polygon fill="white" stroke="black" points="235.5,-50.8237 235.5,-69.8237 322.5,-69.8237 322.5,-50.8237 235.5,-50.8237"/>
<text text-anchor="middle" x="279" y="-57.8237" font-family="Helvetica,sans-Serif" font-size="10.00">et_util.read_files</text>
</a>
</g>
</g>
<!-- Node1&#45;&gt;Node2 -->
<g id="edge1" class="edge"><title>Node1&#45;&gt;Node2</title>
<path fill="none" stroke="midnightblue" d="M101.245,-45.8168C142.301,-49.1864 197.693,-53.7326 235.455,-56.8319"/>
<polygon fill="midnightblue" stroke="midnightblue" points="101.388,-42.3169 91.1355,-44.9871 100.816,-49.2934 101.388,-42.3169"/>
</g>
<!-- Node4 -->
<g id="node4" class="node"><title>Node4</title>
<g id="a_node4"><a xlink:href="namespaceet__util.html#a8013dc0897f9430ae8f354ba094b9fbd" target="_top" xlink:title="et_util.get_df">
<polygon fill="white" stroke="black" points="127,-12.8237 127,-31.8237 199,-31.8237 199,-12.8237 127,-12.8237"/>
<text text-anchor="middle" x="163" y="-19.8237" font-family="Helvetica,sans-Serif" font-size="10.00">et_util.get_df</text>
</a>
</g>
</g>
<!-- Node1&#45;&gt;Node4 -->
<g id="edge3" class="edge"><title>Node1&#45;&gt;Node4</title>
<path fill="none" stroke="midnightblue" d="M101.253,-32.3166C109.931,-30.8891 118.699,-29.4467 126.771,-28.1188"/>
<polygon fill="midnightblue" stroke="midnightblue" points="100.455,-28.9009 91.1553,-33.9778 101.591,-35.8081 100.455,-28.9009"/>
</g>
<!-- Node3 -->
<g id="node3" class="node"><title>Node3</title>
<g id="a_node3"><a xlink:href="namespaceet__util.html#a164b6705ccf94cb947d6bd11c7c19021" target="_top" xlink:title="et_util.startup">
<polygon fill="white" stroke="black" points="484,-50.8237 484,-69.8237 560,-69.8237 560,-50.8237 484,-50.8237"/>
<text text-anchor="middle" x="522" y="-57.8237" font-family="Helvetica,sans-Serif" font-size="10.00">et_util.startup</text>
</a>
</g>
</g>
<!-- Node2&#45;&gt;Node3 -->
<g id="edge2" class="edge"><title>Node2&#45;&gt;Node3</title>
<path fill="none" stroke="midnightblue" d="M332.535,-60.3237C378.171,-60.3237 443.133,-60.3237 483.639,-60.3237"/>
<polygon fill="midnightblue" stroke="midnightblue" points="332.531,-56.8238 322.531,-60.3237 332.531,-63.8238 332.531,-56.8238"/>
</g>
<!-- Node5 -->
<g id="node5" class="node"><title>Node5</title>
<g id="a_node5"><a xlink:href="namespaceet__util.html#aac88b1f4b427869a87aa4fa58150c9a5" target="_top" xlink:title="et_util.concat_df">
<polygon fill="white" stroke="black" points="235,-12.8237 235,-31.8237 323,-31.8237 323,-12.8237 235,-12.8237"/>
<text text-anchor="middle" x="279" y="-19.8237" font-family="Helvetica,sans-Serif" font-size="10.00">et_util.concat_df</text>
</a>
</g>
</g>
<!-- Node4&#45;&gt;Node5 -->
<g id="edge4" class="edge"><title>Node4&#45;&gt;Node5</title>
<path fill="none" stroke="midnightblue" d="M209.176,-22.3237C217.597,-22.3237 226.379,-22.3237 234.741,-22.3237"/>
<polygon fill="midnightblue" stroke="midnightblue" points="209.134,-18.8238 199.134,-22.3237 209.134,-25.8238 209.134,-18.8238"/>
</g>
<!-- Node6 -->
<g id="node6" class="node"><title>Node6</title>
<g id="a_node6"><a xlink:href="namespaceet__util.html#ad14756ce8dfea7ab6da605eb2a34af45" target="_top" xlink:title="et_util.inventory">
<polygon fill="white" stroke="black" points="359,-12.8237 359,-31.8237 443,-31.8237 443,-12.8237 359,-12.8237"/>
<text text-anchor="middle" x="401" y="-19.8237" font-family="Helvetica,sans-Serif" font-size="10.00">et_util.inventory</text>
</a>
</g>
</g>
<!-- Node5&#45;&gt;Node6 -->
<g id="edge5" class="edge"><title>Node5&#45;&gt;Node6</title>
<path fill="none" stroke="midnightblue" d="M333.515,-22.3237C341.979,-22.3237 350.617,-22.3237 358.745,-22.3237"/>
<polygon fill="midnightblue" stroke="midnightblue" points="333.323,-18.8238 323.323,-22.3237 333.323,-25.8238 333.323,-18.8238"/>
</g>
<!-- Node6&#45;&gt;Node3 -->
<g id="edge6" class="edge"><title>Node6&#45;&gt;Node3</title>
<path fill="none" stroke="midnightblue" d="M441.71,-35.0041C457.789,-40.1385 476.043,-45.9678 490.981,-50.7377"/>
<polygon fill="midnightblue" stroke="midnightblue" points="442.62,-31.6205 432.029,-31.9127 440.49,-38.2888 442.62,-31.6205"/>
</g>
<!-- Node7 -->
<g id="node7" class="node"><title>Node7</title>
<g id="a_node7"><a xlink:href="namespaceet__util.html#a7d463c3690915efb78c87700565efc77" target="_top" xlink:title="et_util.clean_file">
<polygon fill="white" stroke="black" points="479,-12.8237 479,-31.8237 565,-31.8237 565,-12.8237 479,-12.8237"/>
<text text-anchor="middle" x="522" y="-19.8237" font-family="Helvetica,sans-Serif" font-size="10.00">et_util.clean_file</text>
</a>
</g>
</g>
<!-- Node6&#45;&gt;Node7 -->
<g id="edge7" class="edge"><title>Node6&#45;&gt;Node7</title>
<path fill="none" stroke="midnightblue" d="M453.505,-15.6281C462.012,-15.5116 470.741,-15.5821 478.98,-15.8395"/>
<polygon fill="midnightblue" stroke="midnightblue" points="453.203,-12.134 443.286,-15.863 453.364,-19.1322 453.203,-12.134"/>
</g>
<!-- Node7&#45;&gt;Node5 -->
<g id="edge9" class="edge"><title>Node7&#45;&gt;Node5</title>
<path fill="none" stroke="midnightblue" d="M479.491,-10.2676C467.793,-7.40327 454.987,-4.76263 443,-3.32366 405.933,1.12588 396.074,1.07189 359,-3.32366 343.311,-5.18382 326.229,-9.05306 311.975,-12.8174"/>
<polygon fill="midnightblue" stroke="midnightblue" points="478.881,-13.7244 489.437,-12.8177 480.62,-6.94372 478.881,-13.7244"/>
</g>
<!-- Node7&#45;&gt;Node6 -->
<g id="edge8" class="edge"><title>Node7&#45;&gt;Node6</title>
<path fill="none" stroke="midnightblue" d="M468.735,-29.0291C460.216,-29.1345 451.495,-29.0529 443.286,-28.7843"/>
<polygon fill="midnightblue" stroke="midnightblue" points="469.058,-32.5231 478.98,-28.8078 468.906,-25.5247 469.058,-32.5231"/>
</g>
</g>
</svg>
