<?xml version="1.0" encoding="UTF-8" standalone="no"?>
<!DOCTYPE svg PUBLIC "-//W3C//DTD SVG 1.1//EN"
 "http://www.w3.org/Graphics/SVG/1.1/DTD/svg11.dtd">
<!-- Generated by graphviz version 2.38.0 (20140413.2041)
 -->
<!-- Title: et_util.inventory Pages: 1 -->
<!--zoomable 256 -->
<svg id="main" version="1.1" xmlns="http://www.w3.org/2000/svg" xmlns:xlink="http://www.w3.org/1999/xlink" xml:space="preserve" onload="init(evt)">
<style type="text/css"><![CDATA[
.edge:hover path { stroke: red; }
.edge:hover polygon { stroke: red; fill: red; }
]]></style>
<script type="text/javascript"><![CDATA[
var edges = document.getElementsByTagName('g');
if (edges && edges.length) {
  for (var i=0;i<edges.length;i++) {
    if (edges[i].id.substr(0,4)=='edge') {
      edges[i].setAttribute('class','edge');
    }
  }
}
]]></script>
        <defs>
                <circle id="rim" cx="0" cy="0" r="7"/>
                <circle id="rim2" cx="0" cy="0" r="3.5"/>
                <g id="zoomPlus">
                        <use xlink:href="#rim" fill="#404040">
                                <set attributeName="fill" to="#808080" begin="zoomplus.mouseover" end="zoomplus.mouseout"/>
                        </use>
                        <path d="M-4,0h8M0,-4v8" fill="none" stroke="white" stroke-width="1.5" pointer-events="none"/>
                </g>
                <g id="zoomMin">
                        <use xlink:href="#rim" fill="#404040">
                                <set attributeName="fill" to="#808080" begin="zoomminus.mouseover" end="zoomminus.mouseout"/>
                        </use>
                        <path d="M-4,0h8" fill="none" stroke="white" stroke-width="1.5" pointer-events="none"/>
                </g>
                <g id="dirArrow">
                        <path fill="none" stroke="white" stroke-width="1.5" d="M0,-3.0v7 M-2.5,-0.5L0,-3.0L2.5,-0.5"/>
                </g>
               <g id="resetDef">
                       <use xlink:href="#rim2" fill="#404040">
                               <set attributeName="fill" to="#808080" begin="reset.mouseover" end="reset.mouseout"/>
                       </use>
               </g>
        </defs>

<script type="text/javascript">
var viewWidth = 545;
var viewHeight = 256;
var sectionId = 'dynsection-19';
</script>
<script xlink:href="svgpan.js"/>
<svg id="graph" class="graph">
<g id="viewport">
<title>et_util.inventory</title>
<polygon fill="white" stroke="none" points="-4,4 -4,-252 541,-252 541,4 -4,4"/>
<!-- Node1 -->
<g id="node1" class="node"><title>Node1</title>
<polygon fill="#bfbfbf" stroke="black" points="0,-127.5 0,-146.5 84,-146.5 84,-127.5 0,-127.5"/>
<text text-anchor="middle" x="42" y="-134.5" font-family="Helvetica,sans-Serif" font-size="10.00">et_util.inventory</text>
</g>
<!-- Node2 -->
<g id="node2" class="node"><title>Node2</title>
<g id="a_node2"><a xlink:href="namespaceet__util.html#af15d3c41901948dbb10f0c796cb6ed5b" target="_top" xlink:title="et_util.read_CRthousand_file">
<polygon fill="white" stroke="black" points="120,-198.5 120,-217.5 260,-217.5 260,-198.5 120,-198.5"/>
<text text-anchor="middle" x="190" y="-205.5" font-family="Helvetica,sans-Serif" font-size="10.00">et_util.read_CRthousand_file</text>
</a>
</g>
</g>
<!-- Node1&#45;&gt;Node2 -->
<g id="edge1" class="edge"><title>Node1&#45;&gt;Node2</title>
<path fill="none" stroke="midnightblue" d="M56.6881,-146.596C71.7073,-156.825 96.7765,-173.028 120,-184 128.59,-188.058 138.061,-191.797 147.161,-195.055"/>
<polygon fill="midnightblue" stroke="midnightblue" points="146.237,-198.438 156.831,-198.394 148.521,-191.822 146.237,-198.438"/>
</g>
<!-- Node3 -->
<g id="node3" class="node"><title>Node3</title>
<g id="a_node3"><a xlink:href="namespaceet__util.html#a7d463c3690915efb78c87700565efc77" target="_top" xlink:title="et_util.clean_file">
<polygon fill="white" stroke="black" points="296,-151.5 296,-170.5 382,-170.5 382,-151.5 296,-151.5"/>
<text text-anchor="middle" x="339" y="-158.5" font-family="Helvetica,sans-Serif" font-size="10.00">et_util.clean_file</text>
</a>
</g>
</g>
<!-- Node1&#45;&gt;Node3 -->
<g id="edge2" class="edge"><title>Node1&#45;&gt;Node3</title>
<path fill="none" stroke="midnightblue" d="M84.0185,-135.492C136.739,-137.4 228.32,-144.702 285.91,-151.47"/>
<polygon fill="midnightblue" stroke="midnightblue" points="285.551,-154.952 295.9,-152.682 286.395,-148.003 285.551,-154.952"/>
</g>
<!-- Node4 -->
<g id="node4" class="node"><title>Node4</title>
<g id="a_node4"><a xlink:href="namespaceet__util.html#a566ff749c2a2c113c58d24649251bd5b" target="_top" xlink:title="et_util.read_CRtenX_file">
<polygon fill="white" stroke="black" points="130.5,-104.5 130.5,-123.5 249.5,-123.5 249.5,-104.5 130.5,-104.5"/>
<text text-anchor="middle" x="190" y="-111.5" font-family="Helvetica,sans-Serif" font-size="10.00">et_util.read_CRtenX_file</text>
</a>
</g>
</g>
<!-- Node1&#45;&gt;Node4 -->
<g id="edge4" class="edge"><title>Node1&#45;&gt;Node4</title>
<path fill="none" stroke="midnightblue" d="M84.0577,-130.532C95.3714,-128.75 107.96,-126.767 120.379,-124.81"/>
<polygon fill="midnightblue" stroke="midnightblue" points="120.942,-128.265 130.275,-123.251 119.852,-121.35 120.942,-128.265"/>
</g>
<!-- Node5 -->
<g id="node5" class="node"><title>Node5</title>
<g id="a_node5"><a xlink:href="namespaceet__util.html#aac88b1f4b427869a87aa4fa58150c9a5" target="_top" xlink:title="et_util.concat_df">
<polygon fill="white" stroke="black" points="146,-66.5 146,-85.5 234,-85.5 234,-66.5 146,-66.5"/>
<text text-anchor="middle" x="190" y="-73.5" font-family="Helvetica,sans-Serif" font-size="10.00">et_util.concat_df</text>
</a>
</g>
</g>
<!-- Node1&#45;&gt;Node5 -->
<g id="edge5" class="edge"><title>Node1&#45;&gt;Node5</title>
<path fill="none" stroke="midnightblue" d="M58.1185,-127.387C73.2852,-118.076 97.5519,-104.071 120,-95 125.897,-92.6172 132.194,-90.4276 138.496,-88.4493"/>
<polygon fill="midnightblue" stroke="midnightblue" points="139.76,-91.7248 148.346,-85.517 137.763,-85.0158 139.76,-91.7248"/>
</g>
<!-- Node13 -->
<g id="node13" class="node"><title>Node13</title>
<g id="a_node13"><a xlink:href="namespaceet__util.html#a268576a0b696d02b66ee4dd391812bfe" target="_top" xlink:title="et_util.echo_description">
<polygon fill="white" stroke="black" points="418,-0.5 418,-19.5 537,-19.5 537,-0.5 418,-0.5"/>
<text text-anchor="middle" x="477.5" y="-7.5" font-family="Helvetica,sans-Serif" font-size="10.00">et_util.echo_description</text>
</a>
</g>
</g>
<!-- Node1&#45;&gt;Node13 -->
<g id="edge15" class="edge"><title>Node1&#45;&gt;Node13</title>
<path fill="none" stroke="midnightblue" d="M49.0154,-127.358C60.449,-109.963 87.1364,-73.6024 120,-57 211.668,-10.6901 332.743,-4.49058 407.573,-5.97401"/>
<polygon fill="midnightblue" stroke="midnightblue" points="407.732,-9.47902 417.817,-6.23095 407.908,-2.48122 407.732,-9.47902"/>
</g>
<!-- Node3&#45;&gt;Node1 -->
<g id="edge3" class="edge"><title>Node3&#45;&gt;Node1</title>
<path fill="none" stroke="midnightblue" d="M295.9,-162.468C242.765,-160.491 151.423,-153.183 94.2744,-146.434"/>
<polygon fill="midnightblue" stroke="midnightblue" points="94.369,-142.92 84.0185,-145.182 93.5206,-149.868 94.369,-142.92"/>
</g>
<!-- Node5&#45;&gt;Node3 -->
<g id="edge6" class="edge"><title>Node5&#45;&gt;Node3</title>
<path fill="none" stroke="midnightblue" d="M234.07,-84.7578C242.92,-87.4039 251.978,-90.7675 260,-95 266.648,-98.5076 298.687,-126.304 319.579,-144.688"/>
<polygon fill="midnightblue" stroke="midnightblue" points="317.41,-147.442 327.225,-151.432 322.041,-142.192 317.41,-147.442"/>
</g>
<!-- Node6 -->
<g id="node6" class="node"><title>Node6</title>
<g id="a_node6"><a xlink:href="namespaceet__util.html#a8013dc0897f9430ae8f354ba094b9fbd" target="_top" xlink:title="et_util.get_df">
<polygon fill="white" stroke="black" points="303,-94.5 303,-113.5 375,-113.5 375,-94.5 303,-94.5"/>
<text text-anchor="middle" x="339" y="-101.5" font-family="Helvetica,sans-Serif" font-size="10.00">et_util.get_df</text>
</a>
</g>
</g>
<!-- Node5&#45;&gt;Node6 -->
<g id="edge7" class="edge"><title>Node5&#45;&gt;Node6</title>
<path fill="none" stroke="midnightblue" d="M234.31,-84.2495C252.746,-87.7611 274.249,-91.8569 292.879,-95.4054"/>
<polygon fill="midnightblue" stroke="midnightblue" points="292.417,-98.8803 302.895,-97.3133 293.726,-92.0039 292.417,-98.8803"/>
</g>
<!-- Node7 -->
<g id="node7" class="node"><title>Node7</title>
<g id="a_node7"><a xlink:href="namespaceet__util.html#a0ff0e3443b5aecbd19d957799e4ed2bd" target="_top" xlink:title="et_util.read_s_ec">
<polygon fill="white" stroke="black" points="432,-228.5 432,-247.5 523,-247.5 523,-228.5 432,-228.5"/>
<text text-anchor="middle" x="477.5" y="-235.5" font-family="Helvetica,sans-Serif" font-size="10.00">et_util.read_s_ec</text>
</a>
</g>
</g>
<!-- Node6&#45;&gt;Node7 -->
<g id="edge8" class="edge"><title>Node6&#45;&gt;Node7</title>
<path fill="none" stroke="midnightblue" d="M353.016,-113.516C362.025,-120.601 373.819,-130.928 382,-142 404.45,-172.384 389.692,-193.984 418,-219 419.925,-220.702 422.006,-222.251 424.195,-223.662"/>
<polygon fill="midnightblue" stroke="midnightblue" points="422.616,-226.787 433.08,-228.447 425.935,-220.624 422.616,-226.787"/>
</g>
<!-- Node8 -->
<g id="node8" class="node"><title>Node8</title>
<g id="a_node8"><a xlink:href="namespaceet__util.html#a5cfb9371164d33036c4d3ec9f7a80e88" target="_top" xlink:title="et_util.read_s_met">
<polygon fill="white" stroke="black" points="429,-190.5 429,-209.5 526,-209.5 526,-190.5 429,-190.5"/>
<text text-anchor="middle" x="477.5" y="-197.5" font-family="Helvetica,sans-Serif" font-size="10.00">et_util.read_s_met</text>
</a>
</g>
</g>
<!-- Node6&#45;&gt;Node8 -->
<g id="edge9" class="edge"><title>Node6&#45;&gt;Node8</title>
<path fill="none" stroke="midnightblue" d="M351.305,-113.735C359.906,-121.259 371.938,-132.038 382,-142 398.763,-158.597 398.137,-168.276 418,-181 421.153,-183.02 424.539,-184.842 428.036,-186.484"/>
<polygon fill="midnightblue" stroke="midnightblue" points="426.891,-189.799 437.467,-190.42 429.586,-183.338 426.891,-189.799"/>
</g>
<!-- Node9 -->
<g id="node9" class="node"><title>Node9</title>
<g id="a_node9"><a xlink:href="namespaceet__util.html#a37255b034ed791b14cb66dc5df649a3f" target="_top" xlink:title="et_util.read_s_rad">
<polygon fill="white" stroke="black" points="430.5,-152.5 430.5,-171.5 524.5,-171.5 524.5,-152.5 430.5,-152.5"/>
<text text-anchor="middle" x="477.5" y="-159.5" font-family="Helvetica,sans-Serif" font-size="10.00">et_util.read_s_rad</text>
</a>
</g>
</g>
<!-- Node6&#45;&gt;Node9 -->
<g id="edge10" class="edge"><title>Node6&#45;&gt;Node9</title>
<path fill="none" stroke="midnightblue" d="M357.31,-113.595C372.89,-122.003 396.565,-134.218 418,-143 423.381,-145.204 429.119,-147.331 434.82,-149.312"/>
<polygon fill="midnightblue" stroke="midnightblue" points="433.714,-152.633 444.308,-152.499 435.943,-145.997 433.714,-152.633"/>
</g>
<!-- Node10 -->
<g id="node10" class="node"><title>Node10</title>
<g id="a_node10"><a xlink:href="namespaceet__util.html#a47edeac1eddaaebc3dda2c36f86d8333" target="_top" xlink:title="et_util.read_d_ec">
<polygon fill="white" stroke="black" points="432,-114.5 432,-133.5 523,-133.5 523,-114.5 432,-114.5"/>
<text text-anchor="middle" x="477.5" y="-121.5" font-family="Helvetica,sans-Serif" font-size="10.00">et_util.read_d_ec</text>
</a>
</g>
</g>
<!-- Node6&#45;&gt;Node10 -->
<g id="edge11" class="edge"><title>Node6&#45;&gt;Node10</title>
<path fill="none" stroke="midnightblue" d="M375.152,-109.15C389.343,-111.23 406.053,-113.678 421.767,-115.98"/>
<polygon fill="midnightblue" stroke="midnightblue" points="421.511,-119.48 431.913,-117.467 422.526,-112.554 421.511,-119.48"/>
</g>
<!-- Node11 -->
<g id="node11" class="node"><title>Node11</title>
<g id="a_node11"><a xlink:href="namespaceet__util.html#aa20b5ae88dbfb272ae5e7f53f4678358" target="_top" xlink:title="et_util.read_d_met">
<polygon fill="white" stroke="black" points="429,-76.5 429,-95.5 526,-95.5 526,-76.5 429,-76.5"/>
<text text-anchor="middle" x="477.5" y="-83.5" font-family="Helvetica,sans-Serif" font-size="10.00">et_util.read_d_met</text>
</a>
</g>
</g>
<!-- Node6&#45;&gt;Node11 -->
<g id="edge12" class="edge"><title>Node6&#45;&gt;Node11</title>
<path fill="none" stroke="midnightblue" d="M375.152,-99.3646C388.438,-97.6126 403.931,-95.5696 418.748,-93.6157"/>
<polygon fill="midnightblue" stroke="midnightblue" points="419.406,-97.0593 428.862,-92.2819 418.49,-90.1194 419.406,-97.0593"/>
</g>
<!-- Node12 -->
<g id="node12" class="node"><title>Node12</title>
<g id="a_node12"><a xlink:href="namespaceet__util.html#a76d5a5c19f0e86b9ab70c0957827c260" target="_top" xlink:title="et_util.read_d_rad">
<polygon fill="white" stroke="black" points="430.5,-38.5 430.5,-57.5 524.5,-57.5 524.5,-38.5 430.5,-38.5"/>
<text text-anchor="middle" x="477.5" y="-45.5" font-family="Helvetica,sans-Serif" font-size="10.00">et_util.read_d_rad</text>
</a>
</g>
</g>
<!-- Node6&#45;&gt;Node12 -->
<g id="edge13" class="edge"><title>Node6&#45;&gt;Node12</title>
<path fill="none" stroke="midnightblue" d="M358.299,-94.4954C373.921,-86.5824 397.109,-75.3073 418,-67 423.467,-64.8261 429.29,-62.7079 435.063,-60.7221"/>
<polygon fill="midnightblue" stroke="midnightblue" points="436.282,-64.0051 444.66,-57.5187 434.066,-57.3652 436.282,-64.0051"/>
</g>
<!-- Node6&#45;&gt;Node13 -->
<g id="edge14" class="edge"><title>Node6&#45;&gt;Node13</title>
<path fill="none" stroke="midnightblue" d="M347.584,-94.2729C360.434,-78.4152 388.028,-46.9625 418,-29 421.456,-26.9286 425.165,-25.055 428.976,-23.366"/>
<polygon fill="midnightblue" stroke="midnightblue" points="430.582,-26.4937 438.575,-19.54 427.99,-19.9911 430.582,-26.4937"/>
</g>
</g>
</svg>
        <g id="navigator" transform="translate(0 0)" fill="#404254">
                <rect fill="#f2f5e9" fill-opacity="0.5" stroke="#606060" stroke-width=".5" x="0" y="0" width="60" height="60"/>
                <use id="zoomplus" xlink:href="#zoomPlus" x="17" y="9" onmousedown="handleZoom(evt,'in')"/>
                <use id="zoomminus" xlink:href="#zoomMin" x="42" y="9" onmousedown="handleZoom(evt,'out')"/>
                <use id="reset" xlink:href="#resetDef" x="30" y="36" onmousedown="handleReset()"/>
                <g id="arrowUp" xlink:href="#dirArrow" transform="translate(30 24)" onmousedown="handlePan(0,-1)">
                  <use xlink:href="#rim" fill="#404040">
                        <set attributeName="fill" to="#808080" begin="arrowUp.mouseover" end="arrowUp.mouseout"/>
                  </use>
                  <path fill="none" stroke="white" stroke-width="1.5" d="M0,-3.0v7 M-2.5,-0.5L0,-3.0L2.5,-0.5"/>
                </g>
                <g id="arrowRight" xlink:href="#dirArrow" transform="rotate(90) translate(36 -43)" onmousedown="handlePan(1,0)">
                  <use xlink:href="#rim" fill="#404040">
                        <set attributeName="fill" to="#808080" begin="arrowRight.mouseover" end="arrowRight.mouseout"/>
                  </use>
                  <path fill="none" stroke="white" stroke-width="1.5" d="M0,-3.0v7 M-2.5,-0.5L0,-3.0L2.5,-0.5"/>
                </g>
                <g id="arrowDown" xlink:href="#dirArrow" transform="rotate(180) translate(-30 -48)" onmousedown="handlePan(0,1)">
                  <use xlink:href="#rim" fill="#404040">
                        <set attributeName="fill" to="#808080" begin="arrowDown.mouseover" end="arrowDown.mouseout"/>
                  </use>
                  <path fill="none" stroke="white" stroke-width="1.5" d="M0,-3.0v7 M-2.5,-0.5L0,-3.0L2.5,-0.5"/>
                </g>
                <g id="arrowLeft" xlink:href="#dirArrow" transform="rotate(270) translate(-36 17)" onmousedown="handlePan(-1,0)">
                  <use xlink:href="#rim" fill="#404040">
                        <set attributeName="fill" to="#808080" begin="arrowLeft.mouseover" end="arrowLeft.mouseout"/>
                  </use>
                  <path fill="none" stroke="white" stroke-width="1.5" d="M0,-3.0v7 M-2.5,-0.5L0,-3.0L2.5,-0.5"/>
                </g>
        </g>
        <svg viewBox="0 0 15 15" width="100%" height="30px" preserveAspectRatio="xMaxYMin meet">
         <g id="arrow_out" transform="scale(0.3 0.3)">
          <a xlink:href="namespaceet__util_ad14756ce8dfea7ab6da605eb2a34af45_cgraph_org.svg" target="_base">
           <rect id="button" ry="5" rx="5" y="6" x="6" height="38" width="38"
                fill="#f2f5e9" fill-opacity="0.5" stroke="#606060" stroke-width="1.0"/>
           <path id="arrow"
             d="M 11.500037,31.436501 C 11.940474,20.09759 22.043105,11.32322 32.158766,21.979434 L 37.068811,17.246167 C 37.068811,17.246167 37.088388,32 37.088388,32 L 22.160133,31.978069 C 22.160133,31.978069 26.997745,27.140456 26.997745,27.140456 C 18.528582,18.264221 13.291696,25.230495 11.500037,31.436501 z"
             style="fill:#404040;"/>
          </a>
         </g>
        </svg>
</svg>
