<?xml version="1.0" encoding="UTF-8" standalone="no"?>
<!DOCTYPE svg PUBLIC "-//W3C//DTD SVG 1.1//EN"
 "http://www.w3.org/Graphics/SVG/1.1/DTD/svg11.dtd">
<!-- Generated by graphviz version 2.38.0 (20140413.2041)
 -->
<!-- Title: et_util.pad_missing_with_nulls Pages: 1 -->
<svg width="255pt" height="66pt"
 viewBox="0.00 0.00 255.00 66.00" xmlns="http://www.w3.org/2000/svg" xmlns:xlink="http://www.w3.org/1999/xlink">
<g id="graph0" class="graph" transform="scale(1 1) rotate(0) translate(4 62)">
<title>et_util.pad_missing_with_nulls</title>
<polygon fill="white" stroke="none" points="-4,4 -4,-62 251,-62 251,4 -4,4"/>
<!-- Node1 -->
<g id="node1" class="node"><title>Node1</title>
<polygon fill="#bfbfbf" stroke="black" points="0,-14 0,-44 101,-44 101,-14 0,-14"/>
<text text-anchor="start" x="8" y="-32" font-family="Helvetica,sans-Serif" font-size="10.00">et_util.pad_missing</text>
<text text-anchor="middle" x="50.5" y="-21" font-family="Helvetica,sans-Serif" font-size="10.00">_with_nulls</text>
</g>
<!-- Node2 -->
<g id="node2" class="node"><title>Node2</title>
<g id="a_node2"><a xlink:href="namespaceet__util.html#a15b819dcfa7f04be44839a9887e62c41" target="_top" xlink:title="et_util.gap">
<polygon fill="white" stroke="black" points="161,-38.5 161,-57.5 223,-57.5 223,-38.5 161,-38.5"/>
<text text-anchor="middle" x="192" y="-45.5" font-family="Helvetica,sans-Serif" font-size="10.00">et_util.gap</text>
</a>
</g>
</g>
<!-- Node1&#45;&gt;Node2 -->
<g id="edge1" class="edge"><title>Node1&#45;&gt;Node2</title>
<path fill="none" stroke="midnightblue" d="M111.027,-37.1076C128.148,-39.4396 146.11,-41.8859 160.663,-43.8681"/>
<polygon fill="midnightblue" stroke="midnightblue" points="111.456,-33.6338 101.075,-35.7522 110.511,-40.5698 111.456,-33.6338"/>
</g>
<!-- Node3 -->
<g id="node3" class="node"><title>Node3</title>
<g id="a_node3"><a xlink:href="namespaceet__util.html#abf296bc00b589318395becdb4aa3f89d" target="_top" xlink:title="et_util.impute_master">
<polygon fill="white" stroke="black" points="137,-0.5 137,-19.5 247,-19.5 247,-0.5 137,-0.5"/>
<text text-anchor="middle" x="192" y="-7.5" font-family="Helvetica,sans-Serif" font-size="10.00">et_util.impute_master</text>
</a>
</g>
</g>
<!-- Node1&#45;&gt;Node3 -->
<g id="edge2" class="edge"><title>Node1&#45;&gt;Node3</title>
<path fill="none" stroke="midnightblue" d="M111.016,-20.8939C119.593,-19.7257 128.382,-18.5287 136.847,-17.3756"/>
<polygon fill="midnightblue" stroke="midnightblue" points="110.511,-17.4302 101.075,-22.2478 111.456,-24.3662 110.511,-17.4302"/>
</g>
</g>
</svg>
