<?xml version="1.0" encoding="UTF-8" standalone="no"?>
<!DOCTYPE svg PUBLIC "-//W3C//DTD SVG 1.1//EN"
 "http://www.w3.org/Graphics/SVG/1.1/DTD/svg11.dtd">
<!-- Generated by graphviz version 2.38.0 (20140413.2041)
 -->
<!-- Title: et_util.read_d_ec Pages: 1 -->
<svg width="573pt" height="66pt"
 viewBox="0.00 0.00 573.00 66.00" xmlns="http://www.w3.org/2000/svg" xmlns:xlink="http://www.w3.org/1999/xlink">
<g id="graph0" class="graph" transform="scale(1 1) rotate(0) translate(4 62)">
<title>et_util.read_d_ec</title>
<polygon fill="white" stroke="none" points="-4,4 -4,-62 569,-62 569,4 -4,4"/>
<!-- Node1 -->
<g id="node1" class="node"><title>Node1</title>
<polygon fill="#bfbfbf" stroke="black" points="0,-0.5 0,-19.5 91,-19.5 91,-0.5 0,-0.5"/>
<text text-anchor="middle" x="45.5" y="-7.5" font-family="Helvetica,sans-Serif" font-size="10.00">et_util.read_d_ec</text>
</g>
<!-- Node2 -->
<g id="node2" class="node"><title>Node2</title>
<g id="a_node2"><a xlink:href="namespaceet__util.html#a8013dc0897f9430ae8f354ba094b9fbd" target="_top" xlink:title="et_util.get_df">
<polygon fill="white" stroke="black" points="127,-0.5 127,-19.5 199,-19.5 199,-0.5 127,-0.5"/>
<text text-anchor="middle" x="163" y="-7.5" font-family="Helvetica,sans-Serif" font-size="10.00">et_util.get_df</text>
</a>
</g>
</g>
<!-- Node1&#45;&gt;Node2 -->
<g id="edge1" class="edge"><title>Node1&#45;&gt;Node2</title>
<path fill="none" stroke="midnightblue" d="M101.253,-10C109.931,-10 118.699,-10 126.771,-10"/>
<polygon fill="midnightblue" stroke="midnightblue" points="101.155,-6.5001 91.1553,-10 101.155,-13.5001 101.155,-6.5001"/>
</g>
<!-- Node3 -->
<g id="node3" class="node"><title>Node3</title>
<g id="a_node3"><a xlink:href="namespaceet__util.html#aac88b1f4b427869a87aa4fa58150c9a5" target="_top" xlink:title="et_util.concat_df">
<polygon fill="white" stroke="black" points="235,-0.5 235,-19.5 323,-19.5 323,-0.5 235,-0.5"/>
<text text-anchor="middle" x="279" y="-7.5" font-family="Helvetica,sans-Serif" font-size="10.00">et_util.concat_df</text>
</a>
</g>
</g>
<!-- Node2&#45;&gt;Node3 -->
<g id="edge2" class="edge"><title>Node2&#45;&gt;Node3</title>
<path fill="none" stroke="midnightblue" d="M209.176,-10C217.597,-10 226.379,-10 234.741,-10"/>
<polygon fill="midnightblue" stroke="midnightblue" points="209.134,-6.5001 199.134,-10 209.134,-13.5001 209.134,-6.5001"/>
</g>
<!-- Node4 -->
<g id="node4" class="node"><title>Node4</title>
<g id="a_node4"><a xlink:href="namespaceet__util.html#ad14756ce8dfea7ab6da605eb2a34af45" target="_top" xlink:title="et_util.inventory">
<polygon fill="white" stroke="black" points="359,-19.5 359,-38.5 443,-38.5 443,-19.5 359,-19.5"/>
<text text-anchor="middle" x="401" y="-26.5" font-family="Helvetica,sans-Serif" font-size="10.00">et_util.inventory</text>
</a>
</g>
</g>
<!-- Node3&#45;&gt;Node4 -->
<g id="edge3" class="edge"><title>Node3&#45;&gt;Node4</title>
<path fill="none" stroke="midnightblue" d="M333.236,-18.429C341.789,-19.7832 350.527,-21.1668 358.745,-22.4679"/>
<polygon fill="midnightblue" stroke="midnightblue" points="333.747,-14.9664 323.323,-16.8594 332.652,-21.8803 333.747,-14.9664"/>
</g>
<!-- Node5 -->
<g id="node5" class="node"><title>Node5</title>
<g id="a_node5"><a xlink:href="namespaceet__util.html#a164b6705ccf94cb947d6bd11c7c19021" target="_top" xlink:title="et_util.startup">
<polygon fill="white" stroke="black" points="484,-38.5 484,-57.5 560,-57.5 560,-38.5 484,-38.5"/>
<text text-anchor="middle" x="522" y="-45.5" font-family="Helvetica,sans-Serif" font-size="10.00">et_util.startup</text>
</a>
</g>
</g>
<!-- Node4&#45;&gt;Node5 -->
<g id="edge4" class="edge"><title>Node4&#45;&gt;Node5</title>
<path fill="none" stroke="midnightblue" d="M453.355,-37.1996C463.579,-38.8319 474.129,-40.5164 483.768,-42.0555"/>
<polygon fill="midnightblue" stroke="midnightblue" points="453.713,-33.7125 443.286,-35.592 452.61,-40.6249 453.713,-33.7125"/>
</g>
<!-- Node6 -->
<g id="node6" class="node"><title>Node6</title>
<g id="a_node6"><a xlink:href="namespaceet__util.html#a7d463c3690915efb78c87700565efc77" target="_top" xlink:title="et_util.clean_file">
<polygon fill="white" stroke="black" points="479,-0.5 479,-19.5 565,-19.5 565,-0.5 479,-0.5"/>
<text text-anchor="middle" x="522" y="-7.5" font-family="Helvetica,sans-Serif" font-size="10.00">et_util.clean_file</text>
</a>
</g>
</g>
<!-- Node4&#45;&gt;Node6 -->
<g id="edge5" class="edge"><title>Node4&#45;&gt;Node6</title>
<path fill="none" stroke="midnightblue" d="M436.679,-17.2647C449.776,-14.5567 464.829,-12.0538 478.558,-10.2793"/>
<polygon fill="midnightblue" stroke="midnightblue" points="435.671,-13.9028 426.657,-19.4705 437.175,-20.7392 435.671,-13.9028"/>
</g>
<!-- Node6&#45;&gt;Node3 -->
<g id="edge7" class="edge"><title>Node6&#45;&gt;Node3</title>
<path fill="none" stroke="midnightblue" d="M468.577,-10C425.028,-10 363.822,-10 323.086,-10"/>
<polygon fill="midnightblue" stroke="midnightblue" points="468.691,-13.5001 478.691,-10 468.691,-6.5001 468.691,-13.5001"/>
</g>
<!-- Node6&#45;&gt;Node4 -->
<g id="edge6" class="edge"><title>Node6&#45;&gt;Node4</title>
<path fill="none" stroke="midnightblue" d="M486.569,-21.6839C473.046,-24.4879 457.409,-27.076 443.286,-28.8687"/>
<polygon fill="midnightblue" stroke="midnightblue" points="487.426,-25.079 496.438,-19.5072 485.919,-18.2433 487.426,-25.079"/>
</g>
</g>
</svg>
