<?xml version="1.0" encoding="UTF-8" standalone="no"?>
<!DOCTYPE svg PUBLIC "-//W3C//DTD SVG 1.1//EN"
 "http://www.w3.org/Graphics/SVG/1.1/DTD/svg11.dtd">
<!-- Generated by graphviz version 2.38.0 (20140413.2041)
 -->
<!-- Title: et_util.toYearFraction Pages: 1 -->
<svg width="372pt" height="85pt"
 viewBox="0.00 0.00 372.00 85.00" xmlns="http://www.w3.org/2000/svg" xmlns:xlink="http://www.w3.org/1999/xlink">
<g id="graph0" class="graph" transform="scale(1 1) rotate(0) translate(4 81)">
<title>et_util.toYearFraction</title>
<polygon fill="white" stroke="none" points="-4,4 -4,-81 368,-81 368,4 -4,4"/>
<!-- Node1 -->
<g id="node1" class="node"><title>Node1</title>
<polygon fill="#bfbfbf" stroke="black" points="0,-19.5 0,-38.5 110,-38.5 110,-19.5 0,-19.5"/>
<text text-anchor="middle" x="55" y="-26.5" font-family="Helvetica,sans-Serif" font-size="10.00">et_util.toYearFraction</text>
</g>
<!-- Node2 -->
<g id="node2" class="node"><title>Node2</title>
<g id="a_node2"><a xlink:href="namespaceet__util.html#a04161955cfa0207847c92471361582ae" target="_top" xlink:title="et_util.met_fort">
<polygon fill="white" stroke="black" points="146,-38.5 146,-57.5 227,-57.5 227,-38.5 146,-38.5"/>
<text text-anchor="middle" x="186.5" y="-45.5" font-family="Helvetica,sans-Serif" font-size="10.00">et_util.met_fort</text>
</a>
</g>
</g>
<!-- Node1&#45;&gt;Node2 -->
<g id="edge1" class="edge"><title>Node1&#45;&gt;Node2</title>
<path fill="none" stroke="midnightblue" d="M120.307,-38.435C128.979,-39.7074 137.662,-40.9813 145.733,-42.1654"/>
<polygon fill="midnightblue" stroke="midnightblue" points="120.571,-34.9364 110.169,-36.9476 119.555,-41.8623 120.571,-34.9364"/>
</g>
<!-- Node5 -->
<g id="node5" class="node"><title>Node5</title>
<g id="a_node5"><a xlink:href="namespaceet__util.html#a4fd6a305cc0207763b1d2386f9eeac84" target="_top" xlink:title="et_util.ec_fort">
<polygon fill="white" stroke="black" points="149,-0.5 149,-19.5 224,-19.5 224,-0.5 149,-0.5"/>
<text text-anchor="middle" x="186.5" y="-7.5" font-family="Helvetica,sans-Serif" font-size="10.00">et_util.ec_fort</text>
</a>
</g>
</g>
<!-- Node1&#45;&gt;Node5 -->
<g id="edge4" class="edge"><title>Node1&#45;&gt;Node5</title>
<path fill="none" stroke="midnightblue" d="M120.327,-19.5621C130.115,-18.126 139.915,-16.6881 148.834,-15.3795"/>
<polygon fill="midnightblue" stroke="midnightblue" points="119.555,-16.1377 110.169,-21.0524 120.571,-23.0636 119.555,-16.1377"/>
</g>
<!-- Node3 -->
<g id="node3" class="node"><title>Node3</title>
<g id="a_node3"><a xlink:href="namespaceet__util.html#aadd55355ef4faa4be86132ecc3de6f88" target="_top" xlink:title="et_util.s_met_calcs">
<polygon fill="white" stroke="black" points="263,-57.5 263,-76.5 364,-76.5 364,-57.5 263,-57.5"/>
<text text-anchor="middle" x="313.5" y="-64.5" font-family="Helvetica,sans-Serif" font-size="10.00">et_util.s_met_calcs</text>
</a>
</g>
</g>
<!-- Node2&#45;&gt;Node3 -->
<g id="edge2" class="edge"><title>Node2&#45;&gt;Node3</title>
<path fill="none" stroke="midnightblue" d="M237.099,-55.539C245.505,-56.8167 254.236,-58.1438 262.648,-59.4224"/>
<polygon fill="midnightblue" stroke="midnightblue" points="237.463,-52.0543 227.051,-54.0117 236.411,-58.9748 237.463,-52.0543"/>
</g>
<!-- Node4 -->
<g id="node4" class="node"><title>Node4</title>
<g id="a_node4"><a xlink:href="namespaceet__util.html#a991cafdc03fa601c39adc5901a181c7c" target="_top" xlink:title="et_util.d_met_calcs">
<polygon fill="white" stroke="black" points="263,-19.5 263,-38.5 364,-38.5 364,-19.5 263,-19.5"/>
<text text-anchor="middle" x="313.5" y="-26.5" font-family="Helvetica,sans-Serif" font-size="10.00">et_util.d_met_calcs</text>
</a>
</g>
</g>
<!-- Node2&#45;&gt;Node4 -->
<g id="edge3" class="edge"><title>Node2&#45;&gt;Node4</title>
<path fill="none" stroke="midnightblue" d="M237.099,-40.461C245.505,-39.1833 254.236,-37.8562 262.648,-36.5776"/>
<polygon fill="midnightblue" stroke="midnightblue" points="236.411,-37.0252 227.051,-41.9883 237.463,-43.9457 236.411,-37.0252"/>
</g>
</g>
</svg>
