<?xml version="1.0" encoding="UTF-8" standalone="no"?>
<!DOCTYPE svg PUBLIC "-//W3C//DTD SVG 1.1//EN"
 "http://www.w3.org/Graphics/SVG/1.1/DTD/svg11.dtd">
<!-- Generated by graphviz version 2.38.0 (20140413.2041)
 -->
<!-- Title: et_util.inventory Pages: 1 -->
<svg width="338pt" height="85pt"
 viewBox="0.00 0.00 338.00 85.00" xmlns="http://www.w3.org/2000/svg" xmlns:xlink="http://www.w3.org/1999/xlink">
<g id="graph0" class="graph" transform="scale(1 1) rotate(0) translate(4 81)">
<title>et_util.inventory</title>
<polygon fill="white" stroke="none" points="-4,4 -4,-81 334,-81 334,4 -4,4"/>
<!-- Node1 -->
<g id="node1" class="node"><title>Node1</title>
<polygon fill="#bfbfbf" stroke="black" points="0,-19.5 0,-38.5 84,-38.5 84,-19.5 0,-19.5"/>
<text text-anchor="middle" x="42" y="-26.5" font-family="Helvetica,sans-Serif" font-size="10.00">et_util.inventory</text>
</g>
<!-- Node2 -->
<g id="node2" class="node"><title>Node2</title>
<g id="a_node2"><a xlink:href="namespaceet__util.html#a164b6705ccf94cb947d6bd11c7c19021" target="_top" xlink:title="et_util.startup">
<polygon fill="white" stroke="black" points="125,-57.5 125,-76.5 201,-76.5 201,-57.5 125,-57.5"/>
<text text-anchor="middle" x="163" y="-64.5" font-family="Helvetica,sans-Serif" font-size="10.00">et_util.startup</text>
</a>
</g>
</g>
<!-- Node1&#45;&gt;Node2 -->
<g id="edge1" class="edge"><title>Node1&#45;&gt;Node2</title>
<path fill="none" stroke="midnightblue" d="M82.7098,-41.6804C98.7886,-46.8148 117.043,-52.6441 131.981,-57.4141"/>
<polygon fill="midnightblue" stroke="midnightblue" points="83.6195,-38.2969 73.0287,-38.589 81.4901,-44.9652 83.6195,-38.2969"/>
</g>
<!-- Node3 -->
<g id="node3" class="node"><title>Node3</title>
<g id="a_node3"><a xlink:href="namespaceet__util.html#a7d463c3690915efb78c87700565efc77" target="_top" xlink:title="et_util.clean_file">
<polygon fill="white" stroke="black" points="120,-19.5 120,-38.5 206,-38.5 206,-19.5 120,-19.5"/>
<text text-anchor="middle" x="163" y="-26.5" font-family="Helvetica,sans-Serif" font-size="10.00">et_util.clean_file</text>
</a>
</g>
</g>
<!-- Node1&#45;&gt;Node3 -->
<g id="edge2" class="edge"><title>Node1&#45;&gt;Node3</title>
<path fill="none" stroke="midnightblue" d="M94.5051,-22.3045C103.012,-22.1879 111.741,-22.2584 119.98,-22.5158"/>
<polygon fill="midnightblue" stroke="midnightblue" points="94.2034,-18.8104 84.2865,-22.5393 94.3643,-25.8085 94.2034,-18.8104"/>
</g>
<!-- Node3&#45;&gt;Node1 -->
<g id="edge3" class="edge"><title>Node3&#45;&gt;Node1</title>
<path fill="none" stroke="midnightblue" d="M109.735,-35.7054C101.216,-35.8108 92.4951,-35.7293 84.2865,-35.4607"/>
<polygon fill="midnightblue" stroke="midnightblue" points="110.058,-39.1994 119.98,-35.4842 109.906,-32.201 110.058,-39.1994"/>
</g>
<!-- Node4 -->
<g id="node4" class="node"><title>Node4</title>
<g id="a_node4"><a xlink:href="namespaceet__util.html#aac88b1f4b427869a87aa4fa58150c9a5" target="_top" xlink:title="et_util.concat_df">
<polygon fill="white" stroke="black" points="242,-0.5 242,-19.5 330,-19.5 330,-0.5 242,-0.5"/>
<text text-anchor="middle" x="286" y="-7.5" font-family="Helvetica,sans-Serif" font-size="10.00">et_util.concat_df</text>
</a>
</g>
</g>
<!-- Node3&#45;&gt;Node4 -->
<g id="edge4" class="edge"><title>Node3&#45;&gt;Node4</title>
<path fill="none" stroke="midnightblue" d="M216.444,-20.765C224.866,-19.4425 233.501,-18.0866 241.679,-16.8024"/>
<polygon fill="midnightblue" stroke="midnightblue" points="215.656,-17.3458 206.32,-22.3547 216.742,-24.261 215.656,-17.3458"/>
</g>
<!-- Node4&#45;&gt;Node1 -->
<g id="edge5" class="edge"><title>Node4&#45;&gt;Node1</title>
<path fill="none" stroke="midnightblue" d="M231.589,-6.74476C199.19,-5.57714 157.078,-5.49303 120,-10 104.691,-11.8608 88.0395,-15.7301 74.1499,-19.4944"/>
<polygon fill="midnightblue" stroke="midnightblue" points="231.615,-10.2486 241.749,-7.15748 231.899,-3.25435 231.615,-10.2486"/>
</g>
</g>
</svg>
