<?xml version="1.0" encoding="UTF-8" standalone="no"?>
<!DOCTYPE svg PUBLIC "-//W3C//DTD SVG 1.1//EN"
 "http://www.w3.org/Graphics/SVG/1.1/DTD/svg11.dtd">
<!-- Generated by graphviz version 2.38.0 (20140413.2041)
 -->
<!-- Title: et_util.read_s_met Pages: 1 -->
<svg width="579pt" height="66pt"
 viewBox="0.00 0.00 579.00 66.00" xmlns="http://www.w3.org/2000/svg" xmlns:xlink="http://www.w3.org/1999/xlink">
<g id="graph0" class="graph" transform="scale(1 1) rotate(0) translate(4 62)">
<title>et_util.read_s_met</title>
<polygon fill="white" stroke="none" points="-4,4 -4,-62 575,-62 575,4 -4,4"/>
<!-- Node1 -->
<g id="node1" class="node"><title>Node1</title>
<polygon fill="#bfbfbf" stroke="black" points="0,-0.5 0,-19.5 97,-19.5 97,-0.5 0,-0.5"/>
<text text-anchor="middle" x="48.5" y="-7.5" font-family="Helvetica,sans-Serif" font-size="10.00">et_util.read_s_met</text>
</g>
<!-- Node2 -->
<g id="node2" class="node"><title>Node2</title>
<g id="a_node2"><a xlink:href="namespaceet__util.html#a8013dc0897f9430ae8f354ba094b9fbd" target="_top" xlink:title="et_util.get_df">
<polygon fill="white" stroke="black" points="133,-0.5 133,-19.5 205,-19.5 205,-0.5 133,-0.5"/>
<text text-anchor="middle" x="169" y="-7.5" font-family="Helvetica,sans-Serif" font-size="10.00">et_util.get_df</text>
</a>
</g>
</g>
<!-- Node1&#45;&gt;Node2 -->
<g id="edge1" class="edge"><title>Node1&#45;&gt;Node2</title>
<path fill="none" stroke="midnightblue" d="M107.233,-10C115.993,-10 124.798,-10 132.88,-10"/>
<polygon fill="midnightblue" stroke="midnightblue" points="107.016,-6.5001 97.0157,-10 107.016,-13.5001 107.016,-6.5001"/>
</g>
<!-- Node3 -->
<g id="node3" class="node"><title>Node3</title>
<g id="a_node3"><a xlink:href="namespaceet__util.html#aac88b1f4b427869a87aa4fa58150c9a5" target="_top" xlink:title="et_util.concat_df">
<polygon fill="white" stroke="black" points="241,-0.5 241,-19.5 329,-19.5 329,-0.5 241,-0.5"/>
<text text-anchor="middle" x="285" y="-7.5" font-family="Helvetica,sans-Serif" font-size="10.00">et_util.concat_df</text>
</a>
</g>
</g>
<!-- Node2&#45;&gt;Node3 -->
<g id="edge2" class="edge"><title>Node2&#45;&gt;Node3</title>
<path fill="none" stroke="midnightblue" d="M215.176,-10C223.597,-10 232.379,-10 240.741,-10"/>
<polygon fill="midnightblue" stroke="midnightblue" points="215.134,-6.5001 205.134,-10 215.134,-13.5001 215.134,-6.5001"/>
</g>
<!-- Node4 -->
<g id="node4" class="node"><title>Node4</title>
<g id="a_node4"><a xlink:href="namespaceet__util.html#ad14756ce8dfea7ab6da605eb2a34af45" target="_top" xlink:title="et_util.inventory">
<polygon fill="white" stroke="black" points="365,-19.5 365,-38.5 449,-38.5 449,-19.5 365,-19.5"/>
<text text-anchor="middle" x="407" y="-26.5" font-family="Helvetica,sans-Serif" font-size="10.00">et_util.inventory</text>
</a>
</g>
</g>
<!-- Node3&#45;&gt;Node4 -->
<g id="edge3" class="edge"><title>Node3&#45;&gt;Node4</title>
<path fill="none" stroke="midnightblue" d="M339.236,-18.429C347.789,-19.7832 356.527,-21.1668 364.745,-22.4679"/>
<polygon fill="midnightblue" stroke="midnightblue" points="339.747,-14.9664 329.323,-16.8594 338.652,-21.8803 339.747,-14.9664"/>
</g>
<!-- Node5 -->
<g id="node5" class="node"><title>Node5</title>
<g id="a_node5"><a xlink:href="namespaceet__util.html#a164b6705ccf94cb947d6bd11c7c19021" target="_top" xlink:title="et_util.startup">
<polygon fill="white" stroke="black" points="490,-38.5 490,-57.5 566,-57.5 566,-38.5 490,-38.5"/>
<text text-anchor="middle" x="528" y="-45.5" font-family="Helvetica,sans-Serif" font-size="10.00">et_util.startup</text>
</a>
</g>
</g>
<!-- Node4&#45;&gt;Node5 -->
<g id="edge4" class="edge"><title>Node4&#45;&gt;Node5</title>
<path fill="none" stroke="midnightblue" d="M459.355,-37.1996C469.579,-38.8319 480.129,-40.5164 489.768,-42.0555"/>
<polygon fill="midnightblue" stroke="midnightblue" points="459.713,-33.7125 449.286,-35.592 458.61,-40.6249 459.713,-33.7125"/>
</g>
<!-- Node6 -->
<g id="node6" class="node"><title>Node6</title>
<g id="a_node6"><a xlink:href="namespaceet__util.html#a7d463c3690915efb78c87700565efc77" target="_top" xlink:title="et_util.clean_file">
<polygon fill="white" stroke="black" points="485,-0.5 485,-19.5 571,-19.5 571,-0.5 485,-0.5"/>
<text text-anchor="middle" x="528" y="-7.5" font-family="Helvetica,sans-Serif" font-size="10.00">et_util.clean_file</text>
</a>
</g>
</g>
<!-- Node4&#45;&gt;Node6 -->
<g id="edge5" class="edge"><title>Node4&#45;&gt;Node6</title>
<path fill="none" stroke="midnightblue" d="M442.679,-17.2647C455.776,-14.5567 470.829,-12.0538 484.558,-10.2793"/>
<polygon fill="midnightblue" stroke="midnightblue" points="441.671,-13.9028 432.657,-19.4705 443.175,-20.7392 441.671,-13.9028"/>
</g>
<!-- Node6&#45;&gt;Node3 -->
<g id="edge7" class="edge"><title>Node6&#45;&gt;Node3</title>
<path fill="none" stroke="midnightblue" d="M474.577,-10C431.028,-10 369.822,-10 329.086,-10"/>
<polygon fill="midnightblue" stroke="midnightblue" points="474.691,-13.5001 484.691,-10 474.691,-6.5001 474.691,-13.5001"/>
</g>
<!-- Node6&#45;&gt;Node4 -->
<g id="edge6" class="edge"><title>Node6&#45;&gt;Node4</title>
<path fill="none" stroke="midnightblue" d="M492.569,-21.6839C479.046,-24.4879 463.409,-27.076 449.286,-28.8687"/>
<polygon fill="midnightblue" stroke="midnightblue" points="493.426,-25.079 502.438,-19.5072 491.919,-18.2433 493.426,-25.079"/>
</g>
</g>
</svg>
