<?xml version="1.0" encoding="UTF-8" standalone="no"?>
<!DOCTYPE svg PUBLIC "-//W3C//DTD SVG 1.1//EN"
 "http://www.w3.org/Graphics/SVG/1.1/DTD/svg11.dtd">
<!-- Generated by graphviz version 2.38.0 (20140413.2041)
 -->
<!-- Title: et_util.s_met_calcs Pages: 1 -->
<svg width="372pt" height="28pt"
 viewBox="0.00 0.00 372.00 28.00" xmlns="http://www.w3.org/2000/svg" xmlns:xlink="http://www.w3.org/1999/xlink">
<g id="graph0" class="graph" transform="scale(1 1) rotate(0) translate(4 24)">
<title>et_util.s_met_calcs</title>
<polygon fill="white" stroke="none" points="-4,4 -4,-24 368,-24 368,4 -4,4"/>
<!-- Node1 -->
<g id="node1" class="node"><title>Node1</title>
<polygon fill="#bfbfbf" stroke="black" points="0,-0.5 0,-19.5 101,-19.5 101,-0.5 0,-0.5"/>
<text text-anchor="middle" x="50.5" y="-7.5" font-family="Helvetica,sans-Serif" font-size="10.00">et_util.s_met_calcs</text>
</g>
<!-- Node2 -->
<g id="node2" class="node"><title>Node2</title>
<g id="a_node2"><a xlink:href="namespaceet__util.html#a04161955cfa0207847c92471361582ae" target="_top" xlink:title="et_util.met_fort">
<polygon fill="white" stroke="black" points="137,-0.5 137,-19.5 218,-19.5 218,-0.5 137,-0.5"/>
<text text-anchor="middle" x="177.5" y="-7.5" font-family="Helvetica,sans-Serif" font-size="10.00">et_util.met_fort</text>
</a>
</g>
</g>
<!-- Node1&#45;&gt;Node2 -->
<g id="edge1" class="edge"><title>Node1&#45;&gt;Node2</title>
<path fill="none" stroke="midnightblue" d="M101.262,-10C109.685,-10 118.429,-10 126.848,-10"/>
<polygon fill="midnightblue" stroke="midnightblue" points="126.913,-13.5001 136.913,-10 126.913,-6.5001 126.913,-13.5001"/>
</g>
<!-- Node3 -->
<g id="node3" class="node"><title>Node3</title>
<g id="a_node3"><a xlink:href="namespaceet__util.html#a8f87bce6dab1c42c9130fae0df312416" target="_top" xlink:title="et_util.toYearFraction">
<polygon fill="white" stroke="black" points="254,-0.5 254,-19.5 364,-19.5 364,-0.5 254,-0.5"/>
<text text-anchor="middle" x="309" y="-7.5" font-family="Helvetica,sans-Serif" font-size="10.00">et_util.toYearFraction</text>
</a>
</g>
</g>
<!-- Node2&#45;&gt;Node3 -->
<g id="edge2" class="edge"><title>Node2&#45;&gt;Node3</title>
<path fill="none" stroke="midnightblue" d="M218.058,-10C226.184,-10 234.938,-10 243.681,-10"/>
<polygon fill="midnightblue" stroke="midnightblue" points="243.901,-13.5001 253.901,-10 243.901,-6.5001 243.901,-13.5001"/>
</g>
</g>
</svg>
