<?xml version="1.0" encoding="UTF-8" standalone="no"?>
<!DOCTYPE svg PUBLIC "-//W3C//DTD SVG 1.1//EN"
 "http://www.w3.org/Graphics/SVG/1.1/DTD/svg11.dtd">
<!-- Generated by graphviz version 2.38.0 (20140413.2041)
 -->
<!-- Title: et_util.startup Pages: 1 -->
<svg width="685pt" height="328pt"
 viewBox="0.00 0.00 685.00 327.66" xmlns="http://www.w3.org/2000/svg" xmlns:xlink="http://www.w3.org/1999/xlink">
<g id="graph0" class="graph" transform="scale(1 1) rotate(0) translate(4 323.655)">
<title>et_util.startup</title>
<polygon fill="white" stroke="none" points="-4,4 -4,-323.655 681,-323.655 681,4 -4,4"/>
<!-- Node1 -->
<g id="node1" class="node"><title>Node1</title>
<polygon fill="#bfbfbf" stroke="black" points="0,-138.822 0,-157.822 76,-157.822 76,-138.822 0,-138.822"/>
<text text-anchor="middle" x="38" y="-145.822" font-family="Helvetica,sans-Serif" font-size="10.00">et_util.startup</text>
</g>
<!-- Node2 -->
<g id="node2" class="node"><title>Node2</title>
<g id="a_node2"><a xlink:href="namespaceet__util.html#ad79d083c0b67b0c0aa1c3f9f247bf856" target="_top" xlink:title="et_util.confirm_rebuild">
<polygon fill="white" stroke="black" points="112,-252.822 112,-271.822 223,-271.822 223,-252.822 112,-252.822"/>
<text text-anchor="middle" x="167.5" y="-259.822" font-family="Helvetica,sans-Serif" font-size="10.00">et_util.confirm_rebuild</text>
</a>
</g>
</g>
<!-- Node1&#45;&gt;Node2 -->
<g id="edge1" class="edge"><title>Node1&#45;&gt;Node2</title>
<path fill="none" stroke="midnightblue" d="M43.8585,-157.888C53.9748,-176.883 79.1198,-219.573 112,-243.322 114.64,-245.229 117.488,-246.957 120.449,-248.523"/>
<polygon fill="midnightblue" stroke="midnightblue" points="119.028,-251.722 129.574,-252.743 121.967,-245.369 119.028,-251.722"/>
</g>
<!-- Node3 -->
<g id="node3" class="node"><title>Node3</title>
<g id="a_node3"><a xlink:href="namespaceet__util.html#ad14756ce8dfea7ab6da605eb2a34af45" target="_top" xlink:title="et_util.inventory">
<polygon fill="white" stroke="black" points="125.5,-214.822 125.5,-233.822 209.5,-233.822 209.5,-214.822 125.5,-214.822"/>
<text text-anchor="middle" x="167.5" y="-221.822" font-family="Helvetica,sans-Serif" font-size="10.00">et_util.inventory</text>
</a>
</g>
</g>
<!-- Node1&#45;&gt;Node3 -->
<g id="edge2" class="edge"><title>Node1&#45;&gt;Node3</title>
<path fill="none" stroke="midnightblue" d="M49.1105,-157.997C62.5395,-170.409 87.436,-191.928 112,-205.322 115.761,-207.372 119.786,-209.268 123.881,-211.003"/>
<polygon fill="midnightblue" stroke="midnightblue" points="122.887,-214.373 133.475,-214.758 125.438,-207.854 122.887,-214.373"/>
</g>
<!-- Node16 -->
<g id="node16" class="node"><title>Node16</title>
<g id="a_node16"><a xlink:href="namespaceet__util.html#a41b39b3c70ba9961221c284cc738122e" target="_top" xlink:title="et_util.write_raw">
<polygon fill="white" stroke="black" points="124.5,-176.822 124.5,-195.822 210.5,-195.822 210.5,-176.822 124.5,-176.822"/>
<text text-anchor="middle" x="167.5" y="-183.822" font-family="Helvetica,sans-Serif" font-size="10.00">et_util.write_raw</text>
</a>
</g>
</g>
<!-- Node1&#45;&gt;Node16 -->
<g id="edge18" class="edge"><title>Node1&#45;&gt;Node16</title>
<path fill="none" stroke="midnightblue" d="M71.1736,-157.911C87.3307,-162.726 107.108,-168.621 124.452,-173.79"/>
<polygon fill="midnightblue" stroke="midnightblue" points="123.754,-177.234 134.337,-176.736 125.753,-170.525 123.754,-177.234"/>
</g>
<!-- Node17 -->
<g id="node17" class="node"><title>Node17</title>
<g id="a_node17"><a xlink:href="namespaceet__util.html#a38dc0fbf4d56c116d7f8eb34a893abad" target="_top" xlink:title="et_util.select_dates">
<polygon fill="white" stroke="black" points="117,-138.822 117,-157.822 218,-157.822 218,-138.822 117,-138.822"/>
<text text-anchor="middle" x="167.5" y="-145.822" font-family="Helvetica,sans-Serif" font-size="10.00">et_util.select_dates</text>
</a>
</g>
</g>
<!-- Node1&#45;&gt;Node17 -->
<g id="edge19" class="edge"><title>Node1&#45;&gt;Node17</title>
<path fill="none" stroke="midnightblue" d="M76.221,-148.322C85.7029,-148.322 96.1377,-148.322 106.443,-148.322"/>
<polygon fill="midnightblue" stroke="midnightblue" points="106.666,-151.822 116.666,-148.322 106.666,-144.822 106.666,-151.822"/>
</g>
<!-- Node18 -->
<g id="node18" class="node"><title>Node18</title>
<g id="a_node18"><a xlink:href="namespaceet__util.html#aa4a0538c05ece93097940be5a2ef4204" target="_top" xlink:title="et_util.write_file\l_times">
<polygon fill="white" stroke="black" points="126,-89.3217 126,-119.322 209,-119.322 209,-89.3217 126,-89.3217"/>
<text text-anchor="start" x="134" y="-107.322" font-family="Helvetica,sans-Serif" font-size="10.00">et_util.write_file</text>
<text text-anchor="middle" x="167.5" y="-96.3217" font-family="Helvetica,sans-Serif" font-size="10.00">_times</text>
</a>
</g>
</g>
<!-- Node1&#45;&gt;Node18 -->
<g id="edge20" class="edge"><title>Node1&#45;&gt;Node18</title>
<path fill="none" stroke="midnightblue" d="M66.6656,-138.774C81.1144,-133.788 99.2507,-127.529 116.088,-121.719"/>
<polygon fill="midnightblue" stroke="midnightblue" points="117.502,-124.933 125.813,-118.363 115.218,-118.316 117.502,-124.933"/>
</g>
<!-- Node19 -->
<g id="node19" class="node"><title>Node19</title>
<g id="a_node19"><a xlink:href="namespaceet__util.html#a3c3ae2439b3b5337237d456cb4366028" target="_top" xlink:title="et_util.get_file_times">
<polygon fill="white" stroke="black" points="114.5,-50.8217 114.5,-69.8217 220.5,-69.8217 220.5,-50.8217 114.5,-50.8217"/>
<text text-anchor="middle" x="167.5" y="-57.8217" font-family="Helvetica,sans-Serif" font-size="10.00">et_util.get_file_times</text>
</a>
</g>
</g>
<!-- Node1&#45;&gt;Node19 -->
<g id="edge21" class="edge"><title>Node1&#45;&gt;Node19</title>
<path fill="none" stroke="midnightblue" d="M46.9747,-138.492C59.4254,-123.73 84.8812,-95.8122 112,-79.3217 115.371,-77.2718 118.995,-75.4029 122.713,-73.708"/>
<polygon fill="midnightblue" stroke="midnightblue" points="124.154,-76.8998 132.062,-69.8489 121.483,-70.4294 124.154,-76.8998"/>
</g>
<!-- Node20 -->
<g id="node20" class="node"><title>Node20</title>
<g id="a_node20"><a xlink:href="namespaceet__util.html#adf3e6bef75b663226a9c118684f91689" target="_top" xlink:title="et_util.read_files">
<polygon fill="white" stroke="black" points="435,-13.8217 435,-32.8217 522,-32.8217 522,-13.8217 435,-13.8217"/>
<text text-anchor="middle" x="478.5" y="-20.8217" font-family="Helvetica,sans-Serif" font-size="10.00">et_util.read_files</text>
</a>
</g>
</g>
<!-- Node1&#45;&gt;Node20 -->
<g id="edge22" class="edge"><title>Node1&#45;&gt;Node20</title>
<path fill="none" stroke="midnightblue" d="M42.2001,-138.686C50.0533,-116.776 72.5658,-63.4131 112,-41.3217 210.992,14.1347 349.757,0.973238 424.617,-12.0548"/>
<polygon fill="midnightblue" stroke="midnightblue" points="424.282,-15.5509 434.745,-13.885 425.527,-8.66244 424.282,-15.5509"/>
</g>
<!-- Node4 -->
<g id="node4" class="node"><title>Node4</title>
<g id="a_node4"><a xlink:href="namespaceet__util.html#af15d3c41901948dbb10f0c796cb6ed5b" target="_top" xlink:title="et_util.read_CRthousand_file">
<polygon fill="white" stroke="black" points="259,-261.822 259,-280.822 399,-280.822 399,-261.822 259,-261.822"/>
<text text-anchor="middle" x="329" y="-268.822" font-family="Helvetica,sans-Serif" font-size="10.00">et_util.read_CRthousand_file</text>
</a>
</g>
</g>
<!-- Node3&#45;&gt;Node4 -->
<g id="edge3" class="edge"><title>Node3&#45;&gt;Node4</title>
<path fill="none" stroke="midnightblue" d="M200.777,-233.833C225.234,-241.04 259.057,-251.006 285.681,-258.851"/>
<polygon fill="midnightblue" stroke="midnightblue" points="284.916,-262.275 295.497,-261.744 286.895,-255.56 284.916,-262.275"/>
</g>
<!-- Node5 -->
<g id="node5" class="node"><title>Node5</title>
<g id="a_node5"><a xlink:href="namespaceet__util.html#a7d463c3690915efb78c87700565efc77" target="_top" xlink:title="et_util.clean_file">
<polygon fill="white" stroke="black" points="435.5,-214.822 435.5,-233.822 521.5,-233.822 521.5,-214.822 435.5,-214.822"/>
<text text-anchor="middle" x="478.5" y="-221.822" font-family="Helvetica,sans-Serif" font-size="10.00">et_util.clean_file</text>
</a>
</g>
</g>
<!-- Node3&#45;&gt;Node5 -->
<g id="edge4" class="edge"><title>Node3&#45;&gt;Node5</title>
<path fill="none" stroke="midnightblue" d="M209.533,-219.562C265.091,-217.07 364.277,-216.918 425.143,-219.107"/>
<polygon fill="midnightblue" stroke="midnightblue" points="425.175,-222.611 435.306,-219.51 425.453,-215.616 425.175,-222.611"/>
</g>
<!-- Node6 -->
<g id="node6" class="node"><title>Node6</title>
<g id="a_node6"><a xlink:href="namespaceet__util.html#a566ff749c2a2c113c58d24649251bd5b" target="_top" xlink:title="et_util.read_CRtenX_file">
<polygon fill="white" stroke="black" points="269.5,-167.822 269.5,-186.822 388.5,-186.822 388.5,-167.822 269.5,-167.822"/>
<text text-anchor="middle" x="329" y="-174.822" font-family="Helvetica,sans-Serif" font-size="10.00">et_util.read_CRtenX_file</text>
</a>
</g>
</g>
<!-- Node3&#45;&gt;Node6 -->
<g id="edge6" class="edge"><title>Node3&#45;&gt;Node6</title>
<path fill="none" stroke="midnightblue" d="M200.777,-214.811C225.234,-207.604 259.057,-197.637 285.681,-189.792"/>
<polygon fill="midnightblue" stroke="midnightblue" points="286.895,-193.083 295.497,-186.899 284.916,-186.369 286.895,-193.083"/>
</g>
<!-- Node7 -->
<g id="node7" class="node"><title>Node7</title>
<g id="a_node7"><a xlink:href="namespaceet__util.html#afe6d9320f59488fc7e462d7c501e828d" target="_top" xlink:title="for each type, merge files in date range ">
<polygon fill="white" stroke="black" points="285,-129.822 285,-148.822 373,-148.822 373,-129.822 285,-129.822"/>
<text text-anchor="middle" x="329" y="-136.822" font-family="Helvetica,sans-Serif" font-size="10.00">et_util.concat_df</text>
</a>
</g>
</g>
<!-- Node3&#45;&gt;Node7 -->
<g id="edge7" class="edge"><title>Node3&#45;&gt;Node7</title>
<path fill="none" stroke="midnightblue" d="M205.431,-214.75C211.612,-212.243 217.723,-209.139 223,-205.322 244.318,-189.899 237.179,-173.025 259,-158.322 263.951,-154.986 269.474,-152.233 275.18,-149.961"/>
<polygon fill="midnightblue" stroke="midnightblue" points="276.597,-153.174 284.887,-146.576 274.292,-146.564 276.597,-153.174"/>
</g>
<!-- Node15 -->
<g id="node15" class="node"><title>Node15</title>
<g id="a_node15"><a xlink:href="namespaceet__util.html#a15aa7ba554d08be6cbf6a674accfa16e" target="_top" xlink:title="et_util.echo_description">
<polygon fill="white" stroke="black" points="558,-271.822 558,-290.822 677,-290.822 677,-271.822 558,-271.822"/>
<text text-anchor="middle" x="617.5" y="-278.822" font-family="Helvetica,sans-Serif" font-size="10.00">et_util.echo_description</text>
</a>
</g>
</g>
<!-- Node3&#45;&gt;Node15 -->
<g id="edge17" class="edge"><title>Node3&#45;&gt;Node15</title>
<path fill="none" stroke="midnightblue" d="M205.431,-233.894C211.612,-236.4 217.723,-239.504 223,-243.322 244.318,-258.745 235.406,-278.674 259,-290.322 363.846,-342.082 507.911,-312.814 576.747,-293.725"/>
<polygon fill="midnightblue" stroke="midnightblue" points="578.08,-296.985 586.737,-290.878 576.161,-290.253 578.08,-296.985"/>
</g>
<!-- Node5&#45;&gt;Node3 -->
<g id="edge5" class="edge"><title>Node5&#45;&gt;Node3</title>
<path fill="none" stroke="midnightblue" d="M435.306,-229.133C379.148,-231.593 279.929,-231.712 219.597,-229.491"/>
<polygon fill="midnightblue" stroke="midnightblue" points="219.667,-225.991 209.533,-229.082 219.382,-232.985 219.667,-225.991"/>
</g>
<!-- Node7&#45;&gt;Node5 -->
<g id="edge8" class="edge"><title>Node7&#45;&gt;Node5</title>
<path fill="none" stroke="midnightblue" d="M373.06,-148.099C381.911,-150.744 390.971,-154.102 399,-158.322 423.203,-171.042 446.616,-192.25 461.477,-207.186"/>
<polygon fill="midnightblue" stroke="midnightblue" points="459.331,-210.001 468.805,-214.745 464.357,-205.129 459.331,-210.001"/>
</g>
<!-- Node8 -->
<g id="node8" class="node"><title>Node8</title>
<g id="a_node8"><a xlink:href="namespaceet__util.html#a8013dc0897f9430ae8f354ba094b9fbd" target="_top" xlink:title="et_util.get_df">
<polygon fill="white" stroke="black" points="442.5,-129.822 442.5,-148.822 514.5,-148.822 514.5,-129.822 442.5,-129.822"/>
<text text-anchor="middle" x="478.5" y="-136.822" font-family="Helvetica,sans-Serif" font-size="10.00">et_util.get_df</text>
</a>
</g>
</g>
<!-- Node7&#45;&gt;Node8 -->
<g id="edge9" class="edge"><title>Node7&#45;&gt;Node8</title>
<path fill="none" stroke="midnightblue" d="M373.06,-139.322C391.57,-139.322 413.22,-139.322 431.994,-139.322"/>
<polygon fill="midnightblue" stroke="midnightblue" points="432.089,-142.822 442.089,-139.322 432.089,-135.822 432.089,-142.822"/>
</g>
<!-- Node9 -->
<g id="node9" class="node"><title>Node9</title>
<g id="a_node9"><a xlink:href="namespaceet__util.html#a7535fb2ada235d852a05717bdd6d67a9" target="_top" xlink:title="et_util.read_s_ec">
<polygon fill="white" stroke="black" points="572,-14.8217 572,-33.8217 663,-33.8217 663,-14.8217 572,-14.8217"/>
<text text-anchor="middle" x="617.5" y="-21.8217" font-family="Helvetica,sans-Serif" font-size="10.00">et_util.read_s_ec</text>
</a>
</g>
</g>
<!-- Node8&#45;&gt;Node9 -->
<g id="edge10" class="edge"><title>Node8&#45;&gt;Node9</title>
<path fill="none" stroke="midnightblue" d="M484.901,-129.751C496.098,-110.748 523.68,-68.0446 558,-44.3217 561.477,-41.9186 565.268,-39.7816 569.194,-37.8856"/>
<polygon fill="midnightblue" stroke="midnightblue" points="570.707,-41.0454 578.518,-33.8876 567.948,-34.6119 570.707,-41.0454"/>
</g>
<!-- Node10 -->
<g id="node10" class="node"><title>Node10</title>
<g id="a_node10"><a xlink:href="namespaceet__util.html#a5cfb9371164d33036c4d3ec9f7a80e88" target="_top" xlink:title="et_util.read_s_met">
<polygon fill="white" stroke="black" points="569,-167.822 569,-186.822 666,-186.822 666,-167.822 569,-167.822"/>
<text text-anchor="middle" x="617.5" y="-174.822" font-family="Helvetica,sans-Serif" font-size="10.00">et_util.read_s_met</text>
</a>
</g>
</g>
<!-- Node8&#45;&gt;Node10 -->
<g id="edge11" class="edge"><title>Node8&#45;&gt;Node10</title>
<path fill="none" stroke="midnightblue" d="M514.071,-148.911C531.675,-153.794 553.279,-159.786 572.101,-165.007"/>
<polygon fill="midnightblue" stroke="midnightblue" points="571.368,-168.436 581.94,-167.736 573.239,-161.69 571.368,-168.436"/>
</g>
<!-- Node11 -->
<g id="node11" class="node"><title>Node11</title>
<g id="a_node11"><a xlink:href="namespaceet__util.html#a37255b034ed791b14cb66dc5df649a3f" target="_top" xlink:title="et_util.read_s_rad">
<polygon fill="white" stroke="black" points="570.5,-129.822 570.5,-148.822 664.5,-148.822 664.5,-129.822 570.5,-129.822"/>
<text text-anchor="middle" x="617.5" y="-136.822" font-family="Helvetica,sans-Serif" font-size="10.00">et_util.read_s_rad</text>
</a>
</g>
</g>
<!-- Node8&#45;&gt;Node11 -->
<g id="edge12" class="edge"><title>Node8&#45;&gt;Node11</title>
<path fill="none" stroke="midnightblue" d="M514.781,-139.322C528.566,-139.322 544.719,-139.322 560.043,-139.322"/>
<polygon fill="midnightblue" stroke="midnightblue" points="560.479,-142.822 570.479,-139.322 560.479,-135.822 560.479,-142.822"/>
</g>
<!-- Node12 -->
<g id="node12" class="node"><title>Node12</title>
<g id="a_node12"><a xlink:href="namespaceet__util.html#a5cda9dc3d34bdd80d01b977e805f4b04" target="_top" xlink:title="et_util.read_d_ec">
<polygon fill="white" stroke="black" points="572,-91.8217 572,-110.822 663,-110.822 663,-91.8217 572,-91.8217"/>
<text text-anchor="middle" x="617.5" y="-98.8217" font-family="Helvetica,sans-Serif" font-size="10.00">et_util.read_d_ec</text>
</a>
</g>
</g>
<!-- Node8&#45;&gt;Node12 -->
<g id="edge13" class="edge"><title>Node8&#45;&gt;Node12</title>
<path fill="none" stroke="midnightblue" d="M514.071,-129.733C531.675,-124.85 553.279,-118.857 572.101,-113.637"/>
<polygon fill="midnightblue" stroke="midnightblue" points="573.239,-116.953 581.94,-110.908 571.368,-110.208 573.239,-116.953"/>
</g>
<!-- Node13 -->
<g id="node13" class="node"><title>Node13</title>
<g id="a_node13"><a xlink:href="namespaceet__util.html#aa20b5ae88dbfb272ae5e7f53f4678358" target="_top" xlink:title="et_util.read_d_met">
<polygon fill="white" stroke="black" points="569,-53.8217 569,-72.8217 666,-72.8217 666,-53.8217 569,-53.8217"/>
<text text-anchor="middle" x="617.5" y="-60.8217" font-family="Helvetica,sans-Serif" font-size="10.00">et_util.read_d_met</text>
</a>
</g>
</g>
<!-- Node8&#45;&gt;Node13 -->
<g id="edge14" class="edge"><title>Node8&#45;&gt;Node13</title>
<path fill="none" stroke="midnightblue" d="M490.465,-129.617C505.006,-117.174 531.886,-95.6209 558,-82.3217 562.294,-80.1349 566.892,-78.1287 571.553,-76.3074"/>
<polygon fill="midnightblue" stroke="midnightblue" points="572.927,-79.5322 581.132,-72.8299 570.538,-72.9523 572.927,-79.5322"/>
</g>
<!-- Node14 -->
<g id="node14" class="node"><title>Node14</title>
<g id="a_node14"><a xlink:href="namespaceet__util.html#a76d5a5c19f0e86b9ab70c0957827c260" target="_top" xlink:title="et_util.read_d_rad">
<polygon fill="white" stroke="black" points="570.5,-205.822 570.5,-224.822 664.5,-224.822 664.5,-205.822 570.5,-205.822"/>
<text text-anchor="middle" x="617.5" y="-212.822" font-family="Helvetica,sans-Serif" font-size="10.00">et_util.read_d_rad</text>
</a>
</g>
</g>
<!-- Node8&#45;&gt;Node14 -->
<g id="edge15" class="edge"><title>Node8&#45;&gt;Node14</title>
<path fill="none" stroke="midnightblue" d="M490.465,-149.026C505.006,-161.469 531.886,-183.022 558,-196.322 562.294,-198.508 566.892,-200.515 571.553,-202.336"/>
<polygon fill="midnightblue" stroke="midnightblue" points="570.538,-205.691 581.132,-205.814 572.927,-199.111 570.538,-205.691"/>
</g>
<!-- Node8&#45;&gt;Node15 -->
<g id="edge16" class="edge"><title>Node8&#45;&gt;Node15</title>
<path fill="none" stroke="midnightblue" d="M486.485,-149.035C499.528,-166.867 528.906,-205.625 558,-234.322 569.383,-245.549 583.295,-256.812 594.697,-265.498"/>
<polygon fill="midnightblue" stroke="midnightblue" points="592.739,-268.404 602.842,-271.593 596.933,-262.8 592.739,-268.404"/>
</g>
<!-- Node20&#45;&gt;Node9 -->
<g id="edge23" class="edge"><title>Node20&#45;&gt;Node9</title>
<path fill="none" stroke="midnightblue" d="M522.097,-23.6326C534.493,-23.7231 548.216,-23.8233 561.27,-23.9186"/>
<polygon fill="midnightblue" stroke="midnightblue" points="561.533,-27.4205 571.558,-23.9937 561.584,-20.4207 561.533,-27.4205"/>
</g>
</g>
</svg>
