<?xml version="1.0" encoding="UTF-8" standalone="no"?>
<!DOCTYPE svg PUBLIC "-//W3C//DTD SVG 1.1//EN"
 "http://www.w3.org/Graphics/SVG/1.1/DTD/svg11.dtd">
<!-- Generated by graphviz version 2.38.0 (20140413.2041)
 -->
<!-- Title: et_util.get_df Pages: 1 -->
<svg width="235pt" height="256pt"
 viewBox="0.00 0.00 235.00 256.00" xmlns="http://www.w3.org/2000/svg" xmlns:xlink="http://www.w3.org/1999/xlink">
<g id="graph0" class="graph" transform="scale(1 1) rotate(0) translate(4 252)">
<title>et_util.get_df</title>
<polygon fill="white" stroke="none" points="-4,4 -4,-252 231,-252 231,4 -4,4"/>
<!-- Node1 -->
<g id="node1" class="node"><title>Node1</title>
<polygon fill="#bfbfbf" stroke="black" points="0,-114.5 0,-133.5 72,-133.5 72,-114.5 0,-114.5"/>
<text text-anchor="middle" x="36" y="-121.5" font-family="Helvetica,sans-Serif" font-size="10.00">et_util.get_df</text>
</g>
<!-- Node2 -->
<g id="node2" class="node"><title>Node2</title>
<g id="a_node2"><a xlink:href="namespaceet__util.html#a7535fb2ada235d852a05717bdd6d67a9" target="_top" xlink:title="et_util.read_s_ec">
<polygon fill="white" stroke="black" points="122,-228.5 122,-247.5 213,-247.5 213,-228.5 122,-228.5"/>
<text text-anchor="middle" x="167.5" y="-235.5" font-family="Helvetica,sans-Serif" font-size="10.00">et_util.read_s_ec</text>
</a>
</g>
</g>
<!-- Node1&#45;&gt;Node2 -->
<g id="edge1" class="edge"><title>Node1&#45;&gt;Node2</title>
<path fill="none" stroke="midnightblue" d="M41.6124,-133.629C51.2483,-152.738 75.3572,-195.621 108,-219 110.691,-220.927 113.589,-222.667 116.603,-224.235"/>
<polygon fill="midnightblue" stroke="midnightblue" points="115.352,-227.511 125.905,-228.445 118.238,-221.133 115.352,-227.511"/>
</g>
<!-- Node3 -->
<g id="node3" class="node"><title>Node3</title>
<g id="a_node3"><a xlink:href="namespaceet__util.html#a5cfb9371164d33036c4d3ec9f7a80e88" target="_top" xlink:title="et_util.read_s_met">
<polygon fill="white" stroke="black" points="119,-190.5 119,-209.5 216,-209.5 216,-190.5 119,-190.5"/>
<text text-anchor="middle" x="167.5" y="-197.5" font-family="Helvetica,sans-Serif" font-size="10.00">et_util.read_s_met</text>
</a>
</g>
</g>
<!-- Node1&#45;&gt;Node3 -->
<g id="edge2" class="edge"><title>Node1&#45;&gt;Node3</title>
<path fill="none" stroke="midnightblue" d="M46.7384,-133.775C59.6967,-146.293 83.8001,-167.928 108,-181 111.965,-183.142 116.213,-185.094 120.542,-186.86"/>
<polygon fill="midnightblue" stroke="midnightblue" points="119.48,-190.2 130.072,-190.433 121.937,-183.645 119.48,-190.2"/>
</g>
<!-- Node4 -->
<g id="node4" class="node"><title>Node4</title>
<g id="a_node4"><a xlink:href="namespaceet__util.html#a37255b034ed791b14cb66dc5df649a3f" target="_top" xlink:title="et_util.read_s_rad">
<polygon fill="white" stroke="black" points="120.5,-152.5 120.5,-171.5 214.5,-171.5 214.5,-152.5 120.5,-152.5"/>
<text text-anchor="middle" x="167.5" y="-159.5" font-family="Helvetica,sans-Serif" font-size="10.00">et_util.read_s_rad</text>
</a>
</g>
</g>
<!-- Node1&#45;&gt;Node4 -->
<g id="edge3" class="edge"><title>Node1&#45;&gt;Node4</title>
<path fill="none" stroke="midnightblue" d="M69.6783,-133.589C86.0888,-138.404 106.176,-144.299 123.792,-149.468"/>
<polygon fill="midnightblue" stroke="midnightblue" points="123.251,-152.957 133.832,-152.414 125.222,-146.24 123.251,-152.957"/>
</g>
<!-- Node5 -->
<g id="node5" class="node"><title>Node5</title>
<g id="a_node5"><a xlink:href="namespaceet__util.html#a5cda9dc3d34bdd80d01b977e805f4b04" target="_top" xlink:title="et_util.read_d_ec">
<polygon fill="white" stroke="black" points="122,-114.5 122,-133.5 213,-133.5 213,-114.5 122,-114.5"/>
<text text-anchor="middle" x="167.5" y="-121.5" font-family="Helvetica,sans-Serif" font-size="10.00">et_util.read_d_ec</text>
</a>
</g>
</g>
<!-- Node1&#45;&gt;Node5 -->
<g id="edge4" class="edge"><title>Node1&#45;&gt;Node5</title>
<path fill="none" stroke="midnightblue" d="M72.0446,-124C84.2215,-124 98.188,-124 111.58,-124"/>
<polygon fill="midnightblue" stroke="midnightblue" points="111.67,-127.5 121.67,-124 111.67,-120.5 111.67,-127.5"/>
</g>
<!-- Node6 -->
<g id="node6" class="node"><title>Node6</title>
<g id="a_node6"><a xlink:href="namespaceet__util.html#aa20b5ae88dbfb272ae5e7f53f4678358" target="_top" xlink:title="et_util.read_d_met">
<polygon fill="white" stroke="black" points="119,-76.5 119,-95.5 216,-95.5 216,-76.5 119,-76.5"/>
<text text-anchor="middle" x="167.5" y="-83.5" font-family="Helvetica,sans-Serif" font-size="10.00">et_util.read_d_met</text>
</a>
</g>
</g>
<!-- Node1&#45;&gt;Node6 -->
<g id="edge5" class="edge"><title>Node1&#45;&gt;Node6</title>
<path fill="none" stroke="midnightblue" d="M69.6783,-114.411C86.0888,-109.596 106.176,-103.701 123.792,-98.532"/>
<polygon fill="midnightblue" stroke="midnightblue" points="125.222,-101.76 133.832,-95.5859 123.251,-95.0433 125.222,-101.76"/>
</g>
<!-- Node7 -->
<g id="node7" class="node"><title>Node7</title>
<g id="a_node7"><a xlink:href="namespaceet__util.html#a76d5a5c19f0e86b9ab70c0957827c260" target="_top" xlink:title="et_util.read_d_rad">
<polygon fill="white" stroke="black" points="120.5,-38.5 120.5,-57.5 214.5,-57.5 214.5,-38.5 120.5,-38.5"/>
<text text-anchor="middle" x="167.5" y="-45.5" font-family="Helvetica,sans-Serif" font-size="10.00">et_util.read_d_rad</text>
</a>
</g>
</g>
<!-- Node1&#45;&gt;Node7 -->
<g id="edge6" class="edge"><title>Node1&#45;&gt;Node7</title>
<path fill="none" stroke="midnightblue" d="M46.7384,-114.225C59.6967,-101.707 83.8001,-80.0715 108,-67 111.965,-64.8582 116.213,-62.9062 120.542,-61.1397"/>
<polygon fill="midnightblue" stroke="midnightblue" points="121.937,-64.3546 130.072,-57.5669 119.48,-57.8001 121.937,-64.3546"/>
</g>
<!-- Node8 -->
<g id="node8" class="node"><title>Node8</title>
<g id="a_node8"><a xlink:href="namespaceet__util.html#a15aa7ba554d08be6cbf6a674accfa16e" target="_top" xlink:title="et_util.echo_description">
<polygon fill="white" stroke="black" points="108,-0.5 108,-19.5 227,-19.5 227,-0.5 108,-0.5"/>
<text text-anchor="middle" x="167.5" y="-7.5" font-family="Helvetica,sans-Serif" font-size="10.00">et_util.echo_description</text>
</a>
</g>
</g>
<!-- Node1&#45;&gt;Node8 -->
<g id="edge7" class="edge"><title>Node1&#45;&gt;Node8</title>
<path fill="none" stroke="midnightblue" d="M41.6124,-114.371C51.2483,-95.2618 75.3572,-52.3785 108,-29 110.691,-27.0725 113.589,-25.3332 116.603,-23.7648"/>
<polygon fill="midnightblue" stroke="midnightblue" points="118.238,-26.8666 125.905,-19.555 115.352,-20.4893 118.238,-26.8666"/>
</g>
</g>
</svg>
