<?xml version="1.0" encoding="UTF-8" standalone="no"?>
<!DOCTYPE svg PUBLIC "-//W3C//DTD SVG 1.1//EN"
 "http://www.w3.org/Graphics/SVG/1.1/DTD/svg11.dtd">
<!-- Generated by graphviz version 2.38.0 (20140413.2041)
 -->
<!-- Title: et_util.echo_description Pages: 1 -->
<svg width="493pt" height="161pt"
 viewBox="0.00 0.00 493.00 161.00" xmlns="http://www.w3.org/2000/svg" xmlns:xlink="http://www.w3.org/1999/xlink">
<g id="graph0" class="graph" transform="scale(1 1) rotate(0) translate(4 157)">
<title>et_util.echo_description</title>
<polygon fill="white" stroke="none" points="-4,4 -4,-157 489,-157 489,4 -4,4"/>
<!-- Node1 -->
<g id="node1" class="node"><title>Node1</title>
<polygon fill="#bfbfbf" stroke="black" points="0,-38.5 0,-57.5 119,-57.5 119,-38.5 0,-38.5"/>
<text text-anchor="middle" x="59.5" y="-45.5" font-family="Helvetica,sans-Serif" font-size="10.00">et_util.echo_description</text>
</g>
<!-- Node2 -->
<g id="node2" class="node"><title>Node2</title>
<g id="a_node2"><a xlink:href="namespaceet__util.html#ad14756ce8dfea7ab6da605eb2a34af45" target="_top" xlink:title="et_util.inventory">
<polygon fill="white" stroke="black" points="155,-95.5 155,-114.5 239,-114.5 239,-95.5 155,-95.5"/>
<text text-anchor="middle" x="197" y="-102.5" font-family="Helvetica,sans-Serif" font-size="10.00">et_util.inventory</text>
</a>
</g>
</g>
<!-- Node1&#45;&gt;Node2 -->
<g id="edge1" class="edge"><title>Node1&#45;&gt;Node2</title>
<path fill="none" stroke="midnightblue" d="M92.5429,-61.4793C117.364,-71.9208 151.139,-86.1285 173.246,-95.4284"/>
<polygon fill="midnightblue" stroke="midnightblue" points="93.7545,-58.1919 83.1797,-57.5405 91.0401,-64.6443 93.7545,-58.1919"/>
</g>
<!-- Node6 -->
<g id="node6" class="node"><title>Node6</title>
<g id="a_node6"><a xlink:href="namespaceet__util.html#a8013dc0897f9430ae8f354ba094b9fbd" target="_top" xlink:title="et_util.get_df">
<polygon fill="white" stroke="black" points="282,-19.5 282,-38.5 354,-38.5 354,-19.5 282,-19.5"/>
<text text-anchor="middle" x="318" y="-26.5" font-family="Helvetica,sans-Serif" font-size="10.00">et_util.get_df</text>
</a>
</g>
</g>
<!-- Node1&#45;&gt;Node6 -->
<g id="edge7" class="edge"><title>Node1&#45;&gt;Node6</title>
<path fill="none" stroke="midnightblue" d="M129.266,-42.9062C178.391,-39.2673 242.473,-34.5205 281.634,-31.6197"/>
<polygon fill="midnightblue" stroke="midnightblue" points="128.739,-39.4356 119.025,-43.6648 129.256,-46.4165 128.739,-39.4356"/>
</g>
<!-- Node7 -->
<g id="node7" class="node"><title>Node7</title>
<g id="a_node7"><a xlink:href="namespaceet__util.html#a5f5c300f7326cb0e153e0e82385239be" target="_top" xlink:title="et_util.df_csv">
<polygon fill="white" stroke="black" points="160.5,-0.5 160.5,-19.5 233.5,-19.5 233.5,-0.5 160.5,-0.5"/>
<text text-anchor="middle" x="197" y="-7.5" font-family="Helvetica,sans-Serif" font-size="10.00">et_util.df_csv</text>
</a>
</g>
</g>
<!-- Node1&#45;&gt;Node7 -->
<g id="edge9" class="edge"><title>Node1&#45;&gt;Node7</title>
<path fill="none" stroke="midnightblue" d="M104.425,-35.6817C123.041,-30.4607 144.409,-24.4684 161.819,-19.5859"/>
<polygon fill="midnightblue" stroke="midnightblue" points="103.376,-32.3407 94.6924,-38.411 105.266,-39.0807 103.376,-32.3407"/>
</g>
<!-- Node3 -->
<g id="node3" class="node"><title>Node3</title>
<g id="a_node3"><a xlink:href="namespaceet__util.html#a164b6705ccf94cb947d6bd11c7c19021" target="_top" xlink:title="et_util.startup">
<polygon fill="white" stroke="black" points="280,-133.5 280,-152.5 356,-152.5 356,-133.5 280,-133.5"/>
<text text-anchor="middle" x="318" y="-140.5" font-family="Helvetica,sans-Serif" font-size="10.00">et_util.startup</text>
</a>
</g>
</g>
<!-- Node2&#45;&gt;Node3 -->
<g id="edge2" class="edge"><title>Node2&#45;&gt;Node3</title>
<path fill="none" stroke="midnightblue" d="M237.71,-117.68C253.789,-122.815 272.043,-128.644 286.981,-133.414"/>
<polygon fill="midnightblue" stroke="midnightblue" points="238.62,-114.297 228.029,-114.589 236.49,-120.965 238.62,-114.297"/>
</g>
<!-- Node4 -->
<g id="node4" class="node"><title>Node4</title>
<g id="a_node4"><a xlink:href="namespaceet__util.html#a7d463c3690915efb78c87700565efc77" target="_top" xlink:title="et_util.clean_file">
<polygon fill="white" stroke="black" points="275,-95.5 275,-114.5 361,-114.5 361,-95.5 275,-95.5"/>
<text text-anchor="middle" x="318" y="-102.5" font-family="Helvetica,sans-Serif" font-size="10.00">et_util.clean_file</text>
</a>
</g>
</g>
<!-- Node2&#45;&gt;Node4 -->
<g id="edge3" class="edge"><title>Node2&#45;&gt;Node4</title>
<path fill="none" stroke="midnightblue" d="M249.505,-98.3045C258.012,-98.1879 266.741,-98.2584 274.98,-98.5158"/>
<polygon fill="midnightblue" stroke="midnightblue" points="249.203,-94.8104 239.286,-98.5393 249.364,-101.809 249.203,-94.8104"/>
</g>
<!-- Node4&#45;&gt;Node2 -->
<g id="edge4" class="edge"><title>Node4&#45;&gt;Node2</title>
<path fill="none" stroke="midnightblue" d="M264.735,-111.705C256.216,-111.811 247.495,-111.729 239.286,-111.461"/>
<polygon fill="midnightblue" stroke="midnightblue" points="265.058,-115.199 274.98,-111.484 264.906,-108.201 265.058,-115.199"/>
</g>
<!-- Node5 -->
<g id="node5" class="node"><title>Node5</title>
<g id="a_node5"><a xlink:href="namespaceet__util.html#aac88b1f4b427869a87aa4fa58150c9a5" target="_top" xlink:title="et_util.concat_df">
<polygon fill="white" stroke="black" points="397,-57.5 397,-76.5 485,-76.5 485,-57.5 397,-57.5"/>
<text text-anchor="middle" x="441" y="-64.5" font-family="Helvetica,sans-Serif" font-size="10.00">et_util.concat_df</text>
</a>
</g>
</g>
<!-- Node4&#45;&gt;Node5 -->
<g id="edge5" class="edge"><title>Node4&#45;&gt;Node5</title>
<path fill="none" stroke="midnightblue" d="M359.377,-92.3196C375.726,-87.1852 394.288,-81.3559 409.476,-76.5859"/>
<polygon fill="midnightblue" stroke="midnightblue" points="358.025,-89.0755 349.533,-95.411 360.123,-95.7539 358.025,-89.0755"/>
</g>
<!-- Node5&#45;&gt;Node2 -->
<g id="edge6" class="edge"><title>Node5&#45;&gt;Node2</title>
<path fill="none" stroke="midnightblue" d="M386.534,-71.4183C354.115,-74.5279 312.002,-79.3324 275,-86 261.043,-88.5151 245.852,-92.082 232.68,-95.4473"/>
<polygon fill="midnightblue" stroke="midnightblue" points="387.07,-74.8836 396.701,-70.468 386.418,-67.914 387.07,-74.8836"/>
</g>
<!-- Node6&#45;&gt;Node5 -->
<g id="edge8" class="edge"><title>Node6&#45;&gt;Node5</title>
<path fill="none" stroke="midnightblue" d="M359.377,-41.6804C375.726,-46.8148 394.288,-52.6441 409.476,-57.4141"/>
<polygon fill="midnightblue" stroke="midnightblue" points="360.123,-38.2461 349.533,-38.589 358.025,-44.9245 360.123,-38.2461"/>
</g>
</g>
</svg>
