<?xml version="1.0" encoding="UTF-8" standalone="no"?>
<!DOCTYPE svg PUBLIC "-//W3C//DTD SVG 1.1//EN"
 "http://www.w3.org/Graphics/SVG/1.1/DTD/svg11.dtd">
<!-- Generated by graphviz version 2.38.0 (20140413.2041)
 -->
<!-- Title: selectAndHighlight Pages: 1 -->
<svg width="425pt" height="161pt"
 viewBox="0.00 0.00 425.00 161.00" xmlns="http://www.w3.org/2000/svg" xmlns:xlink="http://www.w3.org/1999/xlink">
<g id="graph0" class="graph" transform="scale(1 1) rotate(0) translate(4 157)">
<title>selectAndHighlight</title>
<polygon fill="white" stroke="none" points="-4,4 -4,-157 421,-157 421,4 -4,4"/>
<!-- Node1 -->
<g id="node1" class="node"><title>Node1</title>
<polygon fill="#bfbfbf" stroke="black" points="0,-76.5 0,-95.5 98,-95.5 98,-76.5 0,-76.5"/>
<text text-anchor="middle" x="49" y="-83.5" font-family="Helvetica,sans-Serif" font-size="10.00">selectAndHighlight</text>
</g>
<!-- Node2 -->
<g id="node2" class="node"><title>Node2</title>
<g id="a_node2"><a xlink:href="navtree_8js.html#a9336c21407bb7ced644331eb7a2a6e35" target="_top" xlink:title="stripPath">
<polygon fill="white" stroke="black" points="147.5,-133.5 147.5,-152.5 203.5,-152.5 203.5,-133.5 147.5,-133.5"/>
<text text-anchor="middle" x="175.5" y="-140.5" font-family="Helvetica,sans-Serif" font-size="10.00">stripPath</text>
</a>
</g>
</g>
<!-- Node1&#45;&gt;Node2 -->
<g id="edge1" class="edge"><title>Node1&#45;&gt;Node2</title>
<path fill="none" stroke="midnightblue" d="M70.8385,-95.5405C90.9477,-104.747 121.609,-118.785 144.374,-129.207"/>
<polygon fill="midnightblue" stroke="midnightblue" points="143.044,-132.448 153.594,-133.428 145.958,-126.083 143.044,-132.448"/>
</g>
<!-- Node3 -->
<g id="node3" class="node"><title>Node3</title>
<g id="a_node3"><a xlink:href="navtree_8js.html#a364b3f4132309fa9aae78585cf2cb772" target="_top" xlink:title="pathName">
<polygon fill="white" stroke="black" points="145,-95.5 145,-114.5 206,-114.5 206,-95.5 145,-95.5"/>
<text text-anchor="middle" x="175.5" y="-102.5" font-family="Helvetica,sans-Serif" font-size="10.00">pathName</text>
</a>
</g>
</g>
<!-- Node1&#45;&gt;Node3 -->
<g id="edge2" class="edge"><title>Node1&#45;&gt;Node3</title>
<path fill="none" stroke="midnightblue" d="M98.135,-93.3459C110.307,-95.2035 123.24,-97.1772 134.935,-98.9619"/>
<polygon fill="midnightblue" stroke="midnightblue" points="134.43,-102.425 144.843,-100.474 135.486,-95.5054 134.43,-102.425"/>
</g>
<!-- Node4 -->
<g id="node4" class="node"><title>Node4</title>
<g id="a_node4"><a xlink:href="navtree_8js.html#a524fa9bfd80c70bf3a84696b2077eadb" target="_top" xlink:title="highlightAnchor">
<polygon fill="white" stroke="black" points="134,-57.5 134,-76.5 217,-76.5 217,-57.5 134,-57.5"/>
<text text-anchor="middle" x="175.5" y="-64.5" font-family="Helvetica,sans-Serif" font-size="10.00">highlightAnchor</text>
</a>
</g>
</g>
<!-- Node1&#45;&gt;Node4 -->
<g id="edge3" class="edge"><title>Node1&#45;&gt;Node4</title>
<path fill="none" stroke="midnightblue" d="M98.135,-78.6541C106.502,-77.3772 115.229,-76.0454 123.665,-74.7579"/>
<polygon fill="midnightblue" stroke="midnightblue" points="124.412,-78.1846 133.769,-73.216 123.355,-71.2647 124.412,-78.1846"/>
</g>
<!-- Node9 -->
<g id="node9" class="node"><title>Node9</title>
<g id="a_node9"><a xlink:href="navtree_8js.html#af98a8e3534da945399ea20870c0f3e92" target="_top" xlink:title="showRoot">
<polygon fill="white" stroke="black" points="146,-19.5 146,-38.5 205,-38.5 205,-19.5 146,-19.5"/>
<text text-anchor="middle" x="175.5" y="-26.5" font-family="Helvetica,sans-Serif" font-size="10.00">showRoot</text>
</a>
</g>
</g>
<!-- Node1&#45;&gt;Node9 -->
<g id="edge9" class="edge"><title>Node1&#45;&gt;Node9</title>
<path fill="none" stroke="midnightblue" d="M70.8385,-76.4595C90.9477,-67.2528 121.609,-53.2153 144.374,-42.7926"/>
<polygon fill="midnightblue" stroke="midnightblue" points="145.958,-45.9168 153.594,-38.5716 143.044,-39.5521 145.958,-45.9168"/>
</g>
<!-- Node5 -->
<g id="node5" class="node"><title>Node5</title>
<g id="a_node5"><a xlink:href="navtree_8js.html#a20695277530a1a04eef8d289177a5e40" target="_top" xlink:title="hashUrl">
<polygon fill="white" stroke="black" points="261,-114.5 261,-133.5 311,-133.5 311,-114.5 261,-114.5"/>
<text text-anchor="middle" x="286" y="-121.5" font-family="Helvetica,sans-Serif" font-size="10.00">hashUrl</text>
</a>
</g>
</g>
<!-- Node4&#45;&gt;Node5 -->
<g id="edge4" class="edge"><title>Node4&#45;&gt;Node5</title>
<path fill="none" stroke="midnightblue" d="M197.658,-76.5806C203.929,-79.513 210.781,-82.8087 217,-86 231.426,-93.403 247.255,-102.207 260.009,-109.476"/>
<polygon fill="midnightblue" stroke="midnightblue" points="258.272,-112.515 268.688,-114.455 261.756,-106.443 258.272,-112.515"/>
</g>
<!-- Node6 -->
<g id="node6" class="node"><title>Node6</title>
<g id="a_node6"><a xlink:href="navtree_8js.html#aaeb20639619e1371c030d36a7109b27b" target="_top" xlink:title="hashValue">
<polygon fill="white" stroke="black" points="355,-95.5 355,-114.5 417,-114.5 417,-95.5 355,-95.5"/>
<text text-anchor="middle" x="386" y="-102.5" font-family="Helvetica,sans-Serif" font-size="10.00">hashValue</text>
</a>
</g>
</g>
<!-- Node4&#45;&gt;Node6 -->
<g id="edge6" class="edge"><title>Node4&#45;&gt;Node6</title>
<path fill="none" stroke="midnightblue" d="M217.196,-74.417C254.135,-81.1493 308.289,-91.0191 345.007,-97.7112"/>
<polygon fill="midnightblue" stroke="midnightblue" points="344.407,-101.159 354.873,-99.5092 345.662,-94.2728 344.407,-101.159"/>
</g>
<!-- Node7 -->
<g id="node7" class="node"><title>Node7</title>
<g id="a_node7"><a xlink:href="navtree_8js.html#a23b68d2deb28f9c2678f546e2d60e5ee" target="_top" xlink:title="glowEffect">
<polygon fill="white" stroke="black" points="255.5,-38.5 255.5,-57.5 316.5,-57.5 316.5,-38.5 255.5,-38.5"/>
<text text-anchor="middle" x="286" y="-45.5" font-family="Helvetica,sans-Serif" font-size="10.00">glowEffect</text>
</a>
</g>
</g>
<!-- Node4&#45;&gt;Node7 -->
<g id="edge7" class="edge"><title>Node4&#45;&gt;Node7</title>
<path fill="none" stroke="midnightblue" d="M217.21,-59.871C226.385,-58.2644 236.112,-56.5611 245.246,-54.9615"/>
<polygon fill="midnightblue" stroke="midnightblue" points="246.001,-58.3826 255.248,-53.2101 244.794,-51.4875 246.001,-58.3826"/>
</g>
<!-- Node8 -->
<g id="node8" class="node"><title>Node8</title>
<g id="a_node8"><a xlink:href="navtree_8js.html#aee1fc3771eeb15da54962a03da1f3c11" target="_top" xlink:title="gotoAnchor">
<polygon fill="white" stroke="black" points="253,-0.5 253,-19.5 319,-19.5 319,-0.5 253,-0.5"/>
<text text-anchor="middle" x="286" y="-7.5" font-family="Helvetica,sans-Serif" font-size="10.00">gotoAnchor</text>
</a>
</g>
</g>
<!-- Node4&#45;&gt;Node8 -->
<g id="edge8" class="edge"><title>Node4&#45;&gt;Node8</title>
<path fill="none" stroke="midnightblue" d="M197.658,-57.4194C203.929,-54.487 210.781,-51.1913 217,-48 231.426,-40.597 247.255,-31.7929 260.009,-24.5241"/>
<polygon fill="midnightblue" stroke="midnightblue" points="261.756,-27.557 268.688,-19.5446 258.272,-21.4854 261.756,-27.557"/>
</g>
<!-- Node5&#45;&gt;Node6 -->
<g id="edge5" class="edge"><title>Node5&#45;&gt;Node6</title>
<path fill="none" stroke="midnightblue" d="M311.225,-119.303C321.293,-117.351 333.254,-115.032 344.584,-112.836"/>
<polygon fill="midnightblue" stroke="midnightblue" points="345.588,-116.206 354.739,-110.867 344.255,-109.334 345.588,-116.206"/>
</g>
</g>
</svg>
