<?xml version="1.0" encoding="UTF-8" standalone="no"?>
<!DOCTYPE svg PUBLIC "-//W3C//DTD SVG 1.1//EN"
 "http://www.w3.org/Graphics/SVG/1.1/DTD/svg11.dtd">
<!-- Generated by graphviz version 2.38.0 (20140413.2041)
 -->
<!-- Title: storeLink Pages: 1 -->
<svg width="770pt" height="116pt"
 viewBox="0.00 0.00 770.00 115.98" xmlns="http://www.w3.org/2000/svg" xmlns:xlink="http://www.w3.org/1999/xlink">
<g id="graph0" class="graph" transform="scale(1 1) rotate(0) translate(4 111.981)">
<title>storeLink</title>
<polygon fill="white" stroke="none" points="-4,4 -4,-111.981 766,-111.981 766,4 -4,4"/>
<!-- Node1 -->
<g id="node1" class="node"><title>Node1</title>
<polygon fill="#bfbfbf" stroke="black" points="0,-19.5 0,-38.5 56,-38.5 56,-19.5 0,-19.5"/>
<text text-anchor="middle" x="28" y="-26.5" font-family="Helvetica,sans-Serif" font-size="10.00">storeLink</text>
</g>
<!-- Node2 -->
<g id="node2" class="node"><title>Node2</title>
<g id="a_node2"><a xlink:href="navtree_8js.html#aa2418b16159e9502e990f97ea6ec26c8" target="_top" xlink:title="newNode">
<polygon fill="white" stroke="black" points="92,-38.5 92,-57.5 148,-57.5 148,-38.5 92,-38.5"/>
<text text-anchor="middle" x="120" y="-45.5" font-family="Helvetica,sans-Serif" font-size="10.00">newNode</text>
</a>
</g>
</g>
<!-- Node1&#45;&gt;Node2 -->
<g id="edge1" class="edge"><title>Node1&#45;&gt;Node2</title>
<path fill="none" stroke="midnightblue" d="M65.8762,-36.785C74.5164,-38.609 83.5699,-40.5203 91.705,-42.2377"/>
<polygon fill="midnightblue" stroke="midnightblue" points="66.5103,-33.3418 56.003,-34.7006 65.0643,-40.1908 66.5103,-33.3418"/>
</g>
<!-- Node10 -->
<g id="node10" class="node"><title>Node10</title>
<g id="a_node10"><a xlink:href="navtree_8js.html#a646cb31d83b39aafec92e0e1d123563a" target="_top" xlink:title="toggleSyncButton">
<polygon fill="white" stroke="black" points="184,-0.5 184,-19.5 278,-19.5 278,-0.5 184,-0.5"/>
<text text-anchor="middle" x="231" y="-7.5" font-family="Helvetica,sans-Serif" font-size="10.00">toggleSyncButton</text>
</a>
</g>
</g>
<!-- Node1&#45;&gt;Node10 -->
<g id="edge12" class="edge"><title>Node1&#45;&gt;Node10</title>
<path fill="none" stroke="midnightblue" d="M66.2982,-25.4743C99.469,-22.3388 148.1,-17.7418 183.739,-14.373"/>
<polygon fill="midnightblue" stroke="midnightblue" points="65.734,-22.0119 56.1078,-26.4376 66.3928,-28.9809 65.734,-22.0119"/>
</g>
<!-- Node3 -->
<g id="node3" class="node"><title>Node3</title>
<g id="a_node3"><a xlink:href="navtree_8js.html#a256aa4fbee866e9227f78e82e9f258bb" target="_top" xlink:title="getNode">
<polygon fill="white" stroke="black" points="204.5,-76.5 204.5,-95.5 257.5,-95.5 257.5,-76.5 204.5,-76.5"/>
<text text-anchor="middle" x="231" y="-83.5" font-family="Helvetica,sans-Serif" font-size="10.00">getNode</text>
</a>
</g>
</g>
<!-- Node2&#45;&gt;Node3 -->
<g id="edge2" class="edge"><title>Node2&#45;&gt;Node3</title>
<path fill="none" stroke="midnightblue" d="M157.882,-60.858C173.118,-66.1697 190.413,-72.199 204.246,-77.0216"/>
<polygon fill="midnightblue" stroke="midnightblue" points="158.819,-57.4781 148.224,-57.491 156.515,-64.0879 158.819,-57.4781"/>
</g>
<!-- Node4 -->
<g id="node4" class="node"><title>Node4</title>
<g id="a_node4"><a xlink:href="navtree_8js.html#a4eb1f166c9d93b198e1621a4c787a412" target="_top" xlink:title="expandNode">
<polygon fill="white" stroke="black" points="314,-76.5 314,-95.5 385,-95.5 385,-76.5 314,-76.5"/>
<text text-anchor="middle" x="349.5" y="-83.5" font-family="Helvetica,sans-Serif" font-size="10.00">expandNode</text>
</a>
</g>
</g>
<!-- Node3&#45;&gt;Node4 -->
<g id="edge3" class="edge"><title>Node3&#45;&gt;Node4</title>
<path fill="none" stroke="midnightblue" d="M267.746,-86C282.357,-86 299.201,-86 313.713,-86"/>
<polygon fill="midnightblue" stroke="midnightblue" points="267.566,-82.5001 257.566,-86 267.566,-89.5001 267.566,-82.5001"/>
</g>
<!-- Node6 -->
<g id="node6" class="node"><title>Node6</title>
<g id="a_node6"><a xlink:href="navtree_8js.html#a0238ad48be94f9f5fd305ea40b8f64ab" target="_top" xlink:title="showNode">
<polygon fill="white" stroke="black" points="425,-76.5 425,-95.5 487,-95.5 487,-76.5 425,-76.5"/>
<text text-anchor="middle" x="456" y="-83.5" font-family="Helvetica,sans-Serif" font-size="10.00">showNode</text>
</a>
</g>
</g>
<!-- Node3&#45;&gt;Node6 -->
<g id="edge11" class="edge"><title>Node3&#45;&gt;Node6</title>
<path fill="none" stroke="midnightblue" d="M267.527,-96.0906C281.837,-99.6657 298.578,-103.237 314,-105 345.351,-108.585 353.721,-109.17 385,-105 398.98,-103.136 414.126,-99.2668 426.742,-95.503"/>
<polygon fill="midnightblue" stroke="midnightblue" points="268.148,-92.636 257.59,-93.5125 266.39,-99.4117 268.148,-92.636"/>
</g>
<!-- Node5 -->
<g id="node5" class="node"><title>Node5</title>
<g id="a_node5"><a xlink:href="navtree_8js.html#a4d8f406d49520a0cede2e48347a3d7aa" target="_top" xlink:title="createIndent">
<polygon fill="white" stroke="black" points="421,-38.5 421,-57.5 491,-57.5 491,-38.5 421,-38.5"/>
<text text-anchor="middle" x="456" y="-45.5" font-family="Helvetica,sans-Serif" font-size="10.00">createIndent</text>
</a>
</g>
</g>
<!-- Node4&#45;&gt;Node5 -->
<g id="edge4" class="edge"><title>Node4&#45;&gt;Node5</title>
<path fill="none" stroke="midnightblue" d="M386.574,-72.882C400.396,-67.8561 415.893,-62.2209 428.639,-57.5859"/>
<polygon fill="midnightblue" stroke="midnightblue" points="385.072,-69.7042 376.87,-76.411 387.464,-76.2828 385.072,-69.7042"/>
</g>
<!-- Node4&#45;&gt;Node6 -->
<g id="edge6" class="edge"><title>Node4&#45;&gt;Node6</title>
<path fill="none" stroke="midnightblue" d="M395.2,-86C405.171,-86 415.517,-86 424.744,-86"/>
<polygon fill="midnightblue" stroke="midnightblue" points="395.007,-82.5001 385.007,-86 395.007,-89.5001 395.007,-82.5001"/>
</g>
<!-- Node5&#45;&gt;Node2 -->
<g id="edge5" class="edge"><title>Node5&#45;&gt;Node2</title>
<path fill="none" stroke="midnightblue" d="M410.528,-48C340.226,-48 205.512,-48 148.05,-48"/>
<polygon fill="midnightblue" stroke="midnightblue" points="410.826,-51.5001 420.826,-48 410.826,-44.5001 410.826,-51.5001"/>
</g>
<!-- Node7 -->
<g id="node7" class="node"><title>Node7</title>
<g id="a_node7"><a xlink:href="navtree_8js.html#a0e6a2d65190a43246d668bba554243e5" target="_top" xlink:title="gotoNode">
<polygon fill="white" stroke="black" points="527,-57.5 527,-76.5 585,-76.5 585,-57.5 527,-57.5"/>
<text text-anchor="middle" x="556" y="-64.5" font-family="Helvetica,sans-Serif" font-size="10.00">gotoNode</text>
</a>
</g>
</g>
<!-- Node6&#45;&gt;Node7 -->
<g id="edge7" class="edge"><title>Node6&#45;&gt;Node7</title>
<path fill="none" stroke="midnightblue" d="M497.265,-78.1934C507.16,-76.2752 517.545,-74.2617 526.737,-72.4797"/>
<polygon fill="midnightblue" stroke="midnightblue" points="496.354,-74.8049 487.203,-80.1443 497.686,-81.6769 496.354,-74.8049"/>
</g>
<!-- Node8 -->
<g id="node8" class="node"><title>Node8</title>
<g id="a_node8"><a xlink:href="navtree_8js.html#a21beb601032fff375100a907f32129a5" target="_top" xlink:title="navTo">
<polygon fill="white" stroke="black" points="621,-57.5 621,-76.5 662,-76.5 662,-57.5 621,-57.5"/>
<text text-anchor="middle" x="641.5" y="-64.5" font-family="Helvetica,sans-Serif" font-size="10.00">navTo</text>
</a>
</g>
</g>
<!-- Node7&#45;&gt;Node8 -->
<g id="edge8" class="edge"><title>Node7&#45;&gt;Node8</title>
<path fill="none" stroke="midnightblue" d="M595.452,-60.2688C604.284,-60.1681 613.315,-60.4725 620.949,-61.182"/>
<polygon fill="midnightblue" stroke="midnightblue" points="595.16,-56.7758 585.269,-60.573 595.369,-63.7727 595.16,-56.7758"/>
</g>
<!-- Node8&#45;&gt;Node7 -->
<g id="edge9" class="edge"><title>Node8&#45;&gt;Node7</title>
<path fill="none" stroke="midnightblue" d="M610.887,-73.4898C602.556,-73.8565 593.519,-73.8356 585.269,-73.427"/>
<polygon fill="midnightblue" stroke="midnightblue" points="611.205,-76.9765 620.949,-72.818 610.738,-69.9921 611.205,-76.9765"/>
</g>
<!-- Node9 -->
<g id="node9" class="node"><title>Node9</title>
<g id="a_node9"><a xlink:href="navtree_8js.html#aa7b3067e7ef0044572ba86240b1e58ce" target="_top" xlink:title="initNavTree">
<polygon fill="white" stroke="black" points="698,-28.5 698,-47.5 762,-47.5 762,-28.5 698,-28.5"/>
<text text-anchor="middle" x="730" y="-35.5" font-family="Helvetica,sans-Serif" font-size="10.00">initNavTree</text>
</a>
</g>
</g>
<!-- Node8&#45;&gt;Node9 -->
<g id="edge10" class="edge"><title>Node8&#45;&gt;Node9</title>
<path fill="none" stroke="midnightblue" d="M671.754,-57.1922C681.063,-54.0712 691.342,-50.6252 700.591,-47.5246"/>
<polygon fill="midnightblue" stroke="midnightblue" points="670.497,-53.9222 662.128,-60.4195 672.722,-60.5591 670.497,-53.9222"/>
</g>
<!-- Node10&#45;&gt;Node9 -->
<g id="edge13" class="edge"><title>Node10&#45;&gt;Node9</title>
<path fill="none" stroke="midnightblue" d="M288.289,-10C333.377,-10 398.25,-10 455,-10 455,-10 455,-10 557,-10 606.768,-10 663.596,-21.5614 697.862,-29.826"/>
<polygon fill="midnightblue" stroke="midnightblue" points="288.126,-6.5001 278.126,-10 288.126,-13.5001 288.126,-6.5001"/>
</g>
</g>
</svg>
