<?xml version="1.0" encoding="UTF-8" standalone="no"?>
<!DOCTYPE svg PUBLIC "-//W3C//DTD SVG 1.1//EN"
 "http://www.w3.org/Graphics/SVG/1.1/DTD/svg11.dtd">
<!-- Generated by graphviz version 2.38.0 (20140413.2041)
 -->
<!-- Title: showSyncOn Pages: 1 -->
<svg width="312pt" height="47pt"
 viewBox="0.00 0.00 312.00 47.00" xmlns="http://www.w3.org/2000/svg" xmlns:xlink="http://www.w3.org/1999/xlink">
<g id="graph0" class="graph" transform="scale(1 1) rotate(0) translate(4 43)">
<title>showSyncOn</title>
<polygon fill="white" stroke="none" points="-4,4 -4,-43 308,-43 308,4 -4,4"/>
<!-- Node1 -->
<g id="node1" class="node"><title>Node1</title>
<polygon fill="#bfbfbf" stroke="black" points="0,-0.5 0,-19.5 74,-19.5 74,-0.5 0,-0.5"/>
<text text-anchor="middle" x="37" y="-7.5" font-family="Helvetica,sans-Serif" font-size="10.00">showSyncOn</text>
</g>
<!-- Node2 -->
<g id="node2" class="node"><title>Node2</title>
<g id="a_node2"><a xlink:href="navtree_8js.html#a646cb31d83b39aafec92e0e1d123563a" target="_top" xlink:title="toggleSyncButton">
<polygon fill="white" stroke="black" points="110,-19.5 110,-38.5 204,-38.5 204,-19.5 110,-19.5"/>
<text text-anchor="middle" x="157" y="-26.5" font-family="Helvetica,sans-Serif" font-size="10.00">toggleSyncButton</text>
</a>
</g>
</g>
<!-- Node1&#45;&gt;Node2 -->
<g id="edge1" class="edge"><title>Node1&#45;&gt;Node2</title>
<path fill="none" stroke="midnightblue" d="M84.0832,-17.4202C92.5031,-18.7759 101.292,-20.1911 109.718,-21.5478"/>
<polygon fill="midnightblue" stroke="midnightblue" points="84.4743,-13.9382 74.0451,-15.8039 83.3615,-20.8491 84.4743,-13.9382"/>
</g>
<!-- Node3 -->
<g id="node3" class="node"><title>Node3</title>
<g id="a_node3"><a xlink:href="navtree_8js.html#aa7b3067e7ef0044572ba86240b1e58ce" target="_top" xlink:title="initNavTree">
<polygon fill="white" stroke="black" points="240,-0.5 240,-19.5 304,-19.5 304,-0.5 240,-0.5"/>
<text text-anchor="middle" x="272" y="-7.5" font-family="Helvetica,sans-Serif" font-size="10.00">initNavTree</text>
</a>
</g>
</g>
<!-- Node1&#45;&gt;Node3 -->
<g id="edge3" class="edge"><title>Node1&#45;&gt;Node3</title>
<path fill="none" stroke="midnightblue" d="M84.1992,-10C130.369,-10 200.068,-10 239.986,-10"/>
<polygon fill="midnightblue" stroke="midnightblue" points="84.1506,-6.5001 74.1506,-10 84.1506,-13.5001 84.1506,-6.5001"/>
</g>
<!-- Node2&#45;&gt;Node3 -->
<g id="edge2" class="edge"><title>Node2&#45;&gt;Node3</title>
<path fill="none" stroke="midnightblue" d="M214.183,-19.5533C222.992,-18.0722 231.811,-16.5894 239.783,-15.2488"/>
<polygon fill="midnightblue" stroke="midnightblue" points="213.569,-16.1074 204.287,-21.2172 214.729,-23.0105 213.569,-16.1074"/>
</g>
</g>
</svg>
