<?xml version="1.0" encoding="UTF-8" standalone="no"?>
<!DOCTYPE svg PUBLIC "-//W3C//DTD SVG 1.1//EN"
 "http://www.w3.org/Graphics/SVG/1.1/DTD/svg11.dtd">
<!-- Generated by graphviz version 2.38.0 (20140413.2041)
 -->
<!-- Title: stripPath2 Pages: 1 -->
<svg width="299pt" height="47pt"
 viewBox="0.00 0.00 299.00 47.00" xmlns="http://www.w3.org/2000/svg" xmlns:xlink="http://www.w3.org/1999/xlink">
<g id="graph0" class="graph" transform="scale(1 1) rotate(0) translate(4 43)">
<title>stripPath2</title>
<polygon fill="white" stroke="none" points="-4,4 -4,-43 295,-43 295,4 -4,4"/>
<!-- Node1 -->
<g id="node1" class="node"><title>Node1</title>
<polygon fill="#bfbfbf" stroke="black" points="0,-0.5 0,-19.5 61,-19.5 61,-0.5 0,-0.5"/>
<text text-anchor="middle" x="30.5" y="-7.5" font-family="Helvetica,sans-Serif" font-size="10.00">stripPath2</text>
</g>
<!-- Node2 -->
<g id="node2" class="node"><title>Node2</title>
<g id="a_node2"><a xlink:href="navtree_8js.html#a646cb31d83b39aafec92e0e1d123563a" target="_top" xlink:title="toggleSyncButton">
<polygon fill="white" stroke="black" points="97,-19.5 97,-38.5 191,-38.5 191,-19.5 97,-19.5"/>
<text text-anchor="middle" x="144" y="-26.5" font-family="Helvetica,sans-Serif" font-size="10.00">toggleSyncButton</text>
</a>
</g>
</g>
<!-- Node1&#45;&gt;Node2 -->
<g id="edge1" class="edge"><title>Node1&#45;&gt;Node2</title>
<path fill="none" stroke="midnightblue" d="M70.9791,-16.7274C79.3539,-18.1545 88.2655,-19.673 96.8627,-21.138"/>
<polygon fill="midnightblue" stroke="midnightblue" points="71.5331,-13.2714 61.0872,-15.0418 70.3572,-20.1719 71.5331,-13.2714"/>
</g>
<!-- Node3 -->
<g id="node3" class="node"><title>Node3</title>
<g id="a_node3"><a xlink:href="navtree_8js.html#aa7b3067e7ef0044572ba86240b1e58ce" target="_top" xlink:title="initNavTree">
<polygon fill="white" stroke="black" points="227,-0.5 227,-19.5 291,-19.5 291,-0.5 227,-0.5"/>
<text text-anchor="middle" x="259" y="-7.5" font-family="Helvetica,sans-Serif" font-size="10.00">initNavTree</text>
</a>
</g>
</g>
<!-- Node1&#45;&gt;Node3 -->
<g id="edge3" class="edge"><title>Node1&#45;&gt;Node3</title>
<path fill="none" stroke="midnightblue" d="M71.2387,-10C115.594,-10 186.442,-10 226.929,-10"/>
<polygon fill="midnightblue" stroke="midnightblue" points="71.111,-6.5001 61.1109,-10 71.1109,-13.5001 71.111,-6.5001"/>
</g>
<!-- Node2&#45;&gt;Node3 -->
<g id="edge2" class="edge"><title>Node2&#45;&gt;Node3</title>
<path fill="none" stroke="midnightblue" d="M201.183,-19.5533C209.992,-18.0722 218.811,-16.5894 226.783,-15.2488"/>
<polygon fill="midnightblue" stroke="midnightblue" points="200.569,-16.1074 191.287,-21.2172 201.729,-23.0105 200.569,-16.1074"/>
</g>
</g>
</svg>
