<?xml version="1.0" encoding="UTF-8" standalone="no"?>
<!DOCTYPE svg PUBLIC "-//W3C//DTD SVG 1.1//EN"
 "http://www.w3.org/Graphics/SVG/1.1/DTD/svg11.dtd">
<!-- Generated by graphviz version 2.38.0 (20140413.2041)
 -->
<!-- Title: hashUrl Pages: 1 -->
<svg width="680pt" height="104pt"
 viewBox="0.00 0.00 680.00 104.00" xmlns="http://www.w3.org/2000/svg" xmlns:xlink="http://www.w3.org/1999/xlink">
<g id="graph0" class="graph" transform="scale(1 1) rotate(0) translate(4 100)">
<title>hashUrl</title>
<polygon fill="white" stroke="none" points="-4,4 -4,-100 676,-100 676,4 -4,4"/>
<!-- Node1 -->
<g id="node1" class="node"><title>Node1</title>
<polygon fill="#bfbfbf" stroke="black" points="0,-38.5 0,-57.5 50,-57.5 50,-38.5 0,-38.5"/>
<text text-anchor="middle" x="25" y="-45.5" font-family="Helvetica,sans-Serif" font-size="10.00">hashUrl</text>
</g>
<!-- Node2 -->
<g id="node2" class="node"><title>Node2</title>
<g id="a_node2"><a xlink:href="navtree_8js.html#a524fa9bfd80c70bf3a84696b2077eadb" target="_top" xlink:title="highlightAnchor">
<polygon fill="white" stroke="black" points="86,-76.5 86,-95.5 169,-95.5 169,-76.5 86,-76.5"/>
<text text-anchor="middle" x="127.5" y="-83.5" font-family="Helvetica,sans-Serif" font-size="10.00">highlightAnchor</text>
</a>
</g>
</g>
<!-- Node1&#45;&gt;Node2 -->
<g id="edge1" class="edge"><title>Node1&#45;&gt;Node2</title>
<path fill="none" stroke="midnightblue" d="M59.5805,-60.6971C73.1755,-65.8375 88.6064,-71.6721 101.222,-76.442"/>
<polygon fill="midnightblue" stroke="midnightblue" points="60.6638,-57.3649 50.0723,-57.1019 58.1881,-63.9125 60.6638,-57.3649"/>
</g>
<!-- Node7 -->
<g id="node7" class="node"><title>Node7</title>
<g id="a_node7"><a xlink:href="navtree_8js.html#aa7b3067e7ef0044572ba86240b1e58ce" target="_top" xlink:title="initNavTree">
<polygon fill="white" stroke="black" points="608,-38.5 608,-57.5 672,-57.5 672,-38.5 608,-38.5"/>
<text text-anchor="middle" x="640" y="-45.5" font-family="Helvetica,sans-Serif" font-size="10.00">initNavTree</text>
</a>
</g>
</g>
<!-- Node1&#45;&gt;Node7 -->
<g id="edge10" class="edge"><title>Node1&#45;&gt;Node7</title>
<path fill="none" stroke="midnightblue" d="M60.444,-48C104.923,-48 184.735,-48 253,-48 253,-48 253,-48 467,-48 516.271,-48 573.481,-48 607.928,-48"/>
<polygon fill="midnightblue" stroke="midnightblue" points="60.1887,-44.5001 50.1887,-48 60.1886,-51.5001 60.1887,-44.5001"/>
</g>
<!-- Node8 -->
<g id="node8" class="node"><title>Node8</title>
<g id="a_node8"><a xlink:href="navtree_8js.html#a646cb31d83b39aafec92e0e1d123563a" target="_top" xlink:title="toggleSyncButton">
<polygon fill="white" stroke="black" points="207,-0.5 207,-19.5 301,-19.5 301,-0.5 207,-0.5"/>
<text text-anchor="middle" x="254" y="-7.5" font-family="Helvetica,sans-Serif" font-size="10.00">toggleSyncButton</text>
</a>
</g>
</g>
<!-- Node1&#45;&gt;Node8 -->
<g id="edge8" class="edge"><title>Node1&#45;&gt;Node8</title>
<path fill="none" stroke="midnightblue" d="M60.0534,-39.5153C68.5017,-37.5594 77.5551,-35.589 86,-34 126.588,-26.363 173.127,-19.858 206.749,-15.5548"/>
<polygon fill="midnightblue" stroke="midnightblue" points="59.0532,-36.1553 50.13,-41.8674 60.6676,-42.9666 59.0532,-36.1553"/>
</g>
<!-- Node3 -->
<g id="node3" class="node"><title>Node3</title>
<g id="a_node3"><a xlink:href="navtree_8js.html#a0dbf0d5f6126afd88420745f7d3c202d" target="_top" xlink:title="selectAndHighlight">
<polygon fill="white" stroke="black" points="205,-76.5 205,-95.5 303,-95.5 303,-76.5 205,-76.5"/>
<text text-anchor="middle" x="254" y="-83.5" font-family="Helvetica,sans-Serif" font-size="10.00">selectAndHighlight</text>
</a>
</g>
</g>
<!-- Node2&#45;&gt;Node3 -->
<g id="edge2" class="edge"><title>Node2&#45;&gt;Node3</title>
<path fill="none" stroke="midnightblue" d="M179.335,-86C187.741,-86 196.436,-86 204.776,-86"/>
<polygon fill="midnightblue" stroke="midnightblue" points="179.266,-82.5001 169.266,-86 179.266,-89.5001 179.266,-82.5001"/>
</g>
<!-- Node4 -->
<g id="node4" class="node"><title>Node4</title>
<g id="a_node4"><a xlink:href="navtree_8js.html#a0238ad48be94f9f5fd305ea40b8f64ab" target="_top" xlink:title="showNode">
<polygon fill="white" stroke="black" points="339,-76.5 339,-95.5 401,-95.5 401,-76.5 339,-76.5"/>
<text text-anchor="middle" x="370" y="-83.5" font-family="Helvetica,sans-Serif" font-size="10.00">showNode</text>
</a>
</g>
</g>
<!-- Node3&#45;&gt;Node4 -->
<g id="edge3" class="edge"><title>Node3&#45;&gt;Node4</title>
<path fill="none" stroke="midnightblue" d="M313.078,-86C322.018,-86 330.923,-86 338.913,-86"/>
<polygon fill="midnightblue" stroke="midnightblue" points="313.016,-82.5001 303.016,-86 313.016,-89.5001 313.016,-82.5001"/>
</g>
<!-- Node5 -->
<g id="node5" class="node"><title>Node5</title>
<g id="a_node5"><a xlink:href="navtree_8js.html#a0e6a2d65190a43246d668bba554243e5" target="_top" xlink:title="gotoNode">
<polygon fill="white" stroke="black" points="437,-76.5 437,-95.5 495,-95.5 495,-76.5 437,-76.5"/>
<text text-anchor="middle" x="466" y="-83.5" font-family="Helvetica,sans-Serif" font-size="10.00">gotoNode</text>
</a>
</g>
</g>
<!-- Node4&#45;&gt;Node5 -->
<g id="edge4" class="edge"><title>Node4&#45;&gt;Node5</title>
<path fill="none" stroke="midnightblue" d="M411.001,-86C419.71,-86 428.748,-86 436.881,-86"/>
<polygon fill="midnightblue" stroke="midnightblue" points="411.001,-82.5001 401.001,-86 411.001,-89.5001 411.001,-82.5001"/>
</g>
<!-- Node6 -->
<g id="node6" class="node"><title>Node6</title>
<g id="a_node6"><a xlink:href="navtree_8js.html#a21beb601032fff375100a907f32129a5" target="_top" xlink:title="navTo">
<polygon fill="white" stroke="black" points="531,-76.5 531,-95.5 572,-95.5 572,-76.5 531,-76.5"/>
<text text-anchor="middle" x="551.5" y="-83.5" font-family="Helvetica,sans-Serif" font-size="10.00">navTo</text>
</a>
</g>
</g>
<!-- Node5&#45;&gt;Node6 -->
<g id="edge5" class="edge"><title>Node5&#45;&gt;Node6</title>
<path fill="none" stroke="midnightblue" d="M505.452,-79.2688C514.284,-79.1681 523.315,-79.4725 530.949,-80.182"/>
<polygon fill="midnightblue" stroke="midnightblue" points="505.16,-75.7758 495.269,-79.573 505.369,-82.7727 505.16,-75.7758"/>
</g>
<!-- Node6&#45;&gt;Node5 -->
<g id="edge6" class="edge"><title>Node6&#45;&gt;Node5</title>
<path fill="none" stroke="midnightblue" d="M520.887,-92.4898C512.556,-92.8565 503.519,-92.8356 495.269,-92.427"/>
<polygon fill="midnightblue" stroke="midnightblue" points="521.205,-95.9765 530.949,-91.818 520.738,-88.9921 521.205,-95.9765"/>
</g>
<!-- Node6&#45;&gt;Node7 -->
<g id="edge7" class="edge"><title>Node6&#45;&gt;Node7</title>
<path fill="none" stroke="midnightblue" d="M581.504,-73.2582C593.21,-68.1159 606.483,-62.2851 617.324,-57.5223"/>
<polygon fill="midnightblue" stroke="midnightblue" points="579.876,-70.1507 572.128,-77.3772 582.691,-76.5595 579.876,-70.1507"/>
</g>
<!-- Node8&#45;&gt;Node7 -->
<g id="edge9" class="edge"><title>Node8&#45;&gt;Node7</title>
<path fill="none" stroke="midnightblue" d="M311.347,-12.0462C374.918,-14.8691 481.283,-21.1439 572,-34 583.766,-35.6674 596.563,-38.1683 607.79,-40.5972"/>
<polygon fill="midnightblue" stroke="midnightblue" points="311.279,-8.5401 301.138,-11.6063 310.978,-15.5336 311.279,-8.5401"/>
</g>
</g>
</svg>
