<?xml version="1.0" encoding="UTF-8" standalone="no"?>
<!DOCTYPE svg PUBLIC "-//W3C//DTD SVG 1.1//EN"
 "http://www.w3.org/Graphics/SVG/1.1/DTD/svg11.dtd">
<!-- Generated by graphviz version 2.38.0 (20140413.2041)
 -->
<!-- Title: stripPath Pages: 1 -->
<!--zoomable 189 -->
<svg id="main" version="1.1" xmlns="http://www.w3.org/2000/svg" xmlns:xlink="http://www.w3.org/1999/xlink" xml:space="preserve" onload="init(evt)">
<style type="text/css"><![CDATA[
.edge:hover path { stroke: red; }
.edge:hover polygon { stroke: red; fill: red; }
]]></style>
<script type="text/javascript"><![CDATA[
var edges = document.getElementsByTagName('g');
if (edges && edges.length) {
  for (var i=0;i<edges.length;i++) {
    if (edges[i].id.substr(0,4)=='edge') {
      edges[i].setAttribute('class','edge');
    }
  }
}
]]></script>
        <defs>
                <circle id="rim" cx="0" cy="0" r="7"/>
                <circle id="rim2" cx="0" cy="0" r="3.5"/>
                <g id="zoomPlus">
                        <use xlink:href="#rim" fill="#404040">
                                <set attributeName="fill" to="#808080" begin="zoomplus.mouseover" end="zoomplus.mouseout"/>
                        </use>
                        <path d="M-4,0h8M0,-4v8" fill="none" stroke="white" stroke-width="1.5" pointer-events="none"/>
                </g>
                <g id="zoomMin">
                        <use xlink:href="#rim" fill="#404040">
                                <set attributeName="fill" to="#808080" begin="zoomminus.mouseover" end="zoomminus.mouseout"/>
                        </use>
                        <path d="M-4,0h8" fill="none" stroke="white" stroke-width="1.5" pointer-events="none"/>
                </g>
                <g id="dirArrow">
                        <path fill="none" stroke="white" stroke-width="1.5" d="M0,-3.0v7 M-2.5,-0.5L0,-3.0L2.5,-0.5"/>
                </g>
               <g id="resetDef">
                       <use xlink:href="#rim2" fill="#404040">
                               <set attributeName="fill" to="#808080" begin="reset.mouseover" end="reset.mouseout"/>
                       </use>
               </g>
        </defs>

<script type="text/javascript">
var viewWidth = 774;
var viewHeight = 189;
var sectionId = 'dynsection-38';
</script>
<script xlink:href="svgpan.js"/>
<svg id="graph" class="graph">
<g id="viewport">
<title>stripPath</title>
<polygon fill="white" stroke="none" points="-4,4 -4,-185 770,-185 770,4 -4,4"/>
<!-- Node1 -->
<g id="node1" class="node"><title>Node1</title>
<polygon fill="#bfbfbf" stroke="black" points="0,-47.5 0,-66.5 56,-66.5 56,-47.5 0,-47.5"/>
<text text-anchor="middle" x="28" y="-54.5" font-family="Helvetica,sans-Serif" font-size="10.00">stripPath</text>
</g>
<!-- Node2 -->
<g id="node2" class="node"><title>Node2</title>
<g id="a_node2"><a xlink:href="navtree_8js.html#aa2418b16159e9502e990f97ea6ec26c8" target="_top" xlink:title="newNode">
<polygon fill="white" stroke="black" points="92,-123.5 92,-142.5 148,-142.5 148,-123.5 92,-123.5"/>
<text text-anchor="middle" x="120" y="-130.5" font-family="Helvetica,sans-Serif" font-size="10.00">newNode</text>
</a>
</g>
</g>
<!-- Node1&#45;&gt;Node2 -->
<g id="edge1" class="edge"><title>Node1&#45;&gt;Node2</title>
<path fill="none" stroke="midnightblue" d="M48.0396,-73.0779C66.1306,-88.3548 92.7291,-110.816 107.694,-123.453"/>
<polygon fill="midnightblue" stroke="midnightblue" points="50.297,-70.4032 40.3986,-66.6255 45.7807,-75.7514 50.297,-70.4032"/>
</g>
<!-- Node6 -->
<g id="node6" class="node"><title>Node6</title>
<g id="a_node6"><a xlink:href="navtree_8js.html#a0238ad48be94f9f5fd305ea40b8f64ab" target="_top" xlink:title="showNode">
<polygon fill="white" stroke="black" points="429,-66.5 429,-85.5 491,-85.5 491,-66.5 429,-66.5"/>
<text text-anchor="middle" x="460" y="-73.5" font-family="Helvetica,sans-Serif" font-size="10.00">showNode</text>
</a>
</g>
</g>
<!-- Node1&#45;&gt;Node6 -->
<g id="edge14" class="edge"><title>Node1&#45;&gt;Node6</title>
<path fill="none" stroke="midnightblue" d="M66.2697,-60.2127C74.7249,-60.8706 83.668,-61.5107 92,-62 216.758,-69.3272 365.609,-73.6412 428.53,-75.2608"/>
<polygon fill="midnightblue" stroke="midnightblue" points="66.5199,-56.7216 56.2719,-59.4102 65.9597,-63.6992 66.5199,-56.7216"/>
</g>
<!-- Node9 -->
<g id="node9" class="node"><title>Node9</title>
<g id="a_node9"><a xlink:href="navtree_8js.html#aa7b3067e7ef0044572ba86240b1e58ce" target="_top" xlink:title="initNavTree">
<polygon fill="white" stroke="black" points="702,-18.5 702,-37.5 766,-37.5 766,-18.5 702,-18.5"/>
<text text-anchor="middle" x="734" y="-25.5" font-family="Helvetica,sans-Serif" font-size="10.00">initNavTree</text>
</a>
</g>
</g>
<!-- Node1&#45;&gt;Node9 -->
<g id="edge15" class="edge"><title>Node1&#45;&gt;Node9</title>
<path fill="none" stroke="midnightblue" d="M58.5656,-43.1888C97.4514,-26.319 168.322,-6.52256e-015 232,-0 232,-0 232,-0 561,-0 610.768,-3.55271e-015 667.596,-11.5614 701.862,-19.826"/>
<polygon fill="midnightblue" stroke="midnightblue" points="56.6577,-40.2061 48.9351,-47.4595 59.4954,-46.6051 56.6577,-40.2061"/>
</g>
<!-- Node10 -->
<g id="node10" class="node"><title>Node10</title>
<g id="a_node10"><a xlink:href="navtree_8js.html#a0dbf0d5f6126afd88420745f7d3c202d" target="_top" xlink:title="selectAndHighlight">
<polygon fill="white" stroke="black" points="184,-28.5 184,-47.5 282,-47.5 282,-28.5 184,-28.5"/>
<text text-anchor="middle" x="233" y="-35.5" font-family="Helvetica,sans-Serif" font-size="10.00">selectAndHighlight</text>
</a>
</g>
</g>
<!-- Node1&#45;&gt;Node10 -->
<g id="edge12" class="edge"><title>Node1&#45;&gt;Node10</title>
<path fill="none" stroke="midnightblue" d="M66.5268,-53.4876C99.5444,-50.3973 147.809,-45.88 183.701,-42.5206"/>
<polygon fill="midnightblue" stroke="midnightblue" points="66.0078,-50.0208 56.3775,-54.4376 66.6602,-56.9904 66.0078,-50.0208"/>
</g>
<!-- Node3 -->
<g id="node3" class="node"><title>Node3</title>
<g id="a_node3"><a xlink:href="navtree_8js.html#a256aa4fbee866e9227f78e82e9f258bb" target="_top" xlink:title="getNode">
<polygon fill="white" stroke="black" points="206.5,-123.5 206.5,-142.5 259.5,-142.5 259.5,-123.5 206.5,-123.5"/>
<text text-anchor="middle" x="233" y="-130.5" font-family="Helvetica,sans-Serif" font-size="10.00">getNode</text>
</a>
</g>
</g>
<!-- Node2&#45;&gt;Node3 -->
<g id="edge2" class="edge"><title>Node2&#45;&gt;Node3</title>
<path fill="none" stroke="midnightblue" d="M158.602,-133C174.29,-133 192.115,-133 206.271,-133"/>
<polygon fill="midnightblue" stroke="midnightblue" points="158.154,-129.5 148.154,-133 158.154,-136.5 158.154,-129.5"/>
</g>
<!-- Node4 -->
<g id="node4" class="node"><title>Node4</title>
<g id="a_node4"><a xlink:href="navtree_8js.html#a4eb1f166c9d93b198e1621a4c787a412" target="_top" xlink:title="expandNode">
<polygon fill="white" stroke="black" points="318,-142.5 318,-161.5 389,-161.5 389,-142.5 318,-142.5"/>
<text text-anchor="middle" x="353.5" y="-149.5" font-family="Helvetica,sans-Serif" font-size="10.00">expandNode</text>
</a>
</g>
</g>
<!-- Node3&#45;&gt;Node4 -->
<g id="edge3" class="edge"><title>Node3&#45;&gt;Node4</title>
<path fill="none" stroke="midnightblue" d="M269.803,-138.741C285.038,-141.183 302.737,-144.021 317.844,-146.443"/>
<polygon fill="midnightblue" stroke="midnightblue" points="270.141,-135.25 259.713,-137.123 269.032,-142.162 270.141,-135.25"/>
</g>
<!-- Node3&#45;&gt;Node6 -->
<g id="edge11" class="edge"><title>Node3&#45;&gt;Node6</title>
<path fill="none" stroke="midnightblue" d="M269.78,-123.936C313.764,-112.793 387.628,-94.081 428.856,-83.6364"/>
<polygon fill="midnightblue" stroke="midnightblue" points="268.645,-120.613 259.81,-126.461 270.364,-127.398 268.645,-120.613"/>
</g>
<!-- Node5 -->
<g id="node5" class="node"><title>Node5</title>
<g id="a_node5"><a xlink:href="navtree_8js.html#a4d8f406d49520a0cede2e48347a3d7aa" target="_top" xlink:title="createIndent">
<polygon fill="white" stroke="black" points="425,-161.5 425,-180.5 495,-180.5 495,-161.5 425,-161.5"/>
<text text-anchor="middle" x="460" y="-168.5" font-family="Helvetica,sans-Serif" font-size="10.00">createIndent</text>
</a>
</g>
</g>
<!-- Node4&#45;&gt;Node5 -->
<g id="edge4" class="edge"><title>Node4&#45;&gt;Node5</title>
<path fill="none" stroke="midnightblue" d="M398.99,-160.089C407.658,-161.665 416.618,-163.294 424.886,-164.797"/>
<polygon fill="midnightblue" stroke="midnightblue" points="399.472,-156.619 389.007,-158.274 398.219,-163.506 399.472,-156.619"/>
</g>
<!-- Node4&#45;&gt;Node6 -->
<g id="edge6" class="edge"><title>Node4&#45;&gt;Node6</title>
<path fill="none" stroke="midnightblue" d="M377.073,-136.447C381.062,-133.656 385.164,-130.758 389,-128 409.281,-113.418 432.498,-96.0312 446.441,-85.5129"/>
<polygon fill="midnightblue" stroke="midnightblue" points="374.882,-133.708 368.67,-142.29 378.878,-139.455 374.882,-133.708"/>
</g>
<!-- Node5&#45;&gt;Node2 -->
<g id="edge5" class="edge"><title>Node5&#45;&gt;Node2</title>
<path fill="none" stroke="midnightblue" d="M414.567,-172.599C386.78,-173.203 350.262,-173.276 318,-171 257.998,-166.767 242.742,-164.944 184,-152 172.063,-149.37 159.098,-145.619 148.051,-142.144"/>
<polygon fill="midnightblue" stroke="midnightblue" points="414.852,-176.093 424.762,-172.345 414.678,-169.095 414.852,-176.093"/>
</g>
<!-- Node7 -->
<g id="node7" class="node"><title>Node7</title>
<g id="a_node7"><a xlink:href="navtree_8js.html#a0e6a2d65190a43246d668bba554243e5" target="_top" xlink:title="gotoNode">
<polygon fill="white" stroke="black" points="531,-47.5 531,-66.5 589,-66.5 589,-47.5 531,-47.5"/>
<text text-anchor="middle" x="560" y="-54.5" font-family="Helvetica,sans-Serif" font-size="10.00">gotoNode</text>
</a>
</g>
</g>
<!-- Node6&#45;&gt;Node7 -->
<g id="edge7" class="edge"><title>Node6&#45;&gt;Node7</title>
<path fill="none" stroke="midnightblue" d="M501.265,-68.1934C511.16,-66.2752 521.545,-64.2617 530.737,-62.4797"/>
<polygon fill="midnightblue" stroke="midnightblue" points="500.354,-64.8049 491.203,-70.1443 501.686,-71.6769 500.354,-64.8049"/>
</g>
<!-- Node8 -->
<g id="node8" class="node"><title>Node8</title>
<g id="a_node8"><a xlink:href="navtree_8js.html#a21beb601032fff375100a907f32129a5" target="_top" xlink:title="navTo">
<polygon fill="white" stroke="black" points="625,-47.5 625,-66.5 666,-66.5 666,-47.5 625,-47.5"/>
<text text-anchor="middle" x="645.5" y="-54.5" font-family="Helvetica,sans-Serif" font-size="10.00">navTo</text>
</a>
</g>
</g>
<!-- Node7&#45;&gt;Node8 -->
<g id="edge8" class="edge"><title>Node7&#45;&gt;Node8</title>
<path fill="none" stroke="midnightblue" d="M599.452,-50.2688C608.284,-50.1681 617.315,-50.4725 624.949,-51.182"/>
<polygon fill="midnightblue" stroke="midnightblue" points="599.16,-46.7758 589.269,-50.573 599.369,-53.7727 599.16,-46.7758"/>
</g>
<!-- Node8&#45;&gt;Node7 -->
<g id="edge9" class="edge"><title>Node8&#45;&gt;Node7</title>
<path fill="none" stroke="midnightblue" d="M614.887,-63.4898C606.556,-63.8565 597.519,-63.8356 589.269,-63.427"/>
<polygon fill="midnightblue" stroke="midnightblue" points="615.205,-66.9765 624.949,-62.818 614.738,-59.9921 615.205,-66.9765"/>
</g>
<!-- Node8&#45;&gt;Node9 -->
<g id="edge10" class="edge"><title>Node8&#45;&gt;Node9</title>
<path fill="none" stroke="midnightblue" d="M675.754,-47.1922C685.063,-44.0712 695.342,-40.6252 704.591,-37.5246"/>
<polygon fill="midnightblue" stroke="midnightblue" points="674.497,-43.9222 666.128,-50.4195 676.722,-50.5591 674.497,-43.9222"/>
</g>
<!-- Node10&#45;&gt;Node6 -->
<g id="edge13" class="edge"><title>Node10&#45;&gt;Node6</title>
<path fill="none" stroke="midnightblue" d="M292.267,-46.4053C321.374,-50.7608 357.101,-56.3433 389,-62 402.057,-64.3155 416.428,-67.1411 428.734,-69.646"/>
<polygon fill="midnightblue" stroke="midnightblue" points="292.671,-42.9269 282.265,-44.9178 291.641,-49.8508 292.671,-42.9269"/>
</g>
</g>
</svg>
        <g id="navigator" transform="translate(0 0)" fill="#404254">
                <rect fill="#f2f5e9" fill-opacity="0.5" stroke="#606060" stroke-width=".5" x="0" y="0" width="60" height="60"/>
                <use id="zoomplus" xlink:href="#zoomPlus" x="17" y="9" onmousedown="handleZoom(evt,'in')"/>
                <use id="zoomminus" xlink:href="#zoomMin" x="42" y="9" onmousedown="handleZoom(evt,'out')"/>
                <use id="reset" xlink:href="#resetDef" x="30" y="36" onmousedown="handleReset()"/>
                <g id="arrowUp" xlink:href="#dirArrow" transform="translate(30 24)" onmousedown="handlePan(0,-1)">
                  <use xlink:href="#rim" fill="#404040">
                        <set attributeName="fill" to="#808080" begin="arrowUp.mouseover" end="arrowUp.mouseout"/>
                  </use>
                  <path fill="none" stroke="white" stroke-width="1.5" d="M0,-3.0v7 M-2.5,-0.5L0,-3.0L2.5,-0.5"/>
                </g>
                <g id="arrowRight" xlink:href="#dirArrow" transform="rotate(90) translate(36 -43)" onmousedown="handlePan(1,0)">
                  <use xlink:href="#rim" fill="#404040">
                        <set attributeName="fill" to="#808080" begin="arrowRight.mouseover" end="arrowRight.mouseout"/>
                  </use>
                  <path fill="none" stroke="white" stroke-width="1.5" d="M0,-3.0v7 M-2.5,-0.5L0,-3.0L2.5,-0.5"/>
                </g>
                <g id="arrowDown" xlink:href="#dirArrow" transform="rotate(180) translate(-30 -48)" onmousedown="handlePan(0,1)">
                  <use xlink:href="#rim" fill="#404040">
                        <set attributeName="fill" to="#808080" begin="arrowDown.mouseover" end="arrowDown.mouseout"/>
                  </use>
                  <path fill="none" stroke="white" stroke-width="1.5" d="M0,-3.0v7 M-2.5,-0.5L0,-3.0L2.5,-0.5"/>
                </g>
                <g id="arrowLeft" xlink:href="#dirArrow" transform="rotate(270) translate(-36 17)" onmousedown="handlePan(-1,0)">
                  <use xlink:href="#rim" fill="#404040">
                        <set attributeName="fill" to="#808080" begin="arrowLeft.mouseover" end="arrowLeft.mouseout"/>
                  </use>
                  <path fill="none" stroke="white" stroke-width="1.5" d="M0,-3.0v7 M-2.5,-0.5L0,-3.0L2.5,-0.5"/>
                </g>
        </g>
        <svg viewBox="0 0 15 15" width="100%" height="30px" preserveAspectRatio="xMaxYMin meet">
         <g id="arrow_out" transform="scale(0.3 0.3)">
          <a xlink:href="navtree_8js_a9336c21407bb7ced644331eb7a2a6e35_icgraph_org.svg" target="_base">
           <rect id="button" ry="5" rx="5" y="6" x="6" height="38" width="38"
                fill="#f2f5e9" fill-opacity="0.5" stroke="#606060" stroke-width="1.0"/>
           <path id="arrow"
             d="M 11.500037,31.436501 C 11.940474,20.09759 22.043105,11.32322 32.158766,21.979434 L 37.068811,17.246167 C 37.068811,17.246167 37.088388,32 37.088388,32 L 22.160133,31.978069 C 22.160133,31.978069 26.997745,27.140456 26.997745,27.140456 C 18.528582,18.264221 13.291696,25.230495 11.500037,31.436501 z"
             style="fill:#404040;"/>
          </a>
         </g>
        </svg>
</svg>
