<?xml version="1.0" encoding="UTF-8" standalone="no"?>
<!DOCTYPE svg PUBLIC "-//W3C//DTD SVG 1.1//EN"
 "http://www.w3.org/Graphics/SVG/1.1/DTD/svg11.dtd">
<!-- Generated by graphviz version 2.38.0 (20140413.2041)
 -->
<!-- Title: gotoAnchor Pages: 1 -->
<svg width="796pt" height="123pt"
 viewBox="0.00 0.00 796.00 123.00" xmlns="http://www.w3.org/2000/svg" xmlns:xlink="http://www.w3.org/1999/xlink">
<g id="graph0" class="graph" transform="scale(1 1) rotate(0) translate(4 119)">
<title>gotoAnchor</title>
<polygon fill="white" stroke="none" points="-4,4 -4,-119 792,-119 792,4 -4,4"/>
<!-- Node1 -->
<g id="node1" class="node"><title>Node1</title>
<polygon fill="#bfbfbf" stroke="black" points="0,-38.5 0,-57.5 66,-57.5 66,-38.5 0,-38.5"/>
<text text-anchor="middle" x="33" y="-45.5" font-family="Helvetica,sans-Serif" font-size="10.00">gotoAnchor</text>
</g>
<!-- Node2 -->
<g id="node2" class="node"><title>Node2</title>
<g id="a_node2"><a xlink:href="navtree_8js.html#aa2418b16159e9502e990f97ea6ec26c8" target="_top" xlink:title="newNode">
<polygon fill="white" stroke="black" points="102,-67.5 102,-86.5 158,-86.5 158,-67.5 102,-67.5"/>
<text text-anchor="middle" x="130" y="-74.5" font-family="Helvetica,sans-Serif" font-size="10.00">newNode</text>
</a>
</g>
</g>
<!-- Node1&#45;&gt;Node2 -->
<g id="edge1" class="edge"><title>Node1&#45;&gt;Node2</title>
<path fill="none" stroke="midnightblue" d="M75.0126,-60.5196C84.0742,-63.2858 93.4567,-66.1499 101.808,-68.6992"/>
<polygon fill="midnightblue" stroke="midnightblue" points="75.956,-57.1482 65.3698,-57.5761 73.9122,-63.8433 75.956,-57.1482"/>
</g>
<!-- Node10 -->
<g id="node10" class="node"><title>Node10</title>
<g id="a_node10"><a xlink:href="navtree_8js.html#a524fa9bfd80c70bf3a84696b2077eadb" target="_top" xlink:title="highlightAnchor">
<polygon fill="white" stroke="black" points="194,-5.5 194,-24.5 277,-24.5 277,-5.5 194,-5.5"/>
<text text-anchor="middle" x="235.5" y="-12.5" font-family="Helvetica,sans-Serif" font-size="10.00">highlightAnchor</text>
</a>
</g>
</g>
<!-- Node1&#45;&gt;Node10 -->
<g id="edge12" class="edge"><title>Node1&#45;&gt;Node10</title>
<path fill="none" stroke="midnightblue" d="M76.4685,-41.0102C111.054,-35.3178 159.57,-27.3326 193.697,-21.7156"/>
<polygon fill="midnightblue" stroke="midnightblue" points="75.5126,-37.6203 66.2138,-42.698 76.6495,-44.5274 75.5126,-37.6203"/>
</g>
<!-- Node3 -->
<g id="node3" class="node"><title>Node3</title>
<g id="a_node3"><a xlink:href="navtree_8js.html#a256aa4fbee866e9227f78e82e9f258bb" target="_top" xlink:title="getNode">
<polygon fill="white" stroke="black" points="209,-67.5 209,-86.5 262,-86.5 262,-67.5 209,-67.5"/>
<text text-anchor="middle" x="235.5" y="-74.5" font-family="Helvetica,sans-Serif" font-size="10.00">getNode</text>
</a>
</g>
</g>
<!-- Node2&#45;&gt;Node3 -->
<g id="edge2" class="edge"><title>Node2&#45;&gt;Node3</title>
<path fill="none" stroke="midnightblue" d="M168.571,-77C181.973,-77 196.75,-77 208.912,-77"/>
<polygon fill="midnightblue" stroke="midnightblue" points="168.193,-73.5001 158.193,-77 168.193,-80.5001 168.193,-73.5001"/>
</g>
<!-- Node4 -->
<g id="node4" class="node"><title>Node4</title>
<g id="a_node4"><a xlink:href="navtree_8js.html#a4eb1f166c9d93b198e1621a4c787a412" target="_top" xlink:title="expandNode">
<polygon fill="white" stroke="black" points="326.5,-76.5 326.5,-95.5 397.5,-95.5 397.5,-76.5 326.5,-76.5"/>
<text text-anchor="middle" x="362" y="-83.5" font-family="Helvetica,sans-Serif" font-size="10.00">expandNode</text>
</a>
</g>
</g>
<!-- Node3&#45;&gt;Node4 -->
<g id="edge3" class="edge"><title>Node3&#45;&gt;Node4</title>
<path fill="none" stroke="midnightblue" d="M272.375,-79.5934C289.321,-80.8184 309.465,-82.2746 326.263,-83.4889"/>
<polygon fill="midnightblue" stroke="midnightblue" points="272.523,-76.095 262.296,-78.8648 272.018,-83.0768 272.523,-76.095"/>
</g>
<!-- Node6 -->
<g id="node6" class="node"><title>Node6</title>
<g id="a_node6"><a xlink:href="navtree_8js.html#a0238ad48be94f9f5fd305ea40b8f64ab" target="_top" xlink:title="showNode">
<polygon fill="white" stroke="black" points="451,-38.5 451,-57.5 513,-57.5 513,-38.5 451,-38.5"/>
<text text-anchor="middle" x="482" y="-45.5" font-family="Helvetica,sans-Serif" font-size="10.00">showNode</text>
</a>
</g>
</g>
<!-- Node3&#45;&gt;Node6 -->
<g id="edge11" class="edge"><title>Node3&#45;&gt;Node6</title>
<path fill="none" stroke="midnightblue" d="M272.59,-72.1514C285.35,-70.4718 299.808,-68.6081 313,-67 361.222,-61.1219 417.308,-54.9031 450.937,-51.2408"/>
<polygon fill="midnightblue" stroke="midnightblue" points="271.789,-68.7268 262.335,-73.5094 272.708,-75.6662 271.789,-68.7268"/>
</g>
<!-- Node5 -->
<g id="node5" class="node"><title>Node5</title>
<g id="a_node5"><a xlink:href="navtree_8js.html#a4d8f406d49520a0cede2e48347a3d7aa" target="_top" xlink:title="createIndent">
<polygon fill="white" stroke="black" points="447,-95.5 447,-114.5 517,-114.5 517,-95.5 447,-95.5"/>
<text text-anchor="middle" x="482" y="-102.5" font-family="Helvetica,sans-Serif" font-size="10.00">createIndent</text>
</a>
</g>
</g>
<!-- Node4&#45;&gt;Node5 -->
<g id="edge4" class="edge"><title>Node4&#45;&gt;Node5</title>
<path fill="none" stroke="midnightblue" d="M407.883,-93.227C420.821,-95.3101 434.72,-97.5481 446.889,-99.5076"/>
<polygon fill="midnightblue" stroke="midnightblue" points="408.195,-89.7321 397.766,-91.5979 407.082,-96.6431 408.195,-89.7321"/>
</g>
<!-- Node4&#45;&gt;Node6 -->
<g id="edge6" class="edge"><title>Node4&#45;&gt;Node6</title>
<path fill="none" stroke="midnightblue" d="M402.376,-73.3196C418.32,-68.1852 436.421,-62.3559 451.233,-57.5859"/>
<polygon fill="midnightblue" stroke="midnightblue" points="401.222,-70.0141 392.776,-76.411 403.368,-76.6771 401.222,-70.0141"/>
</g>
<!-- Node5&#45;&gt;Node2 -->
<g id="edge5" class="edge"><title>Node5&#45;&gt;Node2</title>
<path fill="none" stroke="midnightblue" d="M436.545,-107.768C379.749,-110.357 278.66,-111.773 194,-96 181.983,-93.7611 169.006,-90.0745 157.97,-86.5416"/>
<polygon fill="midnightblue" stroke="midnightblue" points="436.803,-111.26 446.62,-107.275 436.461,-104.268 436.803,-111.26"/>
</g>
<!-- Node7 -->
<g id="node7" class="node"><title>Node7</title>
<g id="a_node7"><a xlink:href="navtree_8js.html#a0e6a2d65190a43246d668bba554243e5" target="_top" xlink:title="gotoNode">
<polygon fill="white" stroke="black" points="553,-38.5 553,-57.5 611,-57.5 611,-38.5 553,-38.5"/>
<text text-anchor="middle" x="582" y="-45.5" font-family="Helvetica,sans-Serif" font-size="10.00">gotoNode</text>
</a>
</g>
</g>
<!-- Node6&#45;&gt;Node7 -->
<g id="edge7" class="edge"><title>Node6&#45;&gt;Node7</title>
<path fill="none" stroke="midnightblue" d="M523.265,-48C533.16,-48 543.545,-48 552.737,-48"/>
<polygon fill="midnightblue" stroke="midnightblue" points="523.203,-44.5001 513.203,-48 523.203,-51.5001 523.203,-44.5001"/>
</g>
<!-- Node8 -->
<g id="node8" class="node"><title>Node8</title>
<g id="a_node8"><a xlink:href="navtree_8js.html#a21beb601032fff375100a907f32129a5" target="_top" xlink:title="navTo">
<polygon fill="white" stroke="black" points="647,-38.5 647,-57.5 688,-57.5 688,-38.5 647,-38.5"/>
<text text-anchor="middle" x="667.5" y="-45.5" font-family="Helvetica,sans-Serif" font-size="10.00">navTo</text>
</a>
</g>
</g>
<!-- Node7&#45;&gt;Node8 -->
<g id="edge8" class="edge"><title>Node7&#45;&gt;Node8</title>
<path fill="none" stroke="midnightblue" d="M621.452,-41.2688C630.284,-41.1681 639.315,-41.4725 646.949,-42.182"/>
<polygon fill="midnightblue" stroke="midnightblue" points="621.16,-37.7758 611.269,-41.573 621.369,-44.7727 621.16,-37.7758"/>
</g>
<!-- Node8&#45;&gt;Node7 -->
<g id="edge9" class="edge"><title>Node8&#45;&gt;Node7</title>
<path fill="none" stroke="midnightblue" d="M636.887,-54.4898C628.556,-54.8565 619.519,-54.8356 611.269,-54.427"/>
<polygon fill="midnightblue" stroke="midnightblue" points="637.205,-57.9765 646.949,-53.818 636.738,-50.9921 637.205,-57.9765"/>
</g>
<!-- Node9 -->
<g id="node9" class="node"><title>Node9</title>
<g id="a_node9"><a xlink:href="navtree_8js.html#aa7b3067e7ef0044572ba86240b1e58ce" target="_top" xlink:title="initNavTree">
<polygon fill="white" stroke="black" points="724,-38.5 724,-57.5 788,-57.5 788,-38.5 724,-38.5"/>
<text text-anchor="middle" x="756" y="-45.5" font-family="Helvetica,sans-Serif" font-size="10.00">initNavTree</text>
</a>
</g>
</g>
<!-- Node8&#45;&gt;Node9 -->
<g id="edge10" class="edge"><title>Node8&#45;&gt;Node9</title>
<path fill="none" stroke="midnightblue" d="M698.151,-48C706.463,-48 715.52,-48 723.913,-48"/>
<polygon fill="midnightblue" stroke="midnightblue" points="698.128,-44.5001 688.128,-48 698.128,-51.5001 698.128,-44.5001"/>
</g>
<!-- Node11 -->
<g id="node11" class="node"><title>Node11</title>
<g id="a_node11"><a xlink:href="navtree_8js.html#a0dbf0d5f6126afd88420745f7d3c202d" target="_top" xlink:title="selectAndHighlight">
<polygon fill="white" stroke="black" points="313,-0.5 313,-19.5 411,-19.5 411,-0.5 313,-0.5"/>
<text text-anchor="middle" x="362" y="-7.5" font-family="Helvetica,sans-Serif" font-size="10.00">selectAndHighlight</text>
</a>
</g>
</g>
<!-- Node10&#45;&gt;Node11 -->
<g id="edge13" class="edge"><title>Node10&#45;&gt;Node11</title>
<path fill="none" stroke="midnightblue" d="M287.335,-12.9584C295.741,-12.6208 304.436,-12.2717 312.776,-11.9367"/>
<polygon fill="midnightblue" stroke="midnightblue" points="287.117,-9.46425 277.266,-13.3628 287.398,-16.4586 287.117,-9.46425"/>
</g>
<!-- Node11&#45;&gt;Node6 -->
<g id="edge14" class="edge"><title>Node11&#45;&gt;Node6</title>
<path fill="none" stroke="midnightblue" d="M402.376,-22.6804C418.32,-27.8148 436.421,-33.6441 451.233,-38.4141"/>
<polygon fill="midnightblue" stroke="midnightblue" points="403.368,-19.3229 392.776,-19.589 401.222,-25.9859 403.368,-19.3229"/>
</g>
</g>
</svg>
