<?xml version="1.0" encoding="UTF-8" standalone="no"?>
<!DOCTYPE svg PUBLIC "-//W3C//DTD SVG 1.1//EN"
 "http://www.w3.org/Graphics/SVG/1.1/DTD/svg11.dtd">
<!-- Generated by graphviz version 2.38.0 (20140413.2041)
 -->
<!-- Title: navTo Pages: 1 -->
<svg width="149pt" height="66pt"
 viewBox="0.00 0.00 149.00 66.00" xmlns="http://www.w3.org/2000/svg" xmlns:xlink="http://www.w3.org/1999/xlink">
<g id="graph0" class="graph" transform="scale(1 1) rotate(0) translate(4 62)">
<title>navTo</title>
<polygon fill="white" stroke="none" points="-4,4 -4,-62 145,-62 145,4 -4,4"/>
<!-- Node1 -->
<g id="node1" class="node"><title>Node1</title>
<polygon fill="#bfbfbf" stroke="black" points="0,-38.5 0,-57.5 41,-57.5 41,-38.5 0,-38.5"/>
<text text-anchor="middle" x="20.5" y="-45.5" font-family="Helvetica,sans-Serif" font-size="10.00">navTo</text>
</g>
<!-- Node2 -->
<g id="node2" class="node"><title>Node2</title>
<g id="a_node2"><a xlink:href="navtree_8js.html#a0e6a2d65190a43246d668bba554243e5" target="_top" xlink:title="gotoNode">
<polygon fill="white" stroke="black" points="80,-38.5 80,-57.5 138,-57.5 138,-38.5 80,-38.5"/>
<text text-anchor="middle" x="109" y="-45.5" font-family="Helvetica,sans-Serif" font-size="10.00">gotoNode</text>
</a>
</g>
</g>
<!-- Node1&#45;&gt;Node2 -->
<g id="edge1" class="edge"><title>Node1&#45;&gt;Node2</title>
<path fill="none" stroke="midnightblue" d="M51.1433,-41.5561C60.4606,-41.1236 70.7161,-41.1494 79.9215,-41.6335"/>
<polygon fill="midnightblue" stroke="midnightblue" points="50.8668,-38.0667 41.1282,-42.2392 51.3432,-45.0505 50.8668,-38.0667"/>
</g>
<!-- Node3 -->
<g id="node3" class="node"><title>Node3</title>
<g id="a_node3"><a xlink:href="navtree_8js.html#aa7b3067e7ef0044572ba86240b1e58ce" target="_top" xlink:title="initNavTree">
<polygon fill="white" stroke="black" points="77,-0.5 77,-19.5 141,-19.5 141,-0.5 77,-0.5"/>
<text text-anchor="middle" x="109" y="-7.5" font-family="Helvetica,sans-Serif" font-size="10.00">initNavTree</text>
</a>
</g>
</g>
<!-- Node1&#45;&gt;Node3 -->
<g id="edge3" class="edge"><title>Node1&#45;&gt;Node3</title>
<path fill="none" stroke="midnightblue" d="M50.5044,-35.2582C62.2099,-30.1159 75.4827,-24.2851 86.3241,-19.5223"/>
<polygon fill="midnightblue" stroke="midnightblue" points="48.8759,-32.1507 41.1282,-39.3772 51.6914,-38.5595 48.8759,-32.1507"/>
</g>
<!-- Node2&#45;&gt;Node1 -->
<g id="edge2" class="edge"><title>Node2&#45;&gt;Node1</title>
<path fill="none" stroke="midnightblue" d="M69.8144,-54.7087C59.9055,-54.871 49.637,-54.555 41.1282,-53.7608"/>
<polygon fill="midnightblue" stroke="midnightblue" points="70.0457,-58.203 79.9215,-54.3665 69.8088,-51.207 70.0457,-58.203"/>
</g>
</g>
</svg>
