<?xml version="1.0" encoding="UTF-8" standalone="no"?>
<!DOCTYPE svg PUBLIC "-//W3C//DTD SVG 1.1//EN"
 "http://www.w3.org/Graphics/SVG/1.1/DTD/svg11.dtd">
<!-- Generated by graphviz version 2.38.0 (20140413.2041)
 -->
<!-- Title: expandNode Pages: 1 -->
<svg width="568pt" height="180pt"
 viewBox="0.00 0.00 568.00 180.00" xmlns="http://www.w3.org/2000/svg" xmlns:xlink="http://www.w3.org/1999/xlink">
<g id="graph0" class="graph" transform="scale(1 1) rotate(0) translate(4 176)">
<title>expandNode</title>
<polygon fill="white" stroke="none" points="-4,4 -4,-176 564,-176 564,4 -4,4"/>
<!-- Node1 -->
<g id="node1" class="node"><title>Node1</title>
<polygon fill="#bfbfbf" stroke="black" points="0,-76.5 0,-95.5 71,-95.5 71,-76.5 0,-76.5"/>
<text text-anchor="middle" x="35.5" y="-83.5" font-family="Helvetica,sans-Serif" font-size="10.00">expandNode</text>
</g>
<!-- Node2 -->
<g id="node2" class="node"><title>Node2</title>
<g id="a_node2"><a xlink:href="navtree_8js.html#a32f4aac18d03aee747b55dea195731ac" target="_top" xlink:title="getScript">
<polygon fill="white" stroke="black" points="107,-114.5 107,-133.5 163,-133.5 163,-114.5 107,-114.5"/>
<text text-anchor="middle" x="135" y="-121.5" font-family="Helvetica,sans-Serif" font-size="10.00">getScript</text>
</a>
</g>
</g>
<!-- Node1&#45;&gt;Node2 -->
<g id="edge1" class="edge"><title>Node1&#45;&gt;Node2</title>
<path fill="none" stroke="midnightblue" d="M61.1034,-95.589C72.8814,-100.179 87.1752,-105.75 99.9745,-110.739"/>
<polygon fill="midnightblue" stroke="midnightblue" points="98.8161,-114.044 109.405,-114.414 101.358,-107.522 98.8161,-114.044"/>
</g>
<!-- Node3 -->
<g id="node3" class="node"><title>Node3</title>
<g id="a_node3"><a xlink:href="svgpan_8js.html#aa8d9f2083cafa2af98efafed94901079" target="_top" xlink:title="show">
<polygon fill="white" stroke="black" points="231.5,-152.5 231.5,-171.5 270.5,-171.5 270.5,-152.5 231.5,-152.5"/>
<text text-anchor="middle" x="251" y="-159.5" font-family="Helvetica,sans-Serif" font-size="10.00">show</text>
</a>
</g>
</g>
<!-- Node1&#45;&gt;Node3 -->
<g id="edge15" class="edge"><title>Node1&#45;&gt;Node3</title>
<path fill="none" stroke="midnightblue" d="M44.9778,-95.5686C57.2314,-108.7 81.261,-131.935 107,-143 144.091,-158.945 191.172,-162.343 220.954,-162.673"/>
<polygon fill="midnightblue" stroke="midnightblue" points="221.094,-166.173 231.094,-162.673 221.094,-159.173 221.094,-166.173"/>
</g>
<!-- Node4 -->
<g id="node4" class="node"><title>Node4</title>
<g id="a_node4"><a xlink:href="navtree_8js.html#af98a8e3534da945399ea20870c0f3e92" target="_top" xlink:title="showRoot">
<polygon fill="white" stroke="black" points="221.5,-114.5 221.5,-133.5 280.5,-133.5 280.5,-114.5 221.5,-114.5"/>
<text text-anchor="middle" x="251" y="-121.5" font-family="Helvetica,sans-Serif" font-size="10.00">showRoot</text>
</a>
</g>
</g>
<!-- Node1&#45;&gt;Node4 -->
<g id="edge4" class="edge"><title>Node1&#45;&gt;Node4</title>
<path fill="none" stroke="midnightblue" d="M71.2333,-90.5883C96.7066,-94.106 132.095,-99.3107 163,-105 178.936,-107.934 196.407,-111.65 211.484,-115.016"/>
<polygon fill="midnightblue" stroke="midnightblue" points="210.966,-118.488 221.491,-117.277 212.508,-111.66 210.966,-118.488"/>
</g>
<!-- Node5 -->
<g id="node5" class="node"><title>Node5</title>
<g id="a_node5"><a xlink:href="navtree_8js.html#a256aa4fbee866e9227f78e82e9f258bb" target="_top" xlink:title="getNode">
<polygon fill="white" stroke="black" points="108.5,-38.5 108.5,-57.5 161.5,-57.5 161.5,-38.5 108.5,-38.5"/>
<text text-anchor="middle" x="135" y="-45.5" font-family="Helvetica,sans-Serif" font-size="10.00">getNode</text>
</a>
</g>
</g>
<!-- Node1&#45;&gt;Node5 -->
<g id="edge5" class="edge"><title>Node1&#45;&gt;Node5</title>
<path fill="none" stroke="midnightblue" d="M61.1034,-76.411C72.8814,-71.8206 87.1752,-66.2497 99.9745,-61.2612"/>
<polygon fill="midnightblue" stroke="midnightblue" points="101.358,-64.4785 109.405,-57.5859 98.8161,-57.9563 101.358,-64.4785"/>
</g>
<!-- Node2&#45;&gt;Node3 -->
<g id="edge2" class="edge"><title>Node2&#45;&gt;Node3</title>
<path fill="none" stroke="midnightblue" d="M163.016,-133.005C180.712,-138.904 203.796,-146.599 221.737,-152.579"/>
<polygon fill="midnightblue" stroke="midnightblue" points="220.773,-155.947 231.367,-155.789 222.987,-149.306 220.773,-155.947"/>
</g>
<!-- Node2&#45;&gt;Node4 -->
<g id="edge3" class="edge"><title>Node2&#45;&gt;Node4</title>
<path fill="none" stroke="midnightblue" d="M163.016,-124C177.383,-124 195.303,-124 211.138,-124"/>
<polygon fill="midnightblue" stroke="midnightblue" points="211.185,-127.5 221.185,-124 211.185,-120.5 211.185,-127.5"/>
</g>
<!-- Node6 -->
<g id="node6" class="node"><title>Node6</title>
<g id="a_node6"><a xlink:href="navtree_8js.html#aa78016020f40c28356aefd325cd4df74" target="_top" xlink:title="removeToInsertLater">
<polygon fill="white" stroke="black" points="199,-38.5 199,-57.5 303,-57.5 303,-38.5 199,-38.5"/>
<text text-anchor="middle" x="251" y="-45.5" font-family="Helvetica,sans-Serif" font-size="10.00">removeToInsertLater</text>
</a>
</g>
</g>
<!-- Node5&#45;&gt;Node6 -->
<g id="edge6" class="edge"><title>Node5&#45;&gt;Node6</title>
<path fill="none" stroke="midnightblue" d="M161.584,-48C169.769,-48 179.211,-48 188.813,-48"/>
<polygon fill="midnightblue" stroke="midnightblue" points="188.83,-51.5001 198.83,-48 188.83,-44.5001 188.83,-51.5001"/>
</g>
<!-- Node7 -->
<g id="node7" class="node"><title>Node7</title>
<g id="a_node7"><a xlink:href="navtree_8js.html#aa2418b16159e9502e990f97ea6ec26c8" target="_top" xlink:title="newNode">
<polygon fill="white" stroke="black" points="223,-76.5 223,-95.5 279,-95.5 279,-76.5 223,-76.5"/>
<text text-anchor="middle" x="251" y="-83.5" font-family="Helvetica,sans-Serif" font-size="10.00">newNode</text>
</a>
</g>
</g>
<!-- Node5&#45;&gt;Node7 -->
<g id="edge7" class="edge"><title>Node5&#45;&gt;Node7</title>
<path fill="none" stroke="midnightblue" d="M161.584,-56.5279C176.839,-61.6131 196.461,-68.1538 213.343,-73.781"/>
<polygon fill="midnightblue" stroke="midnightblue" points="212.319,-77.1289 222.912,-76.9708 214.532,-70.4881 212.319,-77.1289"/>
</g>
<!-- Node8 -->
<g id="node8" class="node"><title>Node8</title>
<g id="a_node8"><a xlink:href="navtree_8js.html#a4d8f406d49520a0cede2e48347a3d7aa" target="_top" xlink:title="createIndent">
<polygon fill="white" stroke="black" points="339,-0.5 339,-19.5 409,-19.5 409,-0.5 339,-0.5"/>
<text text-anchor="middle" x="374" y="-7.5" font-family="Helvetica,sans-Serif" font-size="10.00">createIndent</text>
</a>
</g>
</g>
<!-- Node7&#45;&gt;Node8 -->
<g id="edge8" class="edge"><title>Node7&#45;&gt;Node8</title>
<path fill="none" stroke="midnightblue" d="M279.048,-78.5035C287.125,-75.5996 295.75,-71.7967 303,-67 322.402,-54.1627 320.636,-43.2823 339,-29 340.778,-27.6171 342.669,-26.2724 344.614,-24.9794"/>
<polygon fill="midnightblue" stroke="midnightblue" points="346.582,-27.8785 353.297,-19.6829 342.937,-21.9026 346.582,-27.8785"/>
</g>
<!-- Node9 -->
<g id="node9" class="node"><title>Node9</title>
<g id="a_node9"><a xlink:href="navtree_8js.html#a9336c21407bb7ced644331eb7a2a6e35" target="_top" xlink:title="stripPath">
<polygon fill="white" stroke="black" points="346,-114.5 346,-133.5 402,-133.5 402,-114.5 346,-114.5"/>
<text text-anchor="middle" x="374" y="-121.5" font-family="Helvetica,sans-Serif" font-size="10.00">stripPath</text>
</a>
</g>
</g>
<!-- Node7&#45;&gt;Node9 -->
<g id="edge10" class="edge"><title>Node7&#45;&gt;Node9</title>
<path fill="none" stroke="midnightblue" d="M279.155,-94.5279C295.969,-99.8084 317.78,-106.658 336.143,-112.425"/>
<polygon fill="midnightblue" stroke="midnightblue" points="335.347,-115.843 345.936,-115.501 337.444,-109.165 335.347,-115.843"/>
</g>
<!-- Node10 -->
<g id="node10" class="node"><title>Node10</title>
<g id="a_node10"><a xlink:href="navtree_8js.html#a364b3f4132309fa9aae78585cf2cb772" target="_top" xlink:title="pathName">
<polygon fill="white" stroke="black" points="343.5,-76.5 343.5,-95.5 404.5,-95.5 404.5,-76.5 343.5,-76.5"/>
<text text-anchor="middle" x="374" y="-83.5" font-family="Helvetica,sans-Serif" font-size="10.00">pathName</text>
</a>
</g>
</g>
<!-- Node7&#45;&gt;Node10 -->
<g id="edge11" class="edge"><title>Node7&#45;&gt;Node10</title>
<path fill="none" stroke="midnightblue" d="M279.155,-86C295.114,-86 315.576,-86 333.317,-86"/>
<polygon fill="midnightblue" stroke="midnightblue" points="333.394,-89.5001 343.394,-86 333.394,-82.5001 333.394,-89.5001"/>
</g>
<!-- Node11 -->
<g id="node11" class="node"><title>Node11</title>
<g id="a_node11"><a xlink:href="navtree_8js.html#ade730323aadb971c053136b7758c9dce" target="_top" xlink:title="storeLink">
<polygon fill="white" stroke="black" points="346,-38.5 346,-57.5 402,-57.5 402,-38.5 346,-38.5"/>
<text text-anchor="middle" x="374" y="-45.5" font-family="Helvetica,sans-Serif" font-size="10.00">storeLink</text>
</a>
</g>
</g>
<!-- Node7&#45;&gt;Node11 -->
<g id="edge12" class="edge"><title>Node7&#45;&gt;Node11</title>
<path fill="none" stroke="midnightblue" d="M279.155,-77.4721C295.969,-72.1916 317.78,-65.3418 336.143,-59.575"/>
<polygon fill="midnightblue" stroke="midnightblue" points="337.444,-62.835 345.936,-56.4995 335.347,-56.1566 337.444,-62.835"/>
</g>
<!-- Node13 -->
<g id="node13" class="node"><title>Node13</title>
<g id="a_node13"><a xlink:href="navtree_8js.html#aee1fc3771eeb15da54962a03da1f3c11" target="_top" xlink:title="gotoAnchor">
<polygon fill="white" stroke="black" points="341,-152.5 341,-171.5 407,-171.5 407,-152.5 341,-152.5"/>
<text text-anchor="middle" x="374" y="-159.5" font-family="Helvetica,sans-Serif" font-size="10.00">gotoAnchor</text>
</a>
</g>
</g>
<!-- Node7&#45;&gt;Node13 -->
<g id="edge14" class="edge"><title>Node7&#45;&gt;Node13</title>
<path fill="none" stroke="midnightblue" d="M279.048,-93.4965C287.125,-96.4004 295.75,-100.203 303,-105 322.402,-117.837 320.636,-128.718 339,-143 340.778,-144.383 342.669,-145.728 344.614,-147.021"/>
<polygon fill="midnightblue" stroke="midnightblue" points="342.937,-150.097 353.297,-152.317 346.582,-144.121 342.937,-150.097"/>
</g>
<!-- Node8&#45;&gt;Node1 -->
<g id="edge9" class="edge"><title>Node8&#45;&gt;Node1</title>
<path fill="none" stroke="midnightblue" d="M338.821,-6.09648C286.763,-1.52648 185.388,1.91081 107,-29 85.2127,-37.5914 64.9351,-55.4522 51.7727,-68.9045"/>
<polygon fill="midnightblue" stroke="midnightblue" points="49.1977,-66.5337 44.8875,-76.2122 54.2925,-71.334 49.1977,-66.5337"/>
</g>
<!-- Node12 -->
<g id="node12" class="node"><title>Node12</title>
<g id="a_node12"><a xlink:href="navtree_8js.html#ac49af616f532f2364be9f58280469d33" target="_top" xlink:title="localStorageSupported">
<polygon fill="white" stroke="black" points="445,-38.5 445,-57.5 560,-57.5 560,-38.5 445,-38.5"/>
<text text-anchor="middle" x="502.5" y="-45.5" font-family="Helvetica,sans-Serif" font-size="10.00">localStorageSupported</text>
</a>
</g>
</g>
<!-- Node11&#45;&gt;Node12 -->
<g id="edge13" class="edge"><title>Node11&#45;&gt;Node12</title>
<path fill="none" stroke="midnightblue" d="M402.137,-48C411.795,-48 423.142,-48 434.649,-48"/>
<polygon fill="midnightblue" stroke="midnightblue" points="434.763,-51.5001 444.763,-48 434.763,-44.5001 434.763,-51.5001"/>
</g>
</g>
</svg>
