<?xml version="1.0" encoding="UTF-8" standalone="no"?>
<!DOCTYPE svg PUBLIC "-//W3C//DTD SVG 1.1//EN"
 "http://www.w3.org/Graphics/SVG/1.1/DTD/svg11.dtd">
<!-- Generated by graphviz version 2.38.0 (20140413.2041)
 -->
<!-- Title: createIndent Pages: 1 -->
<!--zoomable 227 -->
<svg id="main" version="1.1" xmlns="http://www.w3.org/2000/svg" xmlns:xlink="http://www.w3.org/1999/xlink" xml:space="preserve" onload="init(evt)">
<style type="text/css"><![CDATA[
.edge:hover path { stroke: red; }
.edge:hover polygon { stroke: red; fill: red; }
]]></style>
<script type="text/javascript"><![CDATA[
var edges = document.getElementsByTagName('g');
if (edges && edges.length) {
  for (var i=0;i<edges.length;i++) {
    if (edges[i].id.substr(0,4)=='edge') {
      edges[i].setAttribute('class','edge');
    }
  }
}
]]></script>
        <defs>
                <circle id="rim" cx="0" cy="0" r="7"/>
                <circle id="rim2" cx="0" cy="0" r="3.5"/>
                <g id="zoomPlus">
                        <use xlink:href="#rim" fill="#404040">
                                <set attributeName="fill" to="#808080" begin="zoomplus.mouseover" end="zoomplus.mouseout"/>
                        </use>
                        <path d="M-4,0h8M0,-4v8" fill="none" stroke="white" stroke-width="1.5" pointer-events="none"/>
                </g>
                <g id="zoomMin">
                        <use xlink:href="#rim" fill="#404040">
                                <set attributeName="fill" to="#808080" begin="zoomminus.mouseover" end="zoomminus.mouseout"/>
                        </use>
                        <path d="M-4,0h8" fill="none" stroke="white" stroke-width="1.5" pointer-events="none"/>
                </g>
                <g id="dirArrow">
                        <path fill="none" stroke="white" stroke-width="1.5" d="M0,-3.0v7 M-2.5,-0.5L0,-3.0L2.5,-0.5"/>
                </g>
               <g id="resetDef">
                       <use xlink:href="#rim2" fill="#404040">
                               <set attributeName="fill" to="#808080" begin="reset.mouseover" end="reset.mouseout"/>
                       </use>
               </g>
        </defs>

<script type="text/javascript">
var viewWidth = 670;
var viewHeight = 227;
var sectionId = 'dynsection-2';
</script>
<script xlink:href="svgpan.js"/>
<svg id="graph" class="graph">
<g id="viewport">
<title>createIndent</title>
<polygon fill="white" stroke="none" points="-4,4 -4,-223 666,-223 666,4 -4,4"/>
<!-- Node1 -->
<g id="node1" class="node"><title>Node1</title>
<polygon fill="#bfbfbf" stroke="black" points="0,-95.5 0,-114.5 70,-114.5 70,-95.5 0,-95.5"/>
<text text-anchor="middle" x="35" y="-102.5" font-family="Helvetica,sans-Serif" font-size="10.00">createIndent</text>
</g>
<!-- Node2 -->
<g id="node2" class="node"><title>Node2</title>
<g id="a_node2"><a xlink:href="navtree_8js.html#a4eb1f166c9d93b198e1621a4c787a412" target="_top" xlink:title="expandNode">
<polygon fill="white" stroke="black" points="106,-133.5 106,-152.5 177,-152.5 177,-133.5 106,-133.5"/>
<text text-anchor="middle" x="141.5" y="-140.5" font-family="Helvetica,sans-Serif" font-size="10.00">expandNode</text>
</a>
</g>
</g>
<!-- Node1&#45;&gt;Node2 -->
<g id="edge1" class="edge"><title>Node1&#45;&gt;Node2</title>
<path fill="none" stroke="midnightblue" d="M62.3698,-114.589C75.1171,-119.224 90.614,-124.86 104.435,-129.885"/>
<polygon fill="midnightblue" stroke="midnightblue" points="103.545,-133.286 114.139,-133.414 105.937,-126.707 103.545,-133.286"/>
</g>
<!-- Node3 -->
<g id="node3" class="node"><title>Node3</title>
<g id="a_node3"><a xlink:href="navtree_8js.html#a32f4aac18d03aee747b55dea195731ac" target="_top" xlink:title="getScript">
<polygon fill="white" stroke="black" points="213,-171.5 213,-190.5 269,-190.5 269,-171.5 213,-171.5"/>
<text text-anchor="middle" x="241" y="-178.5" font-family="Helvetica,sans-Serif" font-size="10.00">getScript</text>
</a>
</g>
</g>
<!-- Node2&#45;&gt;Node3 -->
<g id="edge2" class="edge"><title>Node2&#45;&gt;Node3</title>
<path fill="none" stroke="midnightblue" d="M167.103,-152.589C178.881,-157.179 193.175,-162.75 205.974,-167.739"/>
<polygon fill="midnightblue" stroke="midnightblue" points="204.816,-171.044 215.405,-171.414 207.358,-164.522 204.816,-171.044"/>
</g>
<!-- Node4 -->
<g id="node4" class="node"><title>Node4</title>
<g id="a_node4"><a xlink:href="svgpan_8js.html#aa8d9f2083cafa2af98efafed94901079" target="_top" xlink:title="show">
<polygon fill="white" stroke="black" points="337.5,-199.5 337.5,-218.5 376.5,-218.5 376.5,-199.5 337.5,-199.5"/>
<text text-anchor="middle" x="357" y="-206.5" font-family="Helvetica,sans-Serif" font-size="10.00">show</text>
</a>
</g>
</g>
<!-- Node2&#45;&gt;Node4 -->
<g id="edge15" class="edge"><title>Node2&#45;&gt;Node4</title>
<path fill="none" stroke="midnightblue" d="M150.875,-152.819C163.007,-166.247 186.893,-189.833 213,-200 250.366,-214.552 297.376,-214.346 327.068,-212.198"/>
<polygon fill="midnightblue" stroke="midnightblue" points="327.504,-215.674 337.173,-211.343 326.914,-208.699 327.504,-215.674"/>
</g>
<!-- Node5 -->
<g id="node5" class="node"><title>Node5</title>
<g id="a_node5"><a xlink:href="navtree_8js.html#af98a8e3534da945399ea20870c0f3e92" target="_top" xlink:title="showRoot">
<polygon fill="white" stroke="black" points="327.5,-142.5 327.5,-161.5 386.5,-161.5 386.5,-142.5 327.5,-142.5"/>
<text text-anchor="middle" x="357" y="-149.5" font-family="Helvetica,sans-Serif" font-size="10.00">showRoot</text>
</a>
</g>
</g>
<!-- Node2&#45;&gt;Node5 -->
<g id="edge5" class="edge"><title>Node2&#45;&gt;Node5</title>
<path fill="none" stroke="midnightblue" d="M177.278,-144.466C215.675,-146.085 277.326,-148.684 317.246,-150.366"/>
<polygon fill="midnightblue" stroke="midnightblue" points="317.257,-153.87 327.395,-150.794 317.551,-146.876 317.257,-153.87"/>
</g>
<!-- Node6 -->
<g id="node6" class="node"><title>Node6</title>
<g id="a_node6"><a xlink:href="navtree_8js.html#a256aa4fbee866e9227f78e82e9f258bb" target="_top" xlink:title="getNode">
<polygon fill="white" stroke="black" points="214.5,-95.5 214.5,-114.5 267.5,-114.5 267.5,-95.5 214.5,-95.5"/>
<text text-anchor="middle" x="241" y="-102.5" font-family="Helvetica,sans-Serif" font-size="10.00">getNode</text>
</a>
</g>
</g>
<!-- Node2&#45;&gt;Node6 -->
<g id="edge6" class="edge"><title>Node2&#45;&gt;Node6</title>
<path fill="none" stroke="midnightblue" d="M167.103,-133.411C178.881,-128.821 193.175,-123.25 205.974,-118.261"/>
<polygon fill="midnightblue" stroke="midnightblue" points="207.358,-121.478 215.405,-114.586 204.816,-114.956 207.358,-121.478"/>
</g>
<!-- Node3&#45;&gt;Node4 -->
<g id="edge3" class="edge"><title>Node3&#45;&gt;Node4</title>
<path fill="none" stroke="midnightblue" d="M269.016,-187.636C286.629,-191.962 309.582,-197.599 327.486,-201.997"/>
<polygon fill="midnightblue" stroke="midnightblue" points="326.82,-205.437 337.367,-204.423 328.49,-198.639 326.82,-205.437"/>
</g>
<!-- Node3&#45;&gt;Node5 -->
<g id="edge4" class="edge"><title>Node3&#45;&gt;Node5</title>
<path fill="none" stroke="midnightblue" d="M269.016,-174.127C283.383,-170.473 301.303,-165.914 317.138,-161.886"/>
<polygon fill="midnightblue" stroke="midnightblue" points="318.356,-165.188 327.185,-159.33 316.63,-158.404 318.356,-165.188"/>
</g>
<!-- Node7 -->
<g id="node7" class="node"><title>Node7</title>
<g id="a_node7"><a xlink:href="navtree_8js.html#aa78016020f40c28356aefd325cd4df74" target="_top" xlink:title="removeToInsertLater">
<polygon fill="white" stroke="black" points="305,-95.5 305,-114.5 409,-114.5 409,-95.5 305,-95.5"/>
<text text-anchor="middle" x="357" y="-102.5" font-family="Helvetica,sans-Serif" font-size="10.00">removeToInsertLater</text>
</a>
</g>
</g>
<!-- Node6&#45;&gt;Node7 -->
<g id="edge7" class="edge"><title>Node6&#45;&gt;Node7</title>
<path fill="none" stroke="midnightblue" d="M267.584,-105C275.769,-105 285.211,-105 294.813,-105"/>
<polygon fill="midnightblue" stroke="midnightblue" points="294.83,-108.5 304.83,-105 294.83,-101.5 294.83,-108.5"/>
</g>
<!-- Node8 -->
<g id="node8" class="node"><title>Node8</title>
<g id="a_node8"><a xlink:href="navtree_8js.html#aa2418b16159e9502e990f97ea6ec26c8" target="_top" xlink:title="newNode">
<polygon fill="white" stroke="black" points="329,-57.5 329,-76.5 385,-76.5 385,-57.5 329,-57.5"/>
<text text-anchor="middle" x="357" y="-64.5" font-family="Helvetica,sans-Serif" font-size="10.00">newNode</text>
</a>
</g>
</g>
<!-- Node6&#45;&gt;Node8 -->
<g id="edge8" class="edge"><title>Node6&#45;&gt;Node8</title>
<path fill="none" stroke="midnightblue" d="M267.584,-96.4721C282.839,-91.3869 302.461,-84.8462 319.343,-79.219"/>
<polygon fill="midnightblue" stroke="midnightblue" points="320.532,-82.5119 328.912,-76.0292 318.319,-75.8711 320.532,-82.5119"/>
</g>
<!-- Node8&#45;&gt;Node1 -->
<g id="edge9" class="edge"><title>Node8&#45;&gt;Node1</title>
<path fill="none" stroke="midnightblue" d="M328.915,-70.2163C273.755,-76.7666 147.921,-91.7094 80.5385,-99.7111"/>
<polygon fill="midnightblue" stroke="midnightblue" points="79.7631,-96.2785 70.2456,-100.933 80.5886,-103.23 79.7631,-96.2785"/>
</g>
<!-- Node9 -->
<g id="node9" class="node"><title>Node9</title>
<g id="a_node9"><a xlink:href="navtree_8js.html#a9336c21407bb7ced644331eb7a2a6e35" target="_top" xlink:title="stripPath">
<polygon fill="white" stroke="black" points="450,-114.5 450,-133.5 506,-133.5 506,-114.5 450,-114.5"/>
<text text-anchor="middle" x="478" y="-121.5" font-family="Helvetica,sans-Serif" font-size="10.00">stripPath</text>
</a>
</g>
</g>
<!-- Node8&#45;&gt;Node9 -->
<g id="edge10" class="edge"><title>Node8&#45;&gt;Node9</title>
<path fill="none" stroke="midnightblue" d="M385.049,-76.2017C392.877,-79.0989 401.367,-82.4707 409,-86 417.363,-89.8669 436.088,-100.383 451.775,-109.374"/>
<polygon fill="midnightblue" stroke="midnightblue" points="450.146,-112.475 460.559,-114.43 453.638,-106.408 450.146,-112.475"/>
</g>
<!-- Node10 -->
<g id="node10" class="node"><title>Node10</title>
<g id="a_node10"><a xlink:href="navtree_8js.html#a364b3f4132309fa9aae78585cf2cb772" target="_top" xlink:title="pathName">
<polygon fill="white" stroke="black" points="447.5,-76.5 447.5,-95.5 508.5,-95.5 508.5,-76.5 447.5,-76.5"/>
<text text-anchor="middle" x="478" y="-83.5" font-family="Helvetica,sans-Serif" font-size="10.00">pathName</text>
</a>
</g>
</g>
<!-- Node8&#45;&gt;Node10 -->
<g id="edge11" class="edge"><title>Node8&#45;&gt;Node10</title>
<path fill="none" stroke="midnightblue" d="M385.003,-71.3114C400.336,-73.7595 419.822,-76.8707 436.909,-79.5989"/>
<polygon fill="midnightblue" stroke="midnightblue" points="436.753,-83.1183 447.18,-81.2388 437.857,-76.2059 436.753,-83.1183"/>
</g>
<!-- Node11 -->
<g id="node11" class="node"><title>Node11</title>
<g id="a_node11"><a xlink:href="navtree_8js.html#ade730323aadb971c053136b7758c9dce" target="_top" xlink:title="storeLink">
<polygon fill="white" stroke="black" points="450,-38.5 450,-57.5 506,-57.5 506,-38.5 450,-38.5"/>
<text text-anchor="middle" x="478" y="-45.5" font-family="Helvetica,sans-Serif" font-size="10.00">storeLink</text>
</a>
</g>
</g>
<!-- Node8&#45;&gt;Node11 -->
<g id="edge12" class="edge"><title>Node8&#45;&gt;Node11</title>
<path fill="none" stroke="midnightblue" d="M385.003,-62.6886C401.168,-60.1076 421.95,-56.7895 439.67,-53.9602"/>
<polygon fill="midnightblue" stroke="midnightblue" points="440.369,-57.3931 449.692,-52.3601 439.265,-50.4806 440.369,-57.3931"/>
</g>
<!-- Node13 -->
<g id="node13" class="node"><title>Node13</title>
<g id="a_node13"><a xlink:href="navtree_8js.html#aee1fc3771eeb15da54962a03da1f3c11" target="_top" xlink:title="gotoAnchor">
<polygon fill="white" stroke="black" points="445,-0.5 445,-19.5 511,-19.5 511,-0.5 445,-0.5"/>
<text text-anchor="middle" x="478" y="-7.5" font-family="Helvetica,sans-Serif" font-size="10.00">gotoAnchor</text>
</a>
</g>
</g>
<!-- Node8&#45;&gt;Node13 -->
<g id="edge14" class="edge"><title>Node8&#45;&gt;Node13</title>
<path fill="none" stroke="midnightblue" d="M377.918,-57.4595C397.053,-48.2939 426.184,-34.3405 447.913,-23.9324"/>
<polygon fill="midnightblue" stroke="midnightblue" points="449.51,-27.0482 457.017,-19.5716 446.486,-20.735 449.51,-27.0482"/>
</g>
<!-- Node12 -->
<g id="node12" class="node"><title>Node12</title>
<g id="a_node12"><a xlink:href="navtree_8js.html#ac49af616f532f2364be9f58280469d33" target="_top" xlink:title="localStorageSupported">
<polygon fill="white" stroke="black" points="547,-38.5 547,-57.5 662,-57.5 662,-38.5 547,-38.5"/>
<text text-anchor="middle" x="604.5" y="-45.5" font-family="Helvetica,sans-Serif" font-size="10.00">localStorageSupported</text>
</a>
</g>
</g>
<!-- Node11&#45;&gt;Node12 -->
<g id="edge13" class="edge"><title>Node11&#45;&gt;Node12</title>
<path fill="none" stroke="midnightblue" d="M506.015,-48C515.213,-48 525.943,-48 536.853,-48"/>
<polygon fill="midnightblue" stroke="midnightblue" points="536.885,-51.5001 546.885,-48 536.885,-44.5001 536.885,-51.5001"/>
</g>
</g>
</svg>
        <g id="navigator" transform="translate(0 0)" fill="#404254">
                <rect fill="#f2f5e9" fill-opacity="0.5" stroke="#606060" stroke-width=".5" x="0" y="0" width="60" height="60"/>
                <use id="zoomplus" xlink:href="#zoomPlus" x="17" y="9" onmousedown="handleZoom(evt,'in')"/>
                <use id="zoomminus" xlink:href="#zoomMin" x="42" y="9" onmousedown="handleZoom(evt,'out')"/>
                <use id="reset" xlink:href="#resetDef" x="30" y="36" onmousedown="handleReset()"/>
                <g id="arrowUp" xlink:href="#dirArrow" transform="translate(30 24)" onmousedown="handlePan(0,-1)">
                  <use xlink:href="#rim" fill="#404040">
                        <set attributeName="fill" to="#808080" begin="arrowUp.mouseover" end="arrowUp.mouseout"/>
                  </use>
                  <path fill="none" stroke="white" stroke-width="1.5" d="M0,-3.0v7 M-2.5,-0.5L0,-3.0L2.5,-0.5"/>
                </g>
                <g id="arrowRight" xlink:href="#dirArrow" transform="rotate(90) translate(36 -43)" onmousedown="handlePan(1,0)">
                  <use xlink:href="#rim" fill="#404040">
                        <set attributeName="fill" to="#808080" begin="arrowRight.mouseover" end="arrowRight.mouseout"/>
                  </use>
                  <path fill="none" stroke="white" stroke-width="1.5" d="M0,-3.0v7 M-2.5,-0.5L0,-3.0L2.5,-0.5"/>
                </g>
                <g id="arrowDown" xlink:href="#dirArrow" transform="rotate(180) translate(-30 -48)" onmousedown="handlePan(0,1)">
                  <use xlink:href="#rim" fill="#404040">
                        <set attributeName="fill" to="#808080" begin="arrowDown.mouseover" end="arrowDown.mouseout"/>
                  </use>
                  <path fill="none" stroke="white" stroke-width="1.5" d="M0,-3.0v7 M-2.5,-0.5L0,-3.0L2.5,-0.5"/>
                </g>
                <g id="arrowLeft" xlink:href="#dirArrow" transform="rotate(270) translate(-36 17)" onmousedown="handlePan(-1,0)">
                  <use xlink:href="#rim" fill="#404040">
                        <set attributeName="fill" to="#808080" begin="arrowLeft.mouseover" end="arrowLeft.mouseout"/>
                  </use>
                  <path fill="none" stroke="white" stroke-width="1.5" d="M0,-3.0v7 M-2.5,-0.5L0,-3.0L2.5,-0.5"/>
                </g>
        </g>
        <svg viewBox="0 0 15 15" width="100%" height="30px" preserveAspectRatio="xMaxYMin meet">
         <g id="arrow_out" transform="scale(0.3 0.3)">
          <a xlink:href="navtree_8js_a4d8f406d49520a0cede2e48347a3d7aa_cgraph_org.svg" target="_base">
           <rect id="button" ry="5" rx="5" y="6" x="6" height="38" width="38"
                fill="#f2f5e9" fill-opacity="0.5" stroke="#606060" stroke-width="1.0"/>
           <path id="arrow"
             d="M 11.500037,31.436501 C 11.940474,20.09759 22.043105,11.32322 32.158766,21.979434 L 37.068811,17.246167 C 37.068811,17.246167 37.088388,32 37.088388,32 L 22.160133,31.978069 C 22.160133,31.978069 26.997745,27.140456 26.997745,27.140456 C 18.528582,18.264221 13.291696,25.230495 11.500037,31.436501 z"
             style="fill:#404040;"/>
          </a>
         </g>
        </svg>
</svg>
