<?xml version="1.0" encoding="UTF-8" standalone="no"?>
<!DOCTYPE svg PUBLIC "-//W3C//DTD SVG 1.1//EN"
 "http://www.w3.org/Graphics/SVG/1.1/DTD/svg11.dtd">
<!-- Generated by graphviz version 2.38.0 (20140413.2041)
 -->
<!-- Title: createIndent Pages: 1 -->
<svg width="735pt" height="66pt"
 viewBox="0.00 0.00 735.00 66.00" xmlns="http://www.w3.org/2000/svg" xmlns:xlink="http://www.w3.org/1999/xlink">
<g id="graph0" class="graph" transform="scale(1 1) rotate(0) translate(4 62)">
<title>createIndent</title>
<polygon fill="white" stroke="none" points="-4,4 -4,-62 731,-62 731,4 -4,4"/>
<!-- Node1 -->
<g id="node1" class="node"><title>Node1</title>
<polygon fill="#bfbfbf" stroke="black" points="0,-19.5 0,-38.5 70,-38.5 70,-19.5 0,-19.5"/>
<text text-anchor="middle" x="35" y="-26.5" font-family="Helvetica,sans-Serif" font-size="10.00">createIndent</text>
</g>
<!-- Node2 -->
<g id="node2" class="node"><title>Node2</title>
<g id="a_node2"><a xlink:href="navtree_8js.html#aa2418b16159e9502e990f97ea6ec26c8" target="_top" xlink:title="newNode">
<polygon fill="white" stroke="black" points="106,-38.5 106,-57.5 162,-57.5 162,-38.5 106,-38.5"/>
<text text-anchor="middle" x="134" y="-45.5" font-family="Helvetica,sans-Serif" font-size="10.00">newNode</text>
</a>
</g>
</g>
<!-- Node1&#45;&gt;Node2 -->
<g id="edge1" class="edge"><title>Node1&#45;&gt;Node2</title>
<path fill="none" stroke="midnightblue" d="M80.2674,-37.6709C88.9741,-39.3764 97.8642,-41.1177 105.804,-42.6729"/>
<polygon fill="midnightblue" stroke="midnightblue" points="80.6849,-34.1863 70.1986,-35.6987 79.3393,-41.0557 80.6849,-34.1863"/>
</g>
<!-- Node3 -->
<g id="node3" class="node"><title>Node3</title>
<g id="a_node3"><a xlink:href="navtree_8js.html#a256aa4fbee866e9227f78e82e9f258bb" target="_top" xlink:title="getNode">
<polygon fill="white" stroke="black" points="198,-38.5 198,-57.5 251,-57.5 251,-38.5 198,-38.5"/>
<text text-anchor="middle" x="224.5" y="-45.5" font-family="Helvetica,sans-Serif" font-size="10.00">getNode</text>
</a>
</g>
</g>
<!-- Node2&#45;&gt;Node3 -->
<g id="edge2" class="edge"><title>Node2&#45;&gt;Node3</title>
<path fill="none" stroke="midnightblue" d="M172.269,-48C180.881,-48 189.856,-48 197.843,-48"/>
<polygon fill="midnightblue" stroke="midnightblue" points="172.034,-44.5001 162.034,-48 172.034,-51.5001 172.034,-44.5001"/>
</g>
<!-- Node4 -->
<g id="node4" class="node"><title>Node4</title>
<g id="a_node4"><a xlink:href="navtree_8js.html#a4eb1f166c9d93b198e1621a4c787a412" target="_top" xlink:title="expandNode">
<polygon fill="white" stroke="black" points="287,-0.5 287,-19.5 358,-19.5 358,-0.5 287,-0.5"/>
<text text-anchor="middle" x="322.5" y="-7.5" font-family="Helvetica,sans-Serif" font-size="10.00">expandNode</text>
</a>
</g>
</g>
<!-- Node3&#45;&gt;Node4 -->
<g id="edge3" class="edge"><title>Node3&#45;&gt;Node4</title>
<path fill="none" stroke="midnightblue" d="M259.382,-34.5886C271.889,-29.6376 285.801,-24.1309 297.283,-19.5859"/>
<polygon fill="midnightblue" stroke="midnightblue" points="257.735,-31.4761 249.725,-38.411 260.311,-37.9848 257.735,-31.4761"/>
</g>
<!-- Node5 -->
<g id="node5" class="node"><title>Node5</title>
<g id="a_node5"><a xlink:href="navtree_8js.html#a0238ad48be94f9f5fd305ea40b8f64ab" target="_top" xlink:title="showNode">
<polygon fill="white" stroke="black" points="394,-19.5 394,-38.5 456,-38.5 456,-19.5 394,-19.5"/>
<text text-anchor="middle" x="425" y="-26.5" font-family="Helvetica,sans-Serif" font-size="10.00">showNode</text>
</a>
</g>
</g>
<!-- Node3&#45;&gt;Node5 -->
<g id="edge10" class="edge"><title>Node3&#45;&gt;Node5</title>
<path fill="none" stroke="midnightblue" d="M261.105,-44.592C298.911,-40.9733 358.026,-35.3149 393.684,-31.9018"/>
<polygon fill="midnightblue" stroke="midnightblue" points="260.665,-41.118 251.044,-45.555 261.332,-48.0861 260.665,-41.118"/>
</g>
<!-- Node4&#45;&gt;Node1 -->
<g id="edge4" class="edge"><title>Node4&#45;&gt;Node1</title>
<path fill="none" stroke="midnightblue" d="M276.668,-12.9836C219.446,-16.7917 121.709,-23.2961 70.1544,-26.727"/>
<polygon fill="midnightblue" stroke="midnightblue" points="277.115,-16.4616 286.861,-12.3052 276.651,-9.47707 277.115,-16.4616"/>
</g>
<!-- Node4&#45;&gt;Node5 -->
<g id="edge5" class="edge"><title>Node4&#45;&gt;Node5</title>
<path fill="none" stroke="midnightblue" d="M368.09,-18.4299C376.753,-20.0678 385.644,-21.7486 393.715,-23.2744"/>
<polygon fill="midnightblue" stroke="midnightblue" points="368.563,-14.9574 358.086,-16.5387 367.262,-21.8355 368.563,-14.9574"/>
</g>
<!-- Node6 -->
<g id="node6" class="node"><title>Node6</title>
<g id="a_node6"><a xlink:href="navtree_8js.html#a0e6a2d65190a43246d668bba554243e5" target="_top" xlink:title="gotoNode">
<polygon fill="white" stroke="black" points="492,-19.5 492,-38.5 550,-38.5 550,-19.5 492,-19.5"/>
<text text-anchor="middle" x="521" y="-26.5" font-family="Helvetica,sans-Serif" font-size="10.00">gotoNode</text>
</a>
</g>
</g>
<!-- Node5&#45;&gt;Node6 -->
<g id="edge6" class="edge"><title>Node5&#45;&gt;Node6</title>
<path fill="none" stroke="midnightblue" d="M466.001,-29C474.71,-29 483.748,-29 491.881,-29"/>
<polygon fill="midnightblue" stroke="midnightblue" points="466.001,-25.5001 456.001,-29 466.001,-32.5001 466.001,-25.5001"/>
</g>
<!-- Node7 -->
<g id="node7" class="node"><title>Node7</title>
<g id="a_node7"><a xlink:href="navtree_8js.html#a21beb601032fff375100a907f32129a5" target="_top" xlink:title="navTo">
<polygon fill="white" stroke="black" points="586,-19.5 586,-38.5 627,-38.5 627,-19.5 586,-19.5"/>
<text text-anchor="middle" x="606.5" y="-26.5" font-family="Helvetica,sans-Serif" font-size="10.00">navTo</text>
</a>
</g>
</g>
<!-- Node6&#45;&gt;Node7 -->
<g id="edge7" class="edge"><title>Node6&#45;&gt;Node7</title>
<path fill="none" stroke="midnightblue" d="M560.452,-22.2688C569.284,-22.1681 578.315,-22.4725 585.949,-23.182"/>
<polygon fill="midnightblue" stroke="midnightblue" points="560.16,-18.7758 550.269,-22.573 560.369,-25.7727 560.16,-18.7758"/>
</g>
<!-- Node7&#45;&gt;Node6 -->
<g id="edge8" class="edge"><title>Node7&#45;&gt;Node6</title>
<path fill="none" stroke="midnightblue" d="M575.887,-35.4898C567.556,-35.8565 558.519,-35.8356 550.269,-35.427"/>
<polygon fill="midnightblue" stroke="midnightblue" points="576.205,-38.9765 585.949,-34.818 575.738,-31.9921 576.205,-38.9765"/>
</g>
<!-- Node8 -->
<g id="node8" class="node"><title>Node8</title>
<g id="a_node8"><a xlink:href="navtree_8js.html#aa7b3067e7ef0044572ba86240b1e58ce" target="_top" xlink:title="initNavTree">
<polygon fill="white" stroke="black" points="663,-19.5 663,-38.5 727,-38.5 727,-19.5 663,-19.5"/>
<text text-anchor="middle" x="695" y="-26.5" font-family="Helvetica,sans-Serif" font-size="10.00">initNavTree</text>
</a>
</g>
</g>
<!-- Node7&#45;&gt;Node8 -->
<g id="edge9" class="edge"><title>Node7&#45;&gt;Node8</title>
<path fill="none" stroke="midnightblue" d="M637.151,-29C645.463,-29 654.52,-29 662.913,-29"/>
<polygon fill="midnightblue" stroke="midnightblue" points="637.128,-25.5001 627.128,-29 637.128,-32.5001 637.128,-25.5001"/>
</g>
</g>
</svg>
