<?xml version="1.0" encoding="UTF-8" standalone="no"?>
<!DOCTYPE svg PUBLIC "-//W3C//DTD SVG 1.1//EN"
 "http://www.w3.org/Graphics/SVG/1.1/DTD/svg11.dtd">
<!-- Generated by graphviz version 2.38.0 (20140413.2041)
 -->
<!-- Title: pathName Pages: 1 -->
<svg width="802pt" height="199pt"
 viewBox="0.00 0.00 802.00 199.00" xmlns="http://www.w3.org/2000/svg" xmlns:xlink="http://www.w3.org/1999/xlink">
<g id="graph0" class="graph" transform="scale(1 1) rotate(0) translate(4 195)">
<title>pathName</title>
<polygon fill="white" stroke="none" points="-4,4 -4,-195 798,-195 798,4 -4,4"/>
<!-- Node1 -->
<g id="node1" class="node"><title>Node1</title>
<polygon fill="#bfbfbf" stroke="black" points="0,-57.5 0,-76.5 61,-76.5 61,-57.5 0,-57.5"/>
<text text-anchor="middle" x="30.5" y="-64.5" font-family="Helvetica,sans-Serif" font-size="10.00">pathName</text>
</g>
<!-- Node2 -->
<g id="node2" class="node"><title>Node2</title>
<g id="a_node2"><a xlink:href="navtree_8js.html#aa2418b16159e9502e990f97ea6ec26c8" target="_top" xlink:title="newNode">
<polygon fill="white" stroke="black" points="97,-133.5 97,-152.5 153,-152.5 153,-133.5 97,-133.5"/>
<text text-anchor="middle" x="125" y="-140.5" font-family="Helvetica,sans-Serif" font-size="10.00">newNode</text>
</a>
</g>
</g>
<!-- Node1&#45;&gt;Node2 -->
<g id="edge1" class="edge"><title>Node1&#45;&gt;Node2</title>
<path fill="none" stroke="midnightblue" d="M51.0685,-83.0779C69.662,-98.3548 96.9994,-120.816 112.38,-133.453"/>
<polygon fill="midnightblue" stroke="midnightblue" points="53.1637,-80.2695 43.2152,-76.6255 48.7198,-85.6781 53.1637,-80.2695"/>
</g>
<!-- Node9 -->
<g id="node9" class="node"><title>Node9</title>
<g id="a_node9"><a xlink:href="navtree_8js.html#aa7b3067e7ef0044572ba86240b1e58ce" target="_top" xlink:title="initNavTree">
<polygon fill="white" stroke="black" points="730,-38.5 730,-57.5 794,-57.5 794,-38.5 730,-38.5"/>
<text text-anchor="middle" x="762" y="-45.5" font-family="Helvetica,sans-Serif" font-size="10.00">initNavTree</text>
</a>
</g>
</g>
<!-- Node1&#45;&gt;Node9 -->
<g id="edge16" class="edge"><title>Node1&#45;&gt;Node9</title>
<path fill="none" stroke="midnightblue" d="M71.182,-61.091C112.122,-55.5137 177.876,-48 235,-48 235,-48 235,-48 589,-48 638.271,-48 695.481,-48 729.928,-48"/>
<polygon fill="midnightblue" stroke="midnightblue" points="70.4989,-57.6523 61.0768,-62.4973 71.4638,-64.5854 70.4989,-57.6523"/>
</g>
<!-- Node10 -->
<g id="node10" class="node"><title>Node10</title>
<g id="a_node10"><a xlink:href="navtree_8js.html#a0dbf0d5f6126afd88420745f7d3c202d" target="_top" xlink:title="selectAndHighlight">
<polygon fill="white" stroke="black" points="319,-76.5 319,-95.5 417,-95.5 417,-76.5 319,-76.5"/>
<text text-anchor="middle" x="368" y="-83.5" font-family="Helvetica,sans-Serif" font-size="10.00">selectAndHighlight</text>
</a>
</g>
</g>
<!-- Node1&#45;&gt;Node10 -->
<g id="edge12" class="edge"><title>Node1&#45;&gt;Node10</title>
<path fill="none" stroke="midnightblue" d="M71.4263,-69.2611C133.349,-72.7679 252.327,-79.5058 318.893,-83.2756"/>
<polygon fill="midnightblue" stroke="midnightblue" points="71.4553,-65.7572 61.2734,-68.6861 71.0595,-72.746 71.4553,-65.7572"/>
</g>
<!-- Node11 -->
<g id="node11" class="node"><title>Node11</title>
<g id="a_node11"><a xlink:href="navtree_8js.html#a646cb31d83b39aafec92e0e1d123563a" target="_top" xlink:title="toggleSyncButton">
<polygon fill="white" stroke="black" points="189,-0.5 189,-19.5 283,-19.5 283,-0.5 189,-0.5"/>
<text text-anchor="middle" x="236" y="-7.5" font-family="Helvetica,sans-Serif" font-size="10.00">toggleSyncButton</text>
</a>
</g>
</g>
<!-- Node1&#45;&gt;Node11 -->
<g id="edge14" class="edge"><title>Node1&#45;&gt;Node11</title>
<path fill="none" stroke="midnightblue" d="M56.0189,-52.4795C68.0145,-45.9463 82.8823,-38.6698 97,-34 126.783,-24.1486 161.592,-18.1314 188.798,-14.5858"/>
<polygon fill="midnightblue" stroke="midnightblue" points="54.0902,-49.5484 47.0836,-57.4956 57.5169,-55.6523 54.0902,-49.5484"/>
</g>
<!-- Node3 -->
<g id="node3" class="node"><title>Node3</title>
<g id="a_node3"><a xlink:href="navtree_8js.html#a256aa4fbee866e9227f78e82e9f258bb" target="_top" xlink:title="getNode">
<polygon fill="white" stroke="black" points="209.5,-133.5 209.5,-152.5 262.5,-152.5 262.5,-133.5 209.5,-133.5"/>
<text text-anchor="middle" x="236" y="-140.5" font-family="Helvetica,sans-Serif" font-size="10.00">getNode</text>
</a>
</g>
</g>
<!-- Node2&#45;&gt;Node3 -->
<g id="edge2" class="edge"><title>Node2&#45;&gt;Node3</title>
<path fill="none" stroke="midnightblue" d="M163.318,-143C178.447,-143 195.545,-143 209.246,-143"/>
<polygon fill="midnightblue" stroke="midnightblue" points="163.224,-139.5 153.224,-143 163.224,-146.5 163.224,-139.5"/>
</g>
<!-- Node4 -->
<g id="node4" class="node"><title>Node4</title>
<g id="a_node4"><a xlink:href="navtree_8js.html#a4eb1f166c9d93b198e1621a4c787a412" target="_top" xlink:title="expandNode">
<polygon fill="white" stroke="black" points="332.5,-152.5 332.5,-171.5 403.5,-171.5 403.5,-152.5 332.5,-152.5"/>
<text text-anchor="middle" x="368" y="-159.5" font-family="Helvetica,sans-Serif" font-size="10.00">expandNode</text>
</a>
</g>
</g>
<!-- Node3&#45;&gt;Node4 -->
<g id="edge3" class="edge"><title>Node3&#45;&gt;Node4</title>
<path fill="none" stroke="midnightblue" d="M272.758,-148.226C291.223,-150.925 313.666,-154.205 332.018,-156.887"/>
<polygon fill="midnightblue" stroke="midnightblue" points="273.085,-144.737 262.684,-146.754 272.073,-151.663 273.085,-144.737"/>
</g>
<!-- Node6 -->
<g id="node6" class="node"><title>Node6</title>
<g id="a_node6"><a xlink:href="navtree_8js.html#a0238ad48be94f9f5fd305ea40b8f64ab" target="_top" xlink:title="showNode">
<polygon fill="white" stroke="black" points="457,-104.5 457,-123.5 519,-123.5 519,-104.5 457,-104.5"/>
<text text-anchor="middle" x="488" y="-111.5" font-family="Helvetica,sans-Serif" font-size="10.00">showNode</text>
</a>
</g>
</g>
<!-- Node3&#45;&gt;Node6 -->
<g id="edge11" class="edge"><title>Node3&#45;&gt;Node6</title>
<path fill="none" stroke="midnightblue" d="M273.042,-138.819C322.481,-133.084 410.456,-122.879 456.69,-117.516"/>
<polygon fill="midnightblue" stroke="midnightblue" points="272.343,-135.377 262.813,-140.006 273.149,-142.33 272.343,-135.377"/>
</g>
<!-- Node5 -->
<g id="node5" class="node"><title>Node5</title>
<g id="a_node5"><a xlink:href="navtree_8js.html#a4d8f406d49520a0cede2e48347a3d7aa" target="_top" xlink:title="createIndent">
<polygon fill="white" stroke="black" points="453,-171.5 453,-190.5 523,-190.5 523,-171.5 453,-171.5"/>
<text text-anchor="middle" x="488" y="-178.5" font-family="Helvetica,sans-Serif" font-size="10.00">createIndent</text>
</a>
</g>
</g>
<!-- Node4&#45;&gt;Node5 -->
<g id="edge4" class="edge"><title>Node4&#45;&gt;Node5</title>
<path fill="none" stroke="midnightblue" d="M413.883,-169.227C426.821,-171.31 440.72,-173.548 452.889,-175.508"/>
<polygon fill="midnightblue" stroke="midnightblue" points="414.195,-165.732 403.766,-167.598 413.082,-172.643 414.195,-165.732"/>
</g>
<!-- Node4&#45;&gt;Node6 -->
<g id="edge6" class="edge"><title>Node4&#45;&gt;Node6</title>
<path fill="none" stroke="midnightblue" d="M402.035,-148.562C421.571,-140.615 445.85,-130.739 463.445,-123.582"/>
<polygon fill="midnightblue" stroke="midnightblue" points="400.54,-145.392 392.595,-152.402 403.177,-151.876 400.54,-145.392"/>
</g>
<!-- Node5&#45;&gt;Node2 -->
<g id="edge5" class="edge"><title>Node5&#45;&gt;Node2</title>
<path fill="none" stroke="midnightblue" d="M442.788,-182.747C408.872,-183.664 360.917,-184.047 319,-181 260.762,-176.767 245.997,-174.687 189,-162 177.068,-159.344 164.105,-155.589 153.056,-152.118"/>
<polygon fill="midnightblue" stroke="midnightblue" points="442.949,-186.244 452.841,-182.448 442.741,-179.247 442.949,-186.244"/>
</g>
<!-- Node7 -->
<g id="node7" class="node"><title>Node7</title>
<g id="a_node7"><a xlink:href="navtree_8js.html#a0e6a2d65190a43246d668bba554243e5" target="_top" xlink:title="gotoNode">
<polygon fill="white" stroke="black" points="559,-85.5 559,-104.5 617,-104.5 617,-85.5 559,-85.5"/>
<text text-anchor="middle" x="588" y="-92.5" font-family="Helvetica,sans-Serif" font-size="10.00">gotoNode</text>
</a>
</g>
</g>
<!-- Node6&#45;&gt;Node7 -->
<g id="edge7" class="edge"><title>Node6&#45;&gt;Node7</title>
<path fill="none" stroke="midnightblue" d="M529.265,-106.193C539.16,-104.275 549.545,-102.262 558.737,-100.48"/>
<polygon fill="midnightblue" stroke="midnightblue" points="528.354,-102.805 519.203,-108.144 529.686,-109.677 528.354,-102.805"/>
</g>
<!-- Node8 -->
<g id="node8" class="node"><title>Node8</title>
<g id="a_node8"><a xlink:href="navtree_8js.html#a21beb601032fff375100a907f32129a5" target="_top" xlink:title="navTo">
<polygon fill="white" stroke="black" points="653,-85.5 653,-104.5 694,-104.5 694,-85.5 653,-85.5"/>
<text text-anchor="middle" x="673.5" y="-92.5" font-family="Helvetica,sans-Serif" font-size="10.00">navTo</text>
</a>
</g>
</g>
<!-- Node7&#45;&gt;Node8 -->
<g id="edge8" class="edge"><title>Node7&#45;&gt;Node8</title>
<path fill="none" stroke="midnightblue" d="M627.452,-88.2688C636.284,-88.1681 645.315,-88.4725 652.949,-89.182"/>
<polygon fill="midnightblue" stroke="midnightblue" points="627.16,-84.7758 617.269,-88.573 627.369,-91.7727 627.16,-84.7758"/>
</g>
<!-- Node8&#45;&gt;Node7 -->
<g id="edge9" class="edge"><title>Node8&#45;&gt;Node7</title>
<path fill="none" stroke="midnightblue" d="M642.887,-101.49C634.556,-101.857 625.519,-101.836 617.269,-101.427"/>
<polygon fill="midnightblue" stroke="midnightblue" points="643.205,-104.977 652.949,-100.818 642.738,-97.9921 643.205,-104.977"/>
</g>
<!-- Node8&#45;&gt;Node9 -->
<g id="edge10" class="edge"><title>Node8&#45;&gt;Node9</title>
<path fill="none" stroke="midnightblue" d="M700.983,-80.6102C714.687,-73.1641 731.049,-64.2741 743.225,-57.6583"/>
<polygon fill="midnightblue" stroke="midnightblue" points="699.12,-77.6392 692.005,-85.4888 702.462,-83.7899 699.12,-77.6392"/>
</g>
<!-- Node10&#45;&gt;Node6 -->
<g id="edge13" class="edge"><title>Node10&#45;&gt;Node6</title>
<path fill="none" stroke="midnightblue" d="M419.379,-97.9543C432.179,-100.992 445.533,-104.16 456.96,-106.872"/>
<polygon fill="midnightblue" stroke="midnightblue" points="419.817,-94.4611 409.279,-95.5577 418.201,-101.272 419.817,-94.4611"/>
</g>
<!-- Node11&#45;&gt;Node9 -->
<g id="edge15" class="edge"><title>Node11&#45;&gt;Node9</title>
<path fill="none" stroke="midnightblue" d="M293.169,-10C343.837,-10 420.407,-10 487,-10 487,-10 487,-10 589,-10 641.6,-10 701.162,-27.1538 734.587,-38.411"/>
<polygon fill="midnightblue" stroke="midnightblue" points="293.077,-6.5001 283.077,-10 293.077,-13.5001 293.077,-6.5001"/>
</g>
</g>
</svg>
