<?xml version="1.0" encoding="UTF-8" standalone="no"?>
<!DOCTYPE svg PUBLIC "-//W3C//DTD SVG 1.1//EN"
 "http://www.w3.org/Graphics/SVG/1.1/DTD/svg11.dtd">
<!-- Generated by graphviz version 2.38.0 (20140413.2041)
 -->
<!-- Title: removeToInsertLater Pages: 1 -->
<!--zoomable 85 -->
<svg id="main" version="1.1" xmlns="http://www.w3.org/2000/svg" xmlns:xlink="http://www.w3.org/1999/xlink" xml:space="preserve" onload="init(evt)">
<style type="text/css"><![CDATA[
.edge:hover path { stroke: red; }
.edge:hover polygon { stroke: red; fill: red; }
]]></style>
<script type="text/javascript"><![CDATA[
var edges = document.getElementsByTagName('g');
if (edges && edges.length) {
  for (var i=0;i<edges.length;i++) {
    if (edges[i].id.substr(0,4)=='edge') {
      edges[i].setAttribute('class','edge');
    }
  }
}
]]></script>
        <defs>
                <circle id="rim" cx="0" cy="0" r="7"/>
                <circle id="rim2" cx="0" cy="0" r="3.5"/>
                <g id="zoomPlus">
                        <use xlink:href="#rim" fill="#404040">
                                <set attributeName="fill" to="#808080" begin="zoomplus.mouseover" end="zoomplus.mouseout"/>
                        </use>
                        <path d="M-4,0h8M0,-4v8" fill="none" stroke="white" stroke-width="1.5" pointer-events="none"/>
                </g>
                <g id="zoomMin">
                        <use xlink:href="#rim" fill="#404040">
                                <set attributeName="fill" to="#808080" begin="zoomminus.mouseover" end="zoomminus.mouseout"/>
                        </use>
                        <path d="M-4,0h8" fill="none" stroke="white" stroke-width="1.5" pointer-events="none"/>
                </g>
                <g id="dirArrow">
                        <path fill="none" stroke="white" stroke-width="1.5" d="M0,-3.0v7 M-2.5,-0.5L0,-3.0L2.5,-0.5"/>
                </g>
               <g id="resetDef">
                       <use xlink:href="#rim2" fill="#404040">
                               <set attributeName="fill" to="#808080" begin="reset.mouseover" end="reset.mouseout"/>
                       </use>
               </g>
        </defs>

<script type="text/javascript">
var viewWidth = 685;
var viewHeight = 85;
var sectionId = 'dynsection-28';
</script>
<script xlink:href="svgpan.js"/>
<svg id="graph" class="graph">
<g id="viewport">
<title>removeToInsertLater</title>
<polygon fill="white" stroke="none" points="-4,4 -4,-81 681,-81 681,4 -4,4"/>
<!-- Node1 -->
<g id="node1" class="node"><title>Node1</title>
<polygon fill="#bfbfbf" stroke="black" points="0,-38.5 0,-57.5 104,-57.5 104,-38.5 0,-38.5"/>
<text text-anchor="middle" x="52" y="-45.5" font-family="Helvetica,sans-Serif" font-size="10.00">removeToInsertLater</text>
</g>
<!-- Node2 -->
<g id="node2" class="node"><title>Node2</title>
<g id="a_node2"><a xlink:href="navtree_8js.html#a256aa4fbee866e9227f78e82e9f258bb" target="_top" xlink:title="getNode">
<polygon fill="white" stroke="black" points="140,-38.5 140,-57.5 193,-57.5 193,-38.5 140,-38.5"/>
<text text-anchor="middle" x="166.5" y="-45.5" font-family="Helvetica,sans-Serif" font-size="10.00">getNode</text>
</a>
</g>
</g>
<!-- Node1&#45;&gt;Node2 -->
<g id="edge1" class="edge"><title>Node1&#45;&gt;Node2</title>
<path fill="none" stroke="midnightblue" d="M114.412,-48C123.336,-48 132.084,-48 139.75,-48"/>
<polygon fill="midnightblue" stroke="midnightblue" points="114.312,-44.5001 104.312,-48 114.312,-51.5001 114.312,-44.5001"/>
</g>
<!-- Node3 -->
<g id="node3" class="node"><title>Node3</title>
<g id="a_node3"><a xlink:href="navtree_8js.html#a4eb1f166c9d93b198e1621a4c787a412" target="_top" xlink:title="expandNode">
<polygon fill="white" stroke="black" points="229,-38.5 229,-57.5 300,-57.5 300,-38.5 229,-38.5"/>
<text text-anchor="middle" x="264.5" y="-45.5" font-family="Helvetica,sans-Serif" font-size="10.00">expandNode</text>
</a>
</g>
</g>
<!-- Node2&#45;&gt;Node3 -->
<g id="edge2" class="edge"><title>Node2&#45;&gt;Node3</title>
<path fill="none" stroke="midnightblue" d="M203.36,-48C211.641,-48 220.439,-48 228.676,-48"/>
<polygon fill="midnightblue" stroke="midnightblue" points="203.226,-44.5001 193.226,-48 203.226,-51.5001 203.226,-44.5001"/>
</g>
<!-- Node6 -->
<g id="node6" class="node"><title>Node6</title>
<g id="a_node6"><a xlink:href="navtree_8js.html#a0238ad48be94f9f5fd305ea40b8f64ab" target="_top" xlink:title="showNode">
<polygon fill="white" stroke="black" points="340,-0.5 340,-19.5 402,-19.5 402,-0.5 340,-0.5"/>
<text text-anchor="middle" x="371" y="-7.5" font-family="Helvetica,sans-Serif" font-size="10.00">showNode</text>
</a>
</g>
</g>
<!-- Node2&#45;&gt;Node6 -->
<g id="edge11" class="edge"><title>Node2&#45;&gt;Node6</title>
<path fill="none" stroke="midnightblue" d="M202.893,-35.97C211.373,-33.3932 220.45,-30.8832 229,-29 266.751,-20.6851 311.041,-15.4358 339.766,-12.6113"/>
<polygon fill="midnightblue" stroke="midnightblue" points="201.77,-32.6542 193.279,-38.992 203.869,-39.3321 201.77,-32.6542"/>
</g>
<!-- Node4 -->
<g id="node4" class="node"><title>Node4</title>
<g id="a_node4"><a xlink:href="navtree_8js.html#a4d8f406d49520a0cede2e48347a3d7aa" target="_top" xlink:title="createIndent">
<polygon fill="white" stroke="black" points="336,-38.5 336,-57.5 406,-57.5 406,-38.5 336,-38.5"/>
<text text-anchor="middle" x="371" y="-45.5" font-family="Helvetica,sans-Serif" font-size="10.00">createIndent</text>
</a>
</g>
</g>
<!-- Node3&#45;&gt;Node4 -->
<g id="edge3" class="edge"><title>Node3&#45;&gt;Node4</title>
<path fill="none" stroke="midnightblue" d="M310.273,-48C318.853,-48 327.707,-48 335.886,-48"/>
<polygon fill="midnightblue" stroke="midnightblue" points="310.007,-44.5001 300.007,-48 310.007,-51.5001 310.007,-44.5001"/>
</g>
<!-- Node3&#45;&gt;Node6 -->
<g id="edge6" class="edge"><title>Node3&#45;&gt;Node6</title>
<path fill="none" stroke="midnightblue" d="M301.574,-34.882C315.396,-29.8561 330.893,-24.2209 343.639,-19.5859"/>
<polygon fill="midnightblue" stroke="midnightblue" points="300.072,-31.7042 291.87,-38.411 302.464,-38.2828 300.072,-31.7042"/>
</g>
<!-- Node5 -->
<g id="node5" class="node"><title>Node5</title>
<g id="a_node5"><a xlink:href="navtree_8js.html#aa2418b16159e9502e990f97ea6ec26c8" target="_top" xlink:title="newNode">
<polygon fill="white" stroke="black" points="443,-57.5 443,-76.5 499,-76.5 499,-57.5 443,-57.5"/>
<text text-anchor="middle" x="471" y="-64.5" font-family="Helvetica,sans-Serif" font-size="10.00">newNode</text>
</a>
</g>
</g>
<!-- Node4&#45;&gt;Node5 -->
<g id="edge4" class="edge"><title>Node4&#45;&gt;Node5</title>
<path fill="none" stroke="midnightblue" d="M415.825,-56.4968C425.026,-58.2806 434.473,-60.1121 442.849,-61.736"/>
<polygon fill="midnightblue" stroke="midnightblue" points="416.484,-53.0594 406.001,-54.592 415.152,-59.9314 416.484,-53.0594"/>
</g>
<!-- Node5&#45;&gt;Node2 -->
<g id="edge5" class="edge"><title>Node5&#45;&gt;Node2</title>
<path fill="none" stroke="midnightblue" d="M432.549,-70.441C384.938,-74.0294 300.348,-77.7701 229,-67 216.735,-65.1485 203.543,-61.3306 192.535,-57.5995"/>
<polygon fill="midnightblue" stroke="midnightblue" points="433.004,-73.916 442.695,-69.6357 432.45,-66.9379 433.004,-73.916"/>
</g>
<!-- Node7 -->
<g id="node7" class="node"><title>Node7</title>
<g id="a_node7"><a xlink:href="navtree_8js.html#a0e6a2d65190a43246d668bba554243e5" target="_top" xlink:title="gotoNode">
<polygon fill="white" stroke="black" points="442,-0.5 442,-19.5 500,-19.5 500,-0.5 442,-0.5"/>
<text text-anchor="middle" x="471" y="-7.5" font-family="Helvetica,sans-Serif" font-size="10.00">gotoNode</text>
</a>
</g>
</g>
<!-- Node6&#45;&gt;Node7 -->
<g id="edge7" class="edge"><title>Node6&#45;&gt;Node7</title>
<path fill="none" stroke="midnightblue" d="M412.265,-10C422.16,-10 432.545,-10 441.737,-10"/>
<polygon fill="midnightblue" stroke="midnightblue" points="412.203,-6.5001 402.203,-10 412.203,-13.5001 412.203,-6.5001"/>
</g>
<!-- Node8 -->
<g id="node8" class="node"><title>Node8</title>
<g id="a_node8"><a xlink:href="navtree_8js.html#a21beb601032fff375100a907f32129a5" target="_top" xlink:title="navTo">
<polygon fill="white" stroke="black" points="536,-0.5 536,-19.5 577,-19.5 577,-0.5 536,-0.5"/>
<text text-anchor="middle" x="556.5" y="-7.5" font-family="Helvetica,sans-Serif" font-size="10.00">navTo</text>
</a>
</g>
</g>
<!-- Node7&#45;&gt;Node8 -->
<g id="edge8" class="edge"><title>Node7&#45;&gt;Node8</title>
<path fill="none" stroke="midnightblue" d="M510.452,-3.26876C519.284,-3.1681 528.315,-3.47251 535.949,-4.18199"/>
<polygon fill="midnightblue" stroke="midnightblue" points="510.16,0.224195 500.269,-3.573 510.369,-6.77268 510.16,0.224195"/>
</g>
<!-- Node8&#45;&gt;Node7 -->
<g id="edge9" class="edge"><title>Node8&#45;&gt;Node7</title>
<path fill="none" stroke="midnightblue" d="M525.887,-16.4898C517.556,-16.8565 508.519,-16.8356 500.269,-16.427"/>
<polygon fill="midnightblue" stroke="midnightblue" points="526.205,-19.9765 535.949,-15.818 525.738,-12.9921 526.205,-19.9765"/>
</g>
<!-- Node9 -->
<g id="node9" class="node"><title>Node9</title>
<g id="a_node9"><a xlink:href="navtree_8js.html#aa7b3067e7ef0044572ba86240b1e58ce" target="_top" xlink:title="initNavTree">
<polygon fill="white" stroke="black" points="613,-0.5 613,-19.5 677,-19.5 677,-0.5 613,-0.5"/>
<text text-anchor="middle" x="645" y="-7.5" font-family="Helvetica,sans-Serif" font-size="10.00">initNavTree</text>
</a>
</g>
</g>
<!-- Node8&#45;&gt;Node9 -->
<g id="edge10" class="edge"><title>Node8&#45;&gt;Node9</title>
<path fill="none" stroke="midnightblue" d="M587.151,-10C595.463,-10 604.52,-10 612.913,-10"/>
<polygon fill="midnightblue" stroke="midnightblue" points="587.128,-6.5001 577.128,-10 587.128,-13.5001 587.128,-6.5001"/>
</g>
</g>
</svg>
        <g id="navigator" transform="translate(0 0)" fill="#404254">
                <rect fill="#f2f5e9" fill-opacity="0.5" stroke="#606060" stroke-width=".5" x="0" y="0" width="60" height="60"/>
                <use id="zoomplus" xlink:href="#zoomPlus" x="17" y="9" onmousedown="handleZoom(evt,'in')"/>
                <use id="zoomminus" xlink:href="#zoomMin" x="42" y="9" onmousedown="handleZoom(evt,'out')"/>
                <use id="reset" xlink:href="#resetDef" x="30" y="36" onmousedown="handleReset()"/>
                <g id="arrowUp" xlink:href="#dirArrow" transform="translate(30 24)" onmousedown="handlePan(0,-1)">
                  <use xlink:href="#rim" fill="#404040">
                        <set attributeName="fill" to="#808080" begin="arrowUp.mouseover" end="arrowUp.mouseout"/>
                  </use>
                  <path fill="none" stroke="white" stroke-width="1.5" d="M0,-3.0v7 M-2.5,-0.5L0,-3.0L2.5,-0.5"/>
                </g>
                <g id="arrowRight" xlink:href="#dirArrow" transform="rotate(90) translate(36 -43)" onmousedown="handlePan(1,0)">
                  <use xlink:href="#rim" fill="#404040">
                        <set attributeName="fill" to="#808080" begin="arrowRight.mouseover" end="arrowRight.mouseout"/>
                  </use>
                  <path fill="none" stroke="white" stroke-width="1.5" d="M0,-3.0v7 M-2.5,-0.5L0,-3.0L2.5,-0.5"/>
                </g>
                <g id="arrowDown" xlink:href="#dirArrow" transform="rotate(180) translate(-30 -48)" onmousedown="handlePan(0,1)">
                  <use xlink:href="#rim" fill="#404040">
                        <set attributeName="fill" to="#808080" begin="arrowDown.mouseover" end="arrowDown.mouseout"/>
                  </use>
                  <path fill="none" stroke="white" stroke-width="1.5" d="M0,-3.0v7 M-2.5,-0.5L0,-3.0L2.5,-0.5"/>
                </g>
                <g id="arrowLeft" xlink:href="#dirArrow" transform="rotate(270) translate(-36 17)" onmousedown="handlePan(-1,0)">
                  <use xlink:href="#rim" fill="#404040">
                        <set attributeName="fill" to="#808080" begin="arrowLeft.mouseover" end="arrowLeft.mouseout"/>
                  </use>
                  <path fill="none" stroke="white" stroke-width="1.5" d="M0,-3.0v7 M-2.5,-0.5L0,-3.0L2.5,-0.5"/>
                </g>
        </g>
        <svg viewBox="0 0 15 15" width="100%" height="30px" preserveAspectRatio="xMaxYMin meet">
         <g id="arrow_out" transform="scale(0.3 0.3)">
          <a xlink:href="navtree_8js_aa78016020f40c28356aefd325cd4df74_icgraph_org.svg" target="_base">
           <rect id="button" ry="5" rx="5" y="6" x="6" height="38" width="38"
                fill="#f2f5e9" fill-opacity="0.5" stroke="#606060" stroke-width="1.0"/>
           <path id="arrow"
             d="M 11.500037,31.436501 C 11.940474,20.09759 22.043105,11.32322 32.158766,21.979434 L 37.068811,17.246167 C 37.068811,17.246167 37.088388,32 37.088388,32 L 22.160133,31.978069 C 22.160133,31.978069 26.997745,27.140456 26.997745,27.140456 C 18.528582,18.264221 13.291696,25.230495 11.500037,31.436501 z"
             style="fill:#404040;"/>
          </a>
         </g>
        </svg>
</svg>
