<?xml version="1.0" encoding="UTF-8" standalone="no"?>
<!DOCTYPE svg PUBLIC "-//W3C//DTD SVG 1.1//EN"
 "http://www.w3.org/Graphics/SVG/1.1/DTD/svg11.dtd">
<!-- Generated by graphviz version 2.38.0 (20140413.2041)
 -->
<!-- Title: highlightAnchor Pages: 1 -->
<svg width="291pt" height="142pt"
 viewBox="0.00 0.00 291.00 142.00" xmlns="http://www.w3.org/2000/svg" xmlns:xlink="http://www.w3.org/1999/xlink">
<g id="graph0" class="graph" transform="scale(1 1) rotate(0) translate(4 138)">
<title>highlightAnchor</title>
<polygon fill="white" stroke="none" points="-4,4 -4,-138 287,-138 287,4 -4,4"/>
<!-- Node1 -->
<g id="node1" class="node"><title>Node1</title>
<polygon fill="#bfbfbf" stroke="black" points="0,-57.5 0,-76.5 83,-76.5 83,-57.5 0,-57.5"/>
<text text-anchor="middle" x="41.5" y="-64.5" font-family="Helvetica,sans-Serif" font-size="10.00">highlightAnchor</text>
</g>
<!-- Node2 -->
<g id="node2" class="node"><title>Node2</title>
<g id="a_node2"><a xlink:href="navtree_8js.html#a20695277530a1a04eef8d289177a5e40" target="_top" xlink:title="hashUrl">
<polygon fill="white" stroke="black" points="127,-114.5 127,-133.5 177,-133.5 177,-114.5 127,-114.5"/>
<text text-anchor="middle" x="152" y="-121.5" font-family="Helvetica,sans-Serif" font-size="10.00">hashUrl</text>
</a>
</g>
</g>
<!-- Node1&#45;&gt;Node2 -->
<g id="edge1" class="edge"><title>Node1&#45;&gt;Node2</title>
<path fill="none" stroke="midnightblue" d="M60.9055,-76.6693C78.1555,-85.7315 104.157,-99.3914 123.8,-109.711"/>
<polygon fill="midnightblue" stroke="midnightblue" points="122.386,-112.921 132.866,-114.474 125.641,-106.724 122.386,-112.921"/>
</g>
<!-- Node3 -->
<g id="node3" class="node"><title>Node3</title>
<g id="a_node3"><a xlink:href="navtree_8js.html#aaeb20639619e1371c030d36a7109b27b" target="_top" xlink:title="hashValue">
<polygon fill="white" stroke="black" points="221,-95.5 221,-114.5 283,-114.5 283,-95.5 221,-95.5"/>
<text text-anchor="middle" x="252" y="-102.5" font-family="Helvetica,sans-Serif" font-size="10.00">hashValue</text>
</a>
</g>
</g>
<!-- Node1&#45;&gt;Node3 -->
<g id="edge3" class="edge"><title>Node1&#45;&gt;Node3</title>
<path fill="none" stroke="midnightblue" d="M83.1959,-74.417C120.135,-81.1493 174.289,-91.0191 211.007,-97.7112"/>
<polygon fill="midnightblue" stroke="midnightblue" points="210.407,-101.159 220.873,-99.5092 211.662,-94.2728 210.407,-101.159"/>
</g>
<!-- Node4 -->
<g id="node4" class="node"><title>Node4</title>
<g id="a_node4"><a xlink:href="navtree_8js.html#a23b68d2deb28f9c2678f546e2d60e5ee" target="_top" xlink:title="glowEffect">
<polygon fill="white" stroke="black" points="121.5,-38.5 121.5,-57.5 182.5,-57.5 182.5,-38.5 121.5,-38.5"/>
<text text-anchor="middle" x="152" y="-45.5" font-family="Helvetica,sans-Serif" font-size="10.00">glowEffect</text>
</a>
</g>
</g>
<!-- Node1&#45;&gt;Node4 -->
<g id="edge4" class="edge"><title>Node1&#45;&gt;Node4</title>
<path fill="none" stroke="midnightblue" d="M83.2101,-59.871C92.3848,-58.2644 102.112,-56.5611 111.246,-54.9615"/>
<polygon fill="midnightblue" stroke="midnightblue" points="112.001,-58.3826 121.248,-53.2101 110.794,-51.4875 112.001,-58.3826"/>
</g>
<!-- Node5 -->
<g id="node5" class="node"><title>Node5</title>
<g id="a_node5"><a xlink:href="navtree_8js.html#aee1fc3771eeb15da54962a03da1f3c11" target="_top" xlink:title="gotoAnchor">
<polygon fill="white" stroke="black" points="119,-0.5 119,-19.5 185,-19.5 185,-0.5 119,-0.5"/>
<text text-anchor="middle" x="152" y="-7.5" font-family="Helvetica,sans-Serif" font-size="10.00">gotoAnchor</text>
</a>
</g>
</g>
<!-- Node1&#45;&gt;Node5 -->
<g id="edge5" class="edge"><title>Node1&#45;&gt;Node5</title>
<path fill="none" stroke="midnightblue" d="M60.9055,-57.3307C78.1555,-48.2685 104.157,-34.6086 123.8,-24.2892"/>
<polygon fill="midnightblue" stroke="midnightblue" points="125.641,-27.2757 132.866,-19.5265 122.386,-21.0788 125.641,-27.2757"/>
</g>
<!-- Node2&#45;&gt;Node3 -->
<g id="edge2" class="edge"><title>Node2&#45;&gt;Node3</title>
<path fill="none" stroke="midnightblue" d="M177.225,-119.303C187.293,-117.351 199.254,-115.032 210.584,-112.836"/>
<polygon fill="midnightblue" stroke="midnightblue" points="211.588,-116.206 220.739,-110.867 210.255,-109.334 211.588,-116.206"/>
</g>
</g>
</svg>
