<?xml version="1.0" encoding="UTF-8" standalone="no"?>
<!DOCTYPE svg PUBLIC "-//W3C//DTD SVG 1.1//EN"
 "http://www.w3.org/Graphics/SVG/1.1/DTD/svg11.dtd">
<!-- Generated by graphviz version 2.38.0 (20140413.2041)
 -->
<!-- Title: toggleSyncButton Pages: 1 -->
<svg width="363pt" height="256pt"
 viewBox="0.00 0.00 363.00 256.00" xmlns="http://www.w3.org/2000/svg" xmlns:xlink="http://www.w3.org/1999/xlink">
<g id="graph0" class="graph" transform="scale(1 1) rotate(0) translate(4 252)">
<title>toggleSyncButton</title>
<polygon fill="white" stroke="none" points="-4,4 -4,-252 359,-252 359,4 -4,4"/>
<!-- Node1 -->
<g id="node1" class="node"><title>Node1</title>
<polygon fill="#bfbfbf" stroke="black" points="0,-114.5 0,-133.5 94,-133.5 94,-114.5 0,-114.5"/>
<text text-anchor="middle" x="47" y="-121.5" font-family="Helvetica,sans-Serif" font-size="10.00">toggleSyncButton</text>
</g>
<!-- Node2 -->
<g id="node2" class="node"><title>Node2</title>
<g id="a_node2"><a xlink:href="navtree_8js.html#a6522b3f540ead0febf12ccf5fc1f04c4" target="_top" xlink:title="showSyncOff">
<polygon fill="white" stroke="black" points="130,-228.5 130,-247.5 204,-247.5 204,-228.5 130,-228.5"/>
<text text-anchor="middle" x="167" y="-235.5" font-family="Helvetica,sans-Serif" font-size="10.00">showSyncOff</text>
</a>
</g>
</g>
<!-- Node1&#45;&gt;Node2 -->
<g id="edge1" class="edge"><title>Node1&#45;&gt;Node2</title>
<path fill="none" stroke="midnightblue" d="M54.4761,-133.671C67.199,-152.117 97.0973,-192.816 130,-219 131.797,-220.43 133.718,-221.803 135.703,-223.111"/>
<polygon fill="midnightblue" stroke="midnightblue" points="134.236,-226.31 144.622,-228.399 137.805,-220.289 134.236,-226.31"/>
</g>
<!-- Node3 -->
<g id="node3" class="node"><title>Node3</title>
<g id="a_node3"><a xlink:href="navtree_8js.html#ade730323aadb971c053136b7758c9dce" target="_top" xlink:title="storeLink">
<polygon fill="white" stroke="black" points="139,-76.5 139,-95.5 195,-95.5 195,-76.5 139,-76.5"/>
<text text-anchor="middle" x="167" y="-83.5" font-family="Helvetica,sans-Serif" font-size="10.00">storeLink</text>
</a>
</g>
</g>
<!-- Node1&#45;&gt;Node3 -->
<g id="edge2" class="edge"><title>Node1&#45;&gt;Node3</title>
<path fill="none" stroke="midnightblue" d="M77.7764,-114.411C93.2683,-109.422 112.356,-103.275 128.811,-97.9762"/>
<polygon fill="midnightblue" stroke="midnightblue" points="130.214,-101.201 138.66,-94.8045 128.068,-94.5384 130.214,-101.201"/>
</g>
<!-- Node5 -->
<g id="node5" class="node"><title>Node5</title>
<g id="a_node5"><a xlink:href="navtree_8js.html#a70bc36adda6141a703fc7ee2b772ec63" target="_top" xlink:title="stripPath2">
<polygon fill="white" stroke="black" points="136.5,-152.5 136.5,-171.5 197.5,-171.5 197.5,-152.5 136.5,-152.5"/>
<text text-anchor="middle" x="167" y="-159.5" font-family="Helvetica,sans-Serif" font-size="10.00">stripPath2</text>
</a>
</g>
</g>
<!-- Node1&#45;&gt;Node5 -->
<g id="edge4" class="edge"><title>Node1&#45;&gt;Node5</title>
<path fill="none" stroke="midnightblue" d="M77.7764,-133.589C92.5898,-138.359 110.691,-144.189 126.634,-149.323"/>
<polygon fill="midnightblue" stroke="midnightblue" points="125.642,-152.68 136.233,-152.414 127.787,-146.017 125.642,-152.68"/>
</g>
<!-- Node6 -->
<g id="node6" class="node"><title>Node6</title>
<g id="a_node6"><a xlink:href="navtree_8js.html#a364b3f4132309fa9aae78585cf2cb772" target="_top" xlink:title="pathName">
<polygon fill="white" stroke="black" points="136.5,-114.5 136.5,-133.5 197.5,-133.5 197.5,-114.5 136.5,-114.5"/>
<text text-anchor="middle" x="167" y="-121.5" font-family="Helvetica,sans-Serif" font-size="10.00">pathName</text>
</a>
</g>
</g>
<!-- Node1&#45;&gt;Node6 -->
<g id="edge5" class="edge"><title>Node1&#45;&gt;Node6</title>
<path fill="none" stroke="midnightblue" d="M94.298,-124C104.841,-124 115.951,-124 126.195,-124"/>
<polygon fill="midnightblue" stroke="midnightblue" points="126.497,-127.5 136.497,-124 126.497,-120.5 126.497,-127.5"/>
</g>
<!-- Node7 -->
<g id="node7" class="node"><title>Node7</title>
<g id="a_node7"><a xlink:href="navtree_8js.html#a20695277530a1a04eef8d289177a5e40" target="_top" xlink:title="hashUrl">
<polygon fill="white" stroke="black" points="142,-0.5 142,-19.5 192,-19.5 192,-0.5 142,-0.5"/>
<text text-anchor="middle" x="167" y="-7.5" font-family="Helvetica,sans-Serif" font-size="10.00">hashUrl</text>
</a>
</g>
</g>
<!-- Node1&#45;&gt;Node7 -->
<g id="edge6" class="edge"><title>Node1&#45;&gt;Node7</title>
<path fill="none" stroke="midnightblue" d="M54.4761,-114.329C67.199,-95.8828 97.0973,-55.1836 130,-29 131.797,-27.5698 133.718,-26.1966 135.703,-24.8888"/>
<polygon fill="midnightblue" stroke="midnightblue" points="137.805,-27.7114 144.622,-19.6014 134.236,-21.6899 137.805,-27.7114"/>
</g>
<!-- Node9 -->
<g id="node9" class="node"><title>Node9</title>
<g id="a_node9"><a xlink:href="navtree_8js.html#a84095390aca39b6cb693d3fb22d32dd0" target="_top" xlink:title="showSyncOn">
<polygon fill="white" stroke="black" points="130,-38.5 130,-57.5 204,-57.5 204,-38.5 130,-38.5"/>
<text text-anchor="middle" x="167" y="-45.5" font-family="Helvetica,sans-Serif" font-size="10.00">showSyncOn</text>
</a>
</g>
</g>
<!-- Node1&#45;&gt;Node9 -->
<g id="edge8" class="edge"><title>Node1&#45;&gt;Node9</title>
<path fill="none" stroke="midnightblue" d="M60.74,-114.417C76.5932,-102.665 104.671,-82.4086 130,-67 132.491,-65.4849 135.113,-63.9648 137.761,-62.4805"/>
<polygon fill="midnightblue" stroke="midnightblue" points="139.579,-65.4758 146.702,-57.6322 136.242,-59.3223 139.579,-65.4758"/>
</g>
<!-- Node10 -->
<g id="node10" class="node"><title>Node10</title>
<g id="a_node10"><a xlink:href="navtree_8js.html#abdf8e0e69c89803c1b84784a13b7fd2e" target="_top" xlink:title="deleteLink">
<polygon fill="white" stroke="black" points="136.5,-190.5 136.5,-209.5 197.5,-209.5 197.5,-190.5 136.5,-190.5"/>
<text text-anchor="middle" x="167" y="-197.5" font-family="Helvetica,sans-Serif" font-size="10.00">deleteLink</text>
</a>
</g>
</g>
<!-- Node1&#45;&gt;Node10 -->
<g id="edge9" class="edge"><title>Node1&#45;&gt;Node10</title>
<path fill="none" stroke="midnightblue" d="M60.74,-133.583C76.5932,-145.335 104.671,-165.591 130,-181 132.491,-182.515 135.113,-184.035 137.761,-185.519"/>
<polygon fill="midnightblue" stroke="midnightblue" points="136.242,-188.678 146.702,-190.368 139.579,-182.524 136.242,-188.678"/>
</g>
<!-- Node4 -->
<g id="node4" class="node"><title>Node4</title>
<g id="a_node4"><a xlink:href="navtree_8js.html#ac49af616f532f2364be9f58280469d33" target="_top" xlink:title="localStorageSupported">
<polygon fill="white" stroke="black" points="240,-133.5 240,-152.5 355,-152.5 355,-133.5 240,-133.5"/>
<text text-anchor="middle" x="297.5" y="-140.5" font-family="Helvetica,sans-Serif" font-size="10.00">localStorageSupported</text>
</a>
</g>
</g>
<!-- Node3&#45;&gt;Node4 -->
<g id="edge3" class="edge"><title>Node3&#45;&gt;Node4</title>
<path fill="none" stroke="midnightblue" d="M189.508,-95.5405C210.356,-104.788 242.192,-118.91 265.72,-129.347"/>
<polygon fill="midnightblue" stroke="midnightblue" points="264.362,-132.573 274.922,-133.428 267.2,-126.174 264.362,-132.573"/>
</g>
<!-- Node8 -->
<g id="node8" class="node"><title>Node8</title>
<g id="a_node8"><a xlink:href="navtree_8js.html#aaeb20639619e1371c030d36a7109b27b" target="_top" xlink:title="hashValue">
<polygon fill="white" stroke="black" points="266.5,-0.5 266.5,-19.5 328.5,-19.5 328.5,-0.5 266.5,-0.5"/>
<text text-anchor="middle" x="297.5" y="-7.5" font-family="Helvetica,sans-Serif" font-size="10.00">hashValue</text>
</a>
</g>
</g>
<!-- Node7&#45;&gt;Node8 -->
<g id="edge7" class="edge"><title>Node7&#45;&gt;Node8</title>
<path fill="none" stroke="midnightblue" d="M192.17,-10C210.082,-10 234.913,-10 255.857,-10"/>
<polygon fill="midnightblue" stroke="midnightblue" points="256.088,-13.5001 266.088,-10 256.088,-6.5001 256.088,-13.5001"/>
</g>
<!-- Node10&#45;&gt;Node4 -->
<g id="edge10" class="edge"><title>Node10&#45;&gt;Node4</title>
<path fill="none" stroke="midnightblue" d="M189.508,-190.459C210.356,-181.212 242.192,-167.09 265.72,-156.653"/>
<polygon fill="midnightblue" stroke="midnightblue" points="267.2,-159.826 274.922,-152.572 264.362,-153.427 267.2,-159.826"/>
</g>
</g>
</svg>
