<?xml version="1.0" encoding="UTF-8" standalone="no"?>
<!DOCTYPE svg PUBLIC "-//W3C//DTD SVG 1.1//EN"
 "http://www.w3.org/Graphics/SVG/1.1/DTD/svg11.dtd">
<!-- Generated by graphviz version 2.38.0 (20140413.2041)
 -->
<!-- Title: glowEffect Pages: 1 -->
<svg width="691pt" height="56pt"
 viewBox="0.00 0.00 691.00 56.00" xmlns="http://www.w3.org/2000/svg" xmlns:xlink="http://www.w3.org/1999/xlink">
<g id="graph0" class="graph" transform="scale(1 1) rotate(0) translate(4 52)">
<title>glowEffect</title>
<polygon fill="white" stroke="none" points="-4,4 -4,-52 687,-52 687,4 -4,4"/>
<!-- Node1 -->
<g id="node1" class="node"><title>Node1</title>
<polygon fill="#bfbfbf" stroke="black" points="0,-9.5 0,-28.5 61,-28.5 61,-9.5 0,-9.5"/>
<text text-anchor="middle" x="30.5" y="-16.5" font-family="Helvetica,sans-Serif" font-size="10.00">glowEffect</text>
</g>
<!-- Node2 -->
<g id="node2" class="node"><title>Node2</title>
<g id="a_node2"><a xlink:href="navtree_8js.html#a524fa9bfd80c70bf3a84696b2077eadb" target="_top" xlink:title="highlightAnchor">
<polygon fill="white" stroke="black" points="97,-28.5 97,-47.5 180,-47.5 180,-28.5 97,-28.5"/>
<text text-anchor="middle" x="138.5" y="-35.5" font-family="Helvetica,sans-Serif" font-size="10.00">highlightAnchor</text>
</a>
</g>
</g>
<!-- Node1&#45;&gt;Node2 -->
<g id="edge1" class="edge"><title>Node1&#45;&gt;Node2</title>
<path fill="none" stroke="midnightblue" d="M70.9531,-26.0718C79.3386,-27.5748 88.209,-29.1648 96.6456,-30.677"/>
<polygon fill="midnightblue" stroke="midnightblue" points="71.4876,-22.6119 61.0269,-24.2926 70.2525,-29.5021 71.4876,-22.6119"/>
</g>
<!-- Node6 -->
<g id="node6" class="node"><title>Node6</title>
<g id="a_node6"><a xlink:href="navtree_8js.html#a21beb601032fff375100a907f32129a5" target="_top" xlink:title="navTo">
<polygon fill="white" stroke="black" points="542,-28.5 542,-47.5 583,-47.5 583,-28.5 542,-28.5"/>
<text text-anchor="middle" x="562.5" y="-35.5" font-family="Helvetica,sans-Serif" font-size="10.00">navTo</text>
</a>
</g>
</g>
<!-- Node1&#45;&gt;Node6 -->
<g id="edge8" class="edge"><title>Node1&#45;&gt;Node6</title>
<path fill="none" stroke="midnightblue" d="M71.3621,-13.7534C117.605,-8.12972 196.182,-6.59195e-015 264,-0 264,-0 264,-0 382,-0 437.754,-3.41397e-015 451.856,-5.69616 506,-19 518.165,-21.9891 531.452,-26.492 541.975,-30.364"/>
<polygon fill="midnightblue" stroke="midnightblue" points="70.6586,-10.3138 61.1649,-15.017 71.5194,-17.2606 70.6586,-10.3138"/>
</g>
<!-- Node3 -->
<g id="node3" class="node"><title>Node3</title>
<g id="a_node3"><a xlink:href="navtree_8js.html#a0dbf0d5f6126afd88420745f7d3c202d" target="_top" xlink:title="selectAndHighlight">
<polygon fill="white" stroke="black" points="216,-28.5 216,-47.5 314,-47.5 314,-28.5 216,-28.5"/>
<text text-anchor="middle" x="265" y="-35.5" font-family="Helvetica,sans-Serif" font-size="10.00">selectAndHighlight</text>
</a>
</g>
</g>
<!-- Node2&#45;&gt;Node3 -->
<g id="edge2" class="edge"><title>Node2&#45;&gt;Node3</title>
<path fill="none" stroke="midnightblue" d="M190.335,-38C198.741,-38 207.436,-38 215.776,-38"/>
<polygon fill="midnightblue" stroke="midnightblue" points="190.266,-34.5001 180.266,-38 190.266,-41.5001 190.266,-34.5001"/>
</g>
<!-- Node4 -->
<g id="node4" class="node"><title>Node4</title>
<g id="a_node4"><a xlink:href="navtree_8js.html#a0238ad48be94f9f5fd305ea40b8f64ab" target="_top" xlink:title="showNode">
<polygon fill="white" stroke="black" points="350,-28.5 350,-47.5 412,-47.5 412,-28.5 350,-28.5"/>
<text text-anchor="middle" x="381" y="-35.5" font-family="Helvetica,sans-Serif" font-size="10.00">showNode</text>
</a>
</g>
</g>
<!-- Node3&#45;&gt;Node4 -->
<g id="edge3" class="edge"><title>Node3&#45;&gt;Node4</title>
<path fill="none" stroke="midnightblue" d="M324.078,-38C333.018,-38 341.923,-38 349.913,-38"/>
<polygon fill="midnightblue" stroke="midnightblue" points="324.016,-34.5001 314.016,-38 324.016,-41.5001 324.016,-34.5001"/>
</g>
<!-- Node5 -->
<g id="node5" class="node"><title>Node5</title>
<g id="a_node5"><a xlink:href="navtree_8js.html#a0e6a2d65190a43246d668bba554243e5" target="_top" xlink:title="gotoNode">
<polygon fill="white" stroke="black" points="448,-28.5 448,-47.5 506,-47.5 506,-28.5 448,-28.5"/>
<text text-anchor="middle" x="477" y="-35.5" font-family="Helvetica,sans-Serif" font-size="10.00">gotoNode</text>
</a>
</g>
</g>
<!-- Node4&#45;&gt;Node5 -->
<g id="edge4" class="edge"><title>Node4&#45;&gt;Node5</title>
<path fill="none" stroke="midnightblue" d="M422.001,-38C430.71,-38 439.748,-38 447.881,-38"/>
<polygon fill="midnightblue" stroke="midnightblue" points="422.001,-34.5001 412.001,-38 422.001,-41.5001 422.001,-34.5001"/>
</g>
<!-- Node5&#45;&gt;Node6 -->
<g id="edge5" class="edge"><title>Node5&#45;&gt;Node6</title>
<path fill="none" stroke="midnightblue" d="M516.452,-31.2688C525.284,-31.1681 534.315,-31.4725 541.949,-32.182"/>
<polygon fill="midnightblue" stroke="midnightblue" points="516.16,-27.7758 506.269,-31.573 516.369,-34.7727 516.16,-27.7758"/>
</g>
<!-- Node6&#45;&gt;Node5 -->
<g id="edge6" class="edge"><title>Node6&#45;&gt;Node5</title>
<path fill="none" stroke="midnightblue" d="M531.887,-44.4898C523.556,-44.8565 514.519,-44.8356 506.269,-44.427"/>
<polygon fill="midnightblue" stroke="midnightblue" points="532.205,-47.9765 541.949,-43.818 531.738,-40.9921 532.205,-47.9765"/>
</g>
<!-- Node7 -->
<g id="node7" class="node"><title>Node7</title>
<g id="a_node7"><a xlink:href="navtree_8js.html#aa7b3067e7ef0044572ba86240b1e58ce" target="_top" xlink:title="initNavTree">
<polygon fill="white" stroke="black" points="619,-28.5 619,-47.5 683,-47.5 683,-28.5 619,-28.5"/>
<text text-anchor="middle" x="651" y="-35.5" font-family="Helvetica,sans-Serif" font-size="10.00">initNavTree</text>
</a>
</g>
</g>
<!-- Node6&#45;&gt;Node7 -->
<g id="edge7" class="edge"><title>Node6&#45;&gt;Node7</title>
<path fill="none" stroke="midnightblue" d="M593.151,-38C601.463,-38 610.52,-38 618.913,-38"/>
<polygon fill="midnightblue" stroke="midnightblue" points="593.128,-34.5001 583.128,-38 593.128,-41.5001 593.128,-34.5001"/>
</g>
</g>
</svg>
