<?xml version="1.0" encoding="UTF-8" standalone="no"?>
<!DOCTYPE svg PUBLIC "-//W3C//DTD SVG 1.1//EN"
 "http://www.w3.org/Graphics/SVG/1.1/DTD/svg11.dtd">
<!-- Generated by graphviz version 2.38.0 (20140413.2041)
 -->
<!-- Title: navTo Pages: 1 -->
<!--zoomable 512 -->
<svg id="main" version="1.1" xmlns="http://www.w3.org/2000/svg" xmlns:xlink="http://www.w3.org/1999/xlink" xml:space="preserve" onload="init(evt)">
<style type="text/css"><![CDATA[
.edge:hover path { stroke: red; }
.edge:hover polygon { stroke: red; fill: red; }
]]></style>
<script type="text/javascript"><![CDATA[
var edges = document.getElementsByTagName('g');
if (edges && edges.length) {
  for (var i=0;i<edges.length;i++) {
    if (edges[i].id.substr(0,4)=='edge') {
      edges[i].setAttribute('class','edge');
    }
  }
}
]]></script>
        <defs>
                <circle id="rim" cx="0" cy="0" r="7"/>
                <circle id="rim2" cx="0" cy="0" r="3.5"/>
                <g id="zoomPlus">
                        <use xlink:href="#rim" fill="#404040">
                                <set attributeName="fill" to="#808080" begin="zoomplus.mouseover" end="zoomplus.mouseout"/>
                        </use>
                        <path d="M-4,0h8M0,-4v8" fill="none" stroke="white" stroke-width="1.5" pointer-events="none"/>
                </g>
                <g id="zoomMin">
                        <use xlink:href="#rim" fill="#404040">
                                <set attributeName="fill" to="#808080" begin="zoomminus.mouseover" end="zoomminus.mouseout"/>
                        </use>
                        <path d="M-4,0h8" fill="none" stroke="white" stroke-width="1.5" pointer-events="none"/>
                </g>
                <g id="dirArrow">
                        <path fill="none" stroke="white" stroke-width="1.5" d="M0,-3.0v7 M-2.5,-0.5L0,-3.0L2.5,-0.5"/>
                </g>
               <g id="resetDef">
                       <use xlink:href="#rim2" fill="#404040">
                               <set attributeName="fill" to="#808080" begin="reset.mouseover" end="reset.mouseout"/>
                       </use>
               </g>
        </defs>

<script type="text/javascript">
var viewWidth = 963;
var viewHeight = 512;
var sectionId = 'dynsection-23';
</script>
<script xlink:href="svgpan.js"/>
<svg id="graph" class="graph">
<g id="viewport">
<title>navTo</title>
<polygon fill="white" stroke="none" points="-4,4 -4,-508 959,-508 959,4 -4,4"/>
<!-- Node1 -->
<g id="node1" class="node"><title>Node1</title>
<polygon fill="#bfbfbf" stroke="black" points="0,-225.5 0,-244.5 41,-244.5 41,-225.5 0,-225.5"/>
<text text-anchor="middle" x="20.5" y="-232.5" font-family="Helvetica,sans-Serif" font-size="10.00">navTo</text>
</g>
<!-- Node2 -->
<g id="node2" class="node"><title>Node2</title>
<g id="a_node2"><a xlink:href="navtree_8js.html#aaa2d293f55e5fe3620af4f9a2836e428" target="_top" xlink:title="cachedLink">
<polygon fill="white" stroke="black" points="171,-364.5 171,-383.5 237,-383.5 237,-364.5 171,-364.5"/>
<text text-anchor="middle" x="204" y="-371.5" font-family="Helvetica,sans-Serif" font-size="10.00">cachedLink</text>
</a>
</g>
</g>
<!-- Node1&#45;&gt;Node2 -->
<g id="edge1" class="edge"><title>Node1&#45;&gt;Node2</title>
<path fill="none" stroke="midnightblue" d="M33.9752,-244.554C64.6715,-268.063 144.127,-328.913 182.141,-358.025"/>
<polygon fill="midnightblue" stroke="midnightblue" points="180.37,-361.078 190.437,-364.379 184.626,-355.52 180.37,-361.078"/>
</g>
<!-- Node4 -->
<g id="node4" class="node"><title>Node4</title>
<g id="a_node4"><a xlink:href="navtree_8js.html#a23b68d2deb28f9c2678f546e2d60e5ee" target="_top" xlink:title="glowEffect">
<polygon fill="white" stroke="black" points="551.5,-484.5 551.5,-503.5 612.5,-503.5 612.5,-484.5 551.5,-484.5"/>
<text text-anchor="middle" x="582" y="-491.5" font-family="Helvetica,sans-Serif" font-size="10.00">glowEffect</text>
</a>
</g>
</g>
<!-- Node1&#45;&gt;Node4 -->
<g id="edge3" class="edge"><title>Node1&#45;&gt;Node4</title>
<path fill="none" stroke="midnightblue" d="M23.6691,-244.706C34.3289,-289.606 85.46,-475 203,-475 203,-475 203,-475 323,-475 400.362,-475 490.42,-483.602 541.066,-489.23"/>
<polygon fill="midnightblue" stroke="midnightblue" points="540.927,-492.736 551.257,-490.382 541.713,-485.781 540.927,-492.736"/>
</g>
<!-- Node5 -->
<g id="node5" class="node"><title>Node5</title>
<g id="a_node5"><a xlink:href="navtree_8js.html#a0e6a2d65190a43246d668bba554243e5" target="_top" xlink:title="gotoNode">
<polygon fill="white" stroke="black" points="77,-225.5 77,-244.5 135,-244.5 135,-225.5 77,-225.5"/>
<text text-anchor="middle" x="106" y="-232.5" font-family="Helvetica,sans-Serif" font-size="10.00">gotoNode</text>
</a>
</g>
</g>
<!-- Node1&#45;&gt;Node5 -->
<g id="edge4" class="edge"><title>Node1&#45;&gt;Node5</title>
<path fill="none" stroke="midnightblue" d="M41.2883,-229.16C48.9142,-228.462 57.9066,-228.166 66.6941,-228.27"/>
<polygon fill="midnightblue" stroke="midnightblue" points="66.7202,-231.773 76.8217,-228.578 66.9324,-224.776 66.7202,-231.773"/>
</g>
<!-- Node7 -->
<g id="node7" class="node"><title>Node7</title>
<g id="a_node7"><a xlink:href="navtree_8js.html#a32f4aac18d03aee747b55dea195731ac" target="_top" xlink:title="getScript">
<polygon fill="white" stroke="black" points="804,-28.5 804,-47.5 860,-47.5 860,-28.5 804,-28.5"/>
<text text-anchor="middle" x="832" y="-35.5" font-family="Helvetica,sans-Serif" font-size="10.00">getScript</text>
</a>
</g>
</g>
<!-- Node1&#45;&gt;Node7 -->
<g id="edge36" class="edge"><title>Node1&#45;&gt;Node7</title>
<path fill="none" stroke="midnightblue" d="M23.7374,-225.497C34.7047,-181.532 87.0118,-0 203,-0 203,-0 203,-0 583,-0 658.48,-0 745.406,-17.4111 793.699,-28.6623"/>
<polygon fill="midnightblue" stroke="midnightblue" points="793.148,-32.1287 803.686,-31.0302 794.763,-25.3175 793.148,-32.1287"/>
</g>
<!-- Node3 -->
<g id="node3" class="node"><title>Node3</title>
<g id="a_node3"><a xlink:href="navtree_8js.html#ac49af616f532f2364be9f58280469d33" target="_top" xlink:title="localStorageSupported">
<polygon fill="white" stroke="black" points="653,-313.5 653,-332.5 768,-332.5 768,-313.5 653,-313.5"/>
<text text-anchor="middle" x="710.5" y="-320.5" font-family="Helvetica,sans-Serif" font-size="10.00">localStorageSupported</text>
</a>
</g>
</g>
<!-- Node2&#45;&gt;Node3 -->
<g id="edge2" class="edge"><title>Node2&#45;&gt;Node3</title>
<path fill="none" stroke="midnightblue" d="M237.259,-376.843C307.322,-382.182 478.262,-390.668 617,-361 639.92,-356.099 664.39,-345.799 682.401,-337.158"/>
<polygon fill="midnightblue" stroke="midnightblue" points="684.274,-340.137 691.692,-332.573 681.176,-333.86 684.274,-340.137"/>
</g>
<!-- Node5&#45;&gt;Node1 -->
<g id="edge5" class="edge"><title>Node5&#45;&gt;Node1</title>
<path fill="none" stroke="midnightblue" d="M76.8217,-241.422C68.6174,-241.832 59.6286,-241.857 51.3265,-241.499"/>
<polygon fill="midnightblue" stroke="midnightblue" points="51.4962,-238.003 41.2883,-240.84 51.0375,-244.988 51.4962,-238.003"/>
</g>
<!-- Node6 -->
<g id="node6" class="node"><title>Node6</title>
<g id="a_node6"><a xlink:href="navtree_8js.html#a0238ad48be94f9f5fd305ea40b8f64ab" target="_top" xlink:title="showNode">
<polygon fill="white" stroke="black" points="173,-178.5 173,-197.5 235,-197.5 235,-178.5 173,-178.5"/>
<text text-anchor="middle" x="204" y="-185.5" font-family="Helvetica,sans-Serif" font-size="10.00">showNode</text>
</a>
</g>
</g>
<!-- Node5&#45;&gt;Node6 -->
<g id="edge6" class="edge"><title>Node5&#45;&gt;Node6</title>
<path fill="none" stroke="midnightblue" d="M126.427,-225.489C140.129,-218.781 158.715,-209.681 174.145,-202.127"/>
<polygon fill="midnightblue" stroke="midnightblue" points="175.83,-205.199 183.272,-197.658 172.752,-198.912 175.83,-205.199"/>
</g>
<!-- Node6&#45;&gt;Node7 -->
<g id="edge7" class="edge"><title>Node6&#45;&gt;Node7</title>
<path fill="none" stroke="midnightblue" d="M211.206,-178.407C221.997,-162.409 245.695,-130.15 273,-111 345.369,-60.2464 369.608,-38 458,-38 458,-38 458,-38 583,-38 657.809,-38 745.312,-38 793.817,-38"/>
<polygon fill="midnightblue" stroke="midnightblue" points="793.844,-41.5001 803.844,-38 793.844,-34.5001 793.844,-41.5001"/>
</g>
<!-- Node10 -->
<g id="node10" class="node"><title>Node10</title>
<g id="a_node10"><a xlink:href="navtree_8js.html#a256aa4fbee866e9227f78e82e9f258bb" target="_top" xlink:title="getNode">
<polygon fill="white" stroke="black" points="295.5,-166.5 295.5,-185.5 348.5,-185.5 348.5,-166.5 295.5,-166.5"/>
<text text-anchor="middle" x="322" y="-173.5" font-family="Helvetica,sans-Serif" font-size="10.00">getNode</text>
</a>
</g>
</g>
<!-- Node6&#45;&gt;Node10 -->
<g id="edge10" class="edge"><title>Node6&#45;&gt;Node10</title>
<path fill="none" stroke="midnightblue" d="M235.175,-184.878C250.483,-183.295 269.181,-181.361 285.213,-179.702"/>
<polygon fill="midnightblue" stroke="midnightblue" points="285.713,-183.169 295.3,-178.659 284.993,-176.206 285.713,-183.169"/>
</g>
<!-- Node14 -->
<g id="node14" class="node"><title>Node14</title>
<g id="a_node14"><a xlink:href="navtree_8js.html#a4eb1f166c9d93b198e1621a4c787a412" target="_top" xlink:title="expandNode">
<polygon fill="white" stroke="black" points="675,-85.5 675,-104.5 746,-104.5 746,-85.5 675,-85.5"/>
<text text-anchor="middle" x="710.5" y="-92.5" font-family="Helvetica,sans-Serif" font-size="10.00">expandNode</text>
</a>
</g>
</g>
<!-- Node6&#45;&gt;Node14 -->
<g id="edge25" class="edge"><title>Node6&#45;&gt;Node14</title>
<path fill="none" stroke="midnightblue" d="M225.084,-178.435C238.544,-172.125 256.718,-163.801 273,-157 331.799,-132.438 344.877,-120.191 407,-106 467.882,-92.0921 484.607,-96.6691 547,-94 578.083,-92.6703 585.889,-93.8318 617,-94 632.528,-94.0839 649.521,-94.2471 664.658,-94.4177"/>
<polygon fill="midnightblue" stroke="midnightblue" points="664.76,-97.919 674.8,-94.5361 664.841,-90.9195 664.76,-97.919"/>
</g>
<!-- Node15 -->
<g id="node15" class="node"><title>Node15</title>
<g id="a_node15"><a xlink:href="navtree_8js.html#a9336c21407bb7ced644331eb7a2a6e35" target="_top" xlink:title="stripPath">
<polygon fill="white" stroke="black" points="554,-294.5 554,-313.5 610,-313.5 610,-294.5 554,-294.5"/>
<text text-anchor="middle" x="582" y="-301.5" font-family="Helvetica,sans-Serif" font-size="10.00">stripPath</text>
</a>
</g>
</g>
<!-- Node6&#45;&gt;Node15 -->
<g id="edge24" class="edge"><title>Node6&#45;&gt;Node15</title>
<path fill="none" stroke="midnightblue" d="M208.63,-197.768C216.706,-217.971 238.231,-264.201 273,-285 358.618,-336.219 482.658,-322.974 543.913,-311.949"/>
<polygon fill="midnightblue" stroke="midnightblue" points="544.714,-315.36 553.894,-310.071 543.419,-308.481 544.714,-315.36"/>
</g>
<!-- Node19 -->
<g id="node19" class="node"><title>Node19</title>
<g id="a_node19"><a xlink:href="navtree_8js.html#a0dbf0d5f6126afd88420745f7d3c202d" target="_top" xlink:title="selectAndHighlight">
<polygon fill="white" stroke="black" points="273,-256.5 273,-275.5 371,-275.5 371,-256.5 273,-256.5"/>
<text text-anchor="middle" x="322" y="-263.5" font-family="Helvetica,sans-Serif" font-size="10.00">selectAndHighlight</text>
</a>
</g>
</g>
<!-- Node6&#45;&gt;Node19 -->
<g id="edge26" class="edge"><title>Node6&#45;&gt;Node19</title>
<path fill="none" stroke="midnightblue" d="M219.224,-197.564C238.965,-210.839 274.883,-234.991 298.34,-250.763"/>
<polygon fill="midnightblue" stroke="midnightblue" points="296.408,-253.682 306.66,-256.357 300.314,-247.873 296.408,-253.682"/>
</g>
<!-- Node8 -->
<g id="node8" class="node"><title>Node8</title>
<g id="a_node8"><a xlink:href="svgpan_8js.html#aa8d9f2083cafa2af98efafed94901079" target="_top" xlink:title="show">
<polygon fill="white" stroke="black" points="906,-47.5 906,-66.5 945,-66.5 945,-47.5 906,-47.5"/>
<text text-anchor="middle" x="925.5" y="-54.5" font-family="Helvetica,sans-Serif" font-size="10.00">show</text>
</a>
</g>
</g>
<!-- Node7&#45;&gt;Node8 -->
<g id="edge8" class="edge"><title>Node7&#45;&gt;Node8</title>
<path fill="none" stroke="midnightblue" d="M860.453,-43.7006C871.657,-46.0272 884.614,-48.7177 895.931,-51.0676"/>
<polygon fill="midnightblue" stroke="midnightblue" points="895.262,-54.5033 905.765,-53.1096 896.685,-47.6495 895.262,-54.5033"/>
</g>
<!-- Node9 -->
<g id="node9" class="node"><title>Node9</title>
<g id="a_node9"><a xlink:href="navtree_8js.html#af98a8e3534da945399ea20870c0f3e92" target="_top" xlink:title="showRoot">
<polygon fill="white" stroke="black" points="896,-104.5 896,-123.5 955,-123.5 955,-104.5 896,-104.5"/>
<text text-anchor="middle" x="925.5" y="-111.5" font-family="Helvetica,sans-Serif" font-size="10.00">showRoot</text>
</a>
</g>
</g>
<!-- Node7&#45;&gt;Node9 -->
<g id="edge9" class="edge"><title>Node7&#45;&gt;Node9</title>
<path fill="none" stroke="midnightblue" d="M844.589,-47.6255C859.851,-60.3028 886.9,-82.7691 905.256,-98.0163"/>
<polygon fill="midnightblue" stroke="midnightblue" points="903.077,-100.756 913.006,-104.453 907.549,-95.3708 903.077,-100.756"/>
</g>
<!-- Node11 -->
<g id="node11" class="node"><title>Node11</title>
<g id="a_node11"><a xlink:href="navtree_8js.html#aa78016020f40c28356aefd325cd4df74" target="_top" xlink:title="removeToInsertLater">
<polygon fill="white" stroke="black" points="407,-142.5 407,-161.5 511,-161.5 511,-142.5 407,-142.5"/>
<text text-anchor="middle" x="459" y="-149.5" font-family="Helvetica,sans-Serif" font-size="10.00">removeToInsertLater</text>
</a>
</g>
</g>
<!-- Node10&#45;&gt;Node11 -->
<g id="edge11" class="edge"><title>Node10&#45;&gt;Node11</title>
<path fill="none" stroke="midnightblue" d="M348.71,-171.429C362.46,-168.985 380.023,-165.863 397.028,-162.839"/>
<polygon fill="midnightblue" stroke="midnightblue" points="397.711,-166.273 406.943,-161.077 396.485,-159.381 397.711,-166.273"/>
</g>
<!-- Node12 -->
<g id="node12" class="node"><title>Node12</title>
<g id="a_node12"><a xlink:href="navtree_8js.html#aa2418b16159e9502e990f97ea6ec26c8" target="_top" xlink:title="newNode">
<polygon fill="white" stroke="black" points="431,-218.5 431,-237.5 487,-237.5 487,-218.5 431,-218.5"/>
<text text-anchor="middle" x="459" y="-225.5" font-family="Helvetica,sans-Serif" font-size="10.00">newNode</text>
</a>
</g>
</g>
<!-- Node10&#45;&gt;Node12 -->
<g id="edge12" class="edge"><title>Node10&#45;&gt;Node12</title>
<path fill="none" stroke="midnightblue" d="M347.761,-185.538C368.941,-193.696 399.659,-205.528 423.292,-214.631"/>
<polygon fill="midnightblue" stroke="midnightblue" points="422.349,-218.018 432.939,-218.347 424.865,-211.486 422.349,-218.018"/>
</g>
<!-- Node13 -->
<g id="node13" class="node"><title>Node13</title>
<g id="a_node13"><a xlink:href="navtree_8js.html#a4d8f406d49520a0cede2e48347a3d7aa" target="_top" xlink:title="createIndent">
<polygon fill="white" stroke="black" points="547,-142.5 547,-161.5 617,-161.5 617,-142.5 547,-142.5"/>
<text text-anchor="middle" x="582" y="-149.5" font-family="Helvetica,sans-Serif" font-size="10.00">createIndent</text>
</a>
</g>
</g>
<!-- Node12&#45;&gt;Node13 -->
<g id="edge13" class="edge"><title>Node12&#45;&gt;Node13</title>
<path fill="none" stroke="midnightblue" d="M475.325,-218.375C495.963,-205.412 532.896,-182.214 557.175,-166.965"/>
<polygon fill="midnightblue" stroke="midnightblue" points="559.193,-169.83 565.8,-161.547 555.47,-163.902 559.193,-169.83"/>
</g>
<!-- Node12&#45;&gt;Node15 -->
<g id="edge19" class="edge"><title>Node12&#45;&gt;Node15</title>
<path fill="none" stroke="midnightblue" d="M473.97,-237.59C490.996,-249.176 520.747,-269.091 547,-285 549.358,-286.429 551.828,-287.885 554.314,-289.323"/>
<polygon fill="midnightblue" stroke="midnightblue" points="552.792,-292.484 563.217,-294.372 556.245,-286.395 552.792,-292.484"/>
</g>
<!-- Node16 -->
<g id="node16" class="node"><title>Node16</title>
<g id="a_node16"><a xlink:href="navtree_8js.html#a364b3f4132309fa9aae78585cf2cb772" target="_top" xlink:title="pathName">
<polygon fill="white" stroke="black" points="551.5,-256.5 551.5,-275.5 612.5,-275.5 612.5,-256.5 551.5,-256.5"/>
<text text-anchor="middle" x="582" y="-263.5" font-family="Helvetica,sans-Serif" font-size="10.00">pathName</text>
</a>
</g>
</g>
<!-- Node12&#45;&gt;Node16 -->
<g id="edge20" class="edge"><title>Node12&#45;&gt;Node16</title>
<path fill="none" stroke="midnightblue" d="M487.155,-236.528C503.263,-241.587 523.958,-248.086 541.814,-253.694"/>
<polygon fill="midnightblue" stroke="midnightblue" points="540.805,-257.045 551.394,-256.702 542.902,-250.367 540.805,-257.045"/>
</g>
<!-- Node17 -->
<g id="node17" class="node"><title>Node17</title>
<g id="a_node17"><a xlink:href="navtree_8js.html#ade730323aadb971c053136b7758c9dce" target="_top" xlink:title="storeLink">
<polygon fill="white" stroke="black" points="554,-218.5 554,-237.5 610,-237.5 610,-218.5 554,-218.5"/>
<text text-anchor="middle" x="582" y="-225.5" font-family="Helvetica,sans-Serif" font-size="10.00">storeLink</text>
</a>
</g>
</g>
<!-- Node12&#45;&gt;Node17 -->
<g id="edge21" class="edge"><title>Node12&#45;&gt;Node17</title>
<path fill="none" stroke="midnightblue" d="M487.155,-228C503.891,-228 525.578,-228 543.887,-228"/>
<polygon fill="midnightblue" stroke="midnightblue" points="543.936,-231.5 553.936,-228 543.936,-224.5 543.936,-231.5"/>
</g>
<!-- Node18 -->
<g id="node18" class="node"><title>Node18</title>
<g id="a_node18"><a xlink:href="navtree_8js.html#aee1fc3771eeb15da54962a03da1f3c11" target="_top" xlink:title="gotoAnchor">
<polygon fill="white" stroke="black" points="549,-332.5 549,-351.5 615,-351.5 615,-332.5 549,-332.5"/>
<text text-anchor="middle" x="582" y="-339.5" font-family="Helvetica,sans-Serif" font-size="10.00">gotoAnchor</text>
</a>
</g>
</g>
<!-- Node12&#45;&gt;Node18 -->
<g id="edge23" class="edge"><title>Node12&#45;&gt;Node18</title>
<path fill="none" stroke="midnightblue" d="M467.064,-237.562C480.893,-255.821 513.154,-296.215 547,-323 548.766,-324.398 550.649,-325.754 552.587,-327.055"/>
<polygon fill="midnightblue" stroke="midnightblue" points="550.901,-330.127 561.256,-332.368 554.559,-324.158 550.901,-330.127"/>
</g>
<!-- Node13&#45;&gt;Node14 -->
<g id="edge14" class="edge"><title>Node13&#45;&gt;Node14</title>
<path fill="none" stroke="midnightblue" d="M604.173,-142.459C624.606,-133.253 655.759,-119.215 678.89,-108.793"/>
<polygon fill="midnightblue" stroke="midnightblue" points="680.578,-111.871 688.258,-104.572 677.703,-105.489 680.578,-111.871"/>
</g>
<!-- Node14&#45;&gt;Node7 -->
<g id="edge15" class="edge"><title>Node14&#45;&gt;Node7</title>
<path fill="none" stroke="midnightblue" d="M731.502,-85.4595C750.717,-76.2939 779.97,-62.3405 801.791,-51.9324"/>
<polygon fill="midnightblue" stroke="midnightblue" points="803.414,-55.0359 810.933,-47.5716 800.4,-48.7179 803.414,-55.0359"/>
</g>
<!-- Node14&#45;&gt;Node8 -->
<g id="edge18" class="edge"><title>Node14&#45;&gt;Node8</title>
<path fill="none" stroke="midnightblue" d="M746.196,-88.8101C787.896,-81.3706 857.088,-69.0266 895.877,-62.1064"/>
<polygon fill="midnightblue" stroke="midnightblue" points="896.734,-65.5089 905.964,-60.3069 895.504,-58.6177 896.734,-65.5089"/>
</g>
<!-- Node14&#45;&gt;Node9 -->
<g id="edge16" class="edge"><title>Node14&#45;&gt;Node9</title>
<path fill="none" stroke="midnightblue" d="M746.196,-98.095C784.504,-101.512 846.011,-106.999 885.837,-110.551"/>
<polygon fill="midnightblue" stroke="midnightblue" points="885.691,-114.052 895.962,-111.454 886.313,-107.08 885.691,-114.052"/>
</g>
<!-- Node14&#45;&gt;Node10 -->
<g id="edge17" class="edge"><title>Node14&#45;&gt;Node10</title>
<path fill="none" stroke="midnightblue" d="M674.659,-95.4772C617.509,-97.1157 500.828,-104.074 407,-133 385.537,-139.617 362.972,-151.479 346.64,-161.07"/>
<polygon fill="midnightblue" stroke="midnightblue" points="344.558,-158.238 337.8,-166.398 348.172,-164.233 344.558,-158.238"/>
</g>
<!-- Node17&#45;&gt;Node3 -->
<g id="edge22" class="edge"><title>Node17&#45;&gt;Node3</title>
<path fill="none" stroke="midnightblue" d="M601.712,-237.672C606.783,-240.503 612.196,-243.723 617,-247 644.396,-265.69 673.576,-290.607 691.673,-306.727"/>
<polygon fill="midnightblue" stroke="midnightblue" points="689.386,-309.377 699.162,-313.461 694.066,-304.172 689.386,-309.377"/>
</g>
<!-- Node19&#45;&gt;Node9 -->
<g id="edge35" class="edge"><title>Node19&#45;&gt;Node9</title>
<path fill="none" stroke="midnightblue" d="M333.443,-256.366C348.448,-243.157 377.558,-219.83 407,-209 480.01,-182.144 503.207,-190 581,-190 581,-190 581,-190 711.5,-190 783.528,-190 861.707,-150.971 900.232,-128.851"/>
<polygon fill="midnightblue" stroke="midnightblue" points="902.288,-131.703 909.144,-123.625 898.747,-125.664 902.288,-131.703"/>
</g>
<!-- Node19&#45;&gt;Node15 -->
<g id="edge27" class="edge"><title>Node19&#45;&gt;Node15</title>
<path fill="none" stroke="midnightblue" d="M371.38,-274.302C383.034,-276.236 395.453,-278.242 407,-280 453.991,-287.155 508.267,-294.495 543.535,-299.142"/>
<polygon fill="midnightblue" stroke="midnightblue" points="543.47,-302.663 553.841,-300.494 544.381,-295.723 543.47,-302.663"/>
</g>
<!-- Node19&#45;&gt;Node16 -->
<g id="edge28" class="edge"><title>Node19&#45;&gt;Node16</title>
<path fill="none" stroke="midnightblue" d="M371.225,-266C420.342,-266 495.602,-266 541.363,-266"/>
<polygon fill="midnightblue" stroke="midnightblue" points="541.494,-269.5 551.494,-266 541.494,-262.5 541.494,-269.5"/>
</g>
<!-- Node20 -->
<g id="node20" class="node"><title>Node20</title>
<g id="a_node20"><a xlink:href="navtree_8js.html#a524fa9bfd80c70bf3a84696b2077eadb" target="_top" xlink:title="highlightAnchor">
<polygon fill="white" stroke="black" points="417.5,-408.5 417.5,-427.5 500.5,-427.5 500.5,-408.5 417.5,-408.5"/>
<text text-anchor="middle" x="459" y="-415.5" font-family="Helvetica,sans-Serif" font-size="10.00">highlightAnchor</text>
</a>
</g>
</g>
<!-- Node19&#45;&gt;Node20 -->
<g id="edge29" class="edge"><title>Node19&#45;&gt;Node20</title>
<path fill="none" stroke="midnightblue" d="M331.445,-275.508C353.7,-300.566 414.2,-368.684 442.727,-400.804"/>
<polygon fill="midnightblue" stroke="midnightblue" points="440.301,-403.343 449.558,-408.495 445.535,-398.694 440.301,-403.343"/>
</g>
<!-- Node20&#45;&gt;Node4 -->
<g id="edge33" class="edge"><title>Node20&#45;&gt;Node4</title>
<path fill="none" stroke="midnightblue" d="M475.325,-427.625C495.963,-440.588 532.896,-463.786 557.175,-479.035"/>
<polygon fill="midnightblue" stroke="midnightblue" points="555.47,-482.098 565.8,-484.453 559.193,-476.17 555.47,-482.098"/>
</g>
<!-- Node20&#45;&gt;Node18 -->
<g id="edge34" class="edge"><title>Node20&#45;&gt;Node18</title>
<path fill="none" stroke="midnightblue" d="M475.325,-408.375C495.963,-395.412 532.896,-372.214 557.175,-356.965"/>
<polygon fill="midnightblue" stroke="midnightblue" points="559.193,-359.83 565.8,-351.547 555.47,-353.902 559.193,-359.83"/>
</g>
<!-- Node21 -->
<g id="node21" class="node"><title>Node21</title>
<g id="a_node21"><a xlink:href="navtree_8js.html#a20695277530a1a04eef8d289177a5e40" target="_top" xlink:title="hashUrl">
<polygon fill="white" stroke="black" points="557,-408.5 557,-427.5 607,-427.5 607,-408.5 557,-408.5"/>
<text text-anchor="middle" x="582" y="-415.5" font-family="Helvetica,sans-Serif" font-size="10.00">hashUrl</text>
</a>
</g>
</g>
<!-- Node20&#45;&gt;Node21 -->
<g id="edge30" class="edge"><title>Node20&#45;&gt;Node21</title>
<path fill="none" stroke="midnightblue" d="M500.628,-418C515.509,-418 532.195,-418 546.49,-418"/>
<polygon fill="midnightblue" stroke="midnightblue" points="546.886,-421.5 556.886,-418 546.886,-414.5 546.886,-421.5"/>
</g>
<!-- Node22 -->
<g id="node22" class="node"><title>Node22</title>
<g id="a_node22"><a xlink:href="navtree_8js.html#aaeb20639619e1371c030d36a7109b27b" target="_top" xlink:title="hashValue">
<polygon fill="white" stroke="black" points="679.5,-427.5 679.5,-446.5 741.5,-446.5 741.5,-427.5 679.5,-427.5"/>
<text text-anchor="middle" x="710.5" y="-434.5" font-family="Helvetica,sans-Serif" font-size="10.00">hashValue</text>
</a>
</g>
</g>
<!-- Node20&#45;&gt;Node22 -->
<g id="edge32" class="edge"><title>Node20&#45;&gt;Node22</title>
<path fill="none" stroke="midnightblue" d="M495.273,-427.508C510.98,-431.273 529.785,-435.142 547,-437 588.508,-441.48 636.328,-440.78 669.293,-439.393"/>
<polygon fill="midnightblue" stroke="midnightblue" points="669.619,-442.881 679.446,-438.924 669.296,-435.889 669.619,-442.881"/>
</g>
<!-- Node21&#45;&gt;Node22 -->
<g id="edge31" class="edge"><title>Node21&#45;&gt;Node22</title>
<path fill="none" stroke="midnightblue" d="M607.091,-421.618C624.63,-424.253 648.792,-427.882 669.242,-430.953"/>
<polygon fill="midnightblue" stroke="midnightblue" points="668.83,-434.431 679.239,-432.455 669.87,-427.508 668.83,-434.431"/>
</g>
</g>
</svg>
        <g id="navigator" transform="translate(0 0)" fill="#404254">
                <rect fill="#f2f5e9" fill-opacity="0.5" stroke="#606060" stroke-width=".5" x="0" y="0" width="60" height="60"/>
                <use id="zoomplus" xlink:href="#zoomPlus" x="17" y="9" onmousedown="handleZoom(evt,'in')"/>
                <use id="zoomminus" xlink:href="#zoomMin" x="42" y="9" onmousedown="handleZoom(evt,'out')"/>
                <use id="reset" xlink:href="#resetDef" x="30" y="36" onmousedown="handleReset()"/>
                <g id="arrowUp" xlink:href="#dirArrow" transform="translate(30 24)" onmousedown="handlePan(0,-1)">
                  <use xlink:href="#rim" fill="#404040">
                        <set attributeName="fill" to="#808080" begin="arrowUp.mouseover" end="arrowUp.mouseout"/>
                  </use>
                  <path fill="none" stroke="white" stroke-width="1.5" d="M0,-3.0v7 M-2.5,-0.5L0,-3.0L2.5,-0.5"/>
                </g>
                <g id="arrowRight" xlink:href="#dirArrow" transform="rotate(90) translate(36 -43)" onmousedown="handlePan(1,0)">
                  <use xlink:href="#rim" fill="#404040">
                        <set attributeName="fill" to="#808080" begin="arrowRight.mouseover" end="arrowRight.mouseout"/>
                  </use>
                  <path fill="none" stroke="white" stroke-width="1.5" d="M0,-3.0v7 M-2.5,-0.5L0,-3.0L2.5,-0.5"/>
                </g>
                <g id="arrowDown" xlink:href="#dirArrow" transform="rotate(180) translate(-30 -48)" onmousedown="handlePan(0,1)">
                  <use xlink:href="#rim" fill="#404040">
                        <set attributeName="fill" to="#808080" begin="arrowDown.mouseover" end="arrowDown.mouseout"/>
                  </use>
                  <path fill="none" stroke="white" stroke-width="1.5" d="M0,-3.0v7 M-2.5,-0.5L0,-3.0L2.5,-0.5"/>
                </g>
                <g id="arrowLeft" xlink:href="#dirArrow" transform="rotate(270) translate(-36 17)" onmousedown="handlePan(-1,0)">
                  <use xlink:href="#rim" fill="#404040">
                        <set attributeName="fill" to="#808080" begin="arrowLeft.mouseover" end="arrowLeft.mouseout"/>
                  </use>
                  <path fill="none" stroke="white" stroke-width="1.5" d="M0,-3.0v7 M-2.5,-0.5L0,-3.0L2.5,-0.5"/>
                </g>
        </g>
        <svg viewBox="0 0 15 15" width="100%" height="30px" preserveAspectRatio="xMaxYMin meet">
         <g id="arrow_out" transform="scale(0.3 0.3)">
          <a xlink:href="navtree_8js_a21beb601032fff375100a907f32129a5_cgraph_org.svg" target="_base">
           <rect id="button" ry="5" rx="5" y="6" x="6" height="38" width="38"
                fill="#f2f5e9" fill-opacity="0.5" stroke="#606060" stroke-width="1.0"/>
           <path id="arrow"
             d="M 11.500037,31.436501 C 11.940474,20.09759 22.043105,11.32322 32.158766,21.979434 L 37.068811,17.246167 C 37.068811,17.246167 37.088388,32 37.088388,32 L 22.160133,31.978069 C 22.160133,31.978069 26.997745,27.140456 26.997745,27.140456 C 18.528582,18.264221 13.291696,25.230495 11.500037,31.436501 z"
             style="fill:#404040;"/>
          </a>
         </g>
        </svg>
</svg>
