<?xml version="1.0" encoding="UTF-8" standalone="no"?>
<!DOCTYPE svg PUBLIC "-//W3C//DTD SVG 1.1//EN"
 "http://www.w3.org/Graphics/SVG/1.1/DTD/svg11.dtd">
<!-- Generated by graphviz version 2.38.0 (20140413.2041)
 -->
<!-- Title: localStorageSupported Pages: 1 -->
<svg width="931pt" height="208pt"
 viewBox="0.00 0.00 931.00 208.00" xmlns="http://www.w3.org/2000/svg" xmlns:xlink="http://www.w3.org/1999/xlink">
<g id="graph0" class="graph" transform="scale(1 1) rotate(0) translate(4 204)">
<title>localStorageSupported</title>
<polygon fill="white" stroke="none" points="-4,4 -4,-204 927,-204 927,4 -4,4"/>
<!-- Node1 -->
<g id="node1" class="node"><title>Node1</title>
<polygon fill="#bfbfbf" stroke="black" points="0,-57.5 0,-76.5 115,-76.5 115,-57.5 0,-57.5"/>
<text text-anchor="middle" x="57.5" y="-64.5" font-family="Helvetica,sans-Serif" font-size="10.00">localStorageSupported</text>
</g>
<!-- Node2 -->
<g id="node2" class="node"><title>Node2</title>
<g id="a_node2"><a xlink:href="navtree_8js.html#ade730323aadb971c053136b7758c9dce" target="_top" xlink:title="storeLink">
<polygon fill="white" stroke="black" points="153.5,-95.5 153.5,-114.5 209.5,-114.5 209.5,-95.5 153.5,-95.5"/>
<text text-anchor="middle" x="181.5" y="-102.5" font-family="Helvetica,sans-Serif" font-size="10.00">storeLink</text>
</a>
</g>
</g>
<!-- Node1&#45;&gt;Node2 -->
<g id="edge1" class="edge"><title>Node1&#45;&gt;Node2</title>
<path fill="none" stroke="midnightblue" d="M98.9191,-79.5895C116.839,-85.1712 137.444,-91.589 153.462,-96.5784"/>
<polygon fill="midnightblue" stroke="midnightblue" points="99.8742,-76.2213 89.2858,-76.589 97.7925,-82.9046 99.8742,-76.2213"/>
</g>
<!-- Node10 -->
<g id="node10" class="node"><title>Node10</title>
<g id="a_node10"><a xlink:href="navtree_8js.html#aa7b3067e7ef0044572ba86240b1e58ce" target="_top" xlink:title="initNavTree">
<polygon fill="white" stroke="black" points="859,-57.5 859,-76.5 923,-76.5 923,-57.5 859,-57.5"/>
<text text-anchor="middle" x="891" y="-64.5" font-family="Helvetica,sans-Serif" font-size="10.00">initNavTree</text>
</a>
</g>
</g>
<!-- Node1&#45;&gt;Node10 -->
<g id="edge20" class="edge"><title>Node1&#45;&gt;Node10</title>
<path fill="none" stroke="midnightblue" d="M125.096,-58.7526C172.195,-53.6241 236.87,-48 294,-48 294,-48 294,-48 714,-48 765.017,-48 823.874,-55.989 858.953,-61.6062"/>
<polygon fill="midnightblue" stroke="midnightblue" points="124.575,-55.2888 115.023,-59.871 125.348,-62.2461 124.575,-55.2888"/>
</g>
<!-- Node12 -->
<g id="node12" class="node"><title>Node12</title>
<g id="a_node12"><a xlink:href="navtree_8js.html#abdf8e0e69c89803c1b84784a13b7fd2e" target="_top" xlink:title="deleteLink">
<polygon fill="white" stroke="black" points="151,-133.5 151,-152.5 212,-152.5 212,-133.5 151,-133.5"/>
<text text-anchor="middle" x="181.5" y="-140.5" font-family="Helvetica,sans-Serif" font-size="10.00">deleteLink</text>
</a>
</g>
</g>
<!-- Node1&#45;&gt;Node12 -->
<g id="edge15" class="edge"><title>Node1&#45;&gt;Node12</title>
<path fill="none" stroke="midnightblue" d="M82.6702,-82.0568C107.2,-97.338 144.431,-120.531 165.174,-133.453"/>
<polygon fill="midnightblue" stroke="midnightblue" points="84.2898,-78.9422 73.9514,-76.6255 80.5886,-84.8837 84.2898,-78.9422"/>
</g>
<!-- Node13 -->
<g id="node13" class="node"><title>Node13</title>
<g id="a_node13"><a xlink:href="navtree_8js.html#aaa2d293f55e5fe3620af4f9a2836e428" target="_top" xlink:title="cachedLink">
<polygon fill="white" stroke="black" points="680,-0.5 680,-19.5 746,-19.5 746,-0.5 680,-0.5"/>
<text text-anchor="middle" x="713" y="-7.5" font-family="Helvetica,sans-Serif" font-size="10.00">cachedLink</text>
</a>
</g>
</g>
<!-- Node1&#45;&gt;Node13 -->
<g id="edge17" class="edge"><title>Node1&#45;&gt;Node13</title>
<path fill="none" stroke="midnightblue" d="M91.2954,-53.8302C136.25,-36.9952 219.89,-10 294,-10 294,-10 294,-10 503.5,-10 565.941,-10 638.902,-10 679.854,-10"/>
<polygon fill="midnightblue" stroke="midnightblue" points="89.8764,-50.6254 81.7803,-57.4595 92.3711,-57.1658 89.8764,-50.6254"/>
</g>
<!-- Node3 -->
<g id="node3" class="node"><title>Node3</title>
<g id="a_node3"><a xlink:href="navtree_8js.html#aa2418b16159e9502e990f97ea6ec26c8" target="_top" xlink:title="newNode">
<polygon fill="white" stroke="black" points="267,-95.5 267,-114.5 323,-114.5 323,-95.5 267,-95.5"/>
<text text-anchor="middle" x="295" y="-102.5" font-family="Helvetica,sans-Serif" font-size="10.00">newNode</text>
</a>
</g>
</g>
<!-- Node2&#45;&gt;Node3 -->
<g id="edge2" class="edge"><title>Node2&#45;&gt;Node3</title>
<path fill="none" stroke="midnightblue" d="M219.955,-105C235.23,-105 252.564,-105 266.619,-105"/>
<polygon fill="midnightblue" stroke="midnightblue" points="219.776,-101.5 209.776,-105 219.776,-108.5 219.776,-101.5"/>
</g>
<!-- Node11 -->
<g id="node11" class="node"><title>Node11</title>
<g id="a_node11"><a xlink:href="navtree_8js.html#a646cb31d83b39aafec92e0e1d123563a" target="_top" xlink:title="toggleSyncButton">
<polygon fill="white" stroke="black" points="248,-133.5 248,-152.5 342,-152.5 342,-133.5 248,-133.5"/>
<text text-anchor="middle" x="295" y="-140.5" font-family="Helvetica,sans-Serif" font-size="10.00">toggleSyncButton</text>
</a>
</g>
</g>
<!-- Node2&#45;&gt;Node11 -->
<g id="edge13" class="edge"><title>Node2&#45;&gt;Node11</title>
<path fill="none" stroke="midnightblue" d="M219.365,-117.564C234.502,-122.723 251.745,-128.599 265.841,-133.403"/>
<polygon fill="midnightblue" stroke="midnightblue" points="220.37,-114.209 209.776,-114.296 218.112,-120.835 220.37,-114.209"/>
</g>
<!-- Node4 -->
<g id="node4" class="node"><title>Node4</title>
<g id="a_node4"><a xlink:href="navtree_8js.html#a256aa4fbee866e9227f78e82e9f258bb" target="_top" xlink:title="getNode">
<polygon fill="white" stroke="black" points="378,-95.5 378,-114.5 431,-114.5 431,-95.5 378,-95.5"/>
<text text-anchor="middle" x="404.5" y="-102.5" font-family="Helvetica,sans-Serif" font-size="10.00">getNode</text>
</a>
</g>
</g>
<!-- Node3&#45;&gt;Node4 -->
<g id="edge3" class="edge"><title>Node3&#45;&gt;Node4</title>
<path fill="none" stroke="midnightblue" d="M333.427,-105C348.105,-105 364.578,-105 377.862,-105"/>
<polygon fill="midnightblue" stroke="midnightblue" points="333.127,-101.5 323.127,-105 333.127,-108.5 333.127,-101.5"/>
</g>
<!-- Node5 -->
<g id="node5" class="node"><title>Node5</title>
<g id="a_node5"><a xlink:href="navtree_8js.html#a4eb1f166c9d93b198e1621a4c787a412" target="_top" xlink:title="expandNode">
<polygon fill="white" stroke="black" points="467,-114.5 467,-133.5 538,-133.5 538,-114.5 467,-114.5"/>
<text text-anchor="middle" x="502.5" y="-121.5" font-family="Helvetica,sans-Serif" font-size="10.00">expandNode</text>
</a>
</g>
</g>
<!-- Node4&#45;&gt;Node5 -->
<g id="edge4" class="edge"><title>Node4&#45;&gt;Node5</title>
<path fill="none" stroke="midnightblue" d="M441.084,-112.043C449.446,-113.698 458.348,-115.459 466.676,-117.108"/>
<polygon fill="midnightblue" stroke="midnightblue" points="441.716,-108.6 431.226,-110.092 440.356,-115.467 441.716,-108.6"/>
</g>
<!-- Node7 -->
<g id="node7" class="node"><title>Node7</title>
<g id="a_node7"><a xlink:href="navtree_8js.html#a0238ad48be94f9f5fd305ea40b8f64ab" target="_top" xlink:title="showNode">
<polygon fill="white" stroke="black" points="578,-76.5 578,-95.5 640,-95.5 640,-76.5 578,-76.5"/>
<text text-anchor="middle" x="609" y="-83.5" font-family="Helvetica,sans-Serif" font-size="10.00">showNode</text>
</a>
</g>
</g>
<!-- Node4&#45;&gt;Node7 -->
<g id="edge12" class="edge"><title>Node4&#45;&gt;Node7</title>
<path fill="none" stroke="midnightblue" d="M441.476,-101.624C480.342,-97.9778 541.572,-92.2328 577.957,-88.8189"/>
<polygon fill="midnightblue" stroke="midnightblue" points="440.776,-98.1747 431.147,-102.594 441.43,-105.144 440.776,-98.1747"/>
</g>
<!-- Node6 -->
<g id="node6" class="node"><title>Node6</title>
<g id="a_node6"><a xlink:href="navtree_8js.html#a4d8f406d49520a0cede2e48347a3d7aa" target="_top" xlink:title="createIndent">
<polygon fill="white" stroke="black" points="574,-133.5 574,-152.5 644,-152.5 644,-133.5 574,-133.5"/>
<text text-anchor="middle" x="609" y="-140.5" font-family="Helvetica,sans-Serif" font-size="10.00">createIndent</text>
</a>
</g>
</g>
<!-- Node5&#45;&gt;Node6 -->
<g id="edge5" class="edge"><title>Node5&#45;&gt;Node6</title>
<path fill="none" stroke="midnightblue" d="M547.99,-132.089C556.658,-133.665 565.618,-135.294 573.886,-136.797"/>
<polygon fill="midnightblue" stroke="midnightblue" points="548.472,-128.619 538.007,-130.274 547.219,-135.506 548.472,-128.619"/>
</g>
<!-- Node5&#45;&gt;Node7 -->
<g id="edge7" class="edge"><title>Node5&#45;&gt;Node7</title>
<path fill="none" stroke="midnightblue" d="M539.574,-110.882C553.396,-105.856 568.893,-100.221 581.639,-95.5859"/>
<polygon fill="midnightblue" stroke="midnightblue" points="538.072,-107.704 529.87,-114.411 540.464,-114.283 538.072,-107.704"/>
</g>
<!-- Node6&#45;&gt;Node3 -->
<g id="edge6" class="edge"><title>Node6&#45;&gt;Node3</title>
<path fill="none" stroke="midnightblue" d="M563.778,-145.376C535.929,-146.285 499.271,-146.406 467,-143 426.777,-138.754 417.481,-132.788 378,-124 359.742,-119.936 339.242,-115.186 323.306,-111.452"/>
<polygon fill="midnightblue" stroke="midnightblue" points="564.129,-148.865 573.992,-144.995 563.868,-141.87 564.129,-148.865"/>
</g>
<!-- Node8 -->
<g id="node8" class="node"><title>Node8</title>
<g id="a_node8"><a xlink:href="navtree_8js.html#a0e6a2d65190a43246d668bba554243e5" target="_top" xlink:title="gotoNode">
<polygon fill="white" stroke="black" points="684,-76.5 684,-95.5 742,-95.5 742,-76.5 684,-76.5"/>
<text text-anchor="middle" x="713" y="-83.5" font-family="Helvetica,sans-Serif" font-size="10.00">gotoNode</text>
</a>
</g>
</g>
<!-- Node7&#45;&gt;Node8 -->
<g id="edge8" class="edge"><title>Node7&#45;&gt;Node8</title>
<path fill="none" stroke="midnightblue" d="M650.148,-86C661.442,-86 673.482,-86 683.909,-86"/>
<polygon fill="midnightblue" stroke="midnightblue" points="650.052,-82.5001 640.052,-86 650.052,-89.5001 650.052,-82.5001"/>
</g>
<!-- Node9 -->
<g id="node9" class="node"><title>Node9</title>
<g id="a_node9"><a xlink:href="navtree_8js.html#a21beb601032fff375100a907f32129a5" target="_top" xlink:title="navTo">
<polygon fill="white" stroke="black" points="782,-76.5 782,-95.5 823,-95.5 823,-76.5 782,-76.5"/>
<text text-anchor="middle" x="802.5" y="-83.5" font-family="Helvetica,sans-Serif" font-size="10.00">navTo</text>
</a>
</g>
</g>
<!-- Node8&#45;&gt;Node9 -->
<g id="edge9" class="edge"><title>Node8&#45;&gt;Node9</title>
<path fill="none" stroke="midnightblue" d="M752.219,-79.2982C762.494,-79.1183 773.183,-79.442 781.969,-80.2694"/>
<polygon fill="midnightblue" stroke="midnightblue" points="752.04,-75.8022 742.167,-79.6459 752.282,-82.798 752.04,-75.8022"/>
</g>
<!-- Node9&#45;&gt;Node8 -->
<g id="edge10" class="edge"><title>Node9&#45;&gt;Node8</title>
<path fill="none" stroke="midnightblue" d="M771.712,-92.4347C762.155,-92.8804 751.605,-92.8536 742.167,-92.3541"/>
<polygon fill="midnightblue" stroke="midnightblue" points="772.232,-95.9074 781.969,-91.7306 771.753,-88.9238 772.232,-95.9074"/>
</g>
<!-- Node9&#45;&gt;Node10 -->
<g id="edge11" class="edge"><title>Node9&#45;&gt;Node10</title>
<path fill="none" stroke="midnightblue" d="M833.151,-79.487C841.463,-77.6614 850.52,-75.6718 858.913,-73.8284"/>
<polygon fill="midnightblue" stroke="midnightblue" points="832.144,-76.1246 823.128,-81.6886 833.646,-82.9616 832.144,-76.1246"/>
</g>
<!-- Node11&#45;&gt;Node10 -->
<g id="edge14" class="edge"><title>Node11&#45;&gt;Node10</title>
<path fill="none" stroke="midnightblue" d="M325.446,-156.596C364.72,-173.457 436.821,-200 501.5,-200 501.5,-200 501.5,-200 714,-200 795.96,-200 863.88,-107.061 883.961,-76.565"/>
<polygon fill="midnightblue" stroke="midnightblue" points="326.757,-153.349 316.193,-152.541 323.947,-159.761 326.757,-153.349"/>
</g>
<!-- Node12&#45;&gt;Node11 -->
<g id="edge16" class="edge"><title>Node12&#45;&gt;Node11</title>
<path fill="none" stroke="midnightblue" d="M222.255,-143C230.55,-143 239.36,-143 247.863,-143"/>
<polygon fill="midnightblue" stroke="midnightblue" points="222.087,-139.5 212.087,-143 222.087,-146.5 222.087,-139.5"/>
</g>
<!-- Node13&#45;&gt;Node9 -->
<g id="edge18" class="edge"><title>Node13&#45;&gt;Node9</title>
<path fill="none" stroke="midnightblue" d="M732.988,-26.4925C750.564,-41.7587 776.09,-63.9296 790.508,-76.4527"/>
<polygon fill="midnightblue" stroke="midnightblue" points="734.927,-23.5406 725.082,-19.6255 730.337,-28.8254 734.927,-23.5406"/>
</g>
<!-- Node13&#45;&gt;Node10 -->
<g id="edge19" class="edge"><title>Node13&#45;&gt;Node10</title>
<path fill="none" stroke="midnightblue" d="M756.035,-16.8034C776.556,-20.7401 801.413,-26.4319 823,-34 840.865,-40.2631 860.145,-50.1158 873.415,-57.4266"/>
<polygon fill="midnightblue" stroke="midnightblue" points="756.512,-13.3323 746.042,-14.9578 755.24,-20.2159 756.512,-13.3323"/>
</g>
</g>
</svg>
