<?xml version="1.0" encoding="UTF-8" standalone="no"?>
<!DOCTYPE svg PUBLIC "-//W3C//DTD SVG 1.1//EN"
 "http://www.w3.org/Graphics/SVG/1.1/DTD/svg11.dtd">
<!-- Generated by graphviz version 2.38.0 (20140413.2041)
 -->
<!-- Title: showNode Pages: 1 -->
<!--zoomable 453 -->
<svg id="main" version="1.1" xmlns="http://www.w3.org/2000/svg" xmlns:xlink="http://www.w3.org/1999/xlink" xml:space="preserve" onload="init(evt)">
<style type="text/css"><![CDATA[
.edge:hover path { stroke: red; }
.edge:hover polygon { stroke: red; fill: red; }
]]></style>
<script type="text/javascript"><![CDATA[
var edges = document.getElementsByTagName('g');
if (edges && edges.length) {
  for (var i=0;i<edges.length;i++) {
    if (edges[i].id.substr(0,4)=='edge') {
      edges[i].setAttribute('class','edge');
    }
  }
}
]]></script>
        <defs>
                <circle id="rim" cx="0" cy="0" r="7"/>
                <circle id="rim2" cx="0" cy="0" r="3.5"/>
                <g id="zoomPlus">
                        <use xlink:href="#rim" fill="#404040">
                                <set attributeName="fill" to="#808080" begin="zoomplus.mouseover" end="zoomplus.mouseout"/>
                        </use>
                        <path d="M-4,0h8M0,-4v8" fill="none" stroke="white" stroke-width="1.5" pointer-events="none"/>
                </g>
                <g id="zoomMin">
                        <use xlink:href="#rim" fill="#404040">
                                <set attributeName="fill" to="#808080" begin="zoomminus.mouseover" end="zoomminus.mouseout"/>
                        </use>
                        <path d="M-4,0h8" fill="none" stroke="white" stroke-width="1.5" pointer-events="none"/>
                </g>
                <g id="dirArrow">
                        <path fill="none" stroke="white" stroke-width="1.5" d="M0,-3.0v7 M-2.5,-0.5L0,-3.0L2.5,-0.5"/>
                </g>
               <g id="resetDef">
                       <use xlink:href="#rim2" fill="#404040">
                               <set attributeName="fill" to="#808080" begin="reset.mouseover" end="reset.mouseout"/>
                       </use>
               </g>
        </defs>

<script type="text/javascript">
var viewWidth = 762;
var viewHeight = 453;
var sectionId = 'dynsection-31';
</script>
<script xlink:href="svgpan.js"/>
<svg id="graph" class="graph">
<g id="viewport">
<title>showNode</title>
<polygon fill="white" stroke="none" points="-4,4 -4,-449.257 758,-449.257 758,4 -4,4"/>
<!-- Node1 -->
<g id="node1" class="node"><title>Node1</title>
<polygon fill="#bfbfbf" stroke="black" points="0,-283.757 0,-302.757 62,-302.757 62,-283.757 0,-283.757"/>
<text text-anchor="middle" x="31" y="-290.757" font-family="Helvetica,sans-Serif" font-size="10.00">showNode</text>
</g>
<!-- Node2 -->
<g id="node2" class="node"><title>Node2</title>
<g id="a_node2"><a xlink:href="navtree_8js.html#a32f4aac18d03aee747b55dea195731ac" target="_top" xlink:title="getScript">
<polygon fill="white" stroke="black" points="600,-359.757 600,-378.757 656,-378.757 656,-359.757 600,-359.757"/>
<text text-anchor="middle" x="628" y="-366.757" font-family="Helvetica,sans-Serif" font-size="10.00">getScript</text>
</a>
</g>
</g>
<!-- Node1&#45;&gt;Node2 -->
<g id="edge1" class="edge"><title>Node1&#45;&gt;Node2</title>
<path fill="none" stroke="midnightblue" d="M38.171,-302.765C60.5983,-336.042 141.553,-445.257 238,-445.257 238,-445.257 238,-445.257 369.5,-445.257 456.097,-445.257 552.622,-405.23 599.056,-383.273"/>
<polygon fill="midnightblue" stroke="midnightblue" points="600.688,-386.371 608.183,-378.882 597.654,-380.063 600.688,-386.371"/>
</g>
<!-- Node5 -->
<g id="node5" class="node"><title>Node5</title>
<g id="a_node5"><a xlink:href="navtree_8js.html#a256aa4fbee866e9227f78e82e9f258bb" target="_top" xlink:title="getNode">
<polygon fill="white" stroke="black" points="98,-283.757 98,-302.757 151,-302.757 151,-283.757 98,-283.757"/>
<text text-anchor="middle" x="124.5" y="-290.757" font-family="Helvetica,sans-Serif" font-size="10.00">getNode</text>
</a>
</g>
</g>
<!-- Node1&#45;&gt;Node5 -->
<g id="edge4" class="edge"><title>Node1&#45;&gt;Node5</title>
<path fill="none" stroke="midnightblue" d="M62.2141,-293.257C70.4298,-293.257 79.4039,-293.257 87.8883,-293.257"/>
<polygon fill="midnightblue" stroke="midnightblue" points="87.9105,-296.757 97.9105,-293.257 87.9104,-289.757 87.9105,-296.757"/>
</g>
<!-- Node9 -->
<g id="node9" class="node"><title>Node9</title>
<g id="a_node9"><a xlink:href="navtree_8js.html#a4eb1f166c9d93b198e1621a4c787a412" target="_top" xlink:title="expandNode">
<polygon fill="white" stroke="black" points="468,-359.757 468,-378.757 539,-378.757 539,-359.757 468,-359.757"/>
<text text-anchor="middle" x="503.5" y="-366.757" font-family="Helvetica,sans-Serif" font-size="10.00">expandNode</text>
</a>
</g>
</g>
<!-- Node1&#45;&gt;Node9 -->
<g id="edge19" class="edge"><title>Node1&#45;&gt;Node9</title>
<path fill="none" stroke="midnightblue" d="M58.8869,-302.801C89.5854,-313.453 141.452,-330.706 187,-342.257 248.425,-357.833 263.918,-363.23 327,-369.257 371.307,-373.49 422.194,-372.892 457.724,-371.598"/>
<polygon fill="midnightblue" stroke="midnightblue" points="457.923,-375.093 467.776,-371.199 457.645,-368.099 457.923,-375.093"/>
</g>
<!-- Node10 -->
<g id="node10" class="node"><title>Node10</title>
<g id="a_node10"><a xlink:href="navtree_8js.html#a9336c21407bb7ced644331eb7a2a6e35" target="_top" xlink:title="stripPath">
<polygon fill="white" stroke="black" points="340.5,-207.757 340.5,-226.757 396.5,-226.757 396.5,-207.757 340.5,-207.757"/>
<text text-anchor="middle" x="368.5" y="-214.757" font-family="Helvetica,sans-Serif" font-size="10.00">stripPath</text>
</a>
</g>
</g>
<!-- Node1&#45;&gt;Node10 -->
<g id="edge18" class="edge"><title>Node1&#45;&gt;Node10</title>
<path fill="none" stroke="midnightblue" d="M53.0508,-283.609C82.397,-270.604 137.572,-247.759 187,-236.257 235.603,-224.947 293.148,-220.359 329.972,-218.505"/>
<polygon fill="midnightblue" stroke="midnightblue" points="330.414,-221.988 340.243,-218.031 330.092,-214.995 330.414,-221.988"/>
</g>
<!-- Node15 -->
<g id="node15" class="node"><title>Node15</title>
<g id="a_node15"><a xlink:href="navtree_8js.html#a0dbf0d5f6126afd88420745f7d3c202d" target="_top" xlink:title="selectAndHighlight">
<polygon fill="white" stroke="black" points="190,-169.757 190,-188.757 288,-188.757 288,-169.757 190,-169.757"/>
<text text-anchor="middle" x="239" y="-176.757" font-family="Helvetica,sans-Serif" font-size="10.00">selectAndHighlight</text>
</a>
</g>
</g>
<!-- Node1&#45;&gt;Node15 -->
<g id="edge20" class="edge"><title>Node1&#45;&gt;Node15</title>
<path fill="none" stroke="midnightblue" d="M35.9827,-283.747C44.392,-264.948 65.8662,-223.132 98,-203.257 122.162,-188.313 152.93,-181.958 179.466,-179.489"/>
<polygon fill="midnightblue" stroke="midnightblue" points="180.08,-182.953 189.784,-178.7 179.546,-175.973 180.08,-182.953"/>
</g>
<!-- Node3 -->
<g id="node3" class="node"><title>Node3</title>
<g id="a_node3"><a xlink:href="svgpan_8js.html#aa8d9f2083cafa2af98efafed94901079" target="_top" xlink:title="show">
<polygon fill="white" stroke="black" points="705,-378.757 705,-397.757 744,-397.757 744,-378.757 705,-378.757"/>
<text text-anchor="middle" x="724.5" y="-385.757" font-family="Helvetica,sans-Serif" font-size="10.00">show</text>
</a>
</g>
</g>
<!-- Node2&#45;&gt;Node3 -->
<g id="edge2" class="edge"><title>Node2&#45;&gt;Node3</title>
<path fill="none" stroke="midnightblue" d="M656.08,-374.702C668.144,-377.127 682.369,-379.987 694.635,-382.453"/>
<polygon fill="midnightblue" stroke="midnightblue" points="694.312,-385.958 704.806,-384.498 695.692,-379.096 694.312,-385.958"/>
</g>
<!-- Node4 -->
<g id="node4" class="node"><title>Node4</title>
<g id="a_node4"><a xlink:href="navtree_8js.html#af98a8e3534da945399ea20870c0f3e92" target="_top" xlink:title="showRoot">
<polygon fill="white" stroke="black" points="695,-321.757 695,-340.757 754,-340.757 754,-321.757 695,-321.757"/>
<text text-anchor="middle" x="724.5" y="-328.757" font-family="Helvetica,sans-Serif" font-size="10.00">showRoot</text>
</a>
</g>
</g>
<!-- Node2&#45;&gt;Node4 -->
<g id="edge3" class="edge"><title>Node2&#45;&gt;Node4</title>
<path fill="none" stroke="midnightblue" d="M652.846,-359.668C664.15,-355.123 677.845,-349.616 690.156,-344.665"/>
<polygon fill="midnightblue" stroke="midnightblue" points="691.689,-347.821 699.661,-340.843 689.077,-341.326 691.689,-347.821"/>
</g>
<!-- Node6 -->
<g id="node6" class="node"><title>Node6</title>
<g id="a_node6"><a xlink:href="navtree_8js.html#aa78016020f40c28356aefd325cd4df74" target="_top" xlink:title="removeToInsertLater">
<polygon fill="white" stroke="black" points="187,-245.757 187,-264.757 291,-264.757 291,-245.757 187,-245.757"/>
<text text-anchor="middle" x="239" y="-252.757" font-family="Helvetica,sans-Serif" font-size="10.00">removeToInsertLater</text>
</a>
</g>
</g>
<!-- Node5&#45;&gt;Node6 -->
<g id="edge5" class="edge"><title>Node5&#45;&gt;Node6</title>
<path fill="none" stroke="midnightblue" d="M151.028,-284.634C165.523,-279.738 183.945,-273.516 200.099,-268.059"/>
<polygon fill="midnightblue" stroke="midnightblue" points="201.455,-271.295 209.809,-264.779 199.215,-264.664 201.455,-271.295"/>
</g>
<!-- Node7 -->
<g id="node7" class="node"><title>Node7</title>
<g id="a_node7"><a xlink:href="navtree_8js.html#aa2418b16159e9502e990f97ea6ec26c8" target="_top" xlink:title="newNode">
<polygon fill="white" stroke="black" points="211,-283.757 211,-302.757 267,-302.757 267,-283.757 211,-283.757"/>
<text text-anchor="middle" x="239" y="-290.757" font-family="Helvetica,sans-Serif" font-size="10.00">newNode</text>
</a>
</g>
</g>
<!-- Node5&#45;&gt;Node7 -->
<g id="edge6" class="edge"><title>Node5&#45;&gt;Node7</title>
<path fill="none" stroke="midnightblue" d="M151.028,-293.257C165.599,-293.257 184.138,-293.257 200.353,-293.257"/>
<polygon fill="midnightblue" stroke="midnightblue" points="200.608,-296.757 210.608,-293.257 200.608,-289.757 200.608,-296.757"/>
</g>
<!-- Node8 -->
<g id="node8" class="node"><title>Node8</title>
<g id="a_node8"><a xlink:href="navtree_8js.html#a4d8f406d49520a0cede2e48347a3d7aa" target="_top" xlink:title="createIndent">
<polygon fill="white" stroke="black" points="333.5,-321.757 333.5,-340.757 403.5,-340.757 403.5,-321.757 333.5,-321.757"/>
<text text-anchor="middle" x="368.5" y="-328.757" font-family="Helvetica,sans-Serif" font-size="10.00">createIndent</text>
</a>
</g>
</g>
<!-- Node7&#45;&gt;Node8 -->
<g id="edge7" class="edge"><title>Node7&#45;&gt;Node8</title>
<path fill="none" stroke="midnightblue" d="M267.039,-301.316C284.095,-306.399 306.47,-313.067 325.773,-318.821"/>
<polygon fill="midnightblue" stroke="midnightblue" points="324.959,-322.23 335.542,-321.732 326.959,-315.522 324.959,-322.23"/>
</g>
<!-- Node7&#45;&gt;Node10 -->
<g id="edge13" class="edge"><title>Node7&#45;&gt;Node10</title>
<path fill="none" stroke="midnightblue" d="M267.109,-285.347C275.102,-282.444 283.667,-278.746 291,-274.257 309.512,-262.925 309.57,-254.192 327,-241.257 331.319,-238.051 336.095,-234.908 340.806,-232.006"/>
<polygon fill="midnightblue" stroke="midnightblue" points="342.827,-234.877 349.65,-226.772 339.261,-228.853 342.827,-234.877"/>
</g>
<!-- Node11 -->
<g id="node11" class="node"><title>Node11</title>
<g id="a_node11"><a xlink:href="navtree_8js.html#a364b3f4132309fa9aae78585cf2cb772" target="_top" xlink:title="pathName">
<polygon fill="white" stroke="black" points="338,-169.757 338,-188.757 399,-188.757 399,-169.757 338,-169.757"/>
<text text-anchor="middle" x="368.5" y="-176.757" font-family="Helvetica,sans-Serif" font-size="10.00">pathName</text>
</a>
</g>
</g>
<!-- Node7&#45;&gt;Node11 -->
<g id="edge14" class="edge"><title>Node7&#45;&gt;Node11</title>
<path fill="none" stroke="midnightblue" d="M267.032,-287.456C275.474,-284.595 284.317,-280.39 291,-274.257 318.537,-248.985 300.522,-224.636 327,-198.257 328.403,-196.859 329.928,-195.551 331.538,-194.329"/>
<polygon fill="midnightblue" stroke="midnightblue" points="333.522,-197.216 340.108,-188.917 329.784,-191.297 333.522,-197.216"/>
</g>
<!-- Node12 -->
<g id="node12" class="node"><title>Node12</title>
<g id="a_node12"><a xlink:href="navtree_8js.html#ade730323aadb971c053136b7758c9dce" target="_top" xlink:title="storeLink">
<polygon fill="white" stroke="black" points="340.5,-283.757 340.5,-302.757 396.5,-302.757 396.5,-283.757 340.5,-283.757"/>
<text text-anchor="middle" x="368.5" y="-290.757" font-family="Helvetica,sans-Serif" font-size="10.00">storeLink</text>
</a>
</g>
</g>
<!-- Node7&#45;&gt;Node12 -->
<g id="edge15" class="edge"><title>Node7&#45;&gt;Node12</title>
<path fill="none" stroke="midnightblue" d="M267.039,-293.257C285.465,-293.257 310.097,-293.257 330.358,-293.257"/>
<polygon fill="midnightblue" stroke="midnightblue" points="330.5,-296.757 340.5,-293.257 330.499,-289.757 330.5,-296.757"/>
</g>
<!-- Node14 -->
<g id="node14" class="node"><title>Node14</title>
<g id="a_node14"><a xlink:href="navtree_8js.html#aee1fc3771eeb15da54962a03da1f3c11" target="_top" xlink:title="gotoAnchor">
<polygon fill="white" stroke="black" points="470.5,-93.7569 470.5,-112.757 536.5,-112.757 536.5,-93.7569 470.5,-93.7569"/>
<text text-anchor="middle" x="503.5" y="-100.757" font-family="Helvetica,sans-Serif" font-size="10.00">gotoAnchor</text>
</a>
</g>
</g>
<!-- Node7&#45;&gt;Node14 -->
<g id="edge17" class="edge"><title>Node7&#45;&gt;Node14</title>
<path fill="none" stroke="midnightblue" d="M267.34,-286.343C309.289,-275.366 387.086,-253.436 410,-236.257 451.087,-205.454 480.618,-150.938 494.177,-122.201"/>
<polygon fill="midnightblue" stroke="midnightblue" points="497.468,-123.421 498.442,-112.871 491.101,-120.511 497.468,-123.421"/>
</g>
<!-- Node8&#45;&gt;Node9 -->
<g id="edge8" class="edge"><title>Node8&#45;&gt;Node9</title>
<path fill="none" stroke="midnightblue" d="M403.062,-340.846C420.073,-345.706 440.932,-351.666 459.145,-356.87"/>
<polygon fill="midnightblue" stroke="midnightblue" points="458.372,-360.289 468.949,-359.671 460.296,-353.558 458.372,-360.289"/>
</g>
<!-- Node9&#45;&gt;Node2 -->
<g id="edge9" class="edge"><title>Node9&#45;&gt;Node2</title>
<path fill="none" stroke="midnightblue" d="M539.276,-369.257C555.059,-369.257 573.745,-369.257 589.808,-369.257"/>
<polygon fill="midnightblue" stroke="midnightblue" points="589.927,-372.757 599.927,-369.257 589.927,-365.757 589.927,-372.757"/>
</g>
<!-- Node9&#45;&gt;Node3 -->
<g id="edge12" class="edge"><title>Node9&#45;&gt;Node3</title>
<path fill="none" stroke="midnightblue" d="M539.381,-378.163C556.597,-382.111 577.754,-386.301 597,-388.257 630.265,-391.638 668.706,-390.998 694.401,-389.923"/>
<polygon fill="midnightblue" stroke="midnightblue" points="694.754,-393.41 704.58,-389.446 694.427,-386.418 694.754,-393.41"/>
</g>
<!-- Node9&#45;&gt;Node4 -->
<g id="edge10" class="edge"><title>Node9&#45;&gt;Node4</title>
<path fill="none" stroke="midnightblue" d="M539.116,-361.689C556.454,-358.015 577.792,-353.67 597,-350.257 626.273,-345.056 659.524,-340.099 684.587,-336.553"/>
<polygon fill="midnightblue" stroke="midnightblue" points="685.374,-339.977 694.792,-335.123 684.403,-333.044 685.374,-339.977"/>
</g>
<!-- Node9&#45;&gt;Node5 -->
<g id="edge11" class="edge"><title>Node9&#45;&gt;Node5</title>
<path fill="none" stroke="midnightblue" d="M467.964,-367.128C432.4,-364.56 375.486,-359.403 327,-350.257 263.644,-338.306 248.921,-330.22 187,-312.257 178.515,-309.795 169.404,-307.042 160.865,-304.412"/>
<polygon fill="midnightblue" stroke="midnightblue" points="161.762,-301.026 151.174,-301.406 159.688,-307.711 161.762,-301.026"/>
</g>
<!-- Node13 -->
<g id="node13" class="node"><title>Node13</title>
<g id="a_node13"><a xlink:href="navtree_8js.html#ac49af616f532f2364be9f58280469d33" target="_top" xlink:title="localStorageSupported">
<polygon fill="white" stroke="black" points="446,-283.757 446,-302.757 561,-302.757 561,-283.757 446,-283.757"/>
<text text-anchor="middle" x="503.5" y="-290.757" font-family="Helvetica,sans-Serif" font-size="10.00">localStorageSupported</text>
</a>
</g>
</g>
<!-- Node12&#45;&gt;Node13 -->
<g id="edge16" class="edge"><title>Node12&#45;&gt;Node13</title>
<path fill="none" stroke="midnightblue" d="M396.735,-293.257C408.171,-293.257 422.021,-293.257 435.877,-293.257"/>
<polygon fill="midnightblue" stroke="midnightblue" points="435.934,-296.757 445.934,-293.257 435.934,-289.757 435.934,-296.757"/>
</g>
<!-- Node15&#45;&gt;Node4 -->
<g id="edge29" class="edge"><title>Node15&#45;&gt;Node4</title>
<path fill="none" stroke="midnightblue" d="M269.315,-169.695C303.55,-159.964 361.655,-147.929 410,-160.257 531.027,-191.118 655.719,-279.307 703.355,-315.482"/>
<polygon fill="midnightblue" stroke="midnightblue" points="701.271,-318.295 711.335,-321.606 705.533,-312.741 701.271,-318.295"/>
</g>
<!-- Node15&#45;&gt;Node10 -->
<g id="edge21" class="edge"><title>Node15&#45;&gt;Node10</title>
<path fill="none" stroke="midnightblue" d="M272.174,-188.846C289.851,-194.114 311.862,-200.675 330.278,-206.163"/>
<polygon fill="midnightblue" stroke="midnightblue" points="329.506,-209.585 340.089,-209.087 331.506,-202.877 329.506,-209.585"/>
</g>
<!-- Node15&#45;&gt;Node11 -->
<g id="edge22" class="edge"><title>Node15&#45;&gt;Node11</title>
<path fill="none" stroke="midnightblue" d="M288.202,-179.257C301.204,-179.257 315.125,-179.257 327.617,-179.257"/>
<polygon fill="midnightblue" stroke="midnightblue" points="327.723,-182.757 337.723,-179.257 327.723,-175.757 327.723,-182.757"/>
</g>
<!-- Node16 -->
<g id="node16" class="node"><title>Node16</title>
<g id="a_node16"><a xlink:href="navtree_8js.html#a524fa9bfd80c70bf3a84696b2077eadb" target="_top" xlink:title="highlightAnchor">
<polygon fill="white" stroke="black" points="327,-55.7569 327,-74.7569 410,-74.7569 410,-55.7569 327,-55.7569"/>
<text text-anchor="middle" x="368.5" y="-62.7569" font-family="Helvetica,sans-Serif" font-size="10.00">highlightAnchor</text>
</a>
</g>
</g>
<!-- Node15&#45;&gt;Node16 -->
<g id="edge23" class="edge"><title>Node15&#45;&gt;Node16</title>
<path fill="none" stroke="midnightblue" d="M250.871,-169.537C272.701,-150.019 322.082,-105.866 349.059,-81.745"/>
<polygon fill="midnightblue" stroke="midnightblue" points="351.535,-84.2265 356.657,-74.9519 346.869,-79.0082 351.535,-84.2265"/>
</g>
<!-- Node16&#45;&gt;Node14 -->
<g id="edge28" class="edge"><title>Node16&#45;&gt;Node14</title>
<path fill="none" stroke="midnightblue" d="M403.062,-74.8459C420.543,-79.8407 442.088,-85.9963 460.648,-91.2993"/>
<polygon fill="midnightblue" stroke="midnightblue" points="459.749,-94.6823 470.326,-94.0643 461.672,-87.9516 459.749,-94.6823"/>
</g>
<!-- Node17 -->
<g id="node17" class="node"><title>Node17</title>
<g id="a_node17"><a xlink:href="navtree_8js.html#a20695277530a1a04eef8d289177a5e40" target="_top" xlink:title="hashUrl">
<polygon fill="white" stroke="black" points="478.5,-55.7569 478.5,-74.7569 528.5,-74.7569 528.5,-55.7569 478.5,-55.7569"/>
<text text-anchor="middle" x="503.5" y="-62.7569" font-family="Helvetica,sans-Serif" font-size="10.00">hashUrl</text>
</a>
</g>
</g>
<!-- Node16&#45;&gt;Node17 -->
<g id="edge24" class="edge"><title>Node16&#45;&gt;Node17</title>
<path fill="none" stroke="midnightblue" d="M410.127,-65.2569C428.6,-65.2569 450.228,-65.2569 467.911,-65.2569"/>
<polygon fill="midnightblue" stroke="midnightblue" points="468.347,-68.757 478.347,-65.2569 468.347,-61.757 468.347,-68.757"/>
</g>
<!-- Node18 -->
<g id="node18" class="node"><title>Node18</title>
<g id="a_node18"><a xlink:href="navtree_8js.html#aaeb20639619e1371c030d36a7109b27b" target="_top" xlink:title="hashValue">
<polygon fill="white" stroke="black" points="597,-17.7569 597,-36.7569 659,-36.7569 659,-17.7569 597,-17.7569"/>
<text text-anchor="middle" x="628" y="-24.7569" font-family="Helvetica,sans-Serif" font-size="10.00">hashValue</text>
</a>
</g>
</g>
<!-- Node16&#45;&gt;Node18 -->
<g id="edge26" class="edge"><title>Node16&#45;&gt;Node18</title>
<path fill="none" stroke="midnightblue" d="M378.242,-55.6496C391.378,-42.0081 417.702,-17.64 446,-8.25693 494.247,7.74124 553.334,-3.87094 590.584,-14.7096"/>
<polygon fill="midnightblue" stroke="midnightblue" points="589.898,-18.1594 600.484,-17.7226 591.936,-11.4626 589.898,-18.1594"/>
</g>
<!-- Node19 -->
<g id="node19" class="node"><title>Node19</title>
<g id="a_node19"><a xlink:href="navtree_8js.html#a23b68d2deb28f9c2678f546e2d60e5ee" target="_top" xlink:title="glowEffect">
<polygon fill="white" stroke="black" points="473,-17.7569 473,-36.7569 534,-36.7569 534,-17.7569 473,-17.7569"/>
<text text-anchor="middle" x="503.5" y="-24.7569" font-family="Helvetica,sans-Serif" font-size="10.00">glowEffect</text>
</a>
</g>
</g>
<!-- Node16&#45;&gt;Node19 -->
<g id="edge27" class="edge"><title>Node16&#45;&gt;Node19</title>
<path fill="none" stroke="midnightblue" d="M403.062,-55.6679C421.195,-50.4868 443.701,-44.0566 462.713,-38.6246"/>
<polygon fill="midnightblue" stroke="midnightblue" points="463.926,-41.9182 472.58,-35.8056 462.003,-35.1875 463.926,-41.9182"/>
</g>
<!-- Node17&#45;&gt;Node18 -->
<g id="edge25" class="edge"><title>Node17&#45;&gt;Node18</title>
<path fill="none" stroke="midnightblue" d="M528.702,-57.7494C545.328,-52.592 567.787,-45.6252 587.04,-39.6527"/>
<polygon fill="midnightblue" stroke="midnightblue" points="588.254,-42.9406 596.768,-36.635 586.18,-36.2549 588.254,-42.9406"/>
</g>
</g>
</svg>
        <g id="navigator" transform="translate(0 0)" fill="#404254">
                <rect fill="#f2f5e9" fill-opacity="0.5" stroke="#606060" stroke-width=".5" x="0" y="0" width="60" height="60"/>
                <use id="zoomplus" xlink:href="#zoomPlus" x="17" y="9" onmousedown="handleZoom(evt,'in')"/>
                <use id="zoomminus" xlink:href="#zoomMin" x="42" y="9" onmousedown="handleZoom(evt,'out')"/>
                <use id="reset" xlink:href="#resetDef" x="30" y="36" onmousedown="handleReset()"/>
                <g id="arrowUp" xlink:href="#dirArrow" transform="translate(30 24)" onmousedown="handlePan(0,-1)">
                  <use xlink:href="#rim" fill="#404040">
                        <set attributeName="fill" to="#808080" begin="arrowUp.mouseover" end="arrowUp.mouseout"/>
                  </use>
                  <path fill="none" stroke="white" stroke-width="1.5" d="M0,-3.0v7 M-2.5,-0.5L0,-3.0L2.5,-0.5"/>
                </g>
                <g id="arrowRight" xlink:href="#dirArrow" transform="rotate(90) translate(36 -43)" onmousedown="handlePan(1,0)">
                  <use xlink:href="#rim" fill="#404040">
                        <set attributeName="fill" to="#808080" begin="arrowRight.mouseover" end="arrowRight.mouseout"/>
                  </use>
                  <path fill="none" stroke="white" stroke-width="1.5" d="M0,-3.0v7 M-2.5,-0.5L0,-3.0L2.5,-0.5"/>
                </g>
                <g id="arrowDown" xlink:href="#dirArrow" transform="rotate(180) translate(-30 -48)" onmousedown="handlePan(0,1)">
                  <use xlink:href="#rim" fill="#404040">
                        <set attributeName="fill" to="#808080" begin="arrowDown.mouseover" end="arrowDown.mouseout"/>
                  </use>
                  <path fill="none" stroke="white" stroke-width="1.5" d="M0,-3.0v7 M-2.5,-0.5L0,-3.0L2.5,-0.5"/>
                </g>
                <g id="arrowLeft" xlink:href="#dirArrow" transform="rotate(270) translate(-36 17)" onmousedown="handlePan(-1,0)">
                  <use xlink:href="#rim" fill="#404040">
                        <set attributeName="fill" to="#808080" begin="arrowLeft.mouseover" end="arrowLeft.mouseout"/>
                  </use>
                  <path fill="none" stroke="white" stroke-width="1.5" d="M0,-3.0v7 M-2.5,-0.5L0,-3.0L2.5,-0.5"/>
                </g>
        </g>
        <svg viewBox="0 0 15 15" width="100%" height="30px" preserveAspectRatio="xMaxYMin meet">
         <g id="arrow_out" transform="scale(0.3 0.3)">
          <a xlink:href="navtree_8js_a0238ad48be94f9f5fd305ea40b8f64ab_cgraph_org.svg" target="_base">
           <rect id="button" ry="5" rx="5" y="6" x="6" height="38" width="38"
                fill="#f2f5e9" fill-opacity="0.5" stroke="#606060" stroke-width="1.0"/>
           <path id="arrow"
             d="M 11.500037,31.436501 C 11.940474,20.09759 22.043105,11.32322 32.158766,21.979434 L 37.068811,17.246167 C 37.068811,17.246167 37.088388,32 37.088388,32 L 22.160133,31.978069 C 22.160133,31.978069 26.997745,27.140456 26.997745,27.140456 C 18.528582,18.264221 13.291696,25.230495 11.500037,31.436501 z"
             style="fill:#404040;"/>
          </a>
         </g>
        </svg>
</svg>
