<?xml version="1.0" encoding="UTF-8" standalone="no"?>
<!DOCTYPE svg PUBLIC "-//W3C//DTD SVG 1.1//EN"
 "http://www.w3.org/Graphics/SVG/1.1/DTD/svg11.dtd">
<!-- Generated by graphviz version 2.38.0 (20140413.2041)
 -->
<!-- Title: highlightAnchor Pages: 1 -->
<svg width="594pt" height="28pt"
 viewBox="0.00 0.00 594.00 28.00" xmlns="http://www.w3.org/2000/svg" xmlns:xlink="http://www.w3.org/1999/xlink">
<g id="graph0" class="graph" transform="scale(1 1) rotate(0) translate(4 24)">
<title>highlightAnchor</title>
<polygon fill="white" stroke="none" points="-4,4 -4,-24 590,-24 590,4 -4,4"/>
<!-- Node1 -->
<g id="node1" class="node"><title>Node1</title>
<polygon fill="#bfbfbf" stroke="black" points="0,-0.5 0,-19.5 83,-19.5 83,-0.5 0,-0.5"/>
<text text-anchor="middle" x="41.5" y="-7.5" font-family="Helvetica,sans-Serif" font-size="10.00">highlightAnchor</text>
</g>
<!-- Node2 -->
<g id="node2" class="node"><title>Node2</title>
<g id="a_node2"><a xlink:href="navtree_8js.html#a0dbf0d5f6126afd88420745f7d3c202d" target="_top" xlink:title="selectAndHighlight">
<polygon fill="white" stroke="black" points="119,-0.5 119,-19.5 217,-19.5 217,-0.5 119,-0.5"/>
<text text-anchor="middle" x="168" y="-7.5" font-family="Helvetica,sans-Serif" font-size="10.00">selectAndHighlight</text>
</a>
</g>
</g>
<!-- Node1&#45;&gt;Node2 -->
<g id="edge1" class="edge"><title>Node1&#45;&gt;Node2</title>
<path fill="none" stroke="midnightblue" d="M93.3346,-10C101.741,-10 110.436,-10 118.776,-10"/>
<polygon fill="midnightblue" stroke="midnightblue" points="93.266,-6.5001 83.266,-10 93.2659,-13.5001 93.266,-6.5001"/>
</g>
<!-- Node3 -->
<g id="node3" class="node"><title>Node3</title>
<g id="a_node3"><a xlink:href="navtree_8js.html#a0238ad48be94f9f5fd305ea40b8f64ab" target="_top" xlink:title="showNode">
<polygon fill="white" stroke="black" points="253,-0.5 253,-19.5 315,-19.5 315,-0.5 253,-0.5"/>
<text text-anchor="middle" x="284" y="-7.5" font-family="Helvetica,sans-Serif" font-size="10.00">showNode</text>
</a>
</g>
</g>
<!-- Node2&#45;&gt;Node3 -->
<g id="edge2" class="edge"><title>Node2&#45;&gt;Node3</title>
<path fill="none" stroke="midnightblue" d="M227.078,-10C236.018,-10 244.923,-10 252.913,-10"/>
<polygon fill="midnightblue" stroke="midnightblue" points="227.016,-6.5001 217.016,-10 227.016,-13.5001 227.016,-6.5001"/>
</g>
<!-- Node4 -->
<g id="node4" class="node"><title>Node4</title>
<g id="a_node4"><a xlink:href="navtree_8js.html#a0e6a2d65190a43246d668bba554243e5" target="_top" xlink:title="gotoNode">
<polygon fill="white" stroke="black" points="351,-0.5 351,-19.5 409,-19.5 409,-0.5 351,-0.5"/>
<text text-anchor="middle" x="380" y="-7.5" font-family="Helvetica,sans-Serif" font-size="10.00">gotoNode</text>
</a>
</g>
</g>
<!-- Node3&#45;&gt;Node4 -->
<g id="edge3" class="edge"><title>Node3&#45;&gt;Node4</title>
<path fill="none" stroke="midnightblue" d="M325.001,-10C333.71,-10 342.748,-10 350.881,-10"/>
<polygon fill="midnightblue" stroke="midnightblue" points="325.001,-6.5001 315.001,-10 325.001,-13.5001 325.001,-6.5001"/>
</g>
<!-- Node5 -->
<g id="node5" class="node"><title>Node5</title>
<g id="a_node5"><a xlink:href="navtree_8js.html#a21beb601032fff375100a907f32129a5" target="_top" xlink:title="navTo">
<polygon fill="white" stroke="black" points="445,-0.5 445,-19.5 486,-19.5 486,-0.5 445,-0.5"/>
<text text-anchor="middle" x="465.5" y="-7.5" font-family="Helvetica,sans-Serif" font-size="10.00">navTo</text>
</a>
</g>
</g>
<!-- Node4&#45;&gt;Node5 -->
<g id="edge4" class="edge"><title>Node4&#45;&gt;Node5</title>
<path fill="none" stroke="midnightblue" d="M419.452,-3.26876C428.284,-3.1681 437.315,-3.47251 444.949,-4.18199"/>
<polygon fill="midnightblue" stroke="midnightblue" points="419.16,0.224195 409.269,-3.573 419.369,-6.77268 419.16,0.224195"/>
</g>
<!-- Node5&#45;&gt;Node4 -->
<g id="edge5" class="edge"><title>Node5&#45;&gt;Node4</title>
<path fill="none" stroke="midnightblue" d="M434.887,-16.4898C426.556,-16.8565 417.519,-16.8356 409.269,-16.427"/>
<polygon fill="midnightblue" stroke="midnightblue" points="435.205,-19.9765 444.949,-15.818 434.738,-12.9921 435.205,-19.9765"/>
</g>
<!-- Node6 -->
<g id="node6" class="node"><title>Node6</title>
<g id="a_node6"><a xlink:href="navtree_8js.html#aa7b3067e7ef0044572ba86240b1e58ce" target="_top" xlink:title="initNavTree">
<polygon fill="white" stroke="black" points="522,-0.5 522,-19.5 586,-19.5 586,-0.5 522,-0.5"/>
<text text-anchor="middle" x="554" y="-7.5" font-family="Helvetica,sans-Serif" font-size="10.00">initNavTree</text>
</a>
</g>
</g>
<!-- Node5&#45;&gt;Node6 -->
<g id="edge6" class="edge"><title>Node5&#45;&gt;Node6</title>
<path fill="none" stroke="midnightblue" d="M496.151,-10C504.463,-10 513.52,-10 521.913,-10"/>
<polygon fill="midnightblue" stroke="midnightblue" points="496.128,-6.5001 486.128,-10 496.128,-13.5001 496.128,-6.5001"/>
</g>
</g>
</svg>
