<?xml version="1.0" encoding="UTF-8" standalone="no"?>
<!DOCTYPE svg PUBLIC "-//W3C//DTD SVG 1.1//EN"
 "http://www.w3.org/Graphics/SVG/1.1/DTD/svg11.dtd">
<!-- Generated by graphviz version 2.38.0 (20140413.2041)
 -->
<!-- Title: expandNode Pages: 1 -->
<svg width="735pt" height="64pt"
 viewBox="0.00 0.00 735.00 63.65" xmlns="http://www.w3.org/2000/svg" xmlns:xlink="http://www.w3.org/1999/xlink">
<g id="graph0" class="graph" transform="scale(1 1) rotate(0) translate(4 59.6547)">
<title>expandNode</title>
<polygon fill="white" stroke="none" points="-4,4 -4,-59.6547 731,-59.6547 731,4 -4,4"/>
<!-- Node1 -->
<g id="node1" class="node"><title>Node1</title>
<polygon fill="#bfbfbf" stroke="black" points="0,-19.5 0,-38.5 71,-38.5 71,-19.5 0,-19.5"/>
<text text-anchor="middle" x="35.5" y="-26.5" font-family="Helvetica,sans-Serif" font-size="10.00">expandNode</text>
</g>
<!-- Node2 -->
<g id="node2" class="node"><title>Node2</title>
<g id="a_node2"><a xlink:href="navtree_8js.html#a4d8f406d49520a0cede2e48347a3d7aa" target="_top" xlink:title="createIndent">
<polygon fill="white" stroke="black" points="107,-19.5 107,-38.5 177,-38.5 177,-19.5 107,-19.5"/>
<text text-anchor="middle" x="142" y="-26.5" font-family="Helvetica,sans-Serif" font-size="10.00">createIndent</text>
</a>
</g>
</g>
<!-- Node1&#45;&gt;Node2 -->
<g id="edge1" class="edge"><title>Node1&#45;&gt;Node2</title>
<path fill="none" stroke="midnightblue" d="M81.2725,-29C89.8527,-29 98.7075,-29 106.886,-29"/>
<polygon fill="midnightblue" stroke="midnightblue" points="81.0069,-25.5001 71.0068,-29 81.0068,-32.5001 81.0069,-25.5001"/>
</g>
<!-- Node5 -->
<g id="node5" class="node"><title>Node5</title>
<g id="a_node5"><a xlink:href="navtree_8js.html#a0238ad48be94f9f5fd305ea40b8f64ab" target="_top" xlink:title="showNode">
<polygon fill="white" stroke="black" points="394,-0.5 394,-19.5 456,-19.5 456,-0.5 394,-0.5"/>
<text text-anchor="middle" x="425" y="-7.5" font-family="Helvetica,sans-Serif" font-size="10.00">showNode</text>
</a>
</g>
</g>
<!-- Node1&#45;&gt;Node5 -->
<g id="edge10" class="edge"><title>Node1&#45;&gt;Node5</title>
<path fill="none" stroke="midnightblue" d="M74.5926,-16.7735C84.9912,-13.9763 96.3341,-11.4121 107,-10 211.48,3.83208 337.033,-3.02993 393.668,-7.3658"/>
<polygon fill="midnightblue" stroke="midnightblue" points="73.6349,-13.407 64.965,-19.4967 75.5402,-20.1427 73.6349,-13.407"/>
</g>
<!-- Node3 -->
<g id="node3" class="node"><title>Node3</title>
<g id="a_node3"><a xlink:href="navtree_8js.html#aa2418b16159e9502e990f97ea6ec26c8" target="_top" xlink:title="newNode">
<polygon fill="white" stroke="black" points="213,-19.5 213,-38.5 269,-38.5 269,-19.5 213,-19.5"/>
<text text-anchor="middle" x="241" y="-26.5" font-family="Helvetica,sans-Serif" font-size="10.00">newNode</text>
</a>
</g>
</g>
<!-- Node2&#45;&gt;Node3 -->
<g id="edge2" class="edge"><title>Node2&#45;&gt;Node3</title>
<path fill="none" stroke="midnightblue" d="M187.267,-29C195.974,-29 204.864,-29 212.804,-29"/>
<polygon fill="midnightblue" stroke="midnightblue" points="187.199,-25.5001 177.199,-29 187.199,-32.5001 187.199,-25.5001"/>
</g>
<!-- Node4 -->
<g id="node4" class="node"><title>Node4</title>
<g id="a_node4"><a xlink:href="navtree_8js.html#a256aa4fbee866e9227f78e82e9f258bb" target="_top" xlink:title="getNode">
<polygon fill="white" stroke="black" points="305,-19.5 305,-38.5 358,-38.5 358,-19.5 305,-19.5"/>
<text text-anchor="middle" x="331.5" y="-26.5" font-family="Helvetica,sans-Serif" font-size="10.00">getNode</text>
</a>
</g>
</g>
<!-- Node3&#45;&gt;Node4 -->
<g id="edge3" class="edge"><title>Node3&#45;&gt;Node4</title>
<path fill="none" stroke="midnightblue" d="M279.269,-29C287.881,-29 296.856,-29 304.843,-29"/>
<polygon fill="midnightblue" stroke="midnightblue" points="279.034,-25.5001 269.034,-29 279.034,-32.5001 279.034,-25.5001"/>
</g>
<!-- Node4&#45;&gt;Node1 -->
<g id="edge4" class="edge"><title>Node4&#45;&gt;Node1</title>
<path fill="none" stroke="midnightblue" d="M295.728,-41.7225C287.11,-44.3226 277.816,-46.6693 269,-48 197.807,-58.7468 178.377,-57.4496 107,-48 92.9254,-46.1367 77.6719,-42.267 64.965,-38.5033"/>
<polygon fill="midnightblue" stroke="midnightblue" points="297.012,-44.9865 305.465,-38.5995 294.874,-38.3209 297.012,-44.9865"/>
</g>
<!-- Node4&#45;&gt;Node5 -->
<g id="edge5" class="edge"><title>Node4&#45;&gt;Node5</title>
<path fill="none" stroke="midnightblue" d="M368.397,-21.5459C376.786,-19.8039 385.639,-17.9656 393.754,-16.2806"/>
<polygon fill="midnightblue" stroke="midnightblue" points="367.555,-18.1461 358.475,-23.6062 368.978,-24.9999 367.555,-18.1461"/>
</g>
<!-- Node6 -->
<g id="node6" class="node"><title>Node6</title>
<g id="a_node6"><a xlink:href="navtree_8js.html#a0e6a2d65190a43246d668bba554243e5" target="_top" xlink:title="gotoNode">
<polygon fill="white" stroke="black" points="492,-0.5 492,-19.5 550,-19.5 550,-0.5 492,-0.5"/>
<text text-anchor="middle" x="521" y="-7.5" font-family="Helvetica,sans-Serif" font-size="10.00">gotoNode</text>
</a>
</g>
</g>
<!-- Node5&#45;&gt;Node6 -->
<g id="edge6" class="edge"><title>Node5&#45;&gt;Node6</title>
<path fill="none" stroke="midnightblue" d="M466.001,-10C474.71,-10 483.748,-10 491.881,-10"/>
<polygon fill="midnightblue" stroke="midnightblue" points="466.001,-6.5001 456.001,-10 466.001,-13.5001 466.001,-6.5001"/>
</g>
<!-- Node7 -->
<g id="node7" class="node"><title>Node7</title>
<g id="a_node7"><a xlink:href="navtree_8js.html#a21beb601032fff375100a907f32129a5" target="_top" xlink:title="navTo">
<polygon fill="white" stroke="black" points="586,-0.5 586,-19.5 627,-19.5 627,-0.5 586,-0.5"/>
<text text-anchor="middle" x="606.5" y="-7.5" font-family="Helvetica,sans-Serif" font-size="10.00">navTo</text>
</a>
</g>
</g>
<!-- Node6&#45;&gt;Node7 -->
<g id="edge7" class="edge"><title>Node6&#45;&gt;Node7</title>
<path fill="none" stroke="midnightblue" d="M560.452,-3.26876C569.284,-3.1681 578.315,-3.47251 585.949,-4.18199"/>
<polygon fill="midnightblue" stroke="midnightblue" points="560.16,0.224195 550.269,-3.573 560.369,-6.77268 560.16,0.224195"/>
</g>
<!-- Node7&#45;&gt;Node6 -->
<g id="edge8" class="edge"><title>Node7&#45;&gt;Node6</title>
<path fill="none" stroke="midnightblue" d="M575.887,-16.4898C567.556,-16.8565 558.519,-16.8356 550.269,-16.427"/>
<polygon fill="midnightblue" stroke="midnightblue" points="576.205,-19.9765 585.949,-15.818 575.738,-12.9921 576.205,-19.9765"/>
</g>
<!-- Node8 -->
<g id="node8" class="node"><title>Node8</title>
<g id="a_node8"><a xlink:href="navtree_8js.html#aa7b3067e7ef0044572ba86240b1e58ce" target="_top" xlink:title="initNavTree">
<polygon fill="white" stroke="black" points="663,-0.5 663,-19.5 727,-19.5 727,-0.5 663,-0.5"/>
<text text-anchor="middle" x="695" y="-7.5" font-family="Helvetica,sans-Serif" font-size="10.00">initNavTree</text>
</a>
</g>
</g>
<!-- Node7&#45;&gt;Node8 -->
<g id="edge9" class="edge"><title>Node7&#45;&gt;Node8</title>
<path fill="none" stroke="midnightblue" d="M637.151,-10C645.463,-10 654.52,-10 662.913,-10"/>
<polygon fill="midnightblue" stroke="midnightblue" points="637.128,-6.5001 627.128,-10 637.128,-13.5001 637.128,-6.5001"/>
</g>
</g>
</svg>
