<?xml version="1.0" encoding="UTF-8" standalone="no"?>
<!DOCTYPE svg PUBLIC "-//W3C//DTD SVG 1.1//EN"
 "http://www.w3.org/Graphics/SVG/1.1/DTD/svg11.dtd">
<!-- Generated by graphviz version 2.38.0 (20140413.2041)
 -->
<!-- Title: newNode Pages: 1 -->
<svg width="637pt" height="85pt"
 viewBox="0.00 0.00 637.00 85.00" xmlns="http://www.w3.org/2000/svg" xmlns:xlink="http://www.w3.org/1999/xlink">
<g id="graph0" class="graph" transform="scale(1 1) rotate(0) translate(4 81)">
<title>newNode</title>
<polygon fill="white" stroke="none" points="-4,4 -4,-81 633,-81 633,4 -4,4"/>
<!-- Node1 -->
<g id="node1" class="node"><title>Node1</title>
<polygon fill="#bfbfbf" stroke="black" points="0,-10.5 0,-29.5 56,-29.5 56,-10.5 0,-10.5"/>
<text text-anchor="middle" x="28" y="-17.5" font-family="Helvetica,sans-Serif" font-size="10.00">newNode</text>
</g>
<!-- Node2 -->
<g id="node2" class="node"><title>Node2</title>
<g id="a_node2"><a xlink:href="navtree_8js.html#a256aa4fbee866e9227f78e82e9f258bb" target="_top" xlink:title="getNode">
<polygon fill="white" stroke="black" points="92,-29.5 92,-48.5 145,-48.5 145,-29.5 92,-29.5"/>
<text text-anchor="middle" x="118.5" y="-36.5" font-family="Helvetica,sans-Serif" font-size="10.00">getNode</text>
</a>
</g>
</g>
<!-- Node1&#45;&gt;Node2 -->
<g id="edge1" class="edge"><title>Node1&#45;&gt;Node2</title>
<path fill="none" stroke="midnightblue" d="M65.9852,-27.9403C74.6841,-29.8079 83.7682,-31.7581 91.8427,-33.4917"/>
<polygon fill="midnightblue" stroke="midnightblue" points="66.5457,-24.481 56.0338,-25.8039 65.0763,-31.325 66.5457,-24.481"/>
</g>
<!-- Node3 -->
<g id="node3" class="node"><title>Node3</title>
<g id="a_node3"><a xlink:href="navtree_8js.html#a4eb1f166c9d93b198e1621a4c787a412" target="_top" xlink:title="expandNode">
<polygon fill="white" stroke="black" points="181,-29.5 181,-48.5 252,-48.5 252,-29.5 181,-29.5"/>
<text text-anchor="middle" x="216.5" y="-36.5" font-family="Helvetica,sans-Serif" font-size="10.00">expandNode</text>
</a>
</g>
</g>
<!-- Node2&#45;&gt;Node3 -->
<g id="edge2" class="edge"><title>Node2&#45;&gt;Node3</title>
<path fill="none" stroke="midnightblue" d="M155.36,-39C163.641,-39 172.439,-39 180.676,-39"/>
<polygon fill="midnightblue" stroke="midnightblue" points="155.226,-35.5001 145.226,-39 155.226,-42.5001 155.226,-35.5001"/>
</g>
<!-- Node5 -->
<g id="node5" class="node"><title>Node5</title>
<g id="a_node5"><a xlink:href="navtree_8js.html#a0238ad48be94f9f5fd305ea40b8f64ab" target="_top" xlink:title="showNode">
<polygon fill="white" stroke="black" points="292,-57.5 292,-76.5 354,-76.5 354,-57.5 292,-57.5"/>
<text text-anchor="middle" x="323" y="-64.5" font-family="Helvetica,sans-Serif" font-size="10.00">showNode</text>
</a>
</g>
</g>
<!-- Node2&#45;&gt;Node5 -->
<g id="edge10" class="edge"><title>Node2&#45;&gt;Node5</title>
<path fill="none" stroke="midnightblue" d="M154.805,-51.4652C163.289,-54.0249 172.389,-56.418 181,-58 218.756,-64.9365 263.044,-66.7555 291.768,-67.1217"/>
<polygon fill="midnightblue" stroke="midnightblue" points="155.786,-48.1045 145.196,-48.4225 153.673,-54.7779 155.786,-48.1045"/>
</g>
<!-- Node4 -->
<g id="node4" class="node"><title>Node4</title>
<g id="a_node4"><a xlink:href="navtree_8js.html#a4d8f406d49520a0cede2e48347a3d7aa" target="_top" xlink:title="createIndent">
<polygon fill="white" stroke="black" points="288,-0.5 288,-19.5 358,-19.5 358,-0.5 288,-0.5"/>
<text text-anchor="middle" x="323" y="-7.5" font-family="Helvetica,sans-Serif" font-size="10.00">createIndent</text>
</a>
</g>
</g>
<!-- Node3&#45;&gt;Node4 -->
<g id="edge3" class="edge"><title>Node3&#45;&gt;Node4</title>
<path fill="none" stroke="midnightblue" d="M261.707,-26.732C270.463,-24.3021 279.528,-21.7866 287.886,-19.4672"/>
<polygon fill="midnightblue" stroke="midnightblue" points="260.707,-23.3773 252.007,-29.4239 262.579,-30.1224 260.707,-23.3773"/>
</g>
<!-- Node3&#45;&gt;Node5 -->
<g id="edge5" class="edge"><title>Node3&#45;&gt;Node5</title>
<path fill="none" stroke="midnightblue" d="M261.885,-50.8926C271.953,-53.5903 282.42,-56.3948 291.744,-58.893"/>
<polygon fill="midnightblue" stroke="midnightblue" points="262.572,-47.4533 252.007,-48.2458 260.76,-54.2148 262.572,-47.4533"/>
</g>
<!-- Node4&#45;&gt;Node1 -->
<g id="edge4" class="edge"><title>Node4&#45;&gt;Node1</title>
<path fill="none" stroke="midnightblue" d="M277.709,-11.5116C216.167,-13.612 106.662,-17.3494 56.0396,-19.0771"/>
<polygon fill="midnightblue" stroke="midnightblue" points="278.013,-15.0034 287.888,-11.1642 277.774,-8.00747 278.013,-15.0034"/>
</g>
<!-- Node6 -->
<g id="node6" class="node"><title>Node6</title>
<g id="a_node6"><a xlink:href="navtree_8js.html#a0e6a2d65190a43246d668bba554243e5" target="_top" xlink:title="gotoNode">
<polygon fill="white" stroke="black" points="394,-57.5 394,-76.5 452,-76.5 452,-57.5 394,-57.5"/>
<text text-anchor="middle" x="423" y="-64.5" font-family="Helvetica,sans-Serif" font-size="10.00">gotoNode</text>
</a>
</g>
</g>
<!-- Node5&#45;&gt;Node6 -->
<g id="edge6" class="edge"><title>Node5&#45;&gt;Node6</title>
<path fill="none" stroke="midnightblue" d="M364.265,-67C374.16,-67 384.545,-67 393.737,-67"/>
<polygon fill="midnightblue" stroke="midnightblue" points="364.203,-63.5001 354.203,-67 364.203,-70.5001 364.203,-63.5001"/>
</g>
<!-- Node7 -->
<g id="node7" class="node"><title>Node7</title>
<g id="a_node7"><a xlink:href="navtree_8js.html#a21beb601032fff375100a907f32129a5" target="_top" xlink:title="navTo">
<polygon fill="white" stroke="black" points="488,-57.5 488,-76.5 529,-76.5 529,-57.5 488,-57.5"/>
<text text-anchor="middle" x="508.5" y="-64.5" font-family="Helvetica,sans-Serif" font-size="10.00">navTo</text>
</a>
</g>
</g>
<!-- Node6&#45;&gt;Node7 -->
<g id="edge7" class="edge"><title>Node6&#45;&gt;Node7</title>
<path fill="none" stroke="midnightblue" d="M462.452,-60.2688C471.284,-60.1681 480.315,-60.4725 487.949,-61.182"/>
<polygon fill="midnightblue" stroke="midnightblue" points="462.16,-56.7758 452.269,-60.573 462.369,-63.7727 462.16,-56.7758"/>
</g>
<!-- Node7&#45;&gt;Node6 -->
<g id="edge8" class="edge"><title>Node7&#45;&gt;Node6</title>
<path fill="none" stroke="midnightblue" d="M477.887,-73.4898C469.556,-73.8565 460.519,-73.8356 452.269,-73.427"/>
<polygon fill="midnightblue" stroke="midnightblue" points="478.205,-76.9765 487.949,-72.818 477.738,-69.9921 478.205,-76.9765"/>
</g>
<!-- Node8 -->
<g id="node8" class="node"><title>Node8</title>
<g id="a_node8"><a xlink:href="navtree_8js.html#aa7b3067e7ef0044572ba86240b1e58ce" target="_top" xlink:title="initNavTree">
<polygon fill="white" stroke="black" points="565,-57.5 565,-76.5 629,-76.5 629,-57.5 565,-57.5"/>
<text text-anchor="middle" x="597" y="-64.5" font-family="Helvetica,sans-Serif" font-size="10.00">initNavTree</text>
</a>
</g>
</g>
<!-- Node7&#45;&gt;Node8 -->
<g id="edge9" class="edge"><title>Node7&#45;&gt;Node8</title>
<path fill="none" stroke="midnightblue" d="M539.151,-67C547.463,-67 556.52,-67 564.913,-67"/>
<polygon fill="midnightblue" stroke="midnightblue" points="539.128,-63.5001 529.128,-67 539.128,-70.5001 539.128,-63.5001"/>
</g>
</g>
</svg>
