<?xml version="1.0" encoding="UTF-8" standalone="no"?>
<!DOCTYPE svg PUBLIC "-//W3C//DTD SVG 1.1//EN"
 "http://www.w3.org/Graphics/SVG/1.1/DTD/svg11.dtd">
<!-- Generated by graphviz version 2.38.0 (20140413.2041)
 -->
<!-- Title: gotoNode Pages: 1 -->
<!--zoomable 521 -->
<svg id="main" version="1.1" xmlns="http://www.w3.org/2000/svg" xmlns:xlink="http://www.w3.org/1999/xlink" xml:space="preserve" onload="init(evt)">
<style type="text/css"><![CDATA[
.edge:hover path { stroke: red; }
.edge:hover polygon { stroke: red; fill: red; }
]]></style>
<script type="text/javascript"><![CDATA[
var edges = document.getElementsByTagName('g');
if (edges && edges.length) {
  for (var i=0;i<edges.length;i++) {
    if (edges[i].id.substr(0,4)=='edge') {
      edges[i].setAttribute('class','edge');
    }
  }
}
]]></script>
        <defs>
                <circle id="rim" cx="0" cy="0" r="7"/>
                <circle id="rim2" cx="0" cy="0" r="3.5"/>
                <g id="zoomPlus">
                        <use xlink:href="#rim" fill="#404040">
                                <set attributeName="fill" to="#808080" begin="zoomplus.mouseover" end="zoomplus.mouseout"/>
                        </use>
                        <path d="M-4,0h8M0,-4v8" fill="none" stroke="white" stroke-width="1.5" pointer-events="none"/>
                </g>
                <g id="zoomMin">
                        <use xlink:href="#rim" fill="#404040">
                                <set attributeName="fill" to="#808080" begin="zoomminus.mouseover" end="zoomminus.mouseout"/>
                        </use>
                        <path d="M-4,0h8" fill="none" stroke="white" stroke-width="1.5" pointer-events="none"/>
                </g>
                <g id="dirArrow">
                        <path fill="none" stroke="white" stroke-width="1.5" d="M0,-3.0v7 M-2.5,-0.5L0,-3.0L2.5,-0.5"/>
                </g>
               <g id="resetDef">
                       <use xlink:href="#rim2" fill="#404040">
                               <set attributeName="fill" to="#808080" begin="reset.mouseover" end="reset.mouseout"/>
                       </use>
               </g>
        </defs>

<script type="text/javascript">
var viewWidth = 882;
var viewHeight = 521;
var sectionId = 'dynsection-14';
</script>
<script xlink:href="svgpan.js"/>
<svg id="graph" class="graph">
<g id="viewport">
<title>gotoNode</title>
<polygon fill="white" stroke="none" points="-4,4 -4,-517 878,-517 878,4 -4,4"/>
<!-- Node1 -->
<g id="node1" class="node"><title>Node1</title>
<polygon fill="#bfbfbf" stroke="black" points="0,-0.5 0,-19.5 58,-19.5 58,-0.5 0,-0.5"/>
<text text-anchor="middle" x="29" y="-7.5" font-family="Helvetica,sans-Serif" font-size="10.00">gotoNode</text>
</g>
<!-- Node2 -->
<g id="node2" class="node"><title>Node2</title>
<g id="a_node2"><a xlink:href="navtree_8js.html#a21beb601032fff375100a907f32129a5" target="_top" xlink:title="navTo">
<polygon fill="white" stroke="black" points="357.5,-9.5 357.5,-28.5 398.5,-28.5 398.5,-9.5 357.5,-9.5"/>
<text text-anchor="middle" x="378" y="-16.5" font-family="Helvetica,sans-Serif" font-size="10.00">navTo</text>
</a>
</g>
</g>
<!-- Node1&#45;&gt;Node2 -->
<g id="edge1" class="edge"><title>Node1&#45;&gt;Node2</title>
<path fill="none" stroke="midnightblue" d="M58.1025,-6.83419C122.6,-4.73575 280.777,-8.80286 347.036,-14.2217"/>
<polygon fill="midnightblue" stroke="midnightblue" points="346.941,-17.7273 357.215,-15.1385 347.569,-10.7555 346.941,-17.7273"/>
</g>
<!-- Node9 -->
<g id="node9" class="node"><title>Node9</title>
<g id="a_node9"><a xlink:href="navtree_8js.html#a0238ad48be94f9f5fd305ea40b8f64ab" target="_top" xlink:title="showNode">
<polygon fill="white" stroke="black" points="94,-123.5 94,-142.5 156,-142.5 156,-123.5 94,-123.5"/>
<text text-anchor="middle" x="125" y="-130.5" font-family="Helvetica,sans-Serif" font-size="10.00">showNode</text>
</a>
</g>
</g>
<!-- Node1&#45;&gt;Node9 -->
<g id="edge9" class="edge"><title>Node1&#45;&gt;Node9</title>
<path fill="none" stroke="midnightblue" d="M37.376,-19.6516C53.1633,-40.3094 90.4227,-89.0638 110.546,-115.396"/>
<polygon fill="midnightblue" stroke="midnightblue" points="107.805,-117.573 116.658,-123.393 113.367,-113.323 107.805,-117.573"/>
</g>
<!-- Node2&#45;&gt;Node1 -->
<g id="edge5" class="edge"><title>Node2&#45;&gt;Node1</title>
<path fill="none" stroke="midnightblue" d="M357.215,-21.8352C301.422,-24.5299 142.111,-20.7575 68.3431,-15.4216"/>
<polygon fill="midnightblue" stroke="midnightblue" points="68.3443,-11.9112 58.1025,-14.6236 67.8004,-18.89 68.3443,-11.9112"/>
</g>
<!-- Node3 -->
<g id="node3" class="node"><title>Node3</title>
<g id="a_node3"><a xlink:href="navtree_8js.html#aaa2d293f55e5fe3620af4f9a2836e428" target="_top" xlink:title="cachedLink">
<polygon fill="white" stroke="black" points="468,-85.5 468,-104.5 534,-104.5 534,-85.5 468,-85.5"/>
<text text-anchor="middle" x="501" y="-92.5" font-family="Helvetica,sans-Serif" font-size="10.00">cachedLink</text>
</a>
</g>
</g>
<!-- Node2&#45;&gt;Node3 -->
<g id="edge2" class="edge"><title>Node2&#45;&gt;Node3</title>
<path fill="none" stroke="midnightblue" d="M394.325,-28.6255C414.963,-41.5883 451.896,-64.7861 476.175,-80.0354"/>
<polygon fill="midnightblue" stroke="midnightblue" points="474.47,-83.0977 484.8,-85.4527 478.193,-77.1699 474.47,-83.0977"/>
</g>
<!-- Node5 -->
<g id="node5" class="node"><title>Node5</title>
<g id="a_node5"><a xlink:href="navtree_8js.html#a23b68d2deb28f9c2678f546e2d60e5ee" target="_top" xlink:title="glowEffect">
<polygon fill="white" stroke="black" points="470.5,-275.5 470.5,-294.5 531.5,-294.5 531.5,-275.5 470.5,-275.5"/>
<text text-anchor="middle" x="501" y="-282.5" font-family="Helvetica,sans-Serif" font-size="10.00">glowEffect</text>
</a>
</g>
</g>
<!-- Node2&#45;&gt;Node5 -->
<g id="edge4" class="edge"><title>Node2&#45;&gt;Node5</title>
<path fill="none" stroke="midnightblue" d="M384.988,-28.6845C395.227,-45.5405 416.319,-81.5757 430,-114 450.656,-162.954 444.244,-179.525 466,-228 472.057,-241.497 480.591,-255.793 487.593,-266.691"/>
<polygon fill="midnightblue" stroke="midnightblue" points="484.83,-268.86 493.252,-275.289 490.678,-265.012 484.83,-268.86"/>
</g>
<!-- Node6 -->
<g id="node6" class="node"><title>Node6</title>
<g id="a_node6"><a xlink:href="navtree_8js.html#a32f4aac18d03aee747b55dea195731ac" target="_top" xlink:title="getScript">
<polygon fill="white" stroke="black" points="723,-161.5 723,-180.5 779,-180.5 779,-161.5 723,-161.5"/>
<text text-anchor="middle" x="751" y="-168.5" font-family="Helvetica,sans-Serif" font-size="10.00">getScript</text>
</a>
</g>
</g>
<!-- Node2&#45;&gt;Node6 -->
<g id="edge6" class="edge"><title>Node2&#45;&gt;Node6</title>
<path fill="none" stroke="midnightblue" d="M398.809,-14.3758C451.138,-3.35582 595.315,19.1333 687,-43 724.271,-68.2577 740.376,-122.183 746.582,-151.329"/>
<polygon fill="midnightblue" stroke="midnightblue" points="743.153,-152.029 748.5,-161.175 750.024,-150.691 743.153,-152.029"/>
</g>
<!-- Node4 -->
<g id="node4" class="node"><title>Node4</title>
<g id="a_node4"><a xlink:href="navtree_8js.html#ac49af616f532f2364be9f58280469d33" target="_top" xlink:title="localStorageSupported">
<polygon fill="white" stroke="black" points="572,-123.5 572,-142.5 687,-142.5 687,-123.5 572,-123.5"/>
<text text-anchor="middle" x="629.5" y="-130.5" font-family="Helvetica,sans-Serif" font-size="10.00">localStorageSupported</text>
</a>
</g>
</g>
<!-- Node3&#45;&gt;Node4 -->
<g id="edge3" class="edge"><title>Node3&#45;&gt;Node4</title>
<path fill="none" stroke="midnightblue" d="M533.921,-104.589C549.952,-109.404 569.574,-115.299 586.782,-120.468"/>
<polygon fill="midnightblue" stroke="midnightblue" points="586.005,-123.889 596.589,-123.414 588.019,-117.185 586.005,-123.889"/>
</g>
<!-- Node7 -->
<g id="node7" class="node"><title>Node7</title>
<g id="a_node7"><a xlink:href="svgpan_8js.html#aa8d9f2083cafa2af98efafed94901079" target="_top" xlink:title="show">
<polygon fill="white" stroke="black" points="825,-180.5 825,-199.5 864,-199.5 864,-180.5 825,-180.5"/>
<text text-anchor="middle" x="844.5" y="-187.5" font-family="Helvetica,sans-Serif" font-size="10.00">show</text>
</a>
</g>
</g>
<!-- Node6&#45;&gt;Node7 -->
<g id="edge7" class="edge"><title>Node6&#45;&gt;Node7</title>
<path fill="none" stroke="midnightblue" d="M779.453,-176.701C790.657,-179.027 803.614,-181.718 814.931,-184.068"/>
<polygon fill="midnightblue" stroke="midnightblue" points="814.262,-187.503 824.765,-186.11 815.685,-180.649 814.262,-187.503"/>
</g>
<!-- Node8 -->
<g id="node8" class="node"><title>Node8</title>
<g id="a_node8"><a xlink:href="navtree_8js.html#af98a8e3534da945399ea20870c0f3e92" target="_top" xlink:title="showRoot">
<polygon fill="white" stroke="black" points="815,-237.5 815,-256.5 874,-256.5 874,-237.5 815,-237.5"/>
<text text-anchor="middle" x="844.5" y="-244.5" font-family="Helvetica,sans-Serif" font-size="10.00">showRoot</text>
</a>
</g>
</g>
<!-- Node6&#45;&gt;Node8 -->
<g id="edge8" class="edge"><title>Node6&#45;&gt;Node8</title>
<path fill="none" stroke="midnightblue" d="M763.589,-180.625C778.851,-193.303 805.9,-215.769 824.256,-231.016"/>
<polygon fill="midnightblue" stroke="midnightblue" points="822.077,-233.756 832.006,-237.453 826.549,-228.371 822.077,-233.756"/>
</g>
<!-- Node9&#45;&gt;Node6 -->
<g id="edge10" class="edge"><title>Node9&#45;&gt;Node6</title>
<path fill="none" stroke="midnightblue" d="M144.314,-123.375C184.982,-102.924 286.395,-57 377,-57 377,-57 377,-57 502,-57 588.036,-57 612.215,-71.4625 687,-114 705.3,-124.409 722.778,-140.93 734.662,-153.512"/>
<polygon fill="midnightblue" stroke="midnightblue" points="732.282,-156.095 741.616,-161.108 737.445,-151.368 732.282,-156.095"/>
</g>
<!-- Node10 -->
<g id="node10" class="node"><title>Node10</title>
<g id="a_node10"><a xlink:href="navtree_8js.html#a256aa4fbee866e9227f78e82e9f258bb" target="_top" xlink:title="getNode">
<polygon fill="white" stroke="black" points="214.5,-161.5 214.5,-180.5 267.5,-180.5 267.5,-161.5 214.5,-161.5"/>
<text text-anchor="middle" x="241" y="-168.5" font-family="Helvetica,sans-Serif" font-size="10.00">getNode</text>
</a>
</g>
</g>
<!-- Node9&#45;&gt;Node10 -->
<g id="edge11" class="edge"><title>Node9&#45;&gt;Node10</title>
<path fill="none" stroke="midnightblue" d="M154.767,-142.589C169.952,-147.651 188.714,-153.905 204.766,-159.255"/>
<polygon fill="midnightblue" stroke="midnightblue" points="203.76,-162.609 214.354,-162.451 205.974,-155.969 203.76,-162.609"/>
</g>
<!-- Node14 -->
<g id="node14" class="node"><title>Node14</title>
<g id="a_node14"><a xlink:href="navtree_8js.html#a4eb1f166c9d93b198e1621a4c787a412" target="_top" xlink:title="expandNode">
<polygon fill="white" stroke="black" points="594,-218.5 594,-237.5 665,-237.5 665,-218.5 594,-218.5"/>
<text text-anchor="middle" x="629.5" y="-225.5" font-family="Helvetica,sans-Serif" font-size="10.00">expandNode</text>
</a>
</g>
</g>
<!-- Node9&#45;&gt;Node14 -->
<g id="edge26" class="edge"><title>Node9&#45;&gt;Node14</title>
<path fill="none" stroke="midnightblue" d="M126.011,-142.52C126.586,-175.319 133.031,-284.748 192,-342 282.672,-430.031 340.733,-401.302 466,-418 496.838,-422.111 509.622,-434.496 536,-418 597.13,-379.771 618.917,-288.266 625.74,-247.811"/>
<polygon fill="midnightblue" stroke="midnightblue" points="629.212,-248.26 627.288,-237.841 622.295,-247.186 629.212,-248.26"/>
</g>
<!-- Node15 -->
<g id="node15" class="node"><title>Node15</title>
<g id="a_node15"><a xlink:href="navtree_8js.html#a9336c21407bb7ced644331eb7a2a6e35" target="_top" xlink:title="stripPath">
<polygon fill="white" stroke="black" points="473,-123.5 473,-142.5 529,-142.5 529,-123.5 473,-123.5"/>
<text text-anchor="middle" x="501" y="-130.5" font-family="Helvetica,sans-Serif" font-size="10.00">stripPath</text>
</a>
</g>
</g>
<!-- Node9&#45;&gt;Node15 -->
<g id="edge25" class="edge"><title>Node9&#45;&gt;Node15</title>
<path fill="none" stroke="midnightblue" d="M156.34,-127.215C211.192,-117.621 330.408,-100.724 430,-114 440.878,-115.45 452.462,-118.115 463.01,-120.999"/>
<polygon fill="midnightblue" stroke="midnightblue" points="462.172,-124.4 472.75,-123.799 464.106,-117.672 462.172,-124.4"/>
</g>
<!-- Node19 -->
<g id="node19" class="node"><title>Node19</title>
<g id="a_node19"><a xlink:href="navtree_8js.html#a0dbf0d5f6126afd88420745f7d3c202d" target="_top" xlink:title="selectAndHighlight">
<polygon fill="white" stroke="black" points="192,-313.5 192,-332.5 290,-332.5 290,-313.5 192,-313.5"/>
<text text-anchor="middle" x="241" y="-320.5" font-family="Helvetica,sans-Serif" font-size="10.00">selectAndHighlight</text>
</a>
</g>
</g>
<!-- Node9&#45;&gt;Node19 -->
<g id="edge27" class="edge"><title>Node9&#45;&gt;Node19</title>
<path fill="none" stroke="midnightblue" d="M131.81,-142.683C149.796,-172.66 204.784,-264.307 228.697,-304.161"/>
<polygon fill="midnightblue" stroke="midnightblue" points="225.919,-306.334 234.065,-313.108 231.921,-302.733 225.919,-306.334"/>
</g>
<!-- Node11 -->
<g id="node11" class="node"><title>Node11</title>
<g id="a_node11"><a xlink:href="navtree_8js.html#aa78016020f40c28356aefd325cd4df74" target="_top" xlink:title="removeToInsertLater">
<polygon fill="white" stroke="black" points="326,-123.5 326,-142.5 430,-142.5 430,-123.5 326,-123.5"/>
<text text-anchor="middle" x="378" y="-130.5" font-family="Helvetica,sans-Serif" font-size="10.00">removeToInsertLater</text>
</a>
</g>
</g>
<!-- Node10&#45;&gt;Node11 -->
<g id="edge12" class="edge"><title>Node10&#45;&gt;Node11</title>
<path fill="none" stroke="midnightblue" d="M267.71,-163.763C286.286,-158.534 311.823,-151.346 333.54,-145.233"/>
<polygon fill="midnightblue" stroke="midnightblue" points="334.534,-148.59 343.211,-142.511 332.637,-141.851 334.534,-148.59"/>
</g>
<!-- Node12 -->
<g id="node12" class="node"><title>Node12</title>
<g id="a_node12"><a xlink:href="navtree_8js.html#aa2418b16159e9502e990f97ea6ec26c8" target="_top" xlink:title="newNode">
<polygon fill="white" stroke="black" points="350,-199.5 350,-218.5 406,-218.5 406,-199.5 350,-199.5"/>
<text text-anchor="middle" x="378" y="-206.5" font-family="Helvetica,sans-Serif" font-size="10.00">newNode</text>
</a>
</g>
</g>
<!-- Node10&#45;&gt;Node12 -->
<g id="edge13" class="edge"><title>Node10&#45;&gt;Node12</title>
<path fill="none" stroke="midnightblue" d="M267.71,-178.237C288.235,-184.014 317.26,-192.184 340.24,-198.653"/>
<polygon fill="midnightblue" stroke="midnightblue" points="339.423,-202.059 349.998,-201.399 341.32,-195.321 339.423,-202.059"/>
</g>
<!-- Node13 -->
<g id="node13" class="node"><title>Node13</title>
<g id="a_node13"><a xlink:href="navtree_8js.html#a4d8f406d49520a0cede2e48347a3d7aa" target="_top" xlink:title="createIndent">
<polygon fill="white" stroke="black" points="466,-199.5 466,-218.5 536,-218.5 536,-199.5 466,-199.5"/>
<text text-anchor="middle" x="501" y="-206.5" font-family="Helvetica,sans-Serif" font-size="10.00">createIndent</text>
</a>
</g>
</g>
<!-- Node12&#45;&gt;Node13 -->
<g id="edge14" class="edge"><title>Node12&#45;&gt;Node13</title>
<path fill="none" stroke="midnightblue" d="M406.155,-209C420.696,-209 438.974,-209 455.527,-209"/>
<polygon fill="midnightblue" stroke="midnightblue" points="455.562,-212.5 465.561,-209 455.561,-205.5 455.562,-212.5"/>
</g>
<!-- Node12&#45;&gt;Node15 -->
<g id="edge20" class="edge"><title>Node12&#45;&gt;Node15</title>
<path fill="none" stroke="midnightblue" d="M403.164,-199.431C411.931,-195.5 421.711,-190.561 430,-185 448.025,-172.908 448.408,-164.713 466,-152 468.062,-150.51 470.252,-149.047 472.489,-147.636"/>
<polygon fill="midnightblue" stroke="midnightblue" points="474.344,-150.606 481.169,-142.502 470.78,-144.581 474.344,-150.606"/>
</g>
<!-- Node16 -->
<g id="node16" class="node"><title>Node16</title>
<g id="a_node16"><a xlink:href="navtree_8js.html#a364b3f4132309fa9aae78585cf2cb772" target="_top" xlink:title="pathName">
<polygon fill="white" stroke="black" points="470.5,-313.5 470.5,-332.5 531.5,-332.5 531.5,-313.5 470.5,-313.5"/>
<text text-anchor="middle" x="501" y="-320.5" font-family="Helvetica,sans-Serif" font-size="10.00">pathName</text>
</a>
</g>
</g>
<!-- Node12&#45;&gt;Node16 -->
<g id="edge21" class="edge"><title>Node12&#45;&gt;Node16</title>
<path fill="none" stroke="midnightblue" d="M386.064,-218.562C399.893,-236.821 432.154,-277.215 466,-304 467.766,-305.398 469.649,-306.754 471.587,-308.055"/>
<polygon fill="midnightblue" stroke="midnightblue" points="469.901,-311.127 480.256,-313.368 473.559,-305.158 469.901,-311.127"/>
</g>
<!-- Node17 -->
<g id="node17" class="node"><title>Node17</title>
<g id="a_node17"><a xlink:href="navtree_8js.html#ade730323aadb971c053136b7758c9dce" target="_top" xlink:title="storeLink">
<polygon fill="white" stroke="black" points="473,-161.5 473,-180.5 529,-180.5 529,-161.5 473,-161.5"/>
<text text-anchor="middle" x="501" y="-168.5" font-family="Helvetica,sans-Serif" font-size="10.00">storeLink</text>
</a>
</g>
</g>
<!-- Node12&#45;&gt;Node17 -->
<g id="edge22" class="edge"><title>Node12&#45;&gt;Node17</title>
<path fill="none" stroke="midnightblue" d="M406.155,-200.472C422.969,-195.192 444.78,-188.342 463.143,-182.575"/>
<polygon fill="midnightblue" stroke="midnightblue" points="464.444,-185.835 472.936,-179.499 462.347,-179.157 464.444,-185.835"/>
</g>
<!-- Node18 -->
<g id="node18" class="node"><title>Node18</title>
<g id="a_node18"><a xlink:href="navtree_8js.html#aee1fc3771eeb15da54962a03da1f3c11" target="_top" xlink:title="gotoAnchor">
<polygon fill="white" stroke="black" points="468,-351.5 468,-370.5 534,-370.5 534,-351.5 468,-351.5"/>
<text text-anchor="middle" x="501" y="-358.5" font-family="Helvetica,sans-Serif" font-size="10.00">gotoAnchor</text>
</a>
</g>
</g>
<!-- Node12&#45;&gt;Node18 -->
<g id="edge24" class="edge"><title>Node12&#45;&gt;Node18</title>
<path fill="none" stroke="midnightblue" d="M383.376,-218.829C394.334,-242.552 425.039,-303.798 466,-342 467.446,-343.349 469.006,-344.638 470.635,-345.862"/>
<polygon fill="midnightblue" stroke="midnightblue" points="468.857,-348.882 479.14,-351.434 472.693,-343.027 468.857,-348.882"/>
</g>
<!-- Node13&#45;&gt;Node14 -->
<g id="edge15" class="edge"><title>Node13&#45;&gt;Node14</title>
<path fill="none" stroke="midnightblue" d="M536.233,-214.142C550.878,-216.341 568.174,-218.939 583.81,-221.288"/>
<polygon fill="midnightblue" stroke="midnightblue" points="583.391,-224.764 593.8,-222.788 584.431,-217.842 583.391,-224.764"/>
</g>
<!-- Node14&#45;&gt;Node6 -->
<g id="edge16" class="edge"><title>Node14&#45;&gt;Node6</title>
<path fill="none" stroke="midnightblue" d="M650.502,-218.459C669.717,-209.294 698.97,-195.341 720.791,-184.932"/>
<polygon fill="midnightblue" stroke="midnightblue" points="722.414,-188.036 729.933,-180.572 719.4,-181.718 722.414,-188.036"/>
</g>
<!-- Node14&#45;&gt;Node7 -->
<g id="edge19" class="edge"><title>Node14&#45;&gt;Node7</title>
<path fill="none" stroke="midnightblue" d="M665.196,-221.81C706.896,-214.371 776.088,-202.027 814.877,-195.106"/>
<polygon fill="midnightblue" stroke="midnightblue" points="815.734,-198.509 824.964,-193.307 814.504,-191.618 815.734,-198.509"/>
</g>
<!-- Node14&#45;&gt;Node8 -->
<g id="edge17" class="edge"><title>Node14&#45;&gt;Node8</title>
<path fill="none" stroke="midnightblue" d="M665.196,-231.095C703.504,-234.512 765.011,-239.999 804.837,-243.551"/>
<polygon fill="midnightblue" stroke="midnightblue" points="804.691,-247.052 814.962,-244.454 805.313,-240.08 804.691,-247.052"/>
</g>
<!-- Node14&#45;&gt;Node10 -->
<g id="edge18" class="edge"><title>Node14&#45;&gt;Node10</title>
<path fill="none" stroke="midnightblue" d="M593.961,-234.435C536.752,-243.69 419.374,-256.69 326,-228 300.177,-220.066 275.163,-201.198 259.247,-187.334"/>
<polygon fill="midnightblue" stroke="midnightblue" points="261.57,-184.716 251.796,-180.625 256.885,-189.918 261.57,-184.716"/>
</g>
<!-- Node17&#45;&gt;Node4 -->
<g id="edge23" class="edge"><title>Node17&#45;&gt;Node4</title>
<path fill="none" stroke="midnightblue" d="M529.137,-162.848C545.953,-157.797 567.889,-151.207 586.872,-145.505"/>
<polygon fill="midnightblue" stroke="midnightblue" points="587.916,-148.846 596.487,-142.617 585.903,-142.142 587.916,-148.846"/>
</g>
<!-- Node19&#45;&gt;Node8 -->
<g id="edge36" class="edge"><title>Node19&#45;&gt;Node8</title>
<path fill="none" stroke="midnightblue" d="M248.255,-332.683C274.109,-371.402 377.064,-513 500,-513 500,-513 500,-513 630.5,-513 756.65,-513 820.424,-328.459 838.214,-266.795"/>
<polygon fill="midnightblue" stroke="midnightblue" points="841.691,-267.355 841.005,-256.783 834.948,-265.475 841.691,-267.355"/>
</g>
<!-- Node19&#45;&gt;Node15 -->
<g id="edge28" class="edge"><title>Node19&#45;&gt;Node15</title>
<path fill="none" stroke="midnightblue" d="M245.415,-313.365C254.541,-288.999 281.842,-224.415 326,-190 337.06,-181.38 415.536,-157.564 463.241,-143.594"/>
<polygon fill="midnightblue" stroke="midnightblue" points="464.298,-146.932 472.918,-140.772 462.338,-140.212 464.298,-146.932"/>
</g>
<!-- Node19&#45;&gt;Node16 -->
<g id="edge29" class="edge"><title>Node19&#45;&gt;Node16</title>
<path fill="none" stroke="midnightblue" d="M290.225,-323C339.342,-323 414.602,-323 460.363,-323"/>
<polygon fill="midnightblue" stroke="midnightblue" points="460.494,-326.5 470.494,-323 460.494,-319.5 460.494,-326.5"/>
</g>
<!-- Node20 -->
<g id="node20" class="node"><title>Node20</title>
<g id="a_node20"><a xlink:href="navtree_8js.html#a524fa9bfd80c70bf3a84696b2077eadb" target="_top" xlink:title="highlightAnchor">
<polygon fill="white" stroke="black" points="336.5,-351.5 336.5,-370.5 419.5,-370.5 419.5,-351.5 336.5,-351.5"/>
<text text-anchor="middle" x="378" y="-358.5" font-family="Helvetica,sans-Serif" font-size="10.00">highlightAnchor</text>
</a>
</g>
</g>
<!-- Node19&#45;&gt;Node20 -->
<g id="edge30" class="edge"><title>Node19&#45;&gt;Node20</title>
<path fill="none" stroke="midnightblue" d="M276.066,-332.589C293.413,-337.472 314.702,-343.464 333.249,-348.685"/>
<polygon fill="midnightblue" stroke="midnightblue" points="332.37,-352.074 342.945,-351.414 334.267,-345.335 332.37,-352.074"/>
</g>
<!-- Node20&#45;&gt;Node5 -->
<g id="edge34" class="edge"><title>Node20&#45;&gt;Node5</title>
<path fill="none" stroke="midnightblue" d="M392.97,-351.41C409.996,-339.824 439.747,-319.909 466,-304 468.358,-302.571 470.828,-301.115 473.314,-299.677"/>
<polygon fill="midnightblue" stroke="midnightblue" points="475.245,-302.605 482.217,-294.628 471.792,-296.516 475.245,-302.605"/>
</g>
<!-- Node20&#45;&gt;Node18 -->
<g id="edge35" class="edge"><title>Node20&#45;&gt;Node18</title>
<path fill="none" stroke="midnightblue" d="M419.628,-361C431.857,-361 445.305,-361 457.644,-361"/>
<polygon fill="midnightblue" stroke="midnightblue" points="457.696,-364.5 467.696,-361 457.696,-357.5 457.696,-364.5"/>
</g>
<!-- Node21 -->
<g id="node21" class="node"><title>Node21</title>
<g id="a_node21"><a xlink:href="navtree_8js.html#a20695277530a1a04eef8d289177a5e40" target="_top" xlink:title="hashUrl">
<polygon fill="white" stroke="black" points="476,-389.5 476,-408.5 526,-408.5 526,-389.5 476,-389.5"/>
<text text-anchor="middle" x="501" y="-396.5" font-family="Helvetica,sans-Serif" font-size="10.00">hashUrl</text>
</a>
</g>
</g>
<!-- Node20&#45;&gt;Node21 -->
<g id="edge31" class="edge"><title>Node20&#45;&gt;Node21</title>
<path fill="none" stroke="midnightblue" d="M409.533,-370.589C426.74,-375.993 448.272,-382.755 466.013,-388.326"/>
<polygon fill="midnightblue" stroke="midnightblue" points="465.369,-391.793 475.959,-391.45 467.467,-385.114 465.369,-391.793"/>
</g>
<!-- Node22 -->
<g id="node22" class="node"><title>Node22</title>
<g id="a_node22"><a xlink:href="navtree_8js.html#aaeb20639619e1371c030d36a7109b27b" target="_top" xlink:title="hashValue">
<polygon fill="white" stroke="black" points="598.5,-427.5 598.5,-446.5 660.5,-446.5 660.5,-427.5 598.5,-427.5"/>
<text text-anchor="middle" x="629.5" y="-434.5" font-family="Helvetica,sans-Serif" font-size="10.00">hashValue</text>
</a>
</g>
</g>
<!-- Node20&#45;&gt;Node22 -->
<g id="edge33" class="edge"><title>Node20&#45;&gt;Node22</title>
<path fill="none" stroke="midnightblue" d="M389.894,-370.596C405.528,-383.76 435.787,-407.033 466,-418 505.752,-432.429 554.23,-436.502 587.839,-437.383"/>
<polygon fill="midnightblue" stroke="midnightblue" points="588.138,-440.889 598.198,-437.566 588.261,-433.89 588.138,-440.889"/>
</g>
<!-- Node21&#45;&gt;Node22 -->
<g id="edge32" class="edge"><title>Node21&#45;&gt;Node22</title>
<path fill="none" stroke="midnightblue" d="M526.091,-406.237C543.71,-411.53 568.013,-418.83 588.522,-424.991"/>
<polygon fill="midnightblue" stroke="midnightblue" points="587.655,-428.385 598.239,-427.91 589.669,-421.681 587.655,-428.385"/>
</g>
</g>
</svg>
        <g id="navigator" transform="translate(0 0)" fill="#404254">
                <rect fill="#f2f5e9" fill-opacity="0.5" stroke="#606060" stroke-width=".5" x="0" y="0" width="60" height="60"/>
                <use id="zoomplus" xlink:href="#zoomPlus" x="17" y="9" onmousedown="handleZoom(evt,'in')"/>
                <use id="zoomminus" xlink:href="#zoomMin" x="42" y="9" onmousedown="handleZoom(evt,'out')"/>
                <use id="reset" xlink:href="#resetDef" x="30" y="36" onmousedown="handleReset()"/>
                <g id="arrowUp" xlink:href="#dirArrow" transform="translate(30 24)" onmousedown="handlePan(0,-1)">
                  <use xlink:href="#rim" fill="#404040">
                        <set attributeName="fill" to="#808080" begin="arrowUp.mouseover" end="arrowUp.mouseout"/>
                  </use>
                  <path fill="none" stroke="white" stroke-width="1.5" d="M0,-3.0v7 M-2.5,-0.5L0,-3.0L2.5,-0.5"/>
                </g>
                <g id="arrowRight" xlink:href="#dirArrow" transform="rotate(90) translate(36 -43)" onmousedown="handlePan(1,0)">
                  <use xlink:href="#rim" fill="#404040">
                        <set attributeName="fill" to="#808080" begin="arrowRight.mouseover" end="arrowRight.mouseout"/>
                  </use>
                  <path fill="none" stroke="white" stroke-width="1.5" d="M0,-3.0v7 M-2.5,-0.5L0,-3.0L2.5,-0.5"/>
                </g>
                <g id="arrowDown" xlink:href="#dirArrow" transform="rotate(180) translate(-30 -48)" onmousedown="handlePan(0,1)">
                  <use xlink:href="#rim" fill="#404040">
                        <set attributeName="fill" to="#808080" begin="arrowDown.mouseover" end="arrowDown.mouseout"/>
                  </use>
                  <path fill="none" stroke="white" stroke-width="1.5" d="M0,-3.0v7 M-2.5,-0.5L0,-3.0L2.5,-0.5"/>
                </g>
                <g id="arrowLeft" xlink:href="#dirArrow" transform="rotate(270) translate(-36 17)" onmousedown="handlePan(-1,0)">
                  <use xlink:href="#rim" fill="#404040">
                        <set attributeName="fill" to="#808080" begin="arrowLeft.mouseover" end="arrowLeft.mouseout"/>
                  </use>
                  <path fill="none" stroke="white" stroke-width="1.5" d="M0,-3.0v7 M-2.5,-0.5L0,-3.0L2.5,-0.5"/>
                </g>
        </g>
        <svg viewBox="0 0 15 15" width="100%" height="30px" preserveAspectRatio="xMaxYMin meet">
         <g id="arrow_out" transform="scale(0.3 0.3)">
          <a xlink:href="navtree_8js_a0e6a2d65190a43246d668bba554243e5_cgraph_org.svg" target="_base">
           <rect id="button" ry="5" rx="5" y="6" x="6" height="38" width="38"
                fill="#f2f5e9" fill-opacity="0.5" stroke="#606060" stroke-width="1.0"/>
           <path id="arrow"
             d="M 11.500037,31.436501 C 11.940474,20.09759 22.043105,11.32322 32.158766,21.979434 L 37.068811,17.246167 C 37.068811,17.246167 37.088388,32 37.088388,32 L 22.160133,31.978069 C 22.160133,31.978069 26.997745,27.140456 26.997745,27.140456 C 18.528582,18.264221 13.291696,25.230495 11.500037,31.436501 z"
             style="fill:#404040;"/>
          </a>
         </g>
        </svg>
</svg>
