<?xml version="1.0" encoding="UTF-8" standalone="no"?>
<!DOCTYPE svg PUBLIC "-//W3C//DTD SVG 1.1//EN"
 "http://www.w3.org/Graphics/SVG/1.1/DTD/svg11.dtd">
<!-- Generated by graphviz version 2.38.0 (20140413.2041)
 -->
<!-- Title: showNode Pages: 1 -->
<svg width="341pt" height="28pt"
 viewBox="0.00 0.00 341.00 28.00" xmlns="http://www.w3.org/2000/svg" xmlns:xlink="http://www.w3.org/1999/xlink">
<g id="graph0" class="graph" transform="scale(1 1) rotate(0) translate(4 24)">
<title>showNode</title>
<polygon fill="white" stroke="none" points="-4,4 -4,-24 337,-24 337,4 -4,4"/>
<!-- Node1 -->
<g id="node1" class="node"><title>Node1</title>
<polygon fill="#bfbfbf" stroke="black" points="0,-0.5 0,-19.5 62,-19.5 62,-0.5 0,-0.5"/>
<text text-anchor="middle" x="31" y="-7.5" font-family="Helvetica,sans-Serif" font-size="10.00">showNode</text>
</g>
<!-- Node2 -->
<g id="node2" class="node"><title>Node2</title>
<g id="a_node2"><a xlink:href="navtree_8js.html#a0e6a2d65190a43246d668bba554243e5" target="_top" xlink:title="gotoNode">
<polygon fill="white" stroke="black" points="98,-0.5 98,-19.5 156,-19.5 156,-0.5 98,-0.5"/>
<text text-anchor="middle" x="127" y="-7.5" font-family="Helvetica,sans-Serif" font-size="10.00">gotoNode</text>
</a>
</g>
</g>
<!-- Node1&#45;&gt;Node2 -->
<g id="edge1" class="edge"><title>Node1&#45;&gt;Node2</title>
<path fill="none" stroke="midnightblue" d="M72.0007,-10C80.7105,-10 89.7484,-10 97.8815,-10"/>
<polygon fill="midnightblue" stroke="midnightblue" points="72.0007,-6.5001 62.0006,-10 72.0006,-13.5001 72.0007,-6.5001"/>
</g>
<!-- Node3 -->
<g id="node3" class="node"><title>Node3</title>
<g id="a_node3"><a xlink:href="navtree_8js.html#a21beb601032fff375100a907f32129a5" target="_top" xlink:title="navTo">
<polygon fill="white" stroke="black" points="192,-0.5 192,-19.5 233,-19.5 233,-0.5 192,-0.5"/>
<text text-anchor="middle" x="212.5" y="-7.5" font-family="Helvetica,sans-Serif" font-size="10.00">navTo</text>
</a>
</g>
</g>
<!-- Node2&#45;&gt;Node3 -->
<g id="edge2" class="edge"><title>Node2&#45;&gt;Node3</title>
<path fill="none" stroke="midnightblue" d="M166.452,-3.26876C175.284,-3.1681 184.315,-3.47251 191.949,-4.18199"/>
<polygon fill="midnightblue" stroke="midnightblue" points="166.16,0.224195 156.269,-3.573 166.369,-6.77268 166.16,0.224195"/>
</g>
<!-- Node3&#45;&gt;Node2 -->
<g id="edge3" class="edge"><title>Node3&#45;&gt;Node2</title>
<path fill="none" stroke="midnightblue" d="M181.887,-16.4898C173.556,-16.8565 164.519,-16.8356 156.269,-16.427"/>
<polygon fill="midnightblue" stroke="midnightblue" points="182.205,-19.9765 191.949,-15.818 181.738,-12.9921 182.205,-19.9765"/>
</g>
<!-- Node4 -->
<g id="node4" class="node"><title>Node4</title>
<g id="a_node4"><a xlink:href="navtree_8js.html#aa7b3067e7ef0044572ba86240b1e58ce" target="_top" xlink:title="initNavTree">
<polygon fill="white" stroke="black" points="269,-0.5 269,-19.5 333,-19.5 333,-0.5 269,-0.5"/>
<text text-anchor="middle" x="301" y="-7.5" font-family="Helvetica,sans-Serif" font-size="10.00">initNavTree</text>
</a>
</g>
</g>
<!-- Node3&#45;&gt;Node4 -->
<g id="edge4" class="edge"><title>Node3&#45;&gt;Node4</title>
<path fill="none" stroke="midnightblue" d="M243.151,-10C251.463,-10 260.52,-10 268.913,-10"/>
<polygon fill="midnightblue" stroke="midnightblue" points="243.128,-6.5001 233.128,-10 243.128,-13.5001 243.128,-6.5001"/>
</g>
</g>
</svg>
