<?xml version="1.0" encoding="UTF-8" standalone="no"?>
<!DOCTYPE svg PUBLIC "-//W3C//DTD SVG 1.1//EN"
 "http://www.w3.org/Graphics/SVG/1.1/DTD/svg11.dtd">
<!-- Generated by graphviz version 2.38.0 (20140413.2041)
 -->
<!-- Title: newNode Pages: 1 -->
<svg width="553pt" height="209pt"
 viewBox="0.00 0.00 553.00 208.98" xmlns="http://www.w3.org/2000/svg" xmlns:xlink="http://www.w3.org/1999/xlink">
<g id="graph0" class="graph" transform="scale(1 1) rotate(0) translate(4 204.984)">
<title>newNode</title>
<polygon fill="white" stroke="none" points="-4,4 -4,-204.984 549,-204.984 549,4 -4,4"/>
<!-- Node1 -->
<g id="node1" class="node"><title>Node1</title>
<polygon fill="#bfbfbf" stroke="black" points="0,-86.484 0,-105.484 56,-105.484 56,-86.484 0,-86.484"/>
<text text-anchor="middle" x="28" y="-93.484" font-family="Helvetica,sans-Serif" font-size="10.00">newNode</text>
</g>
<!-- Node2 -->
<g id="node2" class="node"><title>Node2</title>
<g id="a_node2"><a xlink:href="navtree_8js.html#a4d8f406d49520a0cede2e48347a3d7aa" target="_top" xlink:title="createIndent">
<polygon fill="white" stroke="black" points="92,-181.484 92,-200.484 162,-200.484 162,-181.484 92,-181.484"/>
<text text-anchor="middle" x="127" y="-188.484" font-family="Helvetica,sans-Serif" font-size="10.00">createIndent</text>
</a>
</g>
</g>
<!-- Node1&#45;&gt;Node2 -->
<g id="edge1" class="edge"><title>Node1&#45;&gt;Node2</title>
<path fill="none" stroke="midnightblue" d="M35.3953,-105.85C45.8203,-121.375 67.7621,-151.811 92,-171.984 93.5592,-173.282 95.2199,-174.536 96.9368,-175.74"/>
<polygon fill="midnightblue" stroke="midnightblue" points="95.4522,-178.94 105.781,-181.298 99.1767,-173.013 95.4522,-178.94"/>
</g>
<!-- Node9 -->
<g id="node9" class="node"><title>Node9</title>
<g id="a_node9"><a xlink:href="navtree_8js.html#a9336c21407bb7ced644331eb7a2a6e35" target="_top" xlink:title="stripPath">
<polygon fill="white" stroke="black" points="99,-143.484 99,-162.484 155,-162.484 155,-143.484 99,-143.484"/>
<text text-anchor="middle" x="127" y="-150.484" font-family="Helvetica,sans-Serif" font-size="10.00">stripPath</text>
</a>
</g>
</g>
<!-- Node1&#45;&gt;Node9 -->
<g id="edge11" class="edge"><title>Node1&#45;&gt;Node9</title>
<path fill="none" stroke="midnightblue" d="M44.4489,-105.498C57.1507,-113.273 75.6529,-124.49 92,-133.984 94.5216,-135.449 97.1585,-136.959 99.8003,-138.458"/>
<polygon fill="midnightblue" stroke="midnightblue" points="98.2085,-141.578 108.64,-143.429 101.639,-135.476 98.2085,-141.578"/>
</g>
<!-- Node10 -->
<g id="node10" class="node"><title>Node10</title>
<g id="a_node10"><a xlink:href="navtree_8js.html#a364b3f4132309fa9aae78585cf2cb772" target="_top" xlink:title="pathName">
<polygon fill="white" stroke="black" points="96.5,-105.484 96.5,-124.484 157.5,-124.484 157.5,-105.484 96.5,-105.484"/>
<text text-anchor="middle" x="127" y="-112.484" font-family="Helvetica,sans-Serif" font-size="10.00">pathName</text>
</a>
</g>
</g>
<!-- Node1&#45;&gt;Node10 -->
<g id="edge12" class="edge"><title>Node1&#45;&gt;Node10</title>
<path fill="none" stroke="midnightblue" d="M56.0199,-101.277C65.4376,-103.121 76.2094,-105.231 86.4327,-107.234"/>
<polygon fill="midnightblue" stroke="midnightblue" points="85.9164,-110.699 96.4027,-109.187 87.262,-103.83 85.9164,-110.699"/>
</g>
<!-- Node11 -->
<g id="node11" class="node"><title>Node11</title>
<g id="a_node11"><a xlink:href="navtree_8js.html#ade730323aadb971c053136b7758c9dce" target="_top" xlink:title="storeLink">
<polygon fill="white" stroke="black" points="99,-67.484 99,-86.484 155,-86.484 155,-67.484 99,-67.484"/>
<text text-anchor="middle" x="127" y="-74.484" font-family="Helvetica,sans-Serif" font-size="10.00">storeLink</text>
</a>
</g>
</g>
<!-- Node1&#45;&gt;Node11 -->
<g id="edge13" class="edge"><title>Node1&#45;&gt;Node11</title>
<path fill="none" stroke="midnightblue" d="M56.0199,-90.6914C66.1304,-88.711 77.8016,-86.4249 88.6794,-84.2942"/>
<polygon fill="midnightblue" stroke="midnightblue" points="89.6479,-87.6711 98.7886,-82.314 88.3022,-80.8016 89.6479,-87.6711"/>
</g>
<!-- Node13 -->
<g id="node13" class="node"><title>Node13</title>
<g id="a_node13"><a xlink:href="navtree_8js.html#aee1fc3771eeb15da54962a03da1f3c11" target="_top" xlink:title="gotoAnchor">
<polygon fill="white" stroke="black" points="94,-29.484 94,-48.484 160,-48.484 160,-29.484 94,-29.484"/>
<text text-anchor="middle" x="127" y="-36.484" font-family="Helvetica,sans-Serif" font-size="10.00">gotoAnchor</text>
</a>
</g>
</g>
<!-- Node1&#45;&gt;Node13 -->
<g id="edge15" class="edge"><title>Node1&#45;&gt;Node13</title>
<path fill="none" stroke="midnightblue" d="M44.4489,-86.4701C57.1507,-78.6954 75.6529,-67.4782 92,-57.984 94.5216,-56.5194 97.1585,-55.0092 99.8003,-53.5101"/>
<polygon fill="midnightblue" stroke="midnightblue" points="101.639,-56.4915 108.64,-48.5394 98.2085,-50.3898 101.639,-56.4915"/>
</g>
<!-- Node3 -->
<g id="node3" class="node"><title>Node3</title>
<g id="a_node3"><a xlink:href="navtree_8js.html#a4eb1f166c9d93b198e1621a4c787a412" target="_top" xlink:title="expandNode">
<polygon fill="white" stroke="black" points="220,-143.484 220,-162.484 291,-162.484 291,-143.484 220,-143.484"/>
<text text-anchor="middle" x="255.5" y="-150.484" font-family="Helvetica,sans-Serif" font-size="10.00">expandNode</text>
</a>
</g>
</g>
<!-- Node2&#45;&gt;Node3 -->
<g id="edge2" class="edge"><title>Node2&#45;&gt;Node3</title>
<path fill="none" stroke="midnightblue" d="M159.921,-181.395C175.952,-176.58 195.574,-170.685 212.782,-165.516"/>
<polygon fill="midnightblue" stroke="midnightblue" points="214.019,-168.799 222.589,-162.57 212.005,-162.095 214.019,-168.799"/>
</g>
<!-- Node4 -->
<g id="node4" class="node"><title>Node4</title>
<g id="a_node4"><a xlink:href="navtree_8js.html#a32f4aac18d03aee747b55dea195731ac" target="_top" xlink:title="getScript">
<polygon fill="white" stroke="black" points="349,-143.484 349,-162.484 405,-162.484 405,-143.484 349,-143.484"/>
<text text-anchor="middle" x="377" y="-150.484" font-family="Helvetica,sans-Serif" font-size="10.00">getScript</text>
</a>
</g>
</g>
<!-- Node3&#45;&gt;Node4 -->
<g id="edge3" class="edge"><title>Node3&#45;&gt;Node4</title>
<path fill="none" stroke="midnightblue" d="M291.064,-152.984C305.962,-152.984 323.417,-152.984 338.615,-152.984"/>
<polygon fill="midnightblue" stroke="midnightblue" points="338.718,-156.484 348.718,-152.984 338.718,-149.484 338.718,-156.484"/>
</g>
<!-- Node5 -->
<g id="node5" class="node"><title>Node5</title>
<g id="a_node5"><a xlink:href="svgpan_8js.html#aa8d9f2083cafa2af98efafed94901079" target="_top" xlink:title="show">
<polygon fill="white" stroke="black" points="473.5,-171.484 473.5,-190.484 512.5,-190.484 512.5,-171.484 473.5,-171.484"/>
<text text-anchor="middle" x="493" y="-178.484" font-family="Helvetica,sans-Serif" font-size="10.00">show</text>
</a>
</g>
</g>
<!-- Node3&#45;&gt;Node5 -->
<g id="edge10" class="edge"><title>Node3&#45;&gt;Node5</title>
<path fill="none" stroke="midnightblue" d="M291.005,-161.266C308.315,-165.115 329.662,-169.402 349,-171.984 388.354,-177.238 434.223,-179.439 463.185,-180.352"/>
<polygon fill="midnightblue" stroke="midnightblue" points="463.313,-183.857 473.408,-180.642 463.512,-176.859 463.313,-183.857"/>
</g>
<!-- Node6 -->
<g id="node6" class="node"><title>Node6</title>
<g id="a_node6"><a xlink:href="navtree_8js.html#af98a8e3534da945399ea20870c0f3e92" target="_top" xlink:title="showRoot">
<polygon fill="white" stroke="black" points="463.5,-114.484 463.5,-133.484 522.5,-133.484 522.5,-114.484 463.5,-114.484"/>
<text text-anchor="middle" x="493" y="-121.484" font-family="Helvetica,sans-Serif" font-size="10.00">showRoot</text>
</a>
</g>
</g>
<!-- Node3&#45;&gt;Node6 -->
<g id="edge6" class="edge"><title>Node3&#45;&gt;Node6</title>
<path fill="none" stroke="midnightblue" d="M291.013,-144.76C308.325,-140.925 329.671,-136.633 349,-133.984 384.136,-129.169 424.464,-126.616 453.317,-125.298"/>
<polygon fill="midnightblue" stroke="midnightblue" points="453.556,-128.791 463.397,-124.867 453.257,-121.798 453.556,-128.791"/>
</g>
<!-- Node7 -->
<g id="node7" class="node"><title>Node7</title>
<g id="a_node7"><a xlink:href="navtree_8js.html#a256aa4fbee866e9227f78e82e9f258bb" target="_top" xlink:title="getNode">
<polygon fill="white" stroke="black" points="350.5,-29.484 350.5,-48.484 403.5,-48.484 403.5,-29.484 350.5,-29.484"/>
<text text-anchor="middle" x="377" y="-36.484" font-family="Helvetica,sans-Serif" font-size="10.00">getNode</text>
</a>
</g>
</g>
<!-- Node3&#45;&gt;Node7 -->
<g id="edge7" class="edge"><title>Node3&#45;&gt;Node7</title>
<path fill="none" stroke="midnightblue" d="M266.689,-143.264C287.061,-123.83 333.034,-79.9728 358.388,-55.7851"/>
<polygon fill="midnightblue" stroke="midnightblue" points="361.018,-58.1141 365.837,-48.6789 356.186,-53.0491 361.018,-58.1141"/>
</g>
<!-- Node4&#45;&gt;Node5 -->
<g id="edge4" class="edge"><title>Node4&#45;&gt;Node5</title>
<path fill="none" stroke="midnightblue" d="M405.016,-159.62C422.629,-163.946 445.582,-169.583 463.486,-173.981"/>
<polygon fill="midnightblue" stroke="midnightblue" points="462.82,-177.421 473.367,-176.407 464.49,-170.623 462.82,-177.421"/>
</g>
<!-- Node4&#45;&gt;Node6 -->
<g id="edge5" class="edge"><title>Node4&#45;&gt;Node6</title>
<path fill="none" stroke="midnightblue" d="M405.016,-146.111C419.383,-142.457 437.303,-137.898 453.138,-133.87"/>
<polygon fill="midnightblue" stroke="midnightblue" points="454.356,-137.172 463.185,-131.314 452.63,-130.388 454.356,-137.172"/>
</g>
<!-- Node7&#45;&gt;Node1 -->
<g id="edge9" class="edge"><title>Node7&#45;&gt;Node1</title>
<path fill="none" stroke="midnightblue" d="M350.562,-29.4173C298.953,-11.6431 179.434,21.1062 92,-19.984 66.8876,-31.7857 48.3409,-59.0575 38.0993,-77.5116"/>
<polygon fill="midnightblue" stroke="midnightblue" points="34.9473,-75.9859 33.3923,-86.466 41.1433,-79.243 34.9473,-75.9859"/>
</g>
<!-- Node8 -->
<g id="node8" class="node"><title>Node8</title>
<g id="a_node8"><a xlink:href="navtree_8js.html#aa78016020f40c28356aefd325cd4df74" target="_top" xlink:title="removeToInsertLater">
<polygon fill="white" stroke="black" points="441,-29.484 441,-48.484 545,-48.484 545,-29.484 441,-29.484"/>
<text text-anchor="middle" x="493" y="-36.484" font-family="Helvetica,sans-Serif" font-size="10.00">removeToInsertLater</text>
</a>
</g>
</g>
<!-- Node7&#45;&gt;Node8 -->
<g id="edge8" class="edge"><title>Node7&#45;&gt;Node8</title>
<path fill="none" stroke="midnightblue" d="M403.584,-38.984C411.769,-38.984 421.211,-38.984 430.813,-38.984"/>
<polygon fill="midnightblue" stroke="midnightblue" points="430.83,-42.4841 440.83,-38.984 430.83,-35.4841 430.83,-42.4841"/>
</g>
<!-- Node12 -->
<g id="node12" class="node"><title>Node12</title>
<g id="a_node12"><a xlink:href="navtree_8js.html#ac49af616f532f2364be9f58280469d33" target="_top" xlink:title="localStorageSupported">
<polygon fill="white" stroke="black" points="198,-67.484 198,-86.484 313,-86.484 313,-67.484 198,-67.484"/>
<text text-anchor="middle" x="255.5" y="-74.484" font-family="Helvetica,sans-Serif" font-size="10.00">localStorageSupported</text>
</a>
</g>
</g>
<!-- Node11&#45;&gt;Node12 -->
<g id="edge14" class="edge"><title>Node11&#45;&gt;Node12</title>
<path fill="none" stroke="midnightblue" d="M155.137,-76.984C164.795,-76.984 176.142,-76.984 187.649,-76.984"/>
<polygon fill="midnightblue" stroke="midnightblue" points="187.763,-80.4841 197.763,-76.984 187.763,-73.4841 187.763,-80.4841"/>
</g>
</g>
</svg>
