<?xml version="1.0" encoding="UTF-8" standalone="no"?>
<!DOCTYPE svg PUBLIC "-//W3C//DTD SVG 1.1//EN"
 "http://www.w3.org/Graphics/SVG/1.1/DTD/svg11.dtd">
<!-- Generated by graphviz version 2.38.0 (20140413.2041)
 -->
<!-- Title: initNavTree Pages: 1 -->
<svg width="1128pt" height="996pt"
 viewBox="0.00 0.00 1128.00 996.28" xmlns="http://www.w3.org/2000/svg" xmlns:xlink="http://www.w3.org/1999/xlink">
<g id="graph0" class="graph" transform="scale(1 1) rotate(0) translate(4 992.284)">
<title>initNavTree</title>
<polygon fill="white" stroke="none" points="-4,4 -4,-992.284 1124,-992.284 1124,4 -4,4"/>
<!-- Node1 -->
<g id="node1" class="node"><title>Node1</title>
<polygon fill="#bfbfbf" stroke="black" points="0,-655.784 0,-674.784 64,-674.784 64,-655.784 0,-655.784"/>
<text text-anchor="middle" x="32" y="-662.784" font-family="Helvetica,sans-Serif" font-size="10.00">initNavTree</text>
</g>
<!-- Node2 -->
<g id="node2" class="node"><title>Node2</title>
<g id="a_node2"><a xlink:href="navtree_8js.html#ac49af616f532f2364be9f58280469d33" target="_top" xlink:title="localStorageSupported">
<polygon fill="white" stroke="black" points="818,-845.784 818,-864.784 933,-864.784 933,-845.784 818,-845.784"/>
<text text-anchor="middle" x="875.5" y="-852.784" font-family="Helvetica,sans-Serif" font-size="10.00">localStorageSupported</text>
</a>
</g>
</g>
<!-- Node1&#45;&gt;Node2 -->
<g id="edge1" class="edge"><title>Node1&#45;&gt;Node2</title>
<path fill="none" stroke="midnightblue" d="M32.825,-675.16C32.7062,-711.464 36.983,-839.245 100,-913.284 152.473,-974.935 185.042,-988.284 266,-988.284 266,-988.284 266,-988.284 625,-988.284 722.658,-988.284 819.217,-907.954 857.402,-872.154"/>
<polygon fill="midnightblue" stroke="midnightblue" points="860.231,-874.29 865.039,-864.849 855.393,-869.231 860.231,-874.29"/>
</g>
<!-- Node3 -->
<g id="node3" class="node"><title>Node3</title>
<g id="a_node3"><a xlink:href="navtree_8js.html#aaa2d293f55e5fe3620af4f9a2836e428" target="_top" xlink:title="cachedLink">
<polygon fill="white" stroke="black" points="234,-674.784 234,-693.784 300,-693.784 300,-674.784 234,-674.784"/>
<text text-anchor="middle" x="267" y="-681.784" font-family="Helvetica,sans-Serif" font-size="10.00">cachedLink</text>
</a>
</g>
</g>
<!-- Node1&#45;&gt;Node3 -->
<g id="edge2" class="edge"><title>Node1&#45;&gt;Node3</title>
<path fill="none" stroke="midnightblue" d="M64.4234,-667.846C105.564,-671.201 177.829,-677.094 223.735,-680.837"/>
<polygon fill="midnightblue" stroke="midnightblue" points="223.704,-684.346 233.956,-681.671 224.273,-677.369 223.704,-684.346"/>
</g>
<!-- Node4 -->
<g id="node4" class="node"><title>Node4</title>
<g id="a_node4"><a xlink:href="navtree_8js.html#a6522b3f540ead0febf12ccf5fc1f04c4" target="_top" xlink:title="showSyncOff">
<polygon fill="white" stroke="black" points="230,-940.784 230,-959.784 304,-959.784 304,-940.784 230,-940.784"/>
<text text-anchor="middle" x="267" y="-947.784" font-family="Helvetica,sans-Serif" font-size="10.00">showSyncOff</text>
</a>
</g>
</g>
<!-- Node1&#45;&gt;Node4 -->
<g id="edge4" class="edge"><title>Node1&#45;&gt;Node4</title>
<path fill="none" stroke="midnightblue" d="M33.5579,-675.157C35.8682,-707.244 47.2374,-809.98 100,-870.284 131.521,-906.31 182.904,-927.552 220.163,-938.985"/>
<polygon fill="midnightblue" stroke="midnightblue" points="219.208,-942.353 229.789,-941.819 221.185,-935.637 219.208,-942.353"/>
</g>
<!-- Node5 -->
<g id="node5" class="node"><title>Node5</title>
<g id="a_node5"><a xlink:href="navtree_8js.html#a84095390aca39b6cb693d3fb22d32dd0" target="_top" xlink:title="showSyncOn">
<polygon fill="white" stroke="black" points="230,-902.784 230,-921.784 304,-921.784 304,-902.784 230,-902.784"/>
<text text-anchor="middle" x="267" y="-909.784" font-family="Helvetica,sans-Serif" font-size="10.00">showSyncOn</text>
</a>
</g>
</g>
<!-- Node1&#45;&gt;Node5 -->
<g id="edge5" class="edge"><title>Node1&#45;&gt;Node5</title>
<path fill="none" stroke="midnightblue" d="M34.6146,-674.862C39.6158,-701.873 57.1678,-779.71 100,-826.284 133.581,-862.798 186.235,-886.367 223.218,-899.432"/>
<polygon fill="midnightblue" stroke="midnightblue" points="222.137,-902.761 232.732,-902.685 224.402,-896.138 222.137,-902.761"/>
</g>
<!-- Node6 -->
<g id="node6" class="node"><title>Node6</title>
<g id="a_node6"><a xlink:href="navtree_8js.html#a646cb31d83b39aafec92e0e1d123563a" target="_top" xlink:title="toggleSyncButton">
<polygon fill="white" stroke="black" points="100,-797.784 100,-816.784 194,-816.784 194,-797.784 100,-797.784"/>
<text text-anchor="middle" x="147" y="-804.784" font-family="Helvetica,sans-Serif" font-size="10.00">toggleSyncButton</text>
</a>
</g>
</g>
<!-- Node1&#45;&gt;Node6 -->
<g id="edge6" class="edge"><title>Node1&#45;&gt;Node6</title>
<path fill="none" stroke="midnightblue" d="M40.7669,-675.044C59.5556,-698.654 107.685,-759.136 131.793,-789.431"/>
<polygon fill="midnightblue" stroke="midnightblue" points="129.213,-791.81 138.179,-797.455 134.691,-787.451 129.213,-791.81"/>
</g>
<!-- Node8 -->
<g id="node8" class="node"><title>Node8</title>
<g id="a_node8"><a xlink:href="navtree_8js.html#a70bc36adda6141a703fc7ee2b772ec63" target="_top" xlink:title="stripPath2">
<polygon fill="white" stroke="black" points="236.5,-712.784 236.5,-731.784 297.5,-731.784 297.5,-712.784 236.5,-712.784"/>
<text text-anchor="middle" x="267" y="-719.784" font-family="Helvetica,sans-Serif" font-size="10.00">stripPath2</text>
</a>
</g>
</g>
<!-- Node1&#45;&gt;Node8 -->
<g id="edge56" class="edge"><title>Node1&#45;&gt;Node8</title>
<path fill="none" stroke="midnightblue" d="M58.2129,-674.799C70.671,-679.279 85.9998,-684.464 100,-688.284 142.695,-699.932 192.535,-709.632 226.379,-715.65"/>
<polygon fill="midnightblue" stroke="midnightblue" points="225.889,-719.117 236.343,-717.398 227.099,-712.223 225.889,-719.117"/>
</g>
<!-- Node9 -->
<g id="node9" class="node"><title>Node9</title>
<g id="a_node9"><a xlink:href="navtree_8js.html#a364b3f4132309fa9aae78585cf2cb772" target="_top" xlink:title="pathName">
<polygon fill="white" stroke="black" points="716.5,-465.784 716.5,-484.784 777.5,-484.784 777.5,-465.784 716.5,-465.784"/>
<text text-anchor="middle" x="747" y="-472.784" font-family="Helvetica,sans-Serif" font-size="10.00">pathName</text>
</a>
</g>
</g>
<!-- Node1&#45;&gt;Node9 -->
<g id="edge54" class="edge"><title>Node1&#45;&gt;Node9</title>
<path fill="none" stroke="midnightblue" d="M36.4092,-655.656C44.3148,-634.656 65.8676,-584.371 100,-556.284 160.813,-506.241 187.244,-494.284 266,-494.284 266,-494.284 266,-494.284 488,-494.284 565.362,-494.284 655.42,-485.682 706.066,-480.054"/>
<polygon fill="midnightblue" stroke="midnightblue" points="706.713,-483.503 716.257,-478.902 705.927,-476.547 706.713,-483.503"/>
</g>
<!-- Node10 -->
<g id="node10" class="node"><title>Node10</title>
<g id="a_node10"><a xlink:href="navtree_8js.html#a20695277530a1a04eef8d289177a5e40" target="_top" xlink:title="hashUrl">
<polygon fill="white" stroke="black" points="722,-636.784 722,-655.784 772,-655.784 772,-636.784 722,-636.784"/>
<text text-anchor="middle" x="747" y="-643.784" font-family="Helvetica,sans-Serif" font-size="10.00">hashUrl</text>
</a>
</g>
</g>
<!-- Node1&#45;&gt;Node10 -->
<g id="edge51" class="edge"><title>Node1&#45;&gt;Node10</title>
<path fill="none" stroke="midnightblue" d="M64.2144,-661.114C108.857,-655.521 193.555,-646.284 266,-646.284 266,-646.284 266,-646.284 488,-646.284 568.121,-646.284 662.238,-646.284 711.675,-646.284"/>
<polygon fill="midnightblue" stroke="midnightblue" points="711.813,-649.784 721.813,-646.284 711.812,-642.784 711.813,-649.784"/>
</g>
<!-- Node11 -->
<g id="node11" class="node"><title>Node11</title>
<g id="a_node11"><a xlink:href="navtree_8js.html#aaeb20639619e1371c030d36a7109b27b" target="_top" xlink:title="hashValue">
<polygon fill="white" stroke="black" points="844.5,-598.784 844.5,-617.784 906.5,-617.784 906.5,-598.784 844.5,-598.784"/>
<text text-anchor="middle" x="875.5" y="-605.784" font-family="Helvetica,sans-Serif" font-size="10.00">hashValue</text>
</a>
</g>
</g>
<!-- Node1&#45;&gt;Node11 -->
<g id="edge55" class="edge"><title>Node1&#45;&gt;Node11</title>
<path fill="none" stroke="midnightblue" d="M56.0237,-655.743C97.3291,-639.517 187.084,-608.284 266,-608.284 266,-608.284 266,-608.284 625,-608.284 698.648,-608.284 784.524,-608.284 833.899,-608.284"/>
<polygon fill="midnightblue" stroke="midnightblue" points="834.159,-611.784 844.159,-608.284 834.159,-604.784 834.159,-611.784"/>
</g>
<!-- Node13 -->
<g id="node13" class="node"><title>Node13</title>
<g id="a_node13"><a xlink:href="navtree_8js.html#a21beb601032fff375100a907f32129a5" target="_top" xlink:title="navTo">
<polygon fill="white" stroke="black" points="126.5,-180.784 126.5,-199.784 167.5,-199.784 167.5,-180.784 126.5,-180.784"/>
<text text-anchor="middle" x="147" y="-187.784" font-family="Helvetica,sans-Serif" font-size="10.00">navTo</text>
</a>
</g>
</g>
<!-- Node1&#45;&gt;Node13 -->
<g id="edge17" class="edge"><title>Node1&#45;&gt;Node13</title>
<path fill="none" stroke="midnightblue" d="M32.913,-655.519C32.8299,-608.692 36.2775,-403.181 100,-252.284 107.049,-235.592 119.481,-219.24 129.645,-207.523"/>
<polygon fill="midnightblue" stroke="midnightblue" points="132.444,-209.645 136.536,-199.872 127.242,-204.96 132.444,-209.645"/>
</g>
<!-- Node19 -->
<g id="node19" class="node"><title>Node19</title>
<g id="a_node19"><a xlink:href="navtree_8js.html#af98a8e3534da945399ea20870c0f3e92" target="_top" xlink:title="showRoot">
<polygon fill="white" stroke="black" points="1061,-227.784 1061,-246.784 1120,-246.784 1120,-227.784 1061,-227.784"/>
<text text-anchor="middle" x="1090.5" y="-234.784" font-family="Helvetica,sans-Serif" font-size="10.00">showRoot</text>
</a>
</g>
</g>
<!-- Node1&#45;&gt;Node19 -->
<g id="edge52" class="edge"><title>Node1&#45;&gt;Node19</title>
<path fill="none" stroke="midnightblue" d="M42.5653,-655.769C54.8388,-644.087 77.2703,-624.453 100,-613.284 168.401,-579.672 189.787,-570.284 266,-570.284 266,-570.284 266,-570.284 876.5,-570.284 1026.33,-570.284 1075.52,-328.096 1086.75,-256.802"/>
<polygon fill="midnightblue" stroke="midnightblue" points="1090.22,-257.299 1088.24,-246.891 1083.29,-256.261 1090.22,-257.299"/>
</g>
<!-- Node25 -->
<g id="node25" class="node"><title>Node25</title>
<g id="a_node25"><a xlink:href="navtree_8js.html#a9336c21407bb7ced644331eb7a2a6e35" target="_top" xlink:title="stripPath">
<polygon fill="white" stroke="black" points="719,-256.784 719,-275.784 775,-275.784 775,-256.784 719,-256.784"/>
<text text-anchor="middle" x="747" y="-263.784" font-family="Helvetica,sans-Serif" font-size="10.00">stripPath</text>
</a>
</g>
</g>
<!-- Node1&#45;&gt;Node25 -->
<g id="edge53" class="edge"><title>Node1&#45;&gt;Node25</title>
<path fill="none" stroke="midnightblue" d="M33.8526,-655.421C39.7453,-593.978 79.8966,-266.284 266,-266.284 266,-266.284 266,-266.284 488,-266.284 566.616,-266.284 658.708,-266.284 708.843,-266.284"/>
<polygon fill="midnightblue" stroke="midnightblue" points="708.884,-269.784 718.884,-266.284 708.884,-262.784 708.884,-269.784"/>
</g>
<!-- Node3&#45;&gt;Node2 -->
<g id="edge3" class="edge"><title>Node3&#45;&gt;Node2</title>
<path fill="none" stroke="midnightblue" d="M297.439,-693.785C368.376,-716.531 554.546,-775.333 712,-817.284 747.999,-826.875 788.831,-836.418 820.559,-843.542"/>
<polygon fill="midnightblue" stroke="midnightblue" points="820.001,-847.003 830.523,-845.766 821.526,-840.171 820.001,-847.003"/>
</g>
<!-- Node6&#45;&gt;Node4 -->
<g id="edge7" class="edge"><title>Node6&#45;&gt;Node4</title>
<path fill="none" stroke="midnightblue" d="M152.249,-816.836C162.645,-839.312 191.363,-896.281 230,-931.284 231.493,-932.636 233.099,-933.923 234.776,-935.141"/>
<polygon fill="midnightblue" stroke="midnightblue" points="233.212,-938.293 243.538,-940.661 236.943,-932.37 233.212,-938.293"/>
</g>
<!-- Node6&#45;&gt;Node5 -->
<g id="edge14" class="edge"><title>Node6&#45;&gt;Node5</title>
<path fill="none" stroke="midnightblue" d="M163.342,-817.019C172.714,-823.342 184.652,-832.094 194,-841.284 212.764,-859.729 210.794,-870.298 230,-888.284 233.207,-891.287 236.829,-894.171 240.508,-896.834"/>
<polygon fill="midnightblue" stroke="midnightblue" points="238.783,-899.893 249.028,-902.596 242.705,-894.094 238.783,-899.893"/>
</g>
<!-- Node7 -->
<g id="node7" class="node"><title>Node7</title>
<g id="a_node7"><a xlink:href="navtree_8js.html#ade730323aadb971c053136b7758c9dce" target="_top" xlink:title="storeLink">
<polygon fill="white" stroke="black" points="719,-788.784 719,-807.784 775,-807.784 775,-788.784 719,-788.784"/>
<text text-anchor="middle" x="747" y="-795.784" font-family="Helvetica,sans-Serif" font-size="10.00">storeLink</text>
</a>
</g>
</g>
<!-- Node6&#45;&gt;Node7 -->
<g id="edge8" class="edge"><title>Node6&#45;&gt;Node7</title>
<path fill="none" stroke="midnightblue" d="M194.379,-810.606C206.003,-811.302 218.453,-811.932 230,-812.284 262.874,-813.285 271.115,-812.804 304,-812.284 454.116,-809.907 632.802,-802.992 708.816,-799.859"/>
<polygon fill="midnightblue" stroke="midnightblue" points="709.001,-803.355 718.847,-799.443 708.711,-796.361 709.001,-803.355"/>
</g>
<!-- Node6&#45;&gt;Node8 -->
<g id="edge10" class="edge"><title>Node6&#45;&gt;Node8</title>
<path fill="none" stroke="midnightblue" d="M160.357,-797.78C176.281,-785.605 204.907,-763.964 230,-746.284 234.083,-743.407 238.475,-740.405 242.738,-737.537"/>
<polygon fill="midnightblue" stroke="midnightblue" points="244.787,-740.378 251.171,-731.922 240.907,-734.551 244.787,-740.378"/>
</g>
<!-- Node6&#45;&gt;Node9 -->
<g id="edge11" class="edge"><title>Node6&#45;&gt;Node9</title>
<path fill="none" stroke="midnightblue" d="M171.319,-797.726C211.755,-781.106 291.756,-748.008 304,-741.284 430.862,-671.614 446.275,-627.985 572,-556.284 616.222,-531.064 629.865,-529.805 676,-508.284 689.39,-502.038 704.193,-495.068 716.724,-489.15"/>
<polygon fill="midnightblue" stroke="midnightblue" points="718.258,-492.296 725.803,-484.858 715.267,-485.968 718.258,-492.296"/>
</g>
<!-- Node6&#45;&gt;Node10 -->
<g id="edge12" class="edge"><title>Node6&#45;&gt;Node10</title>
<path fill="none" stroke="midnightblue" d="M194.279,-798.42C225.426,-792.228 267.343,-783.455 304,-774.284 457.588,-735.855 638.265,-680.216 712.046,-657.042"/>
<polygon fill="midnightblue" stroke="midnightblue" points="713.246,-660.334 721.734,-653.993 711.144,-653.657 713.246,-660.334"/>
</g>
<!-- Node12 -->
<g id="node12" class="node"><title>Node12</title>
<g id="a_node12"><a xlink:href="navtree_8js.html#abdf8e0e69c89803c1b84784a13b7fd2e" target="_top" xlink:title="deleteLink">
<polygon fill="white" stroke="black" points="340.5,-864.784 340.5,-883.784 401.5,-883.784 401.5,-864.784 340.5,-864.784"/>
<text text-anchor="middle" x="371" y="-871.784" font-family="Helvetica,sans-Serif" font-size="10.00">deleteLink</text>
</a>
</g>
</g>
<!-- Node6&#45;&gt;Node12 -->
<g id="edge15" class="edge"><title>Node6&#45;&gt;Node12</title>
<path fill="none" stroke="midnightblue" d="M162.777,-816.859C178.724,-826.747 205.181,-841.883 230,-850.284 262.87,-861.409 301.905,-867.555 330.395,-870.835"/>
<polygon fill="midnightblue" stroke="midnightblue" points="330.065,-874.319 340.384,-871.917 330.819,-867.36 330.065,-874.319"/>
</g>
<!-- Node7&#45;&gt;Node2 -->
<g id="edge9" class="edge"><title>Node7&#45;&gt;Node2</title>
<path fill="none" stroke="midnightblue" d="M769.173,-807.824C789.606,-817.031 820.759,-831.068 843.89,-841.491"/>
<polygon fill="midnightblue" stroke="midnightblue" points="842.703,-844.795 853.258,-845.712 845.578,-838.413 842.703,-844.795"/>
</g>
<!-- Node10&#45;&gt;Node11 -->
<g id="edge13" class="edge"><title>Node10&#45;&gt;Node11</title>
<path fill="none" stroke="midnightblue" d="M772.091,-639.047C789.71,-633.754 814.013,-626.454 834.522,-620.293"/>
<polygon fill="midnightblue" stroke="midnightblue" points="835.669,-623.603 844.239,-617.374 833.655,-616.899 835.669,-623.603"/>
</g>
<!-- Node12&#45;&gt;Node2 -->
<g id="edge16" class="edge"><title>Node12&#45;&gt;Node2</title>
<path fill="none" stroke="midnightblue" d="M401.558,-873.166C480.407,-870.185 697.251,-861.986 807.804,-857.805"/>
<polygon fill="midnightblue" stroke="midnightblue" points="807.979,-861.301 817.84,-857.426 807.715,-854.306 807.979,-861.301"/>
</g>
<!-- Node13&#45;&gt;Node3 -->
<g id="edge18" class="edge"><title>Node13&#45;&gt;Node3</title>
<path fill="none" stroke="midnightblue" d="M150.357,-200.151C164.798,-260.606 241.348,-581.078 261.262,-664.447"/>
<polygon fill="midnightblue" stroke="midnightblue" points="257.91,-665.479 263.637,-674.392 264.718,-663.853 257.91,-665.479"/>
</g>
<!-- Node14 -->
<g id="node14" class="node"><title>Node14</title>
<g id="a_node14"><a xlink:href="navtree_8js.html#a23b68d2deb28f9c2678f546e2d60e5ee" target="_top" xlink:title="glowEffect">
<polygon fill="white" stroke="black" points="716.5,-66.7837 716.5,-85.7837 777.5,-85.7837 777.5,-66.7837 716.5,-66.7837"/>
<text text-anchor="middle" x="747" y="-73.7837" font-family="Helvetica,sans-Serif" font-size="10.00">glowEffect</text>
</a>
</g>
</g>
<!-- Node13&#45;&gt;Node14 -->
<g id="edge19" class="edge"><title>Node13&#45;&gt;Node14</title>
<path fill="none" stroke="midnightblue" d="M158.115,-180.564C187.916,-152.996 279.015,-76.2837 370,-76.2837 370,-76.2837 370,-76.2837 488,-76.2837 565.153,-76.2837 655.283,-76.2837 705.999,-76.2837"/>
<polygon fill="midnightblue" stroke="midnightblue" points="706.205,-79.7838 716.204,-76.2837 706.204,-72.7838 706.205,-79.7838"/>
</g>
<!-- Node15 -->
<g id="node15" class="node"><title>Node15</title>
<g id="a_node15"><a xlink:href="navtree_8js.html#a0e6a2d65190a43246d668bba554243e5" target="_top" xlink:title="gotoNode">
<polygon fill="white" stroke="black" points="238,-180.784 238,-199.784 296,-199.784 296,-180.784 238,-180.784"/>
<text text-anchor="middle" x="267" y="-187.784" font-family="Helvetica,sans-Serif" font-size="10.00">gotoNode</text>
</a>
</g>
</g>
<!-- Node13&#45;&gt;Node15 -->
<g id="edge20" class="edge"><title>Node13&#45;&gt;Node15</title>
<path fill="none" stroke="midnightblue" d="M167.751,-185.092C184.065,-183.537 207.706,-183.146 227.71,-183.918"/>
<polygon fill="midnightblue" stroke="midnightblue" points="227.616,-187.417 237.781,-184.427 227.97,-180.426 227.616,-187.417"/>
</g>
<!-- Node17 -->
<g id="node17" class="node"><title>Node17</title>
<g id="a_node17"><a xlink:href="navtree_8js.html#a32f4aac18d03aee747b55dea195731ac" target="_top" xlink:title="getScript">
<polygon fill="white" stroke="black" points="969,-142.784 969,-161.784 1025,-161.784 1025,-142.784 969,-142.784"/>
<text text-anchor="middle" x="997" y="-149.784" font-family="Helvetica,sans-Serif" font-size="10.00">getScript</text>
</a>
</g>
</g>
<!-- Node13&#45;&gt;Node17 -->
<g id="edge50" class="edge"><title>Node13&#45;&gt;Node17</title>
<path fill="none" stroke="midnightblue" d="M153.027,-180.6C173.897,-141.882 257.886,-0.283662 370,-0.283662 370,-0.283662 370,-0.283662 748,-0.283662 832.726,-0.283662 864.998,4.25494 933,-46.2837 962.651,-68.3202 980.955,-108.815 989.735,-132.869"/>
<polygon fill="midnightblue" stroke="midnightblue" points="986.536,-134.327 993.106,-142.638 993.153,-132.043 986.536,-134.327"/>
</g>
<!-- Node15&#45;&gt;Node13 -->
<g id="edge21" class="edge"><title>Node15&#45;&gt;Node13</title>
<path fill="none" stroke="midnightblue" d="M237.781,-196.14C219.716,-197.296 196.304,-197.33 177.917,-196.244"/>
<polygon fill="midnightblue" stroke="midnightblue" points="177.986,-192.74 167.751,-195.475 177.458,-199.72 177.986,-192.74"/>
</g>
<!-- Node16 -->
<g id="node16" class="node"><title>Node16</title>
<g id="a_node16"><a xlink:href="navtree_8js.html#a0238ad48be94f9f5fd305ea40b8f64ab" target="_top" xlink:title="showNode">
<polygon fill="white" stroke="black" points="340,-180.784 340,-199.784 402,-199.784 402,-180.784 340,-180.784"/>
<text text-anchor="middle" x="371" y="-187.784" font-family="Helvetica,sans-Serif" font-size="10.00">showNode</text>
</a>
</g>
</g>
<!-- Node15&#45;&gt;Node16 -->
<g id="edge22" class="edge"><title>Node15&#45;&gt;Node16</title>
<path fill="none" stroke="midnightblue" d="M296.142,-190.284C306.526,-190.284 318.504,-190.284 329.751,-190.284"/>
<polygon fill="midnightblue" stroke="midnightblue" points="329.807,-193.784 339.807,-190.284 329.807,-186.784 329.807,-193.784"/>
</g>
<!-- Node16&#45;&gt;Node17 -->
<g id="edge23" class="edge"><title>Node16&#45;&gt;Node17</title>
<path fill="none" stroke="midnightblue" d="M380.004,-180.775C408.969,-147.499 512.452,-38.2837 623,-38.2837 623,-38.2837 623,-38.2837 748,-38.2837 840.709,-38.2837 936.561,-104.866 976.605,-136.262"/>
<polygon fill="midnightblue" stroke="midnightblue" points="974.497,-139.058 984.495,-142.564 978.866,-133.588 974.497,-139.058"/>
</g>
<!-- Node20 -->
<g id="node20" class="node"><title>Node20</title>
<g id="a_node20"><a xlink:href="navtree_8js.html#a256aa4fbee866e9227f78e82e9f258bb" target="_top" xlink:title="getNode">
<polygon fill="white" stroke="black" points="460.5,-142.784 460.5,-161.784 513.5,-161.784 513.5,-142.784 460.5,-142.784"/>
<text text-anchor="middle" x="487" y="-149.784" font-family="Helvetica,sans-Serif" font-size="10.00">getNode</text>
</a>
</g>
</g>
<!-- Node16&#45;&gt;Node20 -->
<g id="edge26" class="edge"><title>Node16&#45;&gt;Node20</title>
<path fill="none" stroke="midnightblue" d="M400.767,-180.695C415.952,-175.633 434.714,-169.379 450.766,-164.028"/>
<polygon fill="midnightblue" stroke="midnightblue" points="451.974,-167.315 460.354,-160.832 449.76,-160.674 451.974,-167.315"/>
</g>
<!-- Node24 -->
<g id="node24" class="node"><title>Node24</title>
<g id="a_node24"><a xlink:href="navtree_8js.html#a4eb1f166c9d93b198e1621a4c787a412" target="_top" xlink:title="expandNode">
<polygon fill="white" stroke="black" points="840,-180.784 840,-199.784 911,-199.784 911,-180.784 840,-180.784"/>
<text text-anchor="middle" x="875.5" y="-187.784" font-family="Helvetica,sans-Serif" font-size="10.00">expandNode</text>
</a>
</g>
</g>
<!-- Node16&#45;&gt;Node24 -->
<g id="edge40" class="edge"><title>Node16&#45;&gt;Node24</title>
<path fill="none" stroke="midnightblue" d="M402.302,-190.284C487.453,-190.284 729.205,-190.284 829.764,-190.284"/>
<polygon fill="midnightblue" stroke="midnightblue" points="829.897,-193.784 839.897,-190.284 829.896,-186.784 829.897,-193.784"/>
</g>
<!-- Node16&#45;&gt;Node25 -->
<g id="edge39" class="edge"><title>Node16&#45;&gt;Node25</title>
<path fill="none" stroke="midnightblue" d="M402.214,-196.762C413.446,-199.151 426.3,-201.865 438,-204.284 489.57,-214.943 638.565,-244.794 708.682,-258.822"/>
<polygon fill="midnightblue" stroke="midnightblue" points="708.341,-262.323 718.833,-260.853 709.714,-255.459 708.341,-262.323"/>
</g>
<!-- Node27 -->
<g id="node27" class="node"><title>Node27</title>
<g id="a_node27"><a xlink:href="navtree_8js.html#a0dbf0d5f6126afd88420745f7d3c202d" target="_top" xlink:title="selectAndHighlight">
<polygon fill="white" stroke="black" points="438,-332.784 438,-351.784 536,-351.784 536,-332.784 438,-332.784"/>
<text text-anchor="middle" x="487" y="-339.784" font-family="Helvetica,sans-Serif" font-size="10.00">selectAndHighlight</text>
</a>
</g>
</g>
<!-- Node16&#45;&gt;Node27 -->
<g id="edge41" class="edge"><title>Node16&#45;&gt;Node27</title>
<path fill="none" stroke="midnightblue" d="M379.131,-199.792C397.845,-224.743 448.579,-292.389 472.794,-324.675"/>
<polygon fill="midnightblue" stroke="midnightblue" points="470.071,-326.879 478.871,-332.779 475.671,-322.679 470.071,-326.879"/>
</g>
<!-- Node18 -->
<g id="node18" class="node"><title>Node18</title>
<g id="a_node18"><a xlink:href="svgpan_8js.html#aa8d9f2083cafa2af98efafed94901079" target="_top" xlink:title="show">
<polygon fill="white" stroke="black" points="1071,-170.784 1071,-189.784 1110,-189.784 1110,-170.784 1071,-170.784"/>
<text text-anchor="middle" x="1090.5" y="-177.784" font-family="Helvetica,sans-Serif" font-size="10.00">show</text>
</a>
</g>
</g>
<!-- Node17&#45;&gt;Node18 -->
<g id="edge24" class="edge"><title>Node17&#45;&gt;Node18</title>
<path fill="none" stroke="midnightblue" d="M1025.45,-160.685C1036.66,-164.113 1049.61,-168.078 1060.93,-171.541"/>
<polygon fill="midnightblue" stroke="midnightblue" points="1060.18,-174.971 1070.76,-174.55 1062.23,-168.277 1060.18,-174.971"/>
</g>
<!-- Node17&#45;&gt;Node19 -->
<g id="edge25" class="edge"><title>Node17&#45;&gt;Node19</title>
<path fill="none" stroke="midnightblue" d="M1008.5,-162.034C1023.94,-176.381 1052.98,-203.361 1071.77,-220.815"/>
<polygon fill="midnightblue" stroke="midnightblue" points="1069.42,-223.405 1079.13,-227.647 1074.18,-218.276 1069.42,-223.405"/>
</g>
<!-- Node21 -->
<g id="node21" class="node"><title>Node21</title>
<g id="a_node21"><a xlink:href="navtree_8js.html#aa78016020f40c28356aefd325cd4df74" target="_top" xlink:title="removeToInsertLater">
<polygon fill="white" stroke="black" points="572,-142.784 572,-161.784 676,-161.784 676,-142.784 572,-142.784"/>
<text text-anchor="middle" x="624" y="-149.784" font-family="Helvetica,sans-Serif" font-size="10.00">removeToInsertLater</text>
</a>
</g>
</g>
<!-- Node20&#45;&gt;Node21 -->
<g id="edge27" class="edge"><title>Node20&#45;&gt;Node21</title>
<path fill="none" stroke="midnightblue" d="M513.71,-152.284C527.331,-152.284 544.695,-152.284 561.552,-152.284"/>
<polygon fill="midnightblue" stroke="midnightblue" points="561.944,-155.784 571.943,-152.284 561.943,-148.784 561.944,-155.784"/>
</g>
<!-- Node22 -->
<g id="node22" class="node"><title>Node22</title>
<g id="a_node22"><a xlink:href="navtree_8js.html#aa2418b16159e9502e990f97ea6ec26c8" target="_top" xlink:title="newNode">
<polygon fill="white" stroke="black" points="596,-370.784 596,-389.784 652,-389.784 652,-370.784 596,-370.784"/>
<text text-anchor="middle" x="624" y="-377.784" font-family="Helvetica,sans-Serif" font-size="10.00">newNode</text>
</a>
</g>
</g>
<!-- Node20&#45;&gt;Node22 -->
<g id="edge28" class="edge"><title>Node20&#45;&gt;Node22</title>
<path fill="none" stroke="midnightblue" d="M489.141,-162.133C493.467,-195.07 511.794,-302.596 572,-361.284 576.06,-365.241 581.018,-368.387 586.23,-370.884"/>
<polygon fill="midnightblue" stroke="midnightblue" points="585.165,-374.228 595.748,-374.715 587.778,-367.735 585.165,-374.228"/>
</g>
<!-- Node22&#45;&gt;Node7 -->
<g id="edge37" class="edge"><title>Node22&#45;&gt;Node7</title>
<path fill="none" stroke="midnightblue" d="M627.755,-389.8C643.18,-443.086 718.913,-704.71 740.341,-778.736"/>
<polygon fill="midnightblue" stroke="midnightblue" points="737.054,-779.967 743.197,-788.6 743.778,-778.021 737.054,-779.967"/>
</g>
<!-- Node22&#45;&gt;Node9 -->
<g id="edge36" class="edge"><title>Node22&#45;&gt;Node9</title>
<path fill="none" stroke="midnightblue" d="M637.493,-390.093C658.342,-406.462 700.42,-439.498 725.611,-459.276"/>
<polygon fill="midnightblue" stroke="midnightblue" points="723.728,-462.247 733.755,-465.67 728.051,-456.741 723.728,-462.247"/>
</g>
<!-- Node23 -->
<g id="node23" class="node"><title>Node23</title>
<g id="a_node23"><a xlink:href="navtree_8js.html#a4d8f406d49520a0cede2e48347a3d7aa" target="_top" xlink:title="createIndent">
<polygon fill="white" stroke="black" points="712,-370.784 712,-389.784 782,-389.784 782,-370.784 712,-370.784"/>
<text text-anchor="middle" x="747" y="-377.784" font-family="Helvetica,sans-Serif" font-size="10.00">createIndent</text>
</a>
</g>
</g>
<!-- Node22&#45;&gt;Node23 -->
<g id="edge29" class="edge"><title>Node22&#45;&gt;Node23</title>
<path fill="none" stroke="midnightblue" d="M652.155,-380.284C666.696,-380.284 684.974,-380.284 701.527,-380.284"/>
<polygon fill="midnightblue" stroke="midnightblue" points="701.562,-383.784 711.561,-380.284 701.561,-376.784 701.562,-383.784"/>
</g>
<!-- Node22&#45;&gt;Node25 -->
<g id="edge35" class="edge"><title>Node22&#45;&gt;Node25</title>
<path fill="none" stroke="midnightblue" d="M652.166,-373.42C660.335,-370.529 668.984,-366.575 676,-361.284 690.512,-350.339 718.538,-308.924 734.371,-284.538"/>
<polygon fill="midnightblue" stroke="midnightblue" points="737.501,-286.141 739.971,-275.838 731.616,-282.352 737.501,-286.141"/>
</g>
<!-- Node26 -->
<g id="node26" class="node"><title>Node26</title>
<g id="a_node26"><a xlink:href="navtree_8js.html#aee1fc3771eeb15da54962a03da1f3c11" target="_top" xlink:title="gotoAnchor">
<polygon fill="white" stroke="black" points="714,-332.784 714,-351.784 780,-351.784 780,-332.784 714,-332.784"/>
<text text-anchor="middle" x="747" y="-339.784" font-family="Helvetica,sans-Serif" font-size="10.00">gotoAnchor</text>
</a>
</g>
</g>
<!-- Node22&#45;&gt;Node26 -->
<g id="edge38" class="edge"><title>Node22&#45;&gt;Node26</title>
<path fill="none" stroke="midnightblue" d="M652.155,-371.756C667.881,-366.817 687.979,-360.505 705.538,-354.991"/>
<polygon fill="midnightblue" stroke="midnightblue" points="707.039,-358.188 715.531,-351.852 704.942,-351.509 707.039,-358.188"/>
</g>
<!-- Node23&#45;&gt;Node24 -->
<g id="edge30" class="edge"><title>Node23&#45;&gt;Node24</title>
<path fill="none" stroke="midnightblue" d="M769.437,-370.74C773.929,-368.103 778.391,-364.942 782,-361.284 826.914,-315.749 856.018,-243.933 868.109,-209.691"/>
<polygon fill="midnightblue" stroke="midnightblue" points="871.507,-210.57 871.435,-199.975 864.885,-208.302 871.507,-210.57"/>
</g>
<!-- Node24&#45;&gt;Node17 -->
<g id="edge31" class="edge"><title>Node24&#45;&gt;Node17</title>
<path fill="none" stroke="midnightblue" d="M906.655,-180.695C922.607,-175.622 942.325,-169.352 959.176,-163.994"/>
<polygon fill="midnightblue" stroke="midnightblue" points="960.246,-167.326 968.715,-160.96 958.125,-160.655 960.246,-167.326"/>
</g>
<!-- Node24&#45;&gt;Node18 -->
<g id="edge34" class="edge"><title>Node24&#45;&gt;Node18</title>
<path fill="none" stroke="midnightblue" d="M911.196,-188.655C952.896,-186.697 1022.09,-183.449 1060.88,-181.627"/>
<polygon fill="midnightblue" stroke="midnightblue" points="1061.14,-185.119 1070.96,-181.154 1060.81,-178.127 1061.14,-185.119"/>
</g>
<!-- Node24&#45;&gt;Node19 -->
<g id="edge32" class="edge"><title>Node24&#45;&gt;Node19</title>
<path fill="none" stroke="midnightblue" d="M911.196,-197.94C949.585,-206.41 1011.27,-220.022 1051.09,-228.808"/>
<polygon fill="midnightblue" stroke="midnightblue" points="1050.44,-232.25 1060.96,-230.987 1051.95,-225.414 1050.44,-232.25"/>
</g>
<!-- Node24&#45;&gt;Node20 -->
<g id="edge33" class="edge"><title>Node24&#45;&gt;Node20</title>
<path fill="none" stroke="midnightblue" d="M849.61,-180.688C812.482,-166.94 740.086,-142.303 676,-133.284 630.229,-126.842 617.937,-128.153 572,-133.284 555.943,-135.077 538.474,-138.742 523.647,-142.379"/>
<polygon fill="midnightblue" stroke="midnightblue" points="522.683,-139.012 513.853,-144.869 524.408,-145.797 522.683,-139.012"/>
</g>
<!-- Node27&#45;&gt;Node9 -->
<g id="edge43" class="edge"><title>Node27&#45;&gt;Node9</title>
<path fill="none" stroke="midnightblue" d="M494.103,-351.868C506.443,-370.427 536.247,-411.284 572,-432.284 613.759,-456.811 669.055,-467.409 705.994,-471.948"/>
<polygon fill="midnightblue" stroke="midnightblue" points="706.035,-475.475 716.365,-473.123 706.823,-468.52 706.035,-475.475"/>
</g>
<!-- Node27&#45;&gt;Node19 -->
<g id="edge49" class="edge"><title>Node27&#45;&gt;Node19</title>
<path fill="none" stroke="midnightblue" d="M498.443,-351.918C513.448,-365.127 542.558,-388.454 572,-399.284 645.01,-426.14 668.207,-418.284 746,-418.284 746,-418.284 746,-418.284 876.5,-418.284 975.962,-418.284 1052.69,-302.262 1079.34,-255.999"/>
<polygon fill="midnightblue" stroke="midnightblue" points="1082.54,-257.448 1084.38,-247.015 1076.43,-254.02 1082.54,-257.448"/>
</g>
<!-- Node27&#45;&gt;Node25 -->
<g id="edge42" class="edge"><title>Node27&#45;&gt;Node25</title>
<path fill="none" stroke="midnightblue" d="M520.415,-332.735C568.402,-318.599 658.113,-292.173 708.744,-277.258"/>
<polygon fill="midnightblue" stroke="midnightblue" points="710.022,-280.531 718.626,-274.347 708.044,-273.816 710.022,-280.531"/>
</g>
<!-- Node28 -->
<g id="node28" class="node"><title>Node28</title>
<g id="a_node28"><a xlink:href="navtree_8js.html#a524fa9bfd80c70bf3a84696b2077eadb" target="_top" xlink:title="highlightAnchor">
<polygon fill="white" stroke="black" points="582.5,-332.784 582.5,-351.784 665.5,-351.784 665.5,-332.784 582.5,-332.784"/>
<text text-anchor="middle" x="624" y="-339.784" font-family="Helvetica,sans-Serif" font-size="10.00">highlightAnchor</text>
</a>
</g>
</g>
<!-- Node27&#45;&gt;Node28 -->
<g id="edge44" class="edge"><title>Node27&#45;&gt;Node28</title>
<path fill="none" stroke="midnightblue" d="M536.357,-342.284C547.943,-342.284 560.35,-342.284 572.049,-342.284"/>
<polygon fill="midnightblue" stroke="midnightblue" points="572.111,-345.784 582.111,-342.284 572.111,-338.784 572.111,-345.784"/>
</g>
<!-- Node28&#45;&gt;Node10 -->
<g id="edge45" class="edge"><title>Node28&#45;&gt;Node10</title>
<path fill="none" stroke="midnightblue" d="M663.558,-351.852C668.219,-354.312 672.544,-357.403 676,-361.284 685.07,-371.469 727.946,-564.035 741.725,-626.734"/>
<polygon fill="midnightblue" stroke="midnightblue" points="738.318,-627.538 743.879,-636.556 745.156,-626.038 738.318,-627.538"/>
</g>
<!-- Node28&#45;&gt;Node11 -->
<g id="edge46" class="edge"><title>Node28&#45;&gt;Node11</title>
<path fill="none" stroke="midnightblue" d="M643.509,-332.551C675.147,-317.409 740.246,-292.937 782,-323.284 869.424,-386.822 875.872,-534.935 875.197,-588.503"/>
<polygon fill="midnightblue" stroke="midnightblue" points="871.694,-588.619 874.963,-598.697 878.692,-588.78 871.694,-588.619"/>
</g>
<!-- Node28&#45;&gt;Node14 -->
<g id="edge47" class="edge"><title>Node28&#45;&gt;Node14</title>
<path fill="none" stroke="midnightblue" d="M629.45,-332.501C647.277,-293.31 713.717,-147.254 737.48,-95.0126"/>
<polygon fill="midnightblue" stroke="midnightblue" points="740.682,-96.4264 741.637,-85.8746 734.311,-93.5279 740.682,-96.4264"/>
</g>
<!-- Node28&#45;&gt;Node26 -->
<g id="edge48" class="edge"><title>Node28&#45;&gt;Node26</title>
<path fill="none" stroke="midnightblue" d="M665.628,-342.284C677.857,-342.284 691.305,-342.284 703.644,-342.284"/>
<polygon fill="midnightblue" stroke="midnightblue" points="703.696,-345.784 713.696,-342.284 703.696,-338.784 703.696,-345.784"/>
</g>
</g>
</svg>
