<?xml version="1.0" encoding="UTF-8" standalone="no"?>
<!DOCTYPE svg PUBLIC "-//W3C//DTD SVG 1.1//EN"
 "http://www.w3.org/Graphics/SVG/1.1/DTD/svg11.dtd">
<!-- Generated by graphviz version 2.38.0 (20140413.2041)
 -->
<!-- Title: getNode Pages: 1 -->
<svg width="545pt" height="85pt"
 viewBox="0.00 0.00 545.00 85.00" xmlns="http://www.w3.org/2000/svg" xmlns:xlink="http://www.w3.org/1999/xlink">
<g id="graph0" class="graph" transform="scale(1 1) rotate(0) translate(4 81)">
<title>getNode</title>
<polygon fill="white" stroke="none" points="-4,4 -4,-81 541,-81 541,4 -4,4"/>
<!-- Node1 -->
<g id="node1" class="node"><title>Node1</title>
<polygon fill="#bfbfbf" stroke="black" points="0,-38.5 0,-57.5 53,-57.5 53,-38.5 0,-38.5"/>
<text text-anchor="middle" x="26.5" y="-45.5" font-family="Helvetica,sans-Serif" font-size="10.00">getNode</text>
</g>
<!-- Node2 -->
<g id="node2" class="node"><title>Node2</title>
<g id="a_node2"><a xlink:href="navtree_8js.html#a4eb1f166c9d93b198e1621a4c787a412" target="_top" xlink:title="expandNode">
<polygon fill="white" stroke="black" points="89,-38.5 89,-57.5 160,-57.5 160,-38.5 89,-38.5"/>
<text text-anchor="middle" x="124.5" y="-45.5" font-family="Helvetica,sans-Serif" font-size="10.00">expandNode</text>
</a>
</g>
</g>
<!-- Node1&#45;&gt;Node2 -->
<g id="edge1" class="edge"><title>Node1&#45;&gt;Node2</title>
<path fill="none" stroke="midnightblue" d="M63.3596,-48C71.6415,-48 80.4395,-48 88.6764,-48"/>
<polygon fill="midnightblue" stroke="midnightblue" points="63.2263,-44.5001 53.2262,-48 63.2262,-51.5001 63.2263,-44.5001"/>
</g>
<!-- Node5 -->
<g id="node5" class="node"><title>Node5</title>
<g id="a_node5"><a xlink:href="navtree_8js.html#a0238ad48be94f9f5fd305ea40b8f64ab" target="_top" xlink:title="showNode">
<polygon fill="white" stroke="black" points="200,-0.5 200,-19.5 262,-19.5 262,-0.5 200,-0.5"/>
<text text-anchor="middle" x="231" y="-7.5" font-family="Helvetica,sans-Serif" font-size="10.00">showNode</text>
</a>
</g>
</g>
<!-- Node1&#45;&gt;Node5 -->
<g id="edge10" class="edge"><title>Node1&#45;&gt;Node5</title>
<path fill="none" stroke="midnightblue" d="M62.8932,-35.97C71.3734,-33.3932 80.45,-30.8832 89,-29 126.751,-20.6851 171.041,-15.4358 199.766,-12.6113"/>
<polygon fill="midnightblue" stroke="midnightblue" points="61.7696,-32.6542 53.2794,-38.992 63.8688,-39.3321 61.7696,-32.6542"/>
</g>
<!-- Node3 -->
<g id="node3" class="node"><title>Node3</title>
<g id="a_node3"><a xlink:href="navtree_8js.html#a4d8f406d49520a0cede2e48347a3d7aa" target="_top" xlink:title="createIndent">
<polygon fill="white" stroke="black" points="196,-38.5 196,-57.5 266,-57.5 266,-38.5 196,-38.5"/>
<text text-anchor="middle" x="231" y="-45.5" font-family="Helvetica,sans-Serif" font-size="10.00">createIndent</text>
</a>
</g>
</g>
<!-- Node2&#45;&gt;Node3 -->
<g id="edge2" class="edge"><title>Node2&#45;&gt;Node3</title>
<path fill="none" stroke="midnightblue" d="M170.273,-48C178.853,-48 187.707,-48 195.886,-48"/>
<polygon fill="midnightblue" stroke="midnightblue" points="170.007,-44.5001 160.007,-48 170.007,-51.5001 170.007,-44.5001"/>
</g>
<!-- Node2&#45;&gt;Node5 -->
<g id="edge5" class="edge"><title>Node2&#45;&gt;Node5</title>
<path fill="none" stroke="midnightblue" d="M161.574,-34.882C175.396,-29.8561 190.893,-24.2209 203.639,-19.5859"/>
<polygon fill="midnightblue" stroke="midnightblue" points="160.072,-31.7042 151.87,-38.411 162.464,-38.2828 160.072,-31.7042"/>
</g>
<!-- Node4 -->
<g id="node4" class="node"><title>Node4</title>
<g id="a_node4"><a xlink:href="navtree_8js.html#aa2418b16159e9502e990f97ea6ec26c8" target="_top" xlink:title="newNode">
<polygon fill="white" stroke="black" points="303,-57.5 303,-76.5 359,-76.5 359,-57.5 303,-57.5"/>
<text text-anchor="middle" x="331" y="-64.5" font-family="Helvetica,sans-Serif" font-size="10.00">newNode</text>
</a>
</g>
</g>
<!-- Node3&#45;&gt;Node4 -->
<g id="edge3" class="edge"><title>Node3&#45;&gt;Node4</title>
<path fill="none" stroke="midnightblue" d="M275.825,-56.4968C285.026,-58.2806 294.473,-60.1121 302.849,-61.736"/>
<polygon fill="midnightblue" stroke="midnightblue" points="276.484,-53.0594 266.001,-54.592 275.152,-59.9314 276.484,-53.0594"/>
</g>
<!-- Node4&#45;&gt;Node1 -->
<g id="edge4" class="edge"><title>Node4&#45;&gt;Node1</title>
<path fill="none" stroke="midnightblue" d="M292.549,-70.441C244.938,-74.0294 160.348,-77.7701 89,-67 76.7347,-65.1485 63.5435,-61.3306 52.5352,-57.5995"/>
<polygon fill="midnightblue" stroke="midnightblue" points="293.004,-73.916 302.695,-69.6357 292.45,-66.9379 293.004,-73.916"/>
</g>
<!-- Node6 -->
<g id="node6" class="node"><title>Node6</title>
<g id="a_node6"><a xlink:href="navtree_8js.html#a0e6a2d65190a43246d668bba554243e5" target="_top" xlink:title="gotoNode">
<polygon fill="white" stroke="black" points="302,-0.5 302,-19.5 360,-19.5 360,-0.5 302,-0.5"/>
<text text-anchor="middle" x="331" y="-7.5" font-family="Helvetica,sans-Serif" font-size="10.00">gotoNode</text>
</a>
</g>
</g>
<!-- Node5&#45;&gt;Node6 -->
<g id="edge6" class="edge"><title>Node5&#45;&gt;Node6</title>
<path fill="none" stroke="midnightblue" d="M272.265,-10C282.16,-10 292.545,-10 301.737,-10"/>
<polygon fill="midnightblue" stroke="midnightblue" points="272.203,-6.5001 262.203,-10 272.203,-13.5001 272.203,-6.5001"/>
</g>
<!-- Node7 -->
<g id="node7" class="node"><title>Node7</title>
<g id="a_node7"><a xlink:href="navtree_8js.html#a21beb601032fff375100a907f32129a5" target="_top" xlink:title="navTo">
<polygon fill="white" stroke="black" points="396,-0.5 396,-19.5 437,-19.5 437,-0.5 396,-0.5"/>
<text text-anchor="middle" x="416.5" y="-7.5" font-family="Helvetica,sans-Serif" font-size="10.00">navTo</text>
</a>
</g>
</g>
<!-- Node6&#45;&gt;Node7 -->
<g id="edge7" class="edge"><title>Node6&#45;&gt;Node7</title>
<path fill="none" stroke="midnightblue" d="M370.452,-3.26876C379.284,-3.1681 388.315,-3.47251 395.949,-4.18199"/>
<polygon fill="midnightblue" stroke="midnightblue" points="370.16,0.224195 360.269,-3.573 370.369,-6.77268 370.16,0.224195"/>
</g>
<!-- Node7&#45;&gt;Node6 -->
<g id="edge8" class="edge"><title>Node7&#45;&gt;Node6</title>
<path fill="none" stroke="midnightblue" d="M385.887,-16.4898C377.556,-16.8565 368.519,-16.8356 360.269,-16.427"/>
<polygon fill="midnightblue" stroke="midnightblue" points="386.205,-19.9765 395.949,-15.818 385.738,-12.9921 386.205,-19.9765"/>
</g>
<!-- Node8 -->
<g id="node8" class="node"><title>Node8</title>
<g id="a_node8"><a xlink:href="navtree_8js.html#aa7b3067e7ef0044572ba86240b1e58ce" target="_top" xlink:title="initNavTree">
<polygon fill="white" stroke="black" points="473,-0.5 473,-19.5 537,-19.5 537,-0.5 473,-0.5"/>
<text text-anchor="middle" x="505" y="-7.5" font-family="Helvetica,sans-Serif" font-size="10.00">initNavTree</text>
</a>
</g>
</g>
<!-- Node7&#45;&gt;Node8 -->
<g id="edge9" class="edge"><title>Node7&#45;&gt;Node8</title>
<path fill="none" stroke="midnightblue" d="M447.151,-10C455.463,-10 464.52,-10 472.913,-10"/>
<polygon fill="midnightblue" stroke="midnightblue" points="447.128,-6.5001 437.128,-10 447.128,-13.5001 447.128,-6.5001"/>
</g>
</g>
</svg>
