<?xml version="1.0" encoding="UTF-8" standalone="no"?>
<!DOCTYPE svg PUBLIC "-//W3C//DTD SVG 1.1//EN"
 "http://www.w3.org/Graphics/SVG/1.1/DTD/svg11.dtd">
<!-- Generated by graphviz version 2.38.0 (20140413.2041)
 -->
<!-- Title: getNode Pages: 1 -->
<svg width="645pt" height="256pt"
 viewBox="0.00 0.00 645.00 256.00" xmlns="http://www.w3.org/2000/svg" xmlns:xlink="http://www.w3.org/1999/xlink">
<g id="graph0" class="graph" transform="scale(1 1) rotate(0) translate(4 252)">
<title>getNode</title>
<polygon fill="white" stroke="none" points="-4,4 -4,-252 641,-252 641,4 -4,4"/>
<!-- Node1 -->
<g id="node1" class="node"><title>Node1</title>
<polygon fill="#bfbfbf" stroke="black" points="0,-190.5 0,-209.5 53,-209.5 53,-190.5 0,-190.5"/>
<text text-anchor="middle" x="26.5" y="-197.5" font-family="Helvetica,sans-Serif" font-size="10.00">getNode</text>
</g>
<!-- Node2 -->
<g id="node2" class="node"><title>Node2</title>
<g id="a_node2"><a xlink:href="navtree_8js.html#aa78016020f40c28356aefd325cd4df74" target="_top" xlink:title="removeToInsertLater">
<polygon fill="white" stroke="black" points="89,-228.5 89,-247.5 193,-247.5 193,-228.5 89,-228.5"/>
<text text-anchor="middle" x="141" y="-235.5" font-family="Helvetica,sans-Serif" font-size="10.00">removeToInsertLater</text>
</a>
</g>
</g>
<!-- Node1&#45;&gt;Node2 -->
<g id="edge1" class="edge"><title>Node1&#45;&gt;Node2</title>
<path fill="none" stroke="midnightblue" d="M53.028,-208.623C67.5232,-213.519 85.9448,-219.741 102.099,-225.198"/>
<polygon fill="midnightblue" stroke="midnightblue" points="101.215,-228.593 111.809,-228.478 103.455,-221.961 101.215,-228.593"/>
</g>
<!-- Node3 -->
<g id="node3" class="node"><title>Node3</title>
<g id="a_node3"><a xlink:href="navtree_8js.html#aa2418b16159e9502e990f97ea6ec26c8" target="_top" xlink:title="newNode">
<polygon fill="white" stroke="black" points="113,-95.5 113,-114.5 169,-114.5 169,-95.5 113,-95.5"/>
<text text-anchor="middle" x="141" y="-102.5" font-family="Helvetica,sans-Serif" font-size="10.00">newNode</text>
</a>
</g>
</g>
<!-- Node1&#45;&gt;Node3 -->
<g id="edge2" class="edge"><title>Node1&#45;&gt;Node3</title>
<path fill="none" stroke="midnightblue" d="M39.1157,-190.191C58.4155,-173.894 97.2806,-141.074 120.736,-121.268"/>
<polygon fill="midnightblue" stroke="midnightblue" points="123.233,-123.74 128.615,-114.614 118.717,-118.392 123.233,-123.74"/>
</g>
<!-- Node4 -->
<g id="node4" class="node"><title>Node4</title>
<g id="a_node4"><a xlink:href="navtree_8js.html#a4d8f406d49520a0cede2e48347a3d7aa" target="_top" xlink:title="createIndent">
<polygon fill="white" stroke="black" points="229,-152.5 229,-171.5 299,-171.5 299,-152.5 229,-152.5"/>
<text text-anchor="middle" x="264" y="-159.5" font-family="Helvetica,sans-Serif" font-size="10.00">createIndent</text>
</a>
</g>
</g>
<!-- Node3&#45;&gt;Node4 -->
<g id="edge3" class="edge"><title>Node3&#45;&gt;Node4</title>
<path fill="none" stroke="midnightblue" d="M162.253,-114.541C181.709,-123.706 211.33,-137.659 233.424,-148.068"/>
<polygon fill="midnightblue" stroke="midnightblue" points="232.143,-151.333 242.681,-152.428 235.126,-145 232.143,-151.333"/>
</g>
<!-- Node9 -->
<g id="node9" class="node"><title>Node9</title>
<g id="a_node9"><a xlink:href="navtree_8js.html#a9336c21407bb7ced644331eb7a2a6e35" target="_top" xlink:title="stripPath">
<polygon fill="white" stroke="black" points="236,-114.5 236,-133.5 292,-133.5 292,-114.5 236,-114.5"/>
<text text-anchor="middle" x="264" y="-121.5" font-family="Helvetica,sans-Serif" font-size="10.00">stripPath</text>
</a>
</g>
</g>
<!-- Node3&#45;&gt;Node9 -->
<g id="edge11" class="edge"><title>Node3&#45;&gt;Node9</title>
<path fill="none" stroke="midnightblue" d="M169.155,-109.264C185.891,-111.892 207.578,-115.297 225.887,-118.172"/>
<polygon fill="midnightblue" stroke="midnightblue" points="225.514,-121.657 235.936,-119.75 226.6,-114.741 225.514,-121.657"/>
</g>
<!-- Node10 -->
<g id="node10" class="node"><title>Node10</title>
<g id="a_node10"><a xlink:href="navtree_8js.html#a364b3f4132309fa9aae78585cf2cb772" target="_top" xlink:title="pathName">
<polygon fill="white" stroke="black" points="233.5,-76.5 233.5,-95.5 294.5,-95.5 294.5,-76.5 233.5,-76.5"/>
<text text-anchor="middle" x="264" y="-83.5" font-family="Helvetica,sans-Serif" font-size="10.00">pathName</text>
</a>
</g>
</g>
<!-- Node3&#45;&gt;Node10 -->
<g id="edge12" class="edge"><title>Node3&#45;&gt;Node10</title>
<path fill="none" stroke="midnightblue" d="M169.155,-100.736C185.114,-98.23 205.576,-95.0171 223.317,-92.2312"/>
<polygon fill="midnightblue" stroke="midnightblue" points="224.058,-95.6578 233.394,-90.6489 222.972,-88.7426 224.058,-95.6578"/>
</g>
<!-- Node11 -->
<g id="node11" class="node"><title>Node11</title>
<g id="a_node11"><a xlink:href="navtree_8js.html#ade730323aadb971c053136b7758c9dce" target="_top" xlink:title="storeLink">
<polygon fill="white" stroke="black" points="236,-38.5 236,-57.5 292,-57.5 292,-38.5 236,-38.5"/>
<text text-anchor="middle" x="264" y="-45.5" font-family="Helvetica,sans-Serif" font-size="10.00">storeLink</text>
</a>
</g>
</g>
<!-- Node3&#45;&gt;Node11 -->
<g id="edge13" class="edge"><title>Node3&#45;&gt;Node11</title>
<path fill="none" stroke="midnightblue" d="M162.253,-95.4595C181.709,-86.2939 211.33,-72.3405 233.424,-61.9324"/>
<polygon fill="midnightblue" stroke="midnightblue" points="235.126,-64.9995 242.681,-57.5716 232.143,-58.667 235.126,-64.9995"/>
</g>
<!-- Node13 -->
<g id="node13" class="node"><title>Node13</title>
<g id="a_node13"><a xlink:href="navtree_8js.html#aee1fc3771eeb15da54962a03da1f3c11" target="_top" xlink:title="gotoAnchor">
<polygon fill="white" stroke="black" points="231,-0.5 231,-19.5 297,-19.5 297,-0.5 231,-0.5"/>
<text text-anchor="middle" x="264" y="-7.5" font-family="Helvetica,sans-Serif" font-size="10.00">gotoAnchor</text>
</a>
</g>
</g>
<!-- Node3&#45;&gt;Node13 -->
<g id="edge15" class="edge"><title>Node3&#45;&gt;Node13</title>
<path fill="none" stroke="midnightblue" d="M151.616,-95.3904C167.087,-80.2177 198.834,-50.2551 229,-29 231.08,-27.5346 233.283,-26.0895 235.527,-24.6905"/>
<polygon fill="midnightblue" stroke="midnightblue" points="237.377,-27.6634 244.222,-19.5768 233.828,-21.6296 237.377,-27.6634"/>
</g>
<!-- Node5 -->
<g id="node5" class="node"><title>Node5</title>
<g id="a_node5"><a xlink:href="navtree_8js.html#a4eb1f166c9d93b198e1621a4c787a412" target="_top" xlink:title="expandNode">
<polygon fill="white" stroke="black" points="357,-171.5 357,-190.5 428,-190.5 428,-171.5 357,-171.5"/>
<text text-anchor="middle" x="392.5" y="-178.5" font-family="Helvetica,sans-Serif" font-size="10.00">expandNode</text>
</a>
</g>
</g>
<!-- Node4&#45;&gt;Node5 -->
<g id="edge4" class="edge"><title>Node4&#45;&gt;Node5</title>
<path fill="none" stroke="midnightblue" d="M299.233,-167.142C313.878,-169.341 331.174,-171.939 346.81,-174.288"/>
<polygon fill="midnightblue" stroke="midnightblue" points="346.391,-177.764 356.8,-175.788 347.431,-170.842 346.391,-177.764"/>
</g>
<!-- Node5&#45;&gt;Node1 -->
<g id="edge9" class="edge"><title>Node5&#45;&gt;Node1</title>
<path fill="none" stroke="midnightblue" d="M356.852,-182.809C287.696,-186.418 133.186,-194.483 63.1851,-198.137"/>
<polygon fill="midnightblue" stroke="midnightblue" points="62.8997,-194.647 53.0958,-198.664 63.2647,-201.638 62.8997,-194.647"/>
</g>
<!-- Node6 -->
<g id="node6" class="node"><title>Node6</title>
<g id="a_node6"><a xlink:href="navtree_8js.html#a32f4aac18d03aee747b55dea195731ac" target="_top" xlink:title="getScript">
<polygon fill="white" stroke="black" points="486,-171.5 486,-190.5 542,-190.5 542,-171.5 486,-171.5"/>
<text text-anchor="middle" x="514" y="-178.5" font-family="Helvetica,sans-Serif" font-size="10.00">getScript</text>
</a>
</g>
</g>
<!-- Node5&#45;&gt;Node6 -->
<g id="edge5" class="edge"><title>Node5&#45;&gt;Node6</title>
<path fill="none" stroke="midnightblue" d="M428.064,-181C442.962,-181 460.417,-181 475.615,-181"/>
<polygon fill="midnightblue" stroke="midnightblue" points="475.718,-184.5 485.718,-181 475.718,-177.5 475.718,-184.5"/>
</g>
<!-- Node7 -->
<g id="node7" class="node"><title>Node7</title>
<g id="a_node7"><a xlink:href="svgpan_8js.html#aa8d9f2083cafa2af98efafed94901079" target="_top" xlink:title="show">
<polygon fill="white" stroke="black" points="588,-190.5 588,-209.5 627,-209.5 627,-190.5 588,-190.5"/>
<text text-anchor="middle" x="607.5" y="-197.5" font-family="Helvetica,sans-Serif" font-size="10.00">show</text>
</a>
</g>
</g>
<!-- Node5&#45;&gt;Node7 -->
<g id="edge10" class="edge"><title>Node5&#45;&gt;Node7</title>
<path fill="none" stroke="midnightblue" d="M428.381,-189.906C445.597,-193.854 466.754,-198.044 486,-200 517.184,-203.17 553.141,-202.629 577.604,-201.636"/>
<polygon fill="midnightblue" stroke="midnightblue" points="577.826,-205.129 587.656,-201.175 577.506,-198.136 577.826,-205.129"/>
</g>
<!-- Node8 -->
<g id="node8" class="node"><title>Node8</title>
<g id="a_node8"><a xlink:href="navtree_8js.html#af98a8e3534da945399ea20870c0f3e92" target="_top" xlink:title="showRoot">
<polygon fill="white" stroke="black" points="578,-152.5 578,-171.5 637,-171.5 637,-152.5 578,-152.5"/>
<text text-anchor="middle" x="607.5" y="-159.5" font-family="Helvetica,sans-Serif" font-size="10.00">showRoot</text>
</a>
</g>
</g>
<!-- Node5&#45;&gt;Node8 -->
<g id="edge8" class="edge"><title>Node5&#45;&gt;Node8</title>
<path fill="none" stroke="midnightblue" d="M428.381,-172.094C445.597,-168.146 466.754,-163.956 486,-162 513.195,-159.236 544.021,-159.293 567.687,-160.012"/>
<polygon fill="midnightblue" stroke="midnightblue" points="567.57,-163.51 577.688,-160.368 567.818,-156.515 567.57,-163.51"/>
</g>
<!-- Node6&#45;&gt;Node7 -->
<g id="edge6" class="edge"><title>Node6&#45;&gt;Node7</title>
<path fill="none" stroke="midnightblue" d="M542.453,-186.701C553.657,-189.027 566.614,-191.718 577.931,-194.068"/>
<polygon fill="midnightblue" stroke="midnightblue" points="577.262,-197.503 587.765,-196.11 578.685,-190.649 577.262,-197.503"/>
</g>
<!-- Node6&#45;&gt;Node8 -->
<g id="edge7" class="edge"><title>Node6&#45;&gt;Node8</title>
<path fill="none" stroke="midnightblue" d="M542.453,-175.299C550.474,-173.634 559.394,-171.782 567.966,-170.002"/>
<polygon fill="midnightblue" stroke="midnightblue" points="568.716,-173.421 577.796,-167.96 567.293,-166.567 568.716,-173.421"/>
</g>
<!-- Node12 -->
<g id="node12" class="node"><title>Node12</title>
<g id="a_node12"><a xlink:href="navtree_8js.html#ac49af616f532f2364be9f58280469d33" target="_top" xlink:title="localStorageSupported">
<polygon fill="white" stroke="black" points="335,-38.5 335,-57.5 450,-57.5 450,-38.5 335,-38.5"/>
<text text-anchor="middle" x="392.5" y="-45.5" font-family="Helvetica,sans-Serif" font-size="10.00">localStorageSupported</text>
</a>
</g>
</g>
<!-- Node11&#45;&gt;Node12 -->
<g id="edge14" class="edge"><title>Node11&#45;&gt;Node12</title>
<path fill="none" stroke="midnightblue" d="M292.137,-48C301.795,-48 313.142,-48 324.649,-48"/>
<polygon fill="midnightblue" stroke="midnightblue" points="324.763,-51.5001 334.763,-48 324.763,-44.5001 324.763,-51.5001"/>
</g>
</g>
</svg>
