<?xml version="1.0" encoding="UTF-8" standalone="no"?>
<!DOCTYPE svg PUBLIC "-//W3C//DTD SVG 1.1//EN"
 "http://www.w3.org/Graphics/SVG/1.1/DTD/svg11.dtd">
<!-- Generated by graphviz version 2.38.0 (20140413.2041)
 -->
<!-- Title: cachedLink Pages: 1 -->
<svg width="251pt" height="66pt"
 viewBox="0.00 0.00 251.00 66.00" xmlns="http://www.w3.org/2000/svg" xmlns:xlink="http://www.w3.org/1999/xlink">
<g id="graph0" class="graph" transform="scale(1 1) rotate(0) translate(4 62)">
<title>cachedLink</title>
<polygon fill="white" stroke="none" points="-4,4 -4,-62 247,-62 247,4 -4,4"/>
<!-- Node1 -->
<g id="node1" class="node"><title>Node1</title>
<polygon fill="#bfbfbf" stroke="black" points="0,-19.5 0,-38.5 66,-38.5 66,-19.5 0,-19.5"/>
<text text-anchor="middle" x="33" y="-26.5" font-family="Helvetica,sans-Serif" font-size="10.00">cachedLink</text>
</g>
<!-- Node2 -->
<g id="node2" class="node"><title>Node2</title>
<g id="a_node2"><a xlink:href="navtree_8js.html#a21beb601032fff375100a907f32129a5" target="_top" xlink:title="navTo">
<polygon fill="white" stroke="black" points="102,-38.5 102,-57.5 143,-57.5 143,-38.5 102,-38.5"/>
<text text-anchor="middle" x="122.5" y="-45.5" font-family="Helvetica,sans-Serif" font-size="10.00">navTo</text>
</a>
</g>
</g>
<!-- Node1&#45;&gt;Node2 -->
<g id="edge1" class="edge"><title>Node1&#45;&gt;Node2</title>
<path fill="none" stroke="midnightblue" d="M76.1292,-38.1481C85.1323,-40.103 94.2269,-42.0778 101.885,-43.7408"/>
<polygon fill="midnightblue" stroke="midnightblue" points="76.5999,-34.6688 66.0849,-35.967 75.1145,-41.5094 76.5999,-34.6688"/>
</g>
<!-- Node4 -->
<g id="node4" class="node"><title>Node4</title>
<g id="a_node4"><a xlink:href="navtree_8js.html#aa7b3067e7ef0044572ba86240b1e58ce" target="_top" xlink:title="initNavTree">
<polygon fill="white" stroke="black" points="179,-0.5 179,-19.5 243,-19.5 243,-0.5 179,-0.5"/>
<text text-anchor="middle" x="211" y="-7.5" font-family="Helvetica,sans-Serif" font-size="10.00">initNavTree</text>
</a>
</g>
</g>
<!-- Node1&#45;&gt;Node4 -->
<g id="edge5" class="edge"><title>Node1&#45;&gt;Node4</title>
<path fill="none" stroke="midnightblue" d="M76.5305,-24.4086C108.072,-21.0036 150.36,-16.4384 178.81,-13.3671"/>
<polygon fill="midnightblue" stroke="midnightblue" points="75.8477,-20.9619 66.2811,-25.5151 76.599,-27.9215 75.8477,-20.9619"/>
</g>
<!-- Node3 -->
<g id="node3" class="node"><title>Node3</title>
<g id="a_node3"><a xlink:href="navtree_8js.html#a0e6a2d65190a43246d668bba554243e5" target="_top" xlink:title="gotoNode">
<polygon fill="white" stroke="black" points="182,-38.5 182,-57.5 240,-57.5 240,-38.5 182,-38.5"/>
<text text-anchor="middle" x="211" y="-45.5" font-family="Helvetica,sans-Serif" font-size="10.00">gotoNode</text>
</a>
</g>
</g>
<!-- Node2&#45;&gt;Node3 -->
<g id="edge2" class="edge"><title>Node2&#45;&gt;Node3</title>
<path fill="none" stroke="midnightblue" d="M153.143,-41.5561C162.461,-41.1236 172.716,-41.1494 181.922,-41.6335"/>
<polygon fill="midnightblue" stroke="midnightblue" points="152.867,-38.0667 143.128,-42.2392 153.343,-45.0505 152.867,-38.0667"/>
</g>
<!-- Node2&#45;&gt;Node4 -->
<g id="edge4" class="edge"><title>Node2&#45;&gt;Node4</title>
<path fill="none" stroke="midnightblue" d="M152.504,-35.2582C164.21,-30.1159 177.483,-24.2851 188.324,-19.5223"/>
<polygon fill="midnightblue" stroke="midnightblue" points="150.876,-32.1507 143.128,-39.3772 153.691,-38.5595 150.876,-32.1507"/>
</g>
<!-- Node3&#45;&gt;Node2 -->
<g id="edge3" class="edge"><title>Node3&#45;&gt;Node2</title>
<path fill="none" stroke="midnightblue" d="M171.814,-54.7087C161.905,-54.871 151.637,-54.555 143.128,-53.7608"/>
<polygon fill="midnightblue" stroke="midnightblue" points="172.046,-58.203 181.922,-54.3665 171.809,-51.207 172.046,-58.203"/>
</g>
</g>
</svg>
