<?xml version="1.0" encoding="UTF-8" standalone="no"?>
<!DOCTYPE svg PUBLIC "-//W3C//DTD SVG 1.1//EN"
 "http://www.w3.org/Graphics/SVG/1.1/DTD/svg11.dtd">
<!-- Generated by graphviz version 2.38.0 (20140413.2041)
 -->
<!-- Title: showRoot Pages: 1 -->
<svg width="949pt" height="236pt"
 viewBox="0.00 0.00 949.00 236.00" xmlns="http://www.w3.org/2000/svg" xmlns:xlink="http://www.w3.org/1999/xlink">
<g id="graph0" class="graph" transform="scale(1 1) rotate(0) translate(4 232)">
<title>showRoot</title>
<polygon fill="white" stroke="none" points="-4,4 -4,-232 945,-232 945,4 -4,4"/>
<!-- Node1 -->
<g id="node1" class="node"><title>Node1</title>
<polygon fill="#bfbfbf" stroke="black" points="0,-63.5 0,-82.5 59,-82.5 59,-63.5 0,-63.5"/>
<text text-anchor="middle" x="29.5" y="-70.5" font-family="Helvetica,sans-Serif" font-size="10.00">showRoot</text>
</g>
<!-- Node2 -->
<g id="node2" class="node"><title>Node2</title>
<g id="a_node2"><a xlink:href="navtree_8js.html#a32f4aac18d03aee747b55dea195731ac" target="_top" xlink:title="getScript">
<polygon fill="white" stroke="black" points="95,-161.5 95,-180.5 151,-180.5 151,-161.5 95,-161.5"/>
<text text-anchor="middle" x="123" y="-168.5" font-family="Helvetica,sans-Serif" font-size="10.00">getScript</text>
</a>
</g>
</g>
<!-- Node1&#45;&gt;Node2 -->
<g id="edge1" class="edge"><title>Node1&#45;&gt;Node2</title>
<path fill="none" stroke="midnightblue" d="M46.5613,-90.2022C65.8316,-110.842 97.4712,-144.729 112.929,-161.285"/>
<polygon fill="midnightblue" stroke="midnightblue" points="48.9907,-87.6756 39.6079,-82.7549 43.8742,-92.4528 48.9907,-87.6756"/>
</g>
<!-- Node3 -->
<g id="node3" class="node"><title>Node3</title>
<g id="a_node3"><a xlink:href="navtree_8js.html#a4eb1f166c9d93b198e1621a4c787a412" target="_top" xlink:title="expandNode">
<polygon fill="white" stroke="black" points="200.5,-104.5 200.5,-123.5 271.5,-123.5 271.5,-104.5 200.5,-104.5"/>
<text text-anchor="middle" x="236" y="-111.5" font-family="Helvetica,sans-Serif" font-size="10.00">expandNode</text>
</a>
</g>
</g>
<!-- Node1&#45;&gt;Node3 -->
<g id="edge15" class="edge"><title>Node1&#45;&gt;Node3</title>
<path fill="none" stroke="midnightblue" d="M69.5025,-80.8196C107.347,-88.407 164.228,-99.8109 200.475,-107.078"/>
<polygon fill="midnightblue" stroke="midnightblue" points="69.8591,-77.3215 59.3661,-78.7873 68.483,-84.1849 69.8591,-77.3215"/>
</g>
<!-- Node10 -->
<g id="node10" class="node"><title>Node10</title>
<g id="a_node10"><a xlink:href="navtree_8js.html#aa7b3067e7ef0044572ba86240b1e58ce" target="_top" xlink:title="initNavTree">
<polygon fill="white" stroke="black" points="877,-28.5 877,-47.5 941,-47.5 941,-28.5 877,-28.5"/>
<text text-anchor="middle" x="909" y="-35.5" font-family="Helvetica,sans-Serif" font-size="10.00">initNavTree</text>
</a>
</g>
</g>
<!-- Node1&#45;&gt;Node10 -->
<g id="edge18" class="edge"><title>Node1&#45;&gt;Node10</title>
<path fill="none" stroke="midnightblue" d="M54.8342,-58.1421C92.1721,-36.7984 166.481,-0 235,-0 235,-0 235,-0 736,-0 788.6,-0 848.162,-17.1538 881.587,-28.411"/>
<polygon fill="midnightblue" stroke="midnightblue" points="52.6084,-55.389 45.7406,-63.4565 56.1404,-61.4326 52.6084,-55.389"/>
</g>
<!-- Node11 -->
<g id="node11" class="node"><title>Node11</title>
<g id="a_node11"><a xlink:href="navtree_8js.html#a0dbf0d5f6126afd88420745f7d3c202d" target="_top" xlink:title="selectAndHighlight">
<polygon fill="white" stroke="black" points="187,-37.5 187,-56.5 285,-56.5 285,-37.5 187,-37.5"/>
<text text-anchor="middle" x="236" y="-44.5" font-family="Helvetica,sans-Serif" font-size="10.00">selectAndHighlight</text>
</a>
</g>
</g>
<!-- Node1&#45;&gt;Node11 -->
<g id="edge16" class="edge"><title>Node1&#45;&gt;Node11</title>
<path fill="none" stroke="midnightblue" d="M69.6624,-68.0209C103.078,-63.7725 151.25,-57.648 186.984,-53.1047"/>
<polygon fill="midnightblue" stroke="midnightblue" points="68.8448,-64.5966 59.3661,-69.33 69.7277,-71.5407 68.8448,-64.5966"/>
</g>
<!-- Node2&#45;&gt;Node3 -->
<g id="edge2" class="edge"><title>Node2&#45;&gt;Node3</title>
<path fill="none" stroke="midnightblue" d="M151.609,-156.822C171.802,-146.453 198.651,-132.666 216.36,-123.572"/>
<polygon fill="midnightblue" stroke="midnightblue" points="149.876,-153.778 142.579,-161.459 153.073,-160.005 149.876,-153.778"/>
</g>
<!-- Node7 -->
<g id="node7" class="node"><title>Node7</title>
<g id="a_node7"><a xlink:href="navtree_8js.html#a0238ad48be94f9f5fd305ea40b8f64ab" target="_top" xlink:title="showNode">
<polygon fill="white" stroke="black" points="608,-85.5 608,-104.5 670,-104.5 670,-85.5 608,-85.5"/>
<text text-anchor="middle" x="639" y="-92.5" font-family="Helvetica,sans-Serif" font-size="10.00">showNode</text>
</a>
</g>
</g>
<!-- Node2&#45;&gt;Node7 -->
<g id="edge13" class="edge"><title>Node2&#45;&gt;Node7</title>
<path fill="none" stroke="midnightblue" d="M161.34,-175.968C206.949,-181.598 286.496,-190 355,-190 355,-190 355,-190 456,-190 529.068,-190 601.82,-129.081 627.908,-104.809"/>
<polygon fill="midnightblue" stroke="midnightblue" points="161.679,-172.483 151.321,-174.708 160.806,-179.429 161.679,-172.483"/>
</g>
<!-- Node9 -->
<g id="node9" class="node"><title>Node9</title>
<g id="a_node9"><a xlink:href="navtree_8js.html#a21beb601032fff375100a907f32129a5" target="_top" xlink:title="navTo">
<polygon fill="white" stroke="black" points="800,-85.5 800,-104.5 841,-104.5 841,-85.5 800,-85.5"/>
<text text-anchor="middle" x="820.5" y="-92.5" font-family="Helvetica,sans-Serif" font-size="10.00">navTo</text>
</a>
</g>
</g>
<!-- Node2&#45;&gt;Node9 -->
<g id="edge14" class="edge"><title>Node2&#45;&gt;Node9</title>
<path fill="none" stroke="midnightblue" d="M153.498,-184.667C163.915,-189.091 175.82,-193.701 187,-197 259.823,-218.489 279.073,-228 355,-228 355,-228 355,-228 640,-228 723.001,-228 792.668,-135.061 813.293,-104.565"/>
<polygon fill="midnightblue" stroke="midnightblue" points="154.605,-181.331 144.04,-180.532 151.8,-187.744 154.605,-181.331"/>
</g>
<!-- Node4 -->
<g id="node4" class="node"><title>Node4</title>
<g id="a_node4"><a xlink:href="navtree_8js.html#a4d8f406d49520a0cede2e48347a3d7aa" target="_top" xlink:title="createIndent">
<polygon fill="white" stroke="black" points="321,-142.5 321,-161.5 391,-161.5 391,-142.5 321,-142.5"/>
<text text-anchor="middle" x="356" y="-149.5" font-family="Helvetica,sans-Serif" font-size="10.00">createIndent</text>
</a>
</g>
</g>
<!-- Node3&#45;&gt;Node4 -->
<g id="edge3" class="edge"><title>Node3&#45;&gt;Node4</title>
<path fill="none" stroke="midnightblue" d="M276.376,-126.68C292.32,-131.815 310.421,-137.644 325.233,-142.414"/>
<polygon fill="midnightblue" stroke="midnightblue" points="277.368,-123.323 266.776,-123.589 275.222,-129.986 277.368,-123.323"/>
</g>
<!-- Node3&#45;&gt;Node7 -->
<g id="edge12" class="edge"><title>Node3&#45;&gt;Node7</title>
<path fill="none" stroke="midnightblue" d="M281.905,-110.039C337.51,-105.35 435.148,-97.8216 519,-95 549.146,-93.9856 583.612,-94.1282 607.666,-94.4381"/>
<polygon fill="midnightblue" stroke="midnightblue" points="281.36,-106.572 271.693,-110.908 281.954,-113.547 281.36,-106.572"/>
</g>
<!-- Node5 -->
<g id="node5" class="node"><title>Node5</title>
<g id="a_node5"><a xlink:href="navtree_8js.html#aa2418b16159e9502e990f97ea6ec26c8" target="_top" xlink:title="newNode">
<polygon fill="white" stroke="black" points="427,-142.5 427,-161.5 483,-161.5 483,-142.5 427,-142.5"/>
<text text-anchor="middle" x="455" y="-149.5" font-family="Helvetica,sans-Serif" font-size="10.00">newNode</text>
</a>
</g>
</g>
<!-- Node4&#45;&gt;Node5 -->
<g id="edge4" class="edge"><title>Node4&#45;&gt;Node5</title>
<path fill="none" stroke="midnightblue" d="M401.267,-152C409.974,-152 418.864,-152 426.804,-152"/>
<polygon fill="midnightblue" stroke="midnightblue" points="401.199,-148.5 391.199,-152 401.199,-155.5 401.199,-148.5"/>
</g>
<!-- Node6 -->
<g id="node6" class="node"><title>Node6</title>
<g id="a_node6"><a xlink:href="navtree_8js.html#a256aa4fbee866e9227f78e82e9f258bb" target="_top" xlink:title="getNode">
<polygon fill="white" stroke="black" points="519,-104.5 519,-123.5 572,-123.5 572,-104.5 519,-104.5"/>
<text text-anchor="middle" x="545.5" y="-111.5" font-family="Helvetica,sans-Serif" font-size="10.00">getNode</text>
</a>
</g>
</g>
<!-- Node5&#45;&gt;Node6 -->
<g id="edge5" class="edge"><title>Node5&#45;&gt;Node6</title>
<path fill="none" stroke="midnightblue" d="M487.577,-138.441C499.019,-133.529 511.695,-128.086 522.175,-123.586"/>
<polygon fill="midnightblue" stroke="midnightblue" points="486.14,-135.249 478.332,-142.411 488.902,-141.682 486.14,-135.249"/>
</g>
<!-- Node6&#45;&gt;Node3 -->
<g id="edge6" class="edge"><title>Node6&#45;&gt;Node3</title>
<path fill="none" stroke="midnightblue" d="M508.773,-114C449.243,-114 330.501,-114 271.676,-114"/>
<polygon fill="midnightblue" stroke="midnightblue" points="508.829,-117.5 518.829,-114 508.829,-110.5 508.829,-117.5"/>
</g>
<!-- Node6&#45;&gt;Node7 -->
<g id="edge7" class="edge"><title>Node6&#45;&gt;Node7</title>
<path fill="none" stroke="midnightblue" d="M582.397,-106.546C590.786,-104.804 599.639,-102.966 607.754,-101.281"/>
<polygon fill="midnightblue" stroke="midnightblue" points="581.555,-103.146 572.475,-108.606 582.978,-110 581.555,-103.146"/>
</g>
<!-- Node8 -->
<g id="node8" class="node"><title>Node8</title>
<g id="a_node8"><a xlink:href="navtree_8js.html#a0e6a2d65190a43246d668bba554243e5" target="_top" xlink:title="gotoNode">
<polygon fill="white" stroke="black" points="706,-85.5 706,-104.5 764,-104.5 764,-85.5 706,-85.5"/>
<text text-anchor="middle" x="735" y="-92.5" font-family="Helvetica,sans-Serif" font-size="10.00">gotoNode</text>
</a>
</g>
</g>
<!-- Node7&#45;&gt;Node8 -->
<g id="edge8" class="edge"><title>Node7&#45;&gt;Node8</title>
<path fill="none" stroke="midnightblue" d="M680.001,-95C688.71,-95 697.748,-95 705.881,-95"/>
<polygon fill="midnightblue" stroke="midnightblue" points="680.001,-91.5001 670.001,-95 680.001,-98.5001 680.001,-91.5001"/>
</g>
<!-- Node8&#45;&gt;Node9 -->
<g id="edge9" class="edge"><title>Node8&#45;&gt;Node9</title>
<path fill="none" stroke="midnightblue" d="M774.452,-88.2688C783.284,-88.1681 792.315,-88.4725 799.949,-89.182"/>
<polygon fill="midnightblue" stroke="midnightblue" points="774.16,-84.7758 764.269,-88.573 774.369,-91.7727 774.16,-84.7758"/>
</g>
<!-- Node9&#45;&gt;Node8 -->
<g id="edge10" class="edge"><title>Node9&#45;&gt;Node8</title>
<path fill="none" stroke="midnightblue" d="M789.887,-101.49C781.556,-101.857 772.519,-101.836 764.269,-101.427"/>
<polygon fill="midnightblue" stroke="midnightblue" points="790.205,-104.977 799.949,-100.818 789.738,-97.9921 790.205,-104.977"/>
</g>
<!-- Node9&#45;&gt;Node10 -->
<g id="edge11" class="edge"><title>Node9&#45;&gt;Node10</title>
<path fill="none" stroke="midnightblue" d="M844.729,-79.6931C860.27,-69.4518 880.238,-56.2942 893.543,-47.5265"/>
<polygon fill="midnightblue" stroke="midnightblue" points="842.598,-76.9058 836.174,-85.3307 846.449,-82.7508 842.598,-76.9058"/>
</g>
<!-- Node11&#45;&gt;Node7 -->
<g id="edge17" class="edge"><title>Node11&#45;&gt;Node7</title>
<path fill="none" stroke="midnightblue" d="M295.301,-53.9787C381.885,-64.3428 541.367,-83.4329 607.76,-91.3802"/>
<polygon fill="midnightblue" stroke="midnightblue" points="295.715,-50.5033 285.37,-52.7899 294.883,-57.4537 295.715,-50.5033"/>
</g>
</g>
</svg>
