<?xml version="1.0" encoding="UTF-8" standalone="no"?>
<!DOCTYPE svg PUBLIC "-//W3C//DTD SVG 1.1//EN"
 "http://www.w3.org/Graphics/SVG/1.1/DTD/svg11.dtd">
<!-- Generated by graphviz version 2.38.0 (20140413.2041)
 -->
<!-- Title: gotoNode Pages: 1 -->
<svg width="243pt" height="28pt"
 viewBox="0.00 0.00 243.00 28.00" xmlns="http://www.w3.org/2000/svg" xmlns:xlink="http://www.w3.org/1999/xlink">
<g id="graph0" class="graph" transform="scale(1 1) rotate(0) translate(4 24)">
<title>gotoNode</title>
<polygon fill="white" stroke="none" points="-4,4 -4,-24 239,-24 239,4 -4,4"/>
<!-- Node1 -->
<g id="node1" class="node"><title>Node1</title>
<polygon fill="#bfbfbf" stroke="black" points="0,-0.5 0,-19.5 58,-19.5 58,-0.5 0,-0.5"/>
<text text-anchor="middle" x="29" y="-7.5" font-family="Helvetica,sans-Serif" font-size="10.00">gotoNode</text>
</g>
<!-- Node2 -->
<g id="node2" class="node"><title>Node2</title>
<g id="a_node2"><a xlink:href="navtree_8js.html#a21beb601032fff375100a907f32129a5" target="_top" xlink:title="navTo">
<polygon fill="white" stroke="black" points="94,-0.5 94,-19.5 135,-19.5 135,-0.5 94,-0.5"/>
<text text-anchor="middle" x="114.5" y="-7.5" font-family="Helvetica,sans-Serif" font-size="10.00">navTo</text>
</a>
</g>
</g>
<!-- Node1&#45;&gt;Node2 -->
<g id="edge1" class="edge"><title>Node1&#45;&gt;Node2</title>
<path fill="none" stroke="midnightblue" d="M68.4515,-3.26876C77.2842,-3.1681 86.315,-3.47251 93.9493,-4.18199"/>
<polygon fill="midnightblue" stroke="midnightblue" points="68.1603,0.224195 58.2693,-3.573 68.3694,-6.77268 68.1603,0.224195"/>
</g>
<!-- Node2&#45;&gt;Node1 -->
<g id="edge2" class="edge"><title>Node2&#45;&gt;Node1</title>
<path fill="none" stroke="midnightblue" d="M83.887,-16.4898C75.5563,-16.8565 66.5194,-16.8356 58.2693,-16.427"/>
<polygon fill="midnightblue" stroke="midnightblue" points="84.2047,-19.9765 93.9493,-15.818 83.7383,-12.9921 84.2047,-19.9765"/>
</g>
<!-- Node3 -->
<g id="node3" class="node"><title>Node3</title>
<g id="a_node3"><a xlink:href="navtree_8js.html#aa7b3067e7ef0044572ba86240b1e58ce" target="_top" xlink:title="initNavTree">
<polygon fill="white" stroke="black" points="171,-0.5 171,-19.5 235,-19.5 235,-0.5 171,-0.5"/>
<text text-anchor="middle" x="203" y="-7.5" font-family="Helvetica,sans-Serif" font-size="10.00">initNavTree</text>
</a>
</g>
</g>
<!-- Node2&#45;&gt;Node3 -->
<g id="edge3" class="edge"><title>Node2&#45;&gt;Node3</title>
<path fill="none" stroke="midnightblue" d="M145.151,-10C153.463,-10 162.52,-10 170.913,-10"/>
<polygon fill="midnightblue" stroke="midnightblue" points="145.128,-6.5001 135.128,-10 145.128,-13.5001 145.128,-6.5001"/>
</g>
</g>
</svg>
