<?xml version="1.0" encoding="UTF-8" standalone="no"?>
<!DOCTYPE svg PUBLIC "-//W3C//DTD SVG 1.1//EN"
 "http://www.w3.org/Graphics/SVG/1.1/DTD/svg11.dtd">
<!-- Generated by graphviz version 2.38.0 (20140413.2041)
 -->
<!-- Title: initResizable Pages: 1 -->
<svg width="291pt" height="142pt"
 viewBox="0.00 0.00 291.00 142.00" xmlns="http://www.w3.org/2000/svg" xmlns:xlink="http://www.w3.org/1999/xlink">
<g id="graph0" class="graph" transform="scale(1 1) rotate(0) translate(4 138)">
<title>initResizable</title>
<polygon fill="white" stroke="none" points="-4,4 -4,-138 287,-138 287,4 -4,4"/>
<!-- Node1 -->
<g id="node1" class="node"><title>Node1</title>
<polygon fill="#bfbfbf" stroke="black" points="0,-57.5 0,-76.5 72,-76.5 72,-57.5 0,-57.5"/>
<text text-anchor="middle" x="36" y="-64.5" font-family="Helvetica,sans-Serif" font-size="10.00">initResizable</text>
</g>
<!-- Node2 -->
<g id="node2" class="node"><title>Node2</title>
<g id="a_node2"><a xlink:href="resize_8js.html#a99942f5b5c75445364f2437051090367" target="_top" xlink:title="resizeWidth">
<polygon fill="white" stroke="black" points="110,-114.5 110,-133.5 178,-133.5 178,-114.5 110,-114.5"/>
<text text-anchor="middle" x="144" y="-121.5" font-family="Helvetica,sans-Serif" font-size="10.00">resizeWidth</text>
</a>
</g>
</g>
<!-- Node1&#45;&gt;Node2 -->
<g id="edge1" class="edge"><title>Node1&#45;&gt;Node2</title>
<path fill="none" stroke="midnightblue" d="M54.9815,-76.6693C71.834,-85.7315 97.2366,-99.3914 116.427,-109.711"/>
<polygon fill="midnightblue" stroke="midnightblue" points="114.819,-112.82 125.284,-114.474 118.134,-106.655 114.819,-112.82"/>
</g>
<!-- Node4 -->
<g id="node4" class="node"><title>Node4</title>
<g id="a_node4"><a xlink:href="resize_8js.html#a4bd3414bc1780222b192bcf33b645804" target="_top" xlink:title="resizeHeight">
<polygon fill="white" stroke="black" points="108.5,-76.5 108.5,-95.5 179.5,-95.5 179.5,-76.5 108.5,-76.5"/>
<text text-anchor="middle" x="144" y="-83.5" font-family="Helvetica,sans-Serif" font-size="10.00">resizeHeight</text>
</a>
</g>
</g>
<!-- Node1&#45;&gt;Node4 -->
<g id="edge3" class="edge"><title>Node1&#45;&gt;Node4</title>
<path fill="none" stroke="midnightblue" d="M72.0021,-73.274C80.4107,-74.7812 89.5051,-76.4113 98.2882,-77.9856"/>
<polygon fill="midnightblue" stroke="midnightblue" points="97.9353,-81.4781 108.396,-79.7974 99.1703,-74.5879 97.9353,-81.4781"/>
</g>
<!-- Node5 -->
<g id="node5" class="node"><title>Node5</title>
<g id="a_node5"><a xlink:href="resize_8js.html#a578d54a5ebd9224fad0213048e7a49a7" target="_top" xlink:title="readCookie">
<polygon fill="white" stroke="black" points="111.5,-38.5 111.5,-57.5 176.5,-57.5 176.5,-38.5 111.5,-38.5"/>
<text text-anchor="middle" x="144" y="-45.5" font-family="Helvetica,sans-Serif" font-size="10.00">readCookie</text>
</a>
</g>
</g>
<!-- Node1&#45;&gt;Node5 -->
<g id="edge4" class="edge"><title>Node1&#45;&gt;Node5</title>
<path fill="none" stroke="midnightblue" d="M72.0021,-60.726C81.401,-59.0413 91.6568,-57.203 101.377,-55.4608"/>
<polygon fill="midnightblue" stroke="midnightblue" points="102.028,-58.8999 111.254,-53.6904 100.793,-52.0097 102.028,-58.8999"/>
</g>
<!-- Node6 -->
<g id="node6" class="node"><title>Node6</title>
<g id="a_node6"><a xlink:href="resize_8js.html#a517273f9259c941fd618dda7a901e6c2" target="_top" xlink:title="restoreWidth">
<polygon fill="white" stroke="black" points="108,-0.5 108,-19.5 180,-19.5 180,-0.5 108,-0.5"/>
<text text-anchor="middle" x="144" y="-7.5" font-family="Helvetica,sans-Serif" font-size="10.00">restoreWidth</text>
</a>
</g>
</g>
<!-- Node1&#45;&gt;Node6 -->
<g id="edge5" class="edge"><title>Node1&#45;&gt;Node6</title>
<path fill="none" stroke="midnightblue" d="M54.9815,-57.3307C71.834,-48.2685 97.2366,-34.6086 116.427,-24.2892"/>
<polygon fill="midnightblue" stroke="midnightblue" points="118.134,-27.3452 125.284,-19.5265 114.819,-21.18 118.134,-27.3452"/>
</g>
<!-- Node3 -->
<g id="node3" class="node"><title>Node3</title>
<g id="a_node3"><a xlink:href="resize_8js.html#ad0822459a7d442b8c5e4db795d0aabb4" target="_top" xlink:title="writeCookie">
<polygon fill="white" stroke="black" points="216,-114.5 216,-133.5 283,-133.5 283,-114.5 216,-114.5"/>
<text text-anchor="middle" x="249.5" y="-121.5" font-family="Helvetica,sans-Serif" font-size="10.00">writeCookie</text>
</a>
</g>
</g>
<!-- Node2&#45;&gt;Node3 -->
<g id="edge2" class="edge"><title>Node2&#45;&gt;Node3</title>
<path fill="none" stroke="midnightblue" d="M178.033,-124C186.801,-124 196.399,-124 205.61,-124"/>
<polygon fill="midnightblue" stroke="midnightblue" points="205.781,-127.5 215.781,-124 205.781,-120.5 205.781,-127.5"/>
</g>
</g>
</svg>
