<?xml version="1.0" encoding="UTF-8" standalone="no"?>
<!DOCTYPE svg PUBLIC "-//W3C//DTD SVG 1.1//EN"
 "http://www.w3.org/Graphics/SVG/1.1/DTD/svg11.dtd">
<!-- Generated by graphviz version 2.38.0 (20140413.2041)
 -->
<!-- Title: writeCookie Pages: 1 -->
<svg width="287pt" height="28pt"
 viewBox="0.00 0.00 287.00 28.00" xmlns="http://www.w3.org/2000/svg" xmlns:xlink="http://www.w3.org/1999/xlink">
<g id="graph0" class="graph" transform="scale(1 1) rotate(0) translate(4 24)">
<title>writeCookie</title>
<polygon fill="white" stroke="none" points="-4,4 -4,-24 283,-24 283,4 -4,4"/>
<!-- Node1 -->
<g id="node1" class="node"><title>Node1</title>
<polygon fill="#bfbfbf" stroke="black" points="0,-0.5 0,-19.5 67,-19.5 67,-0.5 0,-0.5"/>
<text text-anchor="middle" x="33.5" y="-7.5" font-family="Helvetica,sans-Serif" font-size="10.00">writeCookie</text>
</g>
<!-- Node2 -->
<g id="node2" class="node"><title>Node2</title>
<g id="a_node2"><a xlink:href="resize_8js.html#a99942f5b5c75445364f2437051090367" target="_top" xlink:title="resizeWidth">
<polygon fill="white" stroke="black" points="103,-0.5 103,-19.5 171,-19.5 171,-0.5 103,-0.5"/>
<text text-anchor="middle" x="137" y="-7.5" font-family="Helvetica,sans-Serif" font-size="10.00">resizeWidth</text>
</a>
</g>
</g>
<!-- Node1&#45;&gt;Node2 -->
<g id="edge1" class="edge"><title>Node1&#45;&gt;Node2</title>
<path fill="none" stroke="midnightblue" d="M77.3065,-10C85.7909,-10 94.579,-10 102.69,-10"/>
<polygon fill="midnightblue" stroke="midnightblue" points="77.174,-6.5001 67.1739,-10 77.1739,-13.5001 77.174,-6.5001"/>
</g>
<!-- Node3 -->
<g id="node3" class="node"><title>Node3</title>
<g id="a_node3"><a xlink:href="resize_8js.html#a4d56aa7aa73d0ddf385565075fdfe271" target="_top" xlink:title="initResizable">
<polygon fill="white" stroke="black" points="207,-0.5 207,-19.5 279,-19.5 279,-0.5 207,-0.5"/>
<text text-anchor="middle" x="243" y="-7.5" font-family="Helvetica,sans-Serif" font-size="10.00">initResizable</text>
</a>
</g>
</g>
<!-- Node2&#45;&gt;Node3 -->
<g id="edge2" class="edge"><title>Node2&#45;&gt;Node3</title>
<path fill="none" stroke="midnightblue" d="M181.376,-10C189.907,-10 198.757,-10 206.972,-10"/>
<polygon fill="midnightblue" stroke="midnightblue" points="181.192,-6.5001 171.192,-10 181.192,-13.5001 181.192,-6.5001"/>
</g>
</g>
</svg>
