<?xml version="1.0" encoding="UTF-8" standalone="no"?>
<!DOCTYPE svg PUBLIC "-//W3C//DTD SVG 1.1//EN"
 "http://www.w3.org/Graphics/SVG/1.1/DTD/svg11.dtd">
<!-- Generated by graphviz version 2.38.0 (20140413.2041)
 -->
<!-- Title: SearchResults Pages: 1 -->
<svg width="189pt" height="66pt"
 viewBox="0.00 0.00 189.00 66.00" xmlns="http://www.w3.org/2000/svg" xmlns:xlink="http://www.w3.org/1999/xlink">
<g id="graph0" class="graph" transform="scale(1 1) rotate(0) translate(4 62)">
<title>SearchResults</title>
<polygon fill="white" stroke="none" points="-4,4 -4,-62 185,-62 185,4 -4,4"/>
<!-- Node1 -->
<g id="node1" class="node"><title>Node1</title>
<polygon fill="#bfbfbf" stroke="black" points="0,-19.5 0,-38.5 80,-38.5 80,-19.5 0,-19.5"/>
<text text-anchor="middle" x="40" y="-26.5" font-family="Helvetica,sans-Serif" font-size="10.00">SearchResults</text>
</g>
<!-- Node2 -->
<g id="node2" class="node"><title>Node2</title>
<g id="a_node2"><a xlink:href="search_8js.html#a196a29bd5a5ee7cd5b485e0753a49e57" target="_top" xlink:title="convertToId">
<polygon fill="white" stroke="black" points="116,-38.5 116,-57.5 181,-57.5 181,-38.5 116,-38.5"/>
<text text-anchor="middle" x="148.5" y="-45.5" font-family="Helvetica,sans-Serif" font-size="10.00">convertToId</text>
</a>
</g>
</g>
<!-- Node1&#45;&gt;Node2 -->
<g id="edge1" class="edge"><title>Node1&#45;&gt;Node2</title>
<path fill="none" stroke="midnightblue" d="M80.0519,-35.967C88.4085,-37.4579 97.2684,-39.0385 105.723,-40.5468"/>
<polygon fill="midnightblue" stroke="midnightblue" points="105.315,-44.0292 115.774,-42.34 106.544,-37.138 105.315,-44.0292"/>
</g>
<!-- Node3 -->
<g id="node3" class="node"><title>Node3</title>
<g id="a_node3"><a xlink:href="jquery_8js.html#a9db6d45a025ad692282fe23e69eeba43" target="_top" xlink:title="if">
<polygon fill="white" stroke="black" points="134,-0.5 134,-19.5 163,-19.5 163,-0.5 134,-0.5"/>
<text text-anchor="middle" x="148.5" y="-7.5" font-family="Helvetica,sans-Serif" font-size="10.00">if</text>
</a>
</g>
</g>
<!-- Node1&#45;&gt;Node3 -->
<g id="edge2" class="edge"><title>Node1&#45;&gt;Node3</title>
<path fill="none" stroke="midnightblue" d="M80.0519,-22.033C94.8005,-19.4018 111.117,-16.4909 124.007,-14.1913"/>
<polygon fill="midnightblue" stroke="midnightblue" points="124.689,-17.6249 133.919,-12.4229 123.459,-10.7337 124.689,-17.6249"/>
</g>
</g>
</svg>
