<?xml version="1.0" encoding="UTF-8" standalone="no"?>
<!DOCTYPE svg PUBLIC "-//W3C//DTD SVG 1.1//EN"
 "http://www.w3.org/Graphics/SVG/1.1/DTD/svg11.dtd">
<!-- Generated by graphviz version 2.38.0 (20140413.2041)
 -->
<!-- Title: init Pages: 1 -->
<svg width="112pt" height="66pt"
 viewBox="0.00 0.00 112.00 66.00" xmlns="http://www.w3.org/2000/svg" xmlns:xlink="http://www.w3.org/1999/xlink">
<g id="graph0" class="graph" transform="scale(1 1) rotate(0) translate(4 62)">
<title>init</title>
<polygon fill="white" stroke="none" points="-4,4 -4,-62 108,-62 108,4 -4,4"/>
<!-- Node1 -->
<g id="node1" class="node"><title>Node1</title>
<polygon fill="#bfbfbf" stroke="black" points="0,-19.5 0,-38.5 29,-38.5 29,-19.5 0,-19.5"/>
<text text-anchor="middle" x="14.5" y="-26.5" font-family="Helvetica,sans-Serif" font-size="10.00">init</text>
</g>
<!-- Node2 -->
<g id="node2" class="node"><title>Node2</title>
<g id="a_node2"><a xlink:href="svgpan_8js.html#aa8d9f2083cafa2af98efafed94901079" target="_top" xlink:title="show">
<polygon fill="white" stroke="black" points="65,-38.5 65,-57.5 104,-57.5 104,-38.5 65,-38.5"/>
<text text-anchor="middle" x="84.5" y="-45.5" font-family="Helvetica,sans-Serif" font-size="10.00">show</text>
</a>
</g>
</g>
<!-- Node1&#45;&gt;Node2 -->
<g id="edge1" class="edge"><title>Node1&#45;&gt;Node2</title>
<path fill="none" stroke="midnightblue" d="M29.2608,-32.8449C36.7047,-34.9248 46.1836,-37.5734 55.128,-40.0725"/>
<polygon fill="midnightblue" stroke="midnightblue" points="54.2895,-43.4722 64.8625,-42.7925 56.1733,-36.7305 54.2895,-43.4722"/>
</g>
<!-- Node3 -->
<g id="node3" class="node"><title>Node3</title>
<g id="a_node3"><a xlink:href="jquery_8js.html#a2335e57f79b6acfb6de59c235dc8a83e" target="_top" xlink:title="p">
<polygon fill="white" stroke="black" points="70,-0.5 70,-19.5 99,-19.5 99,-0.5 70,-0.5"/>
<text text-anchor="middle" x="84.5" y="-7.5" font-family="Helvetica,sans-Serif" font-size="10.00">p</text>
</a>
</g>
</g>
<!-- Node1&#45;&gt;Node3 -->
<g id="edge2" class="edge"><title>Node1&#45;&gt;Node3</title>
<path fill="none" stroke="midnightblue" d="M29.2608,-25.1551C38.1091,-22.6828 49.8327,-19.407 60.1161,-16.5337"/>
<polygon fill="midnightblue" stroke="midnightblue" points="61.0704,-19.9012 69.7597,-13.8392 59.1866,-13.1594 61.0704,-19.9012"/>
</g>
</g>
</svg>
