<?xml version="1.0" encoding="UTF-8" standalone="no"?>
<!DOCTYPE svg PUBLIC "-//W3C//DTD SVG 1.1//EN"
 "http://www.w3.org/Graphics/SVG/1.1/DTD/svg11.dtd">
<!-- Generated by graphviz version 2.38.0 (20140413.2041)
 -->
<!-- Title: show Pages: 1 -->
<svg width="911pt" height="142pt"
 viewBox="0.00 0.00 911.00 142.00" xmlns="http://www.w3.org/2000/svg" xmlns:xlink="http://www.w3.org/1999/xlink">
<g id="graph0" class="graph" transform="scale(1 1) rotate(0) translate(4 138)">
<title>show</title>
<polygon fill="white" stroke="none" points="-4,4 -4,-138 907,-138 907,4 -4,4"/>
<!-- Node1 -->
<g id="node1" class="node"><title>Node1</title>
<polygon fill="#bfbfbf" stroke="black" points="0,-57.5 0,-76.5 39,-76.5 39,-57.5 0,-57.5"/>
<text text-anchor="middle" x="19.5" y="-64.5" font-family="Helvetica,sans-Serif" font-size="10.00">show</text>
</g>
<!-- Node2 -->
<g id="node2" class="node"><title>Node2</title>
<g id="a_node2"><a xlink:href="dynsections_8js.html#a19f577cc1ba571396a85bb1f48bf4df2" target="_top" xlink:title="toggleLevel">
<polygon fill="white" stroke="black" points="75,-114.5 75,-133.5 140,-133.5 140,-114.5 75,-114.5"/>
<text text-anchor="middle" x="107.5" y="-121.5" font-family="Helvetica,sans-Serif" font-size="10.00">toggleLevel</text>
</a>
</g>
</g>
<!-- Node1&#45;&gt;Node2 -->
<g id="edge1" class="edge"><title>Node1&#45;&gt;Node2</title>
<path fill="none" stroke="midnightblue" d="M43.5947,-82.3069C59.0463,-92.5482 78.8982,-105.706 92.1267,-114.474"/>
<polygon fill="midnightblue" stroke="midnightblue" points="45.3578,-79.2765 35.0887,-76.6693 41.4905,-85.1113 45.3578,-79.2765"/>
</g>
<!-- Node3 -->
<g id="node3" class="node"><title>Node3</title>
<g id="a_node3"><a xlink:href="navtree_8js.html#a32f4aac18d03aee747b55dea195731ac" target="_top" xlink:title="getScript">
<polygon fill="white" stroke="black" points="79.5,-38.5 79.5,-57.5 135.5,-57.5 135.5,-38.5 79.5,-38.5"/>
<text text-anchor="middle" x="107.5" y="-45.5" font-family="Helvetica,sans-Serif" font-size="10.00">getScript</text>
</a>
</g>
</g>
<!-- Node1&#45;&gt;Node3 -->
<g id="edge2" class="edge"><title>Node1&#45;&gt;Node3</title>
<path fill="none" stroke="midnightblue" d="M49.1855,-60.6625C58.9261,-58.5105 69.7729,-56.1141 79.3868,-53.9901"/>
<polygon fill="midnightblue" stroke="midnightblue" points="48.1702,-57.3023 39.1607,-62.8773 49.6803,-64.1375 48.1702,-57.3023"/>
</g>
<!-- Node4 -->
<g id="node4" class="node"><title>Node4</title>
<g id="a_node4"><a xlink:href="navtree_8js.html#a4eb1f166c9d93b198e1621a4c787a412" target="_top" xlink:title="expandNode">
<polygon fill="white" stroke="black" points="176,-76.5 176,-95.5 247,-95.5 247,-76.5 176,-76.5"/>
<text text-anchor="middle" x="211.5" y="-83.5" font-family="Helvetica,sans-Serif" font-size="10.00">expandNode</text>
</a>
</g>
</g>
<!-- Node1&#45;&gt;Node4 -->
<g id="edge16" class="edge"><title>Node1&#45;&gt;Node4</title>
<path fill="none" stroke="midnightblue" d="M49.2348,-69.8735C83.1579,-73.2658 139.541,-78.9041 175.85,-82.535"/>
<polygon fill="midnightblue" stroke="midnightblue" points="49.3626,-66.3689 39.0639,-68.8564 48.666,-73.3341 49.3626,-66.3689"/>
</g>
<!-- Node12 -->
<g id="node12" class="node"><title>Node12</title>
<g id="a_node12"><a xlink:href="svgpan_8js.html#a898016c74bec720a57cce798a2ed4ee2" target="_top" xlink:title="init">
<polygon fill="white" stroke="black" points="93,-0.5 93,-19.5 122,-19.5 122,-0.5 93,-0.5"/>
<text text-anchor="middle" x="107.5" y="-7.5" font-family="Helvetica,sans-Serif" font-size="10.00">init</text>
</a>
</g>
</g>
<!-- Node1&#45;&gt;Node12 -->
<g id="edge17" class="edge"><title>Node1&#45;&gt;Node12</title>
<path fill="none" stroke="midnightblue" d="M42.2025,-51.3771C52.1018,-44.3785 64.0373,-36.117 75,-29 80.7853,-25.2442 87.2955,-21.2758 92.8894,-17.9426"/>
<polygon fill="midnightblue" stroke="midnightblue" points="39.8867,-48.7293 33.7701,-57.3802 43.9464,-54.4319 39.8867,-48.7293"/>
</g>
<!-- Node3&#45;&gt;Node4 -->
<g id="edge3" class="edge"><title>Node3&#45;&gt;Node4</title>
<path fill="none" stroke="midnightblue" d="M143.711,-61.118C157.202,-66.1439 172.328,-71.7791 184.769,-76.4141"/>
<polygon fill="midnightblue" stroke="midnightblue" points="144.832,-57.8004 134.239,-57.589 142.388,-64.3599 144.832,-57.8004"/>
</g>
<!-- Node8 -->
<g id="node8" class="node"><title>Node8</title>
<g id="a_node8"><a xlink:href="navtree_8js.html#a0238ad48be94f9f5fd305ea40b8f64ab" target="_top" xlink:title="showNode">
<polygon fill="white" stroke="black" points="570,-57.5 570,-76.5 632,-76.5 632,-57.5 570,-57.5"/>
<text text-anchor="middle" x="601" y="-64.5" font-family="Helvetica,sans-Serif" font-size="10.00">showNode</text>
</a>
</g>
</g>
<!-- Node3&#45;&gt;Node8 -->
<g id="edge14" class="edge"><title>Node3&#45;&gt;Node8</title>
<path fill="none" stroke="midnightblue" d="M146.07,-48C187.817,-48 257.228,-48 317,-48 317,-48 317,-48 418,-48 471.69,-48 533.809,-56.2803 569.83,-61.9083"/>
<polygon fill="midnightblue" stroke="midnightblue" points="145.822,-44.5001 135.822,-48 145.822,-51.5001 145.822,-44.5001"/>
</g>
<!-- Node10 -->
<g id="node10" class="node"><title>Node10</title>
<g id="a_node10"><a xlink:href="navtree_8js.html#a21beb601032fff375100a907f32129a5" target="_top" xlink:title="navTo">
<polygon fill="white" stroke="black" points="762,-47.5 762,-66.5 803,-66.5 803,-47.5 762,-47.5"/>
<text text-anchor="middle" x="782.5" y="-54.5" font-family="Helvetica,sans-Serif" font-size="10.00">navTo</text>
</a>
</g>
</g>
<!-- Node3&#45;&gt;Node10 -->
<g id="edge15" class="edge"><title>Node3&#45;&gt;Node10</title>
<path fill="none" stroke="midnightblue" d="M145.172,-37.1773C186.531,-25.9446 255.985,-10 317,-10 317,-10 317,-10 602,-10 661.757,-10 729.161,-34.6778 761.754,-48.2698"/>
<polygon fill="midnightblue" stroke="midnightblue" points="144.237,-33.8044 135.535,-39.848 146.107,-40.5501 144.237,-33.8044"/>
</g>
<!-- Node5 -->
<g id="node5" class="node"><title>Node5</title>
<g id="a_node5"><a xlink:href="navtree_8js.html#a4d8f406d49520a0cede2e48347a3d7aa" target="_top" xlink:title="createIndent">
<polygon fill="white" stroke="black" points="283,-76.5 283,-95.5 353,-95.5 353,-76.5 283,-76.5"/>
<text text-anchor="middle" x="318" y="-83.5" font-family="Helvetica,sans-Serif" font-size="10.00">createIndent</text>
</a>
</g>
</g>
<!-- Node4&#45;&gt;Node5 -->
<g id="edge4" class="edge"><title>Node4&#45;&gt;Node5</title>
<path fill="none" stroke="midnightblue" d="M257.273,-86C265.853,-86 274.707,-86 282.886,-86"/>
<polygon fill="midnightblue" stroke="midnightblue" points="257.007,-82.5001 247.007,-86 257.007,-89.5001 257.007,-82.5001"/>
</g>
<!-- Node4&#45;&gt;Node8 -->
<g id="edge13" class="edge"><title>Node4&#45;&gt;Node8</title>
<path fill="none" stroke="midnightblue" d="M234.805,-100.844C248.169,-108.833 265.847,-117.874 283,-122 353.003,-138.839 373.32,-128.784 445,-122 485.092,-118.205 496.248,-119.019 534,-105 553.336,-97.8195 573.614,-85.2794 586.507,-76.5781"/>
<polygon fill="midnightblue" stroke="midnightblue" points="236.643,-97.8654 226.303,-95.5551 232.945,-103.809 236.643,-97.8654"/>
</g>
<!-- Node6 -->
<g id="node6" class="node"><title>Node6</title>
<g id="a_node6"><a xlink:href="navtree_8js.html#aa2418b16159e9502e990f97ea6ec26c8" target="_top" xlink:title="newNode">
<polygon fill="white" stroke="black" points="389,-76.5 389,-95.5 445,-95.5 445,-76.5 389,-76.5"/>
<text text-anchor="middle" x="417" y="-83.5" font-family="Helvetica,sans-Serif" font-size="10.00">newNode</text>
</a>
</g>
</g>
<!-- Node5&#45;&gt;Node6 -->
<g id="edge5" class="edge"><title>Node5&#45;&gt;Node6</title>
<path fill="none" stroke="midnightblue" d="M363.267,-86C371.974,-86 380.864,-86 388.804,-86"/>
<polygon fill="midnightblue" stroke="midnightblue" points="363.199,-82.5001 353.199,-86 363.199,-89.5001 363.199,-82.5001"/>
</g>
<!-- Node7 -->
<g id="node7" class="node"><title>Node7</title>
<g id="a_node7"><a xlink:href="navtree_8js.html#a256aa4fbee866e9227f78e82e9f258bb" target="_top" xlink:title="getNode">
<polygon fill="white" stroke="black" points="481,-76.5 481,-95.5 534,-95.5 534,-76.5 481,-76.5"/>
<text text-anchor="middle" x="507.5" y="-83.5" font-family="Helvetica,sans-Serif" font-size="10.00">getNode</text>
</a>
</g>
</g>
<!-- Node6&#45;&gt;Node7 -->
<g id="edge6" class="edge"><title>Node6&#45;&gt;Node7</title>
<path fill="none" stroke="midnightblue" d="M455.269,-86C463.881,-86 472.856,-86 480.843,-86"/>
<polygon fill="midnightblue" stroke="midnightblue" points="455.034,-82.5001 445.034,-86 455.034,-89.5001 455.034,-82.5001"/>
</g>
<!-- Node7&#45;&gt;Node4 -->
<g id="edge7" class="edge"><title>Node7&#45;&gt;Node4</title>
<path fill="none" stroke="midnightblue" d="M471.728,-98.7225C463.11,-101.323 453.816,-103.669 445,-105 373.807,-115.747 354.377,-114.45 283,-105 268.925,-103.137 253.672,-99.267 240.965,-95.5033"/>
<polygon fill="midnightblue" stroke="midnightblue" points="473.012,-101.986 481.465,-95.5995 470.874,-95.3209 473.012,-101.986"/>
</g>
<!-- Node7&#45;&gt;Node8 -->
<g id="edge8" class="edge"><title>Node7&#45;&gt;Node8</title>
<path fill="none" stroke="midnightblue" d="M544.397,-78.5459C552.786,-76.8039 561.639,-74.9656 569.754,-73.2806"/>
<polygon fill="midnightblue" stroke="midnightblue" points="543.555,-75.1461 534.475,-80.6062 544.978,-81.9999 543.555,-75.1461"/>
</g>
<!-- Node9 -->
<g id="node9" class="node"><title>Node9</title>
<g id="a_node9"><a xlink:href="navtree_8js.html#a0e6a2d65190a43246d668bba554243e5" target="_top" xlink:title="gotoNode">
<polygon fill="white" stroke="black" points="668,-47.5 668,-66.5 726,-66.5 726,-47.5 668,-47.5"/>
<text text-anchor="middle" x="697" y="-54.5" font-family="Helvetica,sans-Serif" font-size="10.00">gotoNode</text>
</a>
</g>
</g>
<!-- Node8&#45;&gt;Node9 -->
<g id="edge9" class="edge"><title>Node8&#45;&gt;Node9</title>
<path fill="none" stroke="midnightblue" d="M642.001,-62.7446C650.71,-61.818 659.748,-60.8566 667.881,-59.9913"/>
<polygon fill="midnightblue" stroke="midnightblue" points="641.574,-59.2701 632.001,-63.8084 642.315,-66.2309 641.574,-59.2701"/>
</g>
<!-- Node9&#45;&gt;Node10 -->
<g id="edge10" class="edge"><title>Node9&#45;&gt;Node10</title>
<path fill="none" stroke="midnightblue" d="M736.452,-50.2688C745.284,-50.1681 754.315,-50.4725 761.949,-51.182"/>
<polygon fill="midnightblue" stroke="midnightblue" points="736.16,-46.7758 726.269,-50.573 736.369,-53.7727 736.16,-46.7758"/>
</g>
<!-- Node10&#45;&gt;Node9 -->
<g id="edge11" class="edge"><title>Node10&#45;&gt;Node9</title>
<path fill="none" stroke="midnightblue" d="M751.887,-63.4898C743.556,-63.8565 734.519,-63.8356 726.269,-63.427"/>
<polygon fill="midnightblue" stroke="midnightblue" points="752.205,-66.9765 761.949,-62.818 751.738,-59.9921 752.205,-66.9765"/>
</g>
<!-- Node11 -->
<g id="node11" class="node"><title>Node11</title>
<g id="a_node11"><a xlink:href="navtree_8js.html#aa7b3067e7ef0044572ba86240b1e58ce" target="_top" xlink:title="initNavTree">
<polygon fill="white" stroke="black" points="839,-47.5 839,-66.5 903,-66.5 903,-47.5 839,-47.5"/>
<text text-anchor="middle" x="871" y="-54.5" font-family="Helvetica,sans-Serif" font-size="10.00">initNavTree</text>
</a>
</g>
</g>
<!-- Node10&#45;&gt;Node11 -->
<g id="edge12" class="edge"><title>Node10&#45;&gt;Node11</title>
<path fill="none" stroke="midnightblue" d="M813.151,-57C821.463,-57 830.52,-57 838.913,-57"/>
<polygon fill="midnightblue" stroke="midnightblue" points="813.128,-53.5001 803.128,-57 813.128,-60.5001 813.128,-53.5001"/>
</g>
</g>
</svg>
